<?xml version="1.0" encoding="utf-8"?>
<!-- Generator: Adobe Illustrator 24.0.0, SVG Export Plug-In . SVG Version: 6.00 Build 0)  -->
<svg version="1.1"
	 id="svg8" inkscape:version="0.92.4 (5da689c313, 2019-01-14)" sodipodi:docname="Pulse Heated BEd.svg" xmlns:cc="http://creativecommons.org/ns#" xmlns:dc="http://purl.org/dc/elements/1.1/" xmlns:inkscape="http://www.inkscape.org/namespaces/inkscape" xmlns:rdf="http://www.w3.org/1999/02/22-rdf-syntax-ns#" xmlns:sodipodi="http://sodipodi.sourceforge.net/DTD/sodipodi-0.dtd" xmlns:svg="http://www.w3.org/2000/svg"
	 xmlns="http://www.w3.org/2000/svg" xmlns:xlink="http://www.w3.org/1999/xlink" x="0px" y="0px" viewBox="0 0 737 841.9"
	 style="enable-background:new 0 0 737 841.9;" xml:space="preserve">
<style type="text/css">
	.st0{fill:#4D4D4D;}
	.st1{fill:#686868;}
	.st2{fill:none;stroke:#686868;stroke-width:3;stroke-miterlimit:10;}
	.st3{font-family:'Helvetica-Bold';}
	.st4{font-size:9.0714px;}
</style>
<sodipodi:namedview  bordercolor="#666666" borderopacity="1.0" id="base" inkscape:current-layer="g192" inkscape:cx="407.14286" inkscape:cy="597.00474" inkscape:document-units="mm" inkscape:pageopacity="0.0" inkscape:pageshadow="2" inkscape:window-height="1017" inkscape:window-maximized="1" inkscape:window-width="1920" inkscape:window-x="-8" inkscape:window-y="-8" inkscape:zoom="0.7" pagecolor="#ffffff" showgrid="false">
	</sodipodi:namedview>
<g id="layer1" inkscape:groupmode="layer" inkscape:label="Layer 1">
	<g id="g79" transform="matrix(0.26458333,0,0,0.26458333,-3010.3535,2908.8442)" inkscape:label="0">
		<path id="path27" inkscape:connector-curvature="0" class="st0" d="M-14070.9,27434.1l-6803.2-6803.2"/>
		<path id="path29" inkscape:connector-curvature="0" class="st0" d="M-20874.1,20630.9V-39509"/>
		<path id="path31" inkscape:connector-curvature="0" class="st0" d="M-20874.1-39509l1088.5-1088.5"/>
		<path id="path33" inkscape:connector-curvature="0" class="st0" d="M-19785.6-40597.5V-44244"/>
		<path id="path35" inkscape:connector-curvature="0" class="st0" d="M-19785.6-44244l272.1-272.1"/>
		<path id="path37" inkscape:connector-curvature="0" class="st0" d="M-19513.5-44516.1h7347.4"/>
		<path id="path39" inkscape:connector-curvature="0" class="st0" d="M-12166.1-44516.1l272.1,272.1"/>
		<path id="path41" inkscape:connector-curvature="0" class="st0" d="M-11893.9-44244v3374.4"/>
		<path id="path43" inkscape:connector-curvature="0" class="st0" d="M-11893.9-40869.6l272.1,272.1"/>
		<path id="path45" inkscape:connector-curvature="0" class="st0" d="M-11621.8-40597.5h2993.4"/>
		<path id="path47" inkscape:connector-curvature="0" class="st0" d="M-8628.4-40597.5l1632.8-1632.8"/>
		<path id="path49" inkscape:connector-curvature="0" class="st0" d="M-6995.7-42230.3h3265.5"/>
		<path id="path51" inkscape:connector-curvature="0" class="st0" d="M-3730.1-42230.3l1632.8,1632.8"/>
		<path id="path53" inkscape:connector-curvature="0" class="st0" d="M-2097.4-40597.5h31566.7"/>
		<path id="path55" inkscape:connector-curvature="0" class="st0" d="M29469.3-40597.5l1632.8-1632.8"/>
		<path id="path57" inkscape:connector-curvature="0" class="st0" d="M31102-42230.3h3265.5"/>
		<path id="path59" inkscape:connector-curvature="0" class="st0" d="M34367.5-42230.3l1632.8,1632.8"/>
		<path id="path61" inkscape:connector-curvature="0" class="st0" d="M36000.3-40597.5h11157.2"/>
		<path id="path63" inkscape:connector-curvature="0" class="st0" d="M47157.5-40597.5L48246-39509"/>
		<path id="path65" inkscape:connector-curvature="0" class="st0" d="M48246-39509v60139.9"/>
		<path id="path67" inkscape:connector-curvature="0" class="st0" d="M48246,20630.9l-6803.2,6803.2"/>
		<path id="path69" inkscape:connector-curvature="0" class="st0" d="M41442.8,27434.1h-3265.5"/>
		<path id="path71" inkscape:connector-curvature="0" class="st0" d="M38177.3,27434.1l-1632.8-1632.8"/>
		<path id="path73" inkscape:connector-curvature="0" class="st0" d="M36544.6,25801.3H-9172.7"/>
		<path id="path75" inkscape:connector-curvature="0" class="st0" d="M-9172.7,25801.3l-1632.8,1632.8"/>
		<path id="path77" inkscape:connector-curvature="0" class="st0" d="M-10805.4,27434.1h-3265.5"/>
	</g>
	<g id="g192" transform="matrix(0.26458333,0,0,0.26458333,-32.187417,-34.998188)" inkscape:label="0">
		<path id="path190" inkscape:connector-curvature="0" class="st0" d="M153.4,2852.4V484.7l42.9-42.9V298.2l10.7-10.7h289.3
			l10.7,10.7v132.8v0l10.7,10.7h117.8l64.3-64.3h128.6l64.3,64.3h1242.8h0l64.3-64.3h128.6h0l64.3,64.3h0h439.3l42.9,42.9v2367.7
			l-267.8,267.8h0h-128.6l-64.3-64.3v0H614.1l-64.3,64.3l0,0H421.3L153.4,2852.4z"/>
	</g>
</g>
<g id="ITkoZU_1_">
	
		<image style="overflow:visible;" width="1783" height="862" id="ITkoZU" xlink:href="76C0A5FA89C9A1E6.jpg"  transform="matrix(0.6882 0 0 0.6882 -179.1674 2033.3224)">
	</image>
</g>
<g>
	<g>
		<path class="st1" d="M713.2,118.5h-22.5c-0.4,0-0.7-0.2-0.9-0.5c-0.2-0.3-0.2-0.7,0-1.1L701,97.4c0.2-0.3,0.5-0.5,0.9-0.5h0
			c0.4,0,0.7,0.2,0.9,0.5l11.2,19.5c0.2,0.3,0.2,0.7,0,1.1C713.9,118.3,713.6,118.5,713.2,118.5z M701.5,98.6l-10.4,18
			c-0.2,0.3,0,0.7,0.4,0.7l20.8,0c0.4,0,0.6-0.4,0.4-0.7l-10.4-18C702.2,98.3,701.7,98.3,701.5,98.6z"/>
		<g>
			<g>
				<path class="st1" d="M664.3,107.5c-0.1-0.5,0.2-1.1,0.6-1.4c0.1-0.1,0.2-0.3,0.1-0.4c-0.1-0.1-0.3-0.2-0.4-0.1
					c-0.7,0.4-1,1.1-1,1.9c0,0.5,0.2,1.1,0.4,1.6c0.2,0.4,0.4,0.8,0.4,1.3c0.1,0.5-0.2,1.1-0.6,1.4c-0.2,0.1-0.2,0.3-0.1,0.4
					c0.1,0.2,0.3,0.2,0.4,0.1l0,0c0.7-0.4,1-1.1,1-1.9c0-0.5-0.2-1.1-0.4-1.6C664.5,108.4,664.3,108,664.3,107.5z"/>
				<path class="st1" d="M664,112.4c0,0-0.1,0-0.1,0c-0.1,0-0.2-0.1-0.3-0.2c-0.1-0.2,0-0.5,0.2-0.6c0.4-0.3,0.6-0.7,0.6-1.2
					c0-0.4-0.1-0.9-0.4-1.2c-0.3-0.5-0.4-1.1-0.5-1.6c-0.1-0.8,0.3-1.6,1-2c0.2-0.1,0.5,0,0.6,0.2c0.1,0.2,0,0.5-0.2,0.6
					c-0.4,0.3-0.6,0.7-0.6,1.2l0,0c0,0.4,0.1,0.9,0.4,1.2c0.3,0.5,0.4,1.1,0.5,1.6c0.1,0.8-0.3,1.6-1,2
					C664.1,112.4,664.1,112.4,664,112.4z M664.8,105.7C664.8,105.7,664.8,105.7,664.8,105.7c-0.7,0.4-1,1.1-1,1.8
					c0,0.5,0.2,1,0.4,1.5c0.2,0.4,0.4,0.9,0.4,1.4c0.1,0.6-0.2,1.1-0.7,1.5c-0.1,0-0.1,0.2-0.1,0.2c0,0,0.1,0.1,0.1,0.1
					c0,0,0.1,0,0.1,0c0.6-0.4,1-1,0.9-1.8c0-0.5-0.2-1-0.4-1.5c-0.2-0.4-0.4-0.9-0.4-1.3c-0.1-0.6,0.2-1.2,0.7-1.5
					c0.1-0.1,0.1-0.2,0.1-0.2C664.9,105.8,664.9,105.7,664.8,105.7z"/>
			</g>
			<g>
				<path class="st1" d="M668.7,108.8c-0.2-0.4-0.4-0.8-0.4-1.3c-0.1-0.5,0.2-1.1,0.6-1.4c0.1-0.1,0.2-0.3,0.1-0.4
					c-0.1-0.1-0.3-0.2-0.4-0.1c-0.7,0.4-1,1.1-1,1.9c0,0.5,0.2,1.1,0.4,1.6c0.2,0.4,0.4,0.8,0.4,1.3c0.1,0.5-0.2,1.1-0.6,1.4
					c-0.2,0.1-0.2,0.3-0.1,0.4c0.1,0.2,0.3,0.2,0.4,0.1c0.7-0.4,1-1.1,1-1.9C669.2,109.8,669,109.3,668.7,108.8z"/>
				<path class="st1" d="M668.1,112.4c0,0-0.1,0-0.1,0c-0.1,0-0.2-0.1-0.3-0.2c-0.1-0.2,0-0.5,0.2-0.6c0.4-0.3,0.6-0.7,0.6-1.2
					c0-0.4-0.1-0.9-0.4-1.2c-0.3-0.5-0.4-1.1-0.5-1.6c-0.1-0.8,0.3-1.6,1-2c0.2-0.1,0.5,0,0.6,0.2c0.1,0.2,0,0.5-0.2,0.6
					c-0.4,0.3-0.6,0.7-0.6,1.2c0,0.4,0.1,0.9,0.4,1.2l0,0c0.3,0.5,0.4,1.1,0.5,1.6c0.1,0.8-0.3,1.6-1,2
					C668.2,112.4,668.1,112.4,668.1,112.4z M668.9,105.7C668.9,105.7,668.8,105.7,668.9,105.7c-0.7,0.4-1,1.1-1,1.8
					c0,0.5,0.2,1,0.4,1.5c0.2,0.4,0.4,0.9,0.4,1.4c0.1,0.6-0.2,1.1-0.7,1.5c-0.1,0-0.1,0.2-0.1,0.2c0,0,0.1,0.1,0.1,0.1
					c0,0,0.1,0,0.1,0c0.6-0.4,1-1,0.9-1.8c0-0.5-0.2-1-0.4-1.5c-0.2-0.4-0.4-0.9-0.4-1.4c-0.1-0.6,0.2-1.1,0.7-1.5
					c0.1-0.1,0.1-0.2,0.1-0.2C669,105.8,668.9,105.7,668.9,105.7z"/>
			</g>
			<g>
				<path class="st1" d="M666.3,107.5c-0.1-0.5,0.2-1.1,0.6-1.4c0.1-0.1,0.2-0.3,0.1-0.4c-0.1-0.1-0.3-0.2-0.4-0.1
					c-0.7,0.4-1,1.1-1,1.9c0,0.5,0.2,1.1,0.4,1.6c0.2,0.4,0.4,0.8,0.4,1.3c0.1,0.5-0.2,1.1-0.6,1.4c-0.2,0.1-0.2,0.3-0.1,0.4
					c0.1,0.2,0.3,0.2,0.4,0.1c0.7-0.4,1-1.1,1-1.9c0-0.5-0.2-1.1-0.4-1.6C666.5,108.4,666.4,108,666.3,107.5z"/>
				<path class="st1" d="M666,112.4c-0.2,0-0.3-0.1-0.4-0.2c-0.1-0.2,0-0.5,0.2-0.6c0.4-0.3,0.6-0.7,0.6-1.2c0-0.4-0.1-0.9-0.4-1.2
					c-0.3-0.5-0.4-1.1-0.5-1.6c-0.1-0.8,0.3-1.6,1-2c0.2-0.1,0.5,0,0.6,0.2c0.1,0.2,0,0.5-0.2,0.6c-0.4,0.3-0.6,0.7-0.6,1.2l0,0
					c0,0.4,0.1,0.9,0.4,1.2c0.3,0.5,0.4,1.1,0.5,1.6c0.1,0.8-0.3,1.6-1,2C666.2,112.4,666.1,112.4,666,112.4z M666.8,105.7
					C666.8,105.7,666.8,105.7,666.8,105.7c-0.7,0.4-1,1.1-1,1.8c0,0.5,0.2,1,0.4,1.5c0.2,0.4,0.4,0.9,0.4,1.4
					c0.1,0.6-0.2,1.1-0.7,1.5c-0.1,0-0.1,0.2-0.1,0.2c0,0.1,0.1,0.1,0.2,0.1c0.6-0.4,1-1,0.9-1.8c0-0.5-0.2-1-0.4-1.5
					c-0.2-0.4-0.4-0.9-0.4-1.3c-0.1-0.6,0.2-1.2,0.7-1.5c0.1-0.1,0.1-0.2,0.1-0.2C667,105.8,666.9,105.7,666.8,105.7z"/>
			</g>
		</g>
		<path class="st1" d="M677.7,118.5h-22.5c-0.4,0-0.7-0.2-0.9-0.5c-0.2-0.3-0.2-0.7,0-1.1l11.2-19.5c0.2-0.3,0.5-0.5,0.9-0.5
			c0,0,0,0,0,0c0.4,0,0.7,0.2,0.9,0.5l11.2,19.5c0.2,0.3,0.2,0.7,0,1.1C678.5,118.3,678.1,118.5,677.7,118.5z M666.1,98.6l-10.4,18
			c-0.2,0.3,0,0.7,0.4,0.7l20.8,0c0.4,0,0.6-0.4,0.4-0.7l-10.4-18C666.7,98.3,666.2,98.3,666.1,98.6z"/>
		<path class="st1" d="M670.9,115.6h-9.4c-0.3,0-0.5-0.2-0.5-0.5s0.2-0.5,0.5-0.5h9.4c0.3,0,0.5,0.2,0.5,0.5
			S671.2,115.6,670.9,115.6z"/>
		<g>
			<path class="st1" d="M700.6,104.5c0-0.4,0.2-0.8,0.6-0.8h1.3c0.4,0,0.7,0.3,0.7,0.8l-0.6,7.5c0,0.4-0.3,0.7-0.7,0.7
				c-0.4,0-0.6-0.3-0.7-0.7L700.6,104.5z M701.9,113.5c0.4,0,0.7,0.3,0.7,0.7v0.1c0,0.4-0.3,0.7-0.7,0.7c-0.4,0-0.7-0.3-0.7-0.7
				v-0.1C701.2,113.8,701.5,113.5,701.9,113.5z"/>
		</g>
	</g>
	<g>
		<rect x="11.5" y="128.4" class="st2" width="142.8" height="142.8"/>
		<rect x="154.3" y="128.4" class="st2" width="142.8" height="142.8"/>
		<rect x="297" y="128.4" class="st2" width="142.8" height="142.8"/>
		<rect x="439.8" y="128.4" class="st2" width="142.8" height="142.8"/>
		<rect x="582.5" y="128.4" class="st2" width="142.8" height="142.8"/>
		<rect x="11.5" y="271.2" class="st2" width="142.8" height="142.8"/>
		<polyline class="st2" points="218.9,413.9 154.3,413.9 154.3,271.2 297,271.2 297,413.9 279.8,413.9 		"/>
		<polyline class="st2" points="336.5,413.9 297,413.9 297,271.2 439.8,271.2 439.8,413.9 366.1,413.9 		"/>
		<rect x="439.8" y="271.2" class="st2" width="142.8" height="142.8"/>
		<rect x="582.5" y="271.2" class="st2" width="142.8" height="142.8"/>
		<rect x="11.5" y="413.9" class="st2" width="142.8" height="142.8"/>
		<polyline class="st2" points="284,413.9 297,413.9 297,556.7 154.3,556.7 154.3,413.9 217.9,413.9 		"/>
		<polyline class="st2" points="364.8,413.9 439.8,413.9 439.8,556.7 297,556.7 297,413.9 337.2,413.9 		"/>
		<rect x="439.8" y="413.9" class="st2" width="142.8" height="142.8"/>
		<rect x="582.5" y="413.9" class="st2" width="142.8" height="142.8"/>
		<rect x="11.5" y="556.7" class="st2" width="142.8" height="142.8"/>
		<rect x="154.3" y="556.7" class="st2" width="142.8" height="142.8"/>
		<rect x="297" y="556.7" class="st2" width="142.8" height="142.8"/>
		<rect x="439.8" y="556.7" class="st2" width="142.8" height="142.8"/>
		<rect x="582.5" y="556.7" class="st2" width="142.8" height="142.8"/>
	</g>
	<g id="Header">
		<g>
			<g>
				<g>
					<g>
						<g>
							<path class="st1" d="M340.7,434.7h-0.2v21.7h-16.4v-64.4h15l0.5,6.7h0.2c3.6-4.8,8.7-7.7,14.7-7.7c12.6,0,20,10.6,20,24.9
								c0,14.2-7.9,25.1-20.2,25.1C348.7,441.1,344.1,438.8,340.7,434.7z M358,416.1c0-7.3-2.8-13.2-8.9-13.2s-9,5.7-9,13.4
								c0,7.7,3,13,8.9,13C355,429.3,358,423.6,358,416.1z"/>
						</g>
					</g>
					<g>
						<g>
							<path class="st1" d="M423.8,440.1h-15l-0.4-6.5h-0.2c-2.9,4.8-8.1,7.5-14.1,7.5c-9.7,0-16.5-6.4-16.5-16.3v-32.7h16.4v31
								c0,3.5,2,6.2,6.1,6.2c4.7,0,7.4-3.1,7.4-7.5v-29.6h16.4L423.8,440.1L423.8,440.1z"/>
						</g>
					</g>
					<g>
						<g>
							<path class="st1" d="M429.5,440.1v-68.7h16.4v68.7H429.5z"/>
						</g>
					</g>
					<g>
						<g>
							<path class="st1" d="M449.6,435.1l6.3-10.6c4.9,3.6,11.5,5.5,17.1,5.5c4,0,7.2-0.8,7.2-3.4c0-2.8-3.8-3.5-11.6-4.9
								c-9.2-1.8-17.1-5.4-17.1-14.9c0-8.4,6.2-15.7,21.4-15.7c9.7,0,16.5,2.4,22.1,5.7l-6.1,10.1c-5-3.1-11.3-4.8-16-4.8
								c-3.7,0-5.4,1.3-5.4,2.9c0,2.6,2.9,3.1,10.7,4.7c8.8,1.7,17.9,4.6,17.9,14.8c0,10.1-8.5,16.6-23.2,16.6
								C462.4,441.1,455.5,438.6,449.6,435.1z"/>
						</g>
					</g>
					<g>
						<g>
							<path class="st1" d="M544.6,432.4c-4.3,5.1-10.4,8.7-20.8,8.7c-17.4,0-25.9-10.1-25.9-24.8c0-14.6,8.5-25.2,24.8-25.2
								c15.9,0,23.6,10.3,23.6,23.7c0,2.1-0.2,4.3-0.5,5.8h-31.8c0.7,5.4,3.5,9,10.3,9c3.9,0,7.5-1.4,10.6-5.4L544.6,432.4z
								 M530.8,411.3c-0.6-5.4-2.8-8.8-8.2-8.8c-5.4,0-8,3.3-8.6,8.8H530.8z"/>
						</g>
					</g>
				</g>
				<g>
					<path class="st1" d="M295.3,392.7c-2.8-6.5-6.7-12.3-11.7-17.3c-5-5-10.8-8.9-17.3-11.7c-6.7-2.8-13.9-4.3-21.2-4.3
						c-7.3,0-14.5,1.4-21.2,4.3c-6.5,2.8-12.3,6.7-17.3,11.7s-8.9,10.8-11.7,17.3c-2.8,6.7-4.3,13.9-4.3,21.2s1.4,14.5,4.3,21.2
						c2.8,6.5,6.7,12.3,11.7,17.3s10.8,8.9,17.3,11.7c6.7,2.8,13.9,4.3,21.2,4.3s14.5-1.4,21.2-4.3c6.5-2.8,12.3-6.7,17.3-11.7
						s8.9-10.8,11.7-17.3c2.8-6.7,4.3-13.9,4.3-21.2S298.1,399.4,295.3,392.7z M274.8,414.5l-10.4,18c-1.1,1.9-3.2,3.1-5.4,3.1
						h-20.7l-5.6,9.6c-1.1,2-3.2,3.1-5.3,3.1c-0.6,0-1.1-0.1-1.7-0.2c-2.8-0.7-4.6-3.2-4.6-6v-29.9c0-1.1,0.3-2.2,0.8-3.1l10.8-18.8
						c1.1-1.9,3.2-3.1,5.4-3.1H259c2.2,0,4.3,1.2,5.4,3.1l10.4,18C275.9,410.2,275.9,412.5,274.8,414.5z"/>
					<polygon class="st1" points="242,429.2 258.9,429.2 269.2,411.4 260.8,396.7 					"/>
					<polygon class="st1" points="238.3,393.5 227.5,412.2 227.5,441.5 255.2,393.5 					"/>
				</g>
			</g>
		</g>
	</g>
	<text transform="matrix(1 0 0 1 457.6289 112.5921)" class="st1 st3 st4">CAUTION: HEATED BED. DO NOT TOUCH!</text>
	<g>
		<path class="st1" d="M22.1,706.3c0.5,0.9,0.8,2.2,0.8,3.8c0,1.6-0.3,2.9-0.8,3.8c-0.5,0.9-1.4,1.3-2.7,1.3c-1.3,0-2.2-0.4-2.7-1.3
			c-0.5-0.9-0.8-2.2-0.8-3.8c0-1.6,0.3-2.9,0.8-3.8c0.5-0.9,1.4-1.3,2.7-1.3C20.7,704.9,21.6,705.4,22.1,706.3z M18.2,712.7
			c0.2,0.6,0.6,0.9,1.2,0.9c0.6,0,1-0.3,1.1-0.9c0.2-0.6,0.3-1.5,0.3-2.6c0-1.2-0.1-2.1-0.3-2.7s-0.6-0.9-1.1-0.9
			c-0.6,0-1,0.3-1.2,0.9c-0.2,0.6-0.3,1.5-0.3,2.7C17.9,711.2,18,712.1,18.2,712.7z"/>
	</g>
	<g>
		<path class="st1" d="M148.8,712.3c0.1,0.4,0.2,0.8,0.4,1c0.2,0.2,0.5,0.3,1,0.3c0.5,0,0.9-0.2,1.1-0.5c0.3-0.3,0.4-0.8,0.4-1.3
			c0-0.5-0.1-0.9-0.4-1.3c-0.2-0.4-0.6-0.5-1.1-0.5c-0.2,0-0.4,0-0.6,0.1c-0.3,0.1-0.5,0.3-0.7,0.6l-1.8-0.1l0.7-5.5h5.5v1.7h-4.1
			l-0.4,2.2c0.3-0.2,0.5-0.3,0.7-0.4c0.3-0.1,0.6-0.2,1-0.2c0.8,0,1.5,0.3,2.2,0.8c0.6,0.6,0.9,1.4,0.9,2.4c0,0.9-0.3,1.7-0.9,2.5
			c-0.6,0.7-1.5,1.1-2.7,1.1c-0.9,0-1.7-0.3-2.3-0.8c-0.6-0.5-0.9-1.2-1-2.2H148.8z"/>
		<path class="st1" d="M160.9,706.3c0.5,0.9,0.8,2.2,0.8,3.8c0,1.6-0.3,2.9-0.8,3.8c-0.5,0.9-1.4,1.3-2.7,1.3
			c-1.3,0-2.2-0.4-2.7-1.3c-0.5-0.9-0.8-2.2-0.8-3.8c0-1.6,0.3-2.9,0.8-3.8c0.5-0.9,1.4-1.3,2.7-1.3
			C159.5,704.9,160.4,705.4,160.9,706.3z M157.1,712.7c0.2,0.6,0.6,0.9,1.2,0.9c0.6,0,1-0.3,1.1-0.9c0.2-0.6,0.3-1.5,0.3-2.6
			c0-1.2-0.1-2.1-0.3-2.7c-0.2-0.6-0.6-0.9-1.1-0.9c-0.6,0-1,0.3-1.2,0.9c-0.2,0.6-0.3,1.5-0.3,2.7
			C156.8,711.2,156.9,712.1,157.1,712.7z"/>
	</g>
	<g>
		<path class="st1" d="M285.9,708.1v-1.3c0.6,0,1.1-0.1,1.3-0.1c0.4-0.1,0.7-0.3,1-0.5c0.2-0.2,0.3-0.4,0.4-0.7
			c0.1-0.2,0.1-0.3,0.1-0.4h1.6v10h-2v-6.9H285.9z"/>
		<path class="st1" d="M299.3,706.3c0.5,0.9,0.8,2.2,0.8,3.8c0,1.6-0.3,2.9-0.8,3.8c-0.5,0.9-1.4,1.3-2.7,1.3
			c-1.3,0-2.2-0.4-2.7-1.3c-0.5-0.9-0.8-2.2-0.8-3.8c0-1.6,0.3-2.9,0.8-3.8c0.5-0.9,1.4-1.3,2.7-1.3
			C297.9,704.9,298.8,705.4,299.3,706.3z M295.5,712.7c0.2,0.6,0.6,0.9,1.2,0.9c0.6,0,1-0.3,1.1-0.9c0.2-0.6,0.3-1.5,0.3-2.6
			c0-1.2-0.1-2.1-0.3-2.7c-0.2-0.6-0.6-0.9-1.1-0.9c-0.6,0-1,0.3-1.2,0.9c-0.2,0.6-0.3,1.5-0.3,2.7
			C295.2,711.2,295.3,712.1,295.5,712.7z"/>
		<path class="st1" d="M307.2,706.3c0.5,0.9,0.8,2.2,0.8,3.8c0,1.6-0.3,2.9-0.8,3.8c-0.5,0.9-1.4,1.3-2.7,1.3
			c-1.3,0-2.2-0.4-2.7-1.3c-0.5-0.9-0.8-2.2-0.8-3.8c0-1.6,0.3-2.9,0.8-3.8c0.5-0.9,1.4-1.3,2.7-1.3
			C305.8,704.9,306.6,705.4,307.2,706.3z M303.3,712.7c0.2,0.6,0.6,0.9,1.2,0.9c0.6,0,1-0.3,1.1-0.9c0.2-0.6,0.3-1.5,0.3-2.6
			c0-1.2-0.1-2.1-0.3-2.7c-0.2-0.6-0.6-0.9-1.1-0.9c-0.6,0-1,0.3-1.2,0.9c-0.2,0.6-0.3,1.5-0.3,2.7
			C303,711.2,303.1,712.1,303.3,712.7z"/>
	</g>
	<g>
		<path class="st1" d="M428.4,708.1v-1.3c0.6,0,1.1-0.1,1.3-0.1c0.4-0.1,0.7-0.3,1-0.5c0.2-0.2,0.3-0.4,0.4-0.7
			c0.1-0.2,0.1-0.3,0.1-0.4h1.6v10h-2v-6.9H428.4z"/>
		<path class="st1" d="M437.6,712.3c0.1,0.4,0.2,0.8,0.4,1c0.2,0.2,0.5,0.3,1,0.3c0.5,0,0.9-0.2,1.1-0.5c0.3-0.3,0.4-0.8,0.4-1.3
			c0-0.5-0.1-0.9-0.4-1.3c-0.2-0.4-0.6-0.5-1.1-0.5c-0.2,0-0.4,0-0.6,0.1c-0.3,0.1-0.5,0.3-0.7,0.6l-1.8-0.1l0.7-5.5h5.5v1.7h-4.1
			l-0.4,2.2c0.3-0.2,0.5-0.3,0.7-0.4c0.3-0.1,0.6-0.2,1-0.2c0.8,0,1.5,0.3,2.2,0.8c0.6,0.6,0.9,1.4,0.9,2.4c0,0.9-0.3,1.7-0.9,2.5
			c-0.6,0.7-1.5,1.1-2.7,1.1c-0.9,0-1.7-0.3-2.3-0.8c-0.6-0.5-0.9-1.2-1-2.2H437.6z"/>
		<path class="st1" d="M449.7,706.3c0.5,0.9,0.8,2.2,0.8,3.8c0,1.6-0.3,2.9-0.8,3.8c-0.5,0.9-1.4,1.3-2.7,1.3
			c-1.3,0-2.2-0.4-2.7-1.3c-0.5-0.9-0.8-2.2-0.8-3.8c0-1.6,0.3-2.9,0.8-3.8c0.5-0.9,1.4-1.3,2.7-1.3
			C448.3,704.9,449.2,705.4,449.7,706.3z M445.9,712.7c0.2,0.6,0.6,0.9,1.2,0.9c0.6,0,1-0.3,1.1-0.9c0.2-0.6,0.3-1.5,0.3-2.6
			c0-1.2-0.1-2.1-0.3-2.7c-0.2-0.6-0.6-0.9-1.1-0.9c-0.6,0-1,0.3-1.2,0.9c-0.2,0.6-0.3,1.5-0.3,2.7
			C445.6,711.2,445.7,712.1,445.9,712.7z"/>
	</g>
	<g>
		<path class="st1" d="M571.7,713c0.3-0.7,0.9-1.4,2-2.1c0.9-0.6,1.5-1.1,1.8-1.4c0.4-0.4,0.6-0.9,0.6-1.4c0-0.4-0.1-0.8-0.4-1.1
			c-0.2-0.3-0.6-0.4-1-0.4c-0.6,0-1,0.2-1.2,0.7c-0.1,0.3-0.2,0.7-0.2,1.2h-1.9c0-0.8,0.2-1.5,0.5-2.1c0.5-1,1.5-1.5,2.8-1.5
			c1.1,0,1.9,0.3,2.5,0.9c0.6,0.6,0.9,1.4,0.9,2.3c0,0.7-0.2,1.4-0.7,2c-0.3,0.4-0.8,0.8-1.4,1.3l-0.8,0.6c-0.5,0.3-0.8,0.6-1,0.8
			c-0.2,0.2-0.3,0.3-0.5,0.5h4.4v1.7h-6.8C571.3,714.3,571.4,713.6,571.7,713z"/>
		<path class="st1" d="M585.2,706.3c0.5,0.9,0.8,2.2,0.8,3.8c0,1.6-0.3,2.9-0.8,3.8c-0.5,0.9-1.4,1.3-2.7,1.3
			c-1.3,0-2.2-0.4-2.7-1.3c-0.5-0.9-0.8-2.2-0.8-3.8c0-1.6,0.3-2.9,0.8-3.8c0.5-0.9,1.4-1.3,2.7-1.3
			C583.8,704.9,584.7,705.4,585.2,706.3z M581.4,712.7c0.2,0.6,0.6,0.9,1.2,0.9c0.6,0,1-0.3,1.1-0.9c0.2-0.6,0.3-1.5,0.3-2.6
			c0-1.2-0.1-2.1-0.3-2.7s-0.6-0.9-1.1-0.9c-0.6,0-1,0.3-1.2,0.9c-0.2,0.6-0.3,1.5-0.3,2.7C581.1,711.2,581.2,712.1,581.4,712.7z"/>
		<path class="st1" d="M593.1,706.3c0.5,0.9,0.8,2.2,0.8,3.8c0,1.6-0.3,2.9-0.8,3.8c-0.5,0.9-1.4,1.3-2.7,1.3
			c-1.3,0-2.2-0.4-2.7-1.3c-0.5-0.9-0.8-2.2-0.8-3.8c0-1.6,0.3-2.9,0.8-3.8c0.5-0.9,1.4-1.3,2.7-1.3
			C591.7,704.9,592.5,705.4,593.1,706.3z M589.2,712.7c0.2,0.6,0.6,0.9,1.2,0.9c0.6,0,1-0.3,1.1-0.9c0.2-0.6,0.3-1.5,0.3-2.6
			c0-1.2-0.1-2.1-0.3-2.7c-0.2-0.6-0.6-0.9-1.1-0.9c-0.6,0-1,0.3-1.2,0.9c-0.2,0.6-0.3,1.5-0.3,2.7
			C588.9,711.2,589,712.1,589.2,712.7z"/>
	</g>
	<g>
		<path class="st1" d="M17.9,571.1c0.1,0.4,0.2,0.8,0.4,1c0.2,0.2,0.5,0.3,1,0.3c0.5,0,0.9-0.2,1.1-0.5c0.3-0.3,0.4-0.8,0.4-1.3
			c0-0.5-0.1-0.9-0.4-1.3c-0.2-0.4-0.6-0.5-1.1-0.5c-0.2,0-0.4,0-0.6,0.1c-0.3,0.1-0.5,0.3-0.7,0.6l-1.8-0.1l0.7-5.5h5.5v1.7h-4.1
			l-0.4,2.2c0.3-0.2,0.5-0.3,0.7-0.4c0.3-0.1,0.6-0.2,1-0.2c0.8,0,1.5,0.3,2.2,0.8c0.6,0.6,0.9,1.4,0.9,2.4c0,0.9-0.3,1.7-0.9,2.5
			c-0.6,0.7-1.5,1.1-2.7,1.1c-0.9,0-1.7-0.3-2.3-0.8c-0.6-0.5-0.9-1.2-1-2.2H17.9z"/>
		<path class="st1" d="M30,565c0.5,0.9,0.8,2.2,0.8,3.8c0,1.6-0.3,2.9-0.8,3.8c-0.5,0.9-1.4,1.3-2.7,1.3c-1.3,0-2.2-0.4-2.7-1.3
			c-0.5-0.9-0.8-2.2-0.8-3.8c0-1.6,0.3-2.9,0.8-3.8c0.5-0.9,1.4-1.3,2.7-1.3C28.6,563.7,29.5,564.1,30,565z M26.1,571.5
			c0.2,0.6,0.6,0.9,1.2,0.9c0.6,0,1-0.3,1.1-0.9c0.2-0.6,0.3-1.5,0.3-2.6c0-1.2-0.1-2.1-0.3-2.7s-0.6-0.9-1.1-0.9
			c-0.6,0-1,0.3-1.2,0.9c-0.2,0.6-0.3,1.5-0.3,2.7C25.8,570,25.9,570.9,26.1,571.5z"/>
	</g>
	<g>
		<path class="st1" d="M15.9,423.7v-1.3c0.6,0,1.1-0.1,1.3-0.1c0.4-0.1,0.7-0.3,1-0.5c0.2-0.2,0.3-0.4,0.4-0.7
			c0.1-0.2,0.1-0.3,0.1-0.4h1.6v10h-2v-6.9H15.9z"/>
		<path class="st1" d="M29.4,421.9c0.5,0.9,0.8,2.2,0.8,3.8c0,1.6-0.3,2.9-0.8,3.8c-0.5,0.9-1.4,1.3-2.7,1.3c-1.3,0-2.2-0.4-2.7-1.3
			c-0.5-0.9-0.8-2.2-0.8-3.8c0-1.6,0.3-2.9,0.8-3.8c0.5-0.9,1.4-1.3,2.7-1.3C28,420.5,28.8,421,29.4,421.9z M25.5,428.3
			c0.2,0.6,0.6,0.9,1.2,0.9c0.6,0,1-0.3,1.1-0.9c0.2-0.6,0.3-1.5,0.3-2.6c0-1.2-0.1-2.1-0.3-2.7s-0.6-0.9-1.1-0.9
			c-0.6,0-1,0.3-1.2,0.9c-0.2,0.6-0.3,1.5-0.3,2.7C25.2,426.8,25.3,427.7,25.5,428.3z"/>
		<path class="st1" d="M37.2,421.9c0.5,0.9,0.8,2.2,0.8,3.8c0,1.6-0.3,2.9-0.8,3.8c-0.5,0.9-1.4,1.3-2.7,1.3c-1.3,0-2.2-0.4-2.7-1.3
			c-0.5-0.9-0.8-2.2-0.8-3.8c0-1.6,0.3-2.9,0.8-3.8c0.5-0.9,1.4-1.3,2.7-1.3C35.8,420.5,36.7,421,37.2,421.9z M33.4,428.3
			c0.2,0.6,0.6,0.9,1.2,0.9c0.6,0,1-0.3,1.1-0.9c0.2-0.6,0.3-1.5,0.3-2.6c0-1.2-0.1-2.1-0.3-2.7s-0.6-0.9-1.1-0.9
			c-0.6,0-1,0.3-1.2,0.9c-0.2,0.6-0.3,1.5-0.3,2.7C33.1,426.8,33.2,427.7,33.4,428.3z"/>
	</g>
	<g>
		<path class="st1" d="M15.9,281.3V280c0.6,0,1.1-0.1,1.3-0.1c0.4-0.1,0.7-0.3,1-0.5c0.2-0.2,0.3-0.4,0.4-0.7
			c0.1-0.2,0.1-0.3,0.1-0.4h1.6v10h-2v-6.9H15.9z"/>
		<path class="st1" d="M25.1,285.5c0.1,0.4,0.2,0.8,0.4,1s0.5,0.3,1,0.3c0.5,0,0.9-0.2,1.1-0.5c0.3-0.3,0.4-0.8,0.4-1.3
			c0-0.5-0.1-0.9-0.4-1.3c-0.2-0.4-0.6-0.5-1.1-0.5c-0.2,0-0.4,0-0.6,0.1c-0.3,0.1-0.5,0.3-0.7,0.6l-1.8-0.1l0.7-5.5h5.5v1.7h-4.1
			l-0.4,2.2c0.3-0.2,0.5-0.3,0.7-0.4c0.3-0.1,0.6-0.2,1-0.2c0.8,0,1.5,0.3,2.2,0.8c0.6,0.6,0.9,1.4,0.9,2.4c0,0.9-0.3,1.7-0.9,2.5
			c-0.6,0.7-1.5,1.1-2.7,1.1c-0.9,0-1.7-0.3-2.3-0.8c-0.6-0.5-0.9-1.2-1-2.2H25.1z"/>
		<path class="st1" d="M37.2,279.5c0.5,0.9,0.8,2.2,0.8,3.8c0,1.6-0.3,2.9-0.8,3.8c-0.5,0.9-1.4,1.3-2.7,1.3c-1.3,0-2.2-0.4-2.7-1.3
			c-0.5-0.9-0.8-2.2-0.8-3.8c0-1.6,0.3-2.9,0.8-3.8c0.5-0.9,1.4-1.3,2.7-1.3C35.8,278.2,36.7,278.6,37.2,279.5z M33.4,286
			c0.2,0.6,0.6,0.9,1.2,0.9c0.6,0,1-0.3,1.1-0.9c0.2-0.6,0.3-1.5,0.3-2.6c0-1.2-0.1-2.1-0.3-2.7s-0.6-0.9-1.1-0.9
			c-0.6,0-1,0.3-1.2,0.9c-0.2,0.6-0.3,1.5-0.3,2.7C33.1,284.5,33.2,285.4,33.4,286z"/>
	</g>
	<g>
		<path class="st1" d="M16.4,143.5c0.3-0.7,0.9-1.4,2-2.1c0.9-0.6,1.5-1.1,1.8-1.4c0.4-0.4,0.6-0.9,0.6-1.4c0-0.4-0.1-0.8-0.4-1.1
			c-0.2-0.3-0.6-0.4-1-0.4c-0.6,0-1,0.2-1.2,0.7c-0.1,0.3-0.2,0.7-0.2,1.2H16c0-0.8,0.2-1.5,0.5-2.1c0.5-1,1.5-1.5,2.8-1.5
			c1.1,0,1.9,0.3,2.5,0.9c0.6,0.6,0.9,1.4,0.9,2.3c0,0.7-0.2,1.4-0.7,2c-0.3,0.4-0.8,0.8-1.4,1.3l-0.8,0.6c-0.5,0.3-0.8,0.6-1,0.8
			c-0.2,0.2-0.3,0.3-0.5,0.5h4.4v1.7h-6.8C15.9,144.7,16.1,144.1,16.4,143.5z"/>
		<path class="st1" d="M29.9,136.7c0.5,0.9,0.8,2.2,0.8,3.8c0,1.6-0.3,2.9-0.8,3.8c-0.5,0.9-1.4,1.3-2.7,1.3c-1.3,0-2.2-0.4-2.7-1.3
			c-0.5-0.9-0.8-2.2-0.8-3.8c0-1.6,0.3-2.9,0.8-3.8c0.5-0.9,1.4-1.3,2.7-1.3C28.5,135.4,29.4,135.9,29.9,136.7z M26.1,143.2
			c0.2,0.6,0.6,0.9,1.2,0.9c0.6,0,1-0.3,1.1-0.9s0.3-1.5,0.3-2.6c0-1.2-0.1-2.1-0.3-2.7s-0.6-0.9-1.1-0.9c-0.6,0-1,0.3-1.2,0.9
			c-0.2,0.6-0.3,1.5-0.3,2.7C25.8,141.7,25.9,142.6,26.1,143.2z"/>
		<path class="st1" d="M37.7,136.7c0.5,0.9,0.8,2.2,0.8,3.8c0,1.6-0.3,2.9-0.8,3.8c-0.5,0.9-1.4,1.3-2.7,1.3c-1.3,0-2.2-0.4-2.7-1.3
			c-0.5-0.9-0.8-2.2-0.8-3.8c0-1.6,0.3-2.9,0.8-3.8c0.5-0.9,1.4-1.3,2.7-1.3C36.3,135.4,37.2,135.9,37.7,136.7z M33.9,143.2
			c0.2,0.6,0.6,0.9,1.2,0.9c0.6,0,1-0.3,1.1-0.9s0.3-1.5,0.3-2.6c0-1.2-0.1-2.1-0.3-2.7s-0.6-0.9-1.1-0.9c-0.6,0-1,0.3-1.2,0.9
			c-0.2,0.6-0.3,1.5-0.3,2.7C33.6,141.7,33.7,142.6,33.9,143.2z"/>
	</g>
	<g>
		<path class="st1" d="M703.2,713c0.3-0.7,0.9-1.4,2-2.1c0.9-0.6,1.5-1.1,1.8-1.4c0.4-0.4,0.6-0.9,0.6-1.4c0-0.4-0.1-0.8-0.4-1.1
			c-0.2-0.3-0.6-0.4-1-0.4c-0.6,0-1,0.2-1.2,0.7c-0.1,0.3-0.2,0.7-0.2,1.2h-1.9c0-0.8,0.2-1.5,0.5-2.1c0.5-1,1.5-1.5,2.8-1.5
			c1.1,0,1.9,0.3,2.5,0.9c0.6,0.6,0.9,1.4,0.9,2.3c0,0.7-0.2,1.4-0.7,2c-0.3,0.4-0.8,0.8-1.4,1.3l-0.8,0.6c-0.5,0.3-0.8,0.6-1,0.8
			c-0.2,0.2-0.3,0.3-0.5,0.5h4.4v1.7h-6.8C702.7,714.3,702.9,713.6,703.2,713z"/>
		<path class="st1" d="M712.5,712.3c0.1,0.4,0.2,0.8,0.4,1c0.2,0.2,0.5,0.3,1,0.3c0.5,0,0.9-0.2,1.1-0.5c0.3-0.3,0.4-0.8,0.4-1.3
			c0-0.5-0.1-0.9-0.4-1.3c-0.2-0.4-0.6-0.5-1.1-0.5c-0.2,0-0.4,0-0.6,0.1c-0.3,0.1-0.5,0.3-0.7,0.6l-1.8-0.1l0.7-5.5h5.5v1.7h-4.1
			l-0.4,2.2c0.3-0.2,0.5-0.3,0.7-0.4c0.3-0.1,0.6-0.2,1-0.2c0.8,0,1.5,0.3,2.2,0.8c0.6,0.6,0.9,1.4,0.9,2.4c0,0.9-0.3,1.7-0.9,2.5
			c-0.6,0.7-1.5,1.1-2.7,1.1c-0.9,0-1.7-0.3-2.3-0.8c-0.6-0.5-0.9-1.2-1-2.2H712.5z"/>
		<path class="st1" d="M724.5,706.3c0.5,0.9,0.8,2.2,0.8,3.8c0,1.6-0.3,2.9-0.8,3.8c-0.5,0.9-1.4,1.3-2.7,1.3
			c-1.3,0-2.2-0.4-2.7-1.3c-0.5-0.9-0.8-2.2-0.8-3.8c0-1.6,0.3-2.9,0.8-3.8c0.5-0.9,1.4-1.3,2.7-1.3
			C723.1,704.9,724,705.4,724.5,706.3z M720.7,712.7c0.2,0.6,0.6,0.9,1.2,0.9c0.6,0,1-0.3,1.1-0.9c0.2-0.6,0.3-1.5,0.3-2.6
			c0-1.2-0.1-2.1-0.3-2.7s-0.6-0.9-1.1-0.9c-0.6,0-1,0.3-1.2,0.9c-0.2,0.6-0.3,1.5-0.3,2.7C720.4,711.2,720.5,712.1,720.7,712.7z"/>
	</g>
	<g>
		<g>
			<path class="st1" d="M261.2,110h2.8c0.4,0,0.8,0.3,0.8,1c0,0.6-0.4,0.9-0.8,0.9h-4.9v1.6h5.4c1.1,0,2.2-0.7,2.2-2.6
				c0-1.9-1.1-2.6-2.2-2.6h-2.8c-0.3,0-0.8-0.3-0.8-1c0-0.7,0.5-0.9,0.8-0.9h4.8v-1.6h-5.3c-1.3,0-2.3,0.9-2.3,2.6
				C259,109.1,260,110,261.2,110"/>
			<path class="st1" d="M254.6,106.5h1c0.6,0,0.9,0.3,0.9,0.9v1.4h1.9v-1.8c0-0.9-0.6-2.1-2.4-2.1h-1.5H254h-1.3v8.8h1.9V106.5z"/>
			<path class="st1" d="M248.7,113.6h3.2v-1.7h-3c-1.2,0-1.8-0.9-2-1.9h5v-1.7h-5c0.2-1,0.9-1.9,2-1.9h3v-1.7h-3
				c-3.2,0-4.1,2.5-4.1,4.4C244.7,111.2,245.6,113.6,248.7,113.6"/>
			<path class="st1" d="M238.9,109.8h2.6c0.6,0,0.9,0.3,0.9,0.9v2.9h1.9v-3.3c0-0.9-0.6-2.1-2.4-2.1h-0.9l3.8-3.3h-2.5l-3.6,3.1
				v-6.2H237v11.8h1.9V109.8z"/>
			<path class="st1" d="M233.2,113.6h3.2v-1.7h-3c-1.5,0-2.1-1.4-2.1-2.7c0-1.4,0.6-2.7,2.1-2.7h3v-1.7h-3c-3.2,0-4.1,2.5-4.1,4.4
				C229.2,111.2,230.1,113.6,233.2,113.6"/>
			<path class="st1" d="M223.5,108.1c-2.2,0-3.1,1.3-3.1,2.7c0,1.4,1,2.7,3.2,2.7h3.1h0.2h1.7v-5.9c0-1.5-0.6-2.8-2.8-2.8h-5v1.7
				h4.7c0.6,0,1.1,0.5,1.1,1.1v0.5H223.5z M226.6,111.9h-3.1c-0.6,0-1.1-0.6-1.1-1.1c0-0.5,0.4-1.1,1-1.1h3.2V111.9z"/>
			<polygon class="st1" points="211.6,108.4 217.7,108.4 217.7,113.6 219.6,113.6 219.6,101.7 217.7,101.7 217.7,106.7 211.6,106.7 
				211.6,101.7 209.7,101.7 209.7,113.6 211.6,113.6 			"/>
			<path class="st1" d="M204.9,107h1c0.5,0,0.7,0.4,0.7,0.6v1.2h2.5v-1.8c0-0.9-1-2.1-2.5-2.1h-1.7h-1.5h-1.2v8.8h2.7V107z"/>
			<path class="st1" d="M197.7,113.6h3.6v-2.2h-3.6c-0.7,0-1.1-0.5-1.4-1.1h5v-2.2h-5c0.2-0.7,0.7-1.2,1.4-1.2h3.6v-2.2h-3.7
				c-3.1,0-4.1,2.5-4.1,4.4C193.5,111.1,194.5,113.6,197.7,113.6"/>
			<path class="st1" d="M182.7,111c0,1.2,1,2.6,2.6,2.6h2.2v-2.2h-1.4c-0.5,0-0.8-0.2-0.8-0.8v-3.8h3.3v4.1c0,1.2,1,2.6,2.6,2.6h2.2
				v-2.2h-1.4c-0.5,0-0.8-0.2-0.8-0.8v-3.8h2v-2h-2v-3.1h-2.7v3.1h-3.3v-3.1h-2.7v3.1h-1.4v2h1.4V111z"/>
			<path class="st1" d="M175.3,108.1c-2.2,0-3,1.3-3,2.8c0,1.5,0.9,2.7,3.1,2.7h3.1h0.4h2.1v-5.9c0-1.5-1-2.9-3-2.9h-5.2v2h4.4
				c0.6,0,1.2,0.5,1.2,1.2v0.1H175.3z M178.4,111.4h-2.9c-0.4,0-0.7-0.3-0.7-0.7c0-0.3,0.2-0.6,0.6-0.6h3V111.4z"/>
			<polygon class="st1" points="160.8,106.3 163.3,113.6 163.8,113.6 165.9,113.6 166.4,113.6 168.8,106.3 168.8,113.6 171.5,113.6 
				171.5,101.7 168.8,101.7 167.8,101.7 164.8,110.5 161.9,101.7 160.8,101.7 158.1,101.7 158.1,113.6 160.8,113.6 			"/>
		</g>
	</g>
</g>
<g>
	<path class="st1" d="M301.6,742.2l1.2,4.9l1.2-4.9h1.2l1.2,4.9l1.3-4.9h1.1l-1.8,6.3h-1.1l-1.3-4.9l-1.2,4.9h-1.1l-1.8-6.3H301.6z"
		/>
	<path class="st1" d="M310.3,742.2l1.2,4.9l1.2-4.9h1.2l1.2,4.9l1.3-4.9h1.1l-1.8,6.3h-1.1l-1.3-4.9l-1.2,4.9H311l-1.8-6.3H310.3z"
		/>
	<path class="st1" d="M319,742.2l1.2,4.9l1.2-4.9h1.2l1.2,4.9l1.3-4.9h1.1l-1.8,6.3h-1.1l-1.3-4.9l-1.2,4.9h-1.1l-1.8-6.3H319z"/>
	<path class="st1" d="M326.7,747.2h1.2v1.3h-1.2V747.2z"/>
	<path class="st1" d="M337.8,742.1c0.3,0.1,0.5,0.3,0.7,0.6c0.2,0.2,0.3,0.5,0.4,0.8c0,0.2,0.1,0.5,0.1,0.9l0,4h-1.7v-4.1
		c0-0.2,0-0.4-0.1-0.6c-0.1-0.3-0.4-0.4-0.8-0.4c-0.5,0-0.8,0.2-1,0.6c-0.1,0.2-0.1,0.4-0.1,0.7v3.8h-1.7v-3.8c0-0.4,0-0.7-0.1-0.8
		c-0.1-0.3-0.4-0.5-0.8-0.5c-0.5,0-0.8,0.2-1,0.5c-0.1,0.2-0.1,0.4-0.1,0.8v3.8h-1.7v-6.4h1.6v0.9c0.2-0.3,0.4-0.6,0.6-0.7
		c0.3-0.2,0.7-0.4,1.3-0.4c0.5,0,0.9,0.1,1.2,0.3c0.2,0.2,0.4,0.5,0.6,0.8c0.2-0.4,0.5-0.7,0.8-0.8c0.3-0.2,0.7-0.3,1.1-0.3
		C337.2,741.9,337.5,742,337.8,742.1z"/>
	<path class="st1" d="M343,744.6c0.3,0,0.5-0.1,0.7-0.1c0.2-0.1,0.4-0.3,0.4-0.5c0-0.3-0.1-0.4-0.3-0.5c-0.2-0.1-0.5-0.1-0.8-0.1
		c-0.4,0-0.7,0.1-0.8,0.3c-0.1,0.1-0.2,0.3-0.2,0.6h-1.6c0-0.6,0.2-1,0.5-1.4c0.4-0.6,1.2-0.8,2.3-0.8c0.7,0,1.3,0.1,1.9,0.4
		c0.5,0.3,0.8,0.8,0.8,1.6v2.9c0,0.2,0,0.4,0,0.7c0,0.2,0,0.4,0.1,0.4s0.1,0.1,0.2,0.2v0.2h-1.8c-0.1-0.1-0.1-0.2-0.1-0.4
		s0-0.2,0-0.4c-0.2,0.2-0.5,0.5-0.8,0.6c-0.4,0.2-0.8,0.3-1.2,0.3c-0.6,0-1.1-0.2-1.4-0.5c-0.4-0.3-0.6-0.8-0.6-1.4
		c0-0.8,0.3-1.4,0.9-1.7c0.3-0.2,0.8-0.3,1.5-0.4L343,744.6z M344,745.4c-0.1,0.1-0.2,0.1-0.3,0.2c-0.1,0-0.3,0.1-0.4,0.1l-0.4,0.1
		c-0.4,0.1-0.6,0.1-0.8,0.2c-0.3,0.2-0.4,0.4-0.4,0.7c0,0.3,0.1,0.5,0.2,0.6c0.2,0.1,0.4,0.2,0.6,0.2c0.4,0,0.7-0.1,1-0.3
		c0.3-0.2,0.5-0.6,0.5-1.2V745.4z"/>
	<path class="st1" d="M346.5,743.3v-1.2h0.9v-1.8h1.7v1.8h1v1.2h-1v3.4c0,0.3,0,0.4,0.1,0.5s0.3,0.1,0.6,0.1c0.1,0,0.1,0,0.2,0
		s0.1,0,0.2,0v1.2l-0.8,0c-0.8,0-1.3-0.1-1.6-0.4c-0.2-0.2-0.3-0.5-0.3-0.9v-3.9H346.5z"/>
	<path class="st1" d="M350.5,743.3v-1.2h0.9v-1.8h1.7v1.8h1v1.2h-1v3.4c0,0.3,0,0.4,0.1,0.5s0.3,0.1,0.6,0.1c0.1,0,0.1,0,0.2,0
		s0.1,0,0.2,0v1.2l-0.8,0c-0.8,0-1.3-0.1-1.6-0.4c-0.2-0.2-0.3-0.5-0.3-0.9v-3.9H350.5z"/>
	<path class="st1" d="M359.3,742.2c0.4,0.2,0.8,0.5,1.1,0.9c0.3,0.4,0.4,0.8,0.5,1.3c0,0.3,0.1,0.7,0.1,1.3h-4.7
		c0,0.6,0.2,1.1,0.7,1.3c0.3,0.2,0.6,0.2,0.9,0.2c0.4,0,0.7-0.1,0.9-0.3c0.1-0.1,0.2-0.3,0.3-0.4h1.7c0,0.4-0.3,0.8-0.6,1.2
		c-0.6,0.6-1.4,0.9-2.4,0.9c-0.9,0-1.6-0.3-2.2-0.8c-0.6-0.5-1-1.4-1-2.6c0-1.1,0.3-2,0.9-2.5c0.6-0.6,1.3-0.9,2.3-0.9
		C358.4,741.9,358.9,742,359.3,742.2z M356.8,743.6c-0.2,0.2-0.4,0.6-0.4,1h2.9c0-0.4-0.2-0.8-0.4-1c-0.3-0.2-0.6-0.3-1-0.3
		C357.4,743.3,357.1,743.4,356.8,743.6z"/>
	<path class="st1" d="M365.4,741.9c0,0,0.1,0,0.1,0v1.7c-0.1,0-0.2,0-0.3,0s-0.1,0-0.2,0c-0.7,0-1.1,0.2-1.4,0.7
		c-0.1,0.2-0.2,0.6-0.2,1.1v3.1h-1.7v-6.4h1.6v1.1c0.3-0.4,0.5-0.7,0.7-0.9C364.4,742.1,364.8,741.9,365.4,741.9
		C365.3,741.9,365.4,741.9,365.4,741.9z"/>
	<path class="st1" d="M371.1,742.1c0.3,0.1,0.6,0.3,0.8,0.6c0.2,0.2,0.3,0.5,0.3,0.7c0,0.3,0.1,0.7,0.1,1.2v3.8h-1.7v-3.9
		c0-0.3-0.1-0.6-0.2-0.8c-0.2-0.3-0.4-0.4-0.9-0.4c-0.4,0-0.8,0.1-1,0.4c-0.2,0.3-0.3,0.7-0.3,1.3v3.5h-1.7v-8.6h1.7v3
		c0.2-0.4,0.5-0.6,0.8-0.8c0.3-0.1,0.7-0.2,1-0.2C370.4,741.9,370.8,742,371.1,742.1z"/>
	<path class="st1" d="M376.4,744.6c0.3,0,0.5-0.1,0.7-0.1c0.2-0.1,0.4-0.3,0.4-0.5c0-0.3-0.1-0.4-0.3-0.5c-0.2-0.1-0.5-0.1-0.8-0.1
		c-0.4,0-0.7,0.1-0.8,0.3c-0.1,0.1-0.2,0.3-0.2,0.6h-1.6c0-0.6,0.2-1,0.5-1.4c0.4-0.6,1.2-0.8,2.3-0.8c0.7,0,1.3,0.1,1.9,0.4
		c0.5,0.3,0.8,0.8,0.8,1.6v2.9c0,0.2,0,0.4,0,0.7c0,0.2,0,0.4,0.1,0.4s0.1,0.1,0.2,0.2v0.2h-1.8c-0.1-0.1-0.1-0.2-0.1-0.4
		s0-0.2,0-0.4c-0.2,0.2-0.5,0.5-0.8,0.6c-0.4,0.2-0.8,0.3-1.2,0.3c-0.6,0-1.1-0.2-1.4-0.5c-0.4-0.3-0.6-0.8-0.6-1.4
		c0-0.8,0.3-1.4,0.9-1.7c0.3-0.2,0.8-0.3,1.5-0.4L376.4,744.6z M377.4,745.4c-0.1,0.1-0.2,0.1-0.3,0.2c-0.1,0-0.3,0.1-0.4,0.1
		l-0.4,0.1c-0.4,0.1-0.6,0.1-0.8,0.2c-0.3,0.2-0.4,0.4-0.4,0.7c0,0.3,0.1,0.5,0.2,0.6c0.2,0.1,0.4,0.2,0.6,0.2c0.4,0,0.7-0.1,1-0.3
		c0.3-0.2,0.5-0.6,0.5-1.2V745.4z"/>
	<path class="st1" d="M384.3,744.4c0-0.2-0.1-0.5-0.2-0.6c-0.2-0.3-0.5-0.4-0.9-0.4c-0.6,0-0.9,0.3-1.2,0.8
		c-0.1,0.3-0.2,0.7-0.2,1.2c0,0.5,0.1,0.8,0.2,1.1c0.2,0.5,0.6,0.8,1.1,0.8c0.4,0,0.7-0.1,0.8-0.3c0.2-0.2,0.3-0.5,0.3-0.8h1.7
		c0,0.5-0.2,1-0.6,1.4c-0.5,0.7-1.3,1.1-2.3,1.1s-1.8-0.3-2.3-0.9c-0.5-0.6-0.7-1.4-0.7-2.4c0-1.1,0.3-1.9,0.8-2.6
		c0.5-0.6,1.3-0.9,2.2-0.9c0.8,0,1.5,0.2,2,0.5c0.5,0.4,0.8,1,0.9,1.9H384.3z"/>
	<path class="st1" d="M387.2,739.9h1.6v4.7l2.1-2.4h2.1l-2.3,2.4l2.4,4h-2l-1.5-2.7l-0.7,0.7v2h-1.6V739.9z"/>
	<path class="st1" d="M398,742.2c0.4,0.2,0.8,0.5,1.1,0.9c0.3,0.4,0.4,0.8,0.5,1.3c0,0.3,0.1,0.7,0.1,1.3H395c0,0.6,0.2,1.1,0.7,1.3
		c0.3,0.2,0.6,0.2,0.9,0.2c0.4,0,0.7-0.1,0.9-0.3c0.1-0.1,0.2-0.3,0.3-0.4h1.7c0,0.4-0.3,0.8-0.6,1.2c-0.6,0.6-1.4,0.9-2.4,0.9
		c-0.9,0-1.6-0.3-2.2-0.8c-0.6-0.5-1-1.4-1-2.6c0-1.1,0.3-2,0.9-2.5c0.6-0.6,1.3-0.9,2.3-0.9C397.1,741.9,397.6,742,398,742.2z
		 M395.5,743.6c-0.2,0.2-0.4,0.6-0.4,1h2.9c0-0.4-0.2-0.8-0.4-1c-0.3-0.2-0.6-0.3-1-0.3C396.1,743.3,395.8,743.4,395.5,743.6z"/>
	<path class="st1" d="M404.1,741.9c0,0,0.1,0,0.1,0v1.7c-0.1,0-0.2,0-0.3,0s-0.1,0-0.2,0c-0.7,0-1.1,0.2-1.4,0.7
		c-0.1,0.2-0.2,0.6-0.2,1.1v3.1h-1.7v-6.4h1.6v1.1c0.3-0.4,0.5-0.7,0.7-0.9C403.1,742.1,403.5,741.9,404.1,741.9
		C404,741.9,404.1,741.9,404.1,741.9z"/>
	<path class="st1" d="M406.5,746.4c0,0.3,0.1,0.5,0.2,0.6c0.2,0.2,0.6,0.3,1.2,0.3c0.3,0,0.6,0,0.8-0.1s0.3-0.2,0.3-0.4
		c0-0.2-0.1-0.3-0.2-0.4c-0.2-0.1-0.7-0.3-1.7-0.5c-0.7-0.2-1.2-0.4-1.5-0.7c-0.3-0.3-0.4-0.6-0.4-1.1c0-0.6,0.2-1.1,0.7-1.5
		c0.5-0.4,1.1-0.6,2-0.6c0.8,0,1.4,0.2,2,0.5s0.8,0.9,0.9,1.6h-1.7c0-0.2-0.1-0.4-0.2-0.5c-0.2-0.2-0.5-0.3-0.9-0.3
		c-0.4,0-0.6,0.1-0.8,0.2c-0.2,0.1-0.2,0.2-0.2,0.4c0,0.2,0.1,0.3,0.2,0.4c0.2,0.1,0.7,0.2,1.7,0.5c0.7,0.2,1.2,0.4,1.5,0.7
		c0.3,0.3,0.5,0.7,0.5,1.2c0,0.6-0.2,1.1-0.7,1.5c-0.5,0.4-1.2,0.6-2.2,0.6c-1,0-1.7-0.2-2.2-0.6s-0.7-1-0.7-1.6H406.5z"/>
	<path class="st1" d="M412.1,747.2h1.2v1.3h-1.2V747.2z"/>
	<path class="st1" d="M419.4,742.5c0.4,0.3,0.7,0.9,0.8,1.8h-1c-0.1-0.4-0.2-0.7-0.4-1s-0.6-0.4-1.1-0.4c-0.7,0-1.2,0.3-1.4,1
		c-0.2,0.4-0.3,1-0.3,1.6c0,0.6,0.1,1.2,0.4,1.6c0.3,0.4,0.7,0.6,1.3,0.6c0.4,0,0.8-0.1,1-0.4s0.4-0.6,0.5-1.1h1
		c-0.1,0.8-0.4,1.4-0.9,1.8s-1.1,0.6-1.8,0.6c-0.8,0-1.5-0.3-2-0.9s-0.7-1.3-0.7-2.2c0-1.1,0.3-2,0.8-2.6s1.2-0.9,2-0.9
		C418.3,742,418.9,742.2,419.4,742.5z"/>
	<path class="st1" d="M425.8,742.8c0.6,0.5,0.8,1.3,0.8,2.4c0,1-0.2,1.8-0.7,2.5c-0.5,0.7-1.2,1-2.3,1c-0.9,0-1.5-0.3-2-0.9
		c-0.5-0.6-0.8-1.4-0.8-2.4c0-1.1,0.3-1.9,0.8-2.5c0.5-0.6,1.2-0.9,2.1-0.9C424.5,742,425.2,742.3,425.8,742.8z M425.1,747
		c0.3-0.5,0.4-1.1,0.4-1.8c0-0.6-0.1-1.1-0.3-1.4c-0.3-0.6-0.8-0.9-1.5-0.9c-0.6,0-1.1,0.2-1.4,0.7c-0.3,0.5-0.4,1.1-0.4,1.8
		c0,0.7,0.1,1.2,0.4,1.7c0.3,0.4,0.7,0.7,1.4,0.7C424.4,747.8,424.8,747.5,425.1,747z"/>
	<path class="st1" d="M427.9,742.2h1v0.9c0.2-0.3,0.5-0.5,0.7-0.7c0.3-0.2,0.7-0.4,1.2-0.4c0.5,0,0.9,0.1,1.2,0.4
		c0.2,0.1,0.3,0.3,0.5,0.6c0.2-0.3,0.5-0.6,0.8-0.7s0.7-0.2,1.1-0.2c0.8,0,1.4,0.3,1.7,0.9c0.2,0.3,0.2,0.8,0.2,1.3v4.2h-1.1v-4.4
		c0-0.4-0.1-0.7-0.3-0.9s-0.5-0.2-0.8-0.2c-0.4,0-0.8,0.1-1.1,0.4s-0.4,0.7-0.4,1.4v3.7h-1.1v-4.1c0-0.4-0.1-0.7-0.2-0.9
		c-0.2-0.3-0.5-0.4-0.9-0.4c-0.4,0-0.8,0.2-1.1,0.5s-0.5,0.9-0.5,1.7v3.3h-1.1V742.2z"/>
</g>
</svg>
