<?xml version="1.0" encoding="UTF-8" standalone="no"?>
<svg
   xmlns:dc="http://purl.org/dc/elements/1.1/"
   xmlns:cc="http://creativecommons.org/ns#"
   xmlns:rdf="http://www.w3.org/1999/02/22-rdf-syntax-ns#"
   xmlns:svg="http://www.w3.org/2000/svg"
   xmlns="http://www.w3.org/2000/svg"
   xmlns:xlink="http://www.w3.org/1999/xlink"
   xmlns:sodipodi="http://sodipodi.sourceforge.net/DTD/sodipodi-0.dtd"
   xmlns:inkscape="http://www.inkscape.org/namespaces/inkscape"
   version="1.1"
   stroke-linecap="round"
   stroke-linejoin="round"
   stroke-width="0"
   fill-rule="evenodd"
   width="10in"
   height="9.8189in"
   viewBox="433.04 380.67 10000 9818.9"
   id="Heatbed-MK24"
   inkscape:version="0.91 r13725"
   sodipodi:docname="Heatbed-MK42.svg">
  <metadata
     id="metadata11">
    <rdf:RDF>
      <cc:Work
         rdf:about="">
        <dc:format>image/svg+xml</dc:format>
        <dc:type
           rdf:resource="http://purl.org/dc/dcmitype/StillImage" />
        <dc:title></dc:title>
      </cc:Work>
    </rdf:RDF>
  </metadata>
  <defs
     id="defs9">
    <rect
       id="Heatbed-MK24_pad-17"
       height="7.87"
       width="7.87"
       y="-3.935"
       x="-3.935" />
  </defs>
  <sodipodi:namedview
     pagecolor="#ffffff"
     bordercolor="#666666"
     borderopacity="1"
     objecttolerance="10"
     gridtolerance="10"
     guidetolerance="10"
     inkscape:pageopacity="0"
     inkscape:pageshadow="2"
     inkscape:window-width="1920"
     inkscape:window-height="1020"
     id="namedview7"
     showgrid="false"
     inkscape:zoom="0.75535593"
     inkscape:cx="357.32373"
     inkscape:cy="391.29981"
     inkscape:window-x="1920"
     inkscape:window-y="34"
     inkscape:window-maximized="1"
     inkscape:current-layer="Heatbed-MK24" />
  <path
     inkscape:connector-curvature="0"
     style="fill:#4d4d4d;stroke:#4d4d4d;stroke-width:0"
     id="path5"
     d="m 433.04,10042.09 157.48,157.48 9685.04,0 157.48,-157.48 0,-8937.01 -157.48,-157.48 -8503.94,0 -39.37,-39.37 0,-488.19 -39.37,-39.37 -1062.99,0 -39.37,39.37 0,527.56 -157.48,157.48 0,8937.01 m 826.77,-236.22 0.04,-2.9 0.1,-2.9 0.18,-2.89 0.25,-2.89 0.32,-2.88 0.39,-2.87 0.46,-2.86 0.53,-2.85 0.6,-2.84 0.67,-2.82 0.74,-2.8 0.81,-2.79 0.87,-2.76 0.94,-2.74 1.01,-2.72 1.08,-2.69 1.14,-2.66 1.21,-2.64 1.27,-2.6 1.34,-2.58 1.39,-2.54 1.46,-2.5 1.52,-2.47 1.59,-2.43 1.64,-2.39 1.69,-2.35 1.76,-2.31 1.81,-2.26 1.87,-2.22 1.92,-2.17 1.97,-2.12 2.02,-2.08 2.08,-2.02 2.12,-1.97 2.17,-1.92 2.22,-1.87 2.26,-1.81 2.31,-1.76 2.35,-1.69 2.39,-1.64 2.43,-1.59 2.47,-1.52 2.5,-1.46 2.54,-1.39 2.58,-1.34 2.6,-1.27 2.64,-1.21 2.66,-1.14 2.69,-1.08 2.72,-1.01 2.74,-0.94 2.76,-0.87 2.79,-0.81 2.8,-0.74 2.82,-0.67 2.84,-0.6 2.85,-0.53 2.86,-0.46 2.87,-0.39 2.88,-0.32 2.89,-0.25 2.89,-0.18 2.9,-0.1 2.9,-0.04 2.9,0.04 2.9,0.1 2.89,0.18 2.89,0.25 2.88,0.32 2.87,0.39 2.86,0.46 2.85,0.53 2.84,0.6 2.82,0.67 2.8,0.74 2.79,0.81 2.76,0.87 2.74,0.94 2.72,1.01 2.69,1.08 2.66,1.14 2.64,1.21 2.6,1.27 2.58,1.34 2.54,1.39 2.5,1.46 2.47,1.52 2.43,1.59 2.39,1.64 2.35,1.69 2.31,1.76 2.26,1.81 2.22,1.87 2.17,1.92 2.12,1.97 2.08,2.02 2.02,2.08 1.97,2.12 1.92,2.17 1.87,2.22 1.81,2.26 1.76,2.31 1.69,2.35 1.64,2.39 1.59,2.43 1.52,2.47 1.46,2.5 1.39,2.54 1.34,2.58 1.27,2.6 1.21,2.64 1.14,2.66 1.08,2.69 1.01,2.72 0.94,2.74 0.87,2.76 0.81,2.79 0.74,2.8 0.67,2.82 0.6,2.84 0.53,2.85 0.46,2.86 0.39,2.87 0.32,2.88 0.25,2.89 0.18,2.89 0.1,2.9 0.04,2.9 -0.04,2.9 -0.1,2.9 -0.18,2.89 -0.25,2.89 -0.32,2.88 -0.39,2.87 -0.46,2.86 -0.53,2.85 -0.6,2.84 -0.67,2.82 -0.74,2.8 -0.81,2.79 -0.87,2.76 -0.94,2.74 -1.01,2.72 -1.08,2.69 -1.14,2.66 -1.21,2.64 -1.27,2.6 -1.34,2.58 -1.39,2.54 -1.46,2.5 -1.52,2.47 -1.59,2.43 -1.64,2.39 -1.69,2.35 -1.76,2.31 -1.81,2.26 -1.87,2.22 -1.92,2.17 -1.97,2.12 -2.02,2.08 -2.08,2.02 -2.12,1.97 -2.17,1.92 -2.22,1.87 -2.26,1.81 -2.31,1.76 -2.35,1.69 -2.39,1.64 -2.43,1.59 -2.47,1.52 -2.5,1.46 -2.54,1.39 -2.58,1.34 -2.6,1.27 -2.64,1.21 -2.66,1.14 -2.69,1.08 -2.72,1.01 -2.74,0.94 -2.76,0.87 -2.79,0.81 -2.8,0.74 -2.82,0.67 -2.84,0.6 -2.85,0.53 -2.86,0.46 -2.87,0.39 -2.88,0.32 -2.89,0.25 -2.89,0.18 -2.9,0.1 -2.9,0.04 -2.9,-0.04 -2.9,-0.1 -2.89,-0.18 -2.89,-0.25 -2.88,-0.32 -2.87,-0.39 -2.86,-0.46 -2.85,-0.53 -2.84,-0.6 -2.82,-0.67 -2.8,-0.74 -2.79,-0.81 -2.76,-0.87 -2.74,-0.94 -2.72,-1.01 -2.69,-1.08 -2.66,-1.14 -2.64,-1.21 -2.6,-1.27 -2.58,-1.34 -2.54,-1.39 -2.5,-1.46 -2.47,-1.52 -2.43,-1.59 -2.39,-1.64 -2.35,-1.69 -2.31,-1.76 -2.26,-1.81 -2.22,-1.87 -2.17,-1.92 -2.12,-1.97 -2.08,-2.02 -2.02,-2.08 -1.97,-2.12 -1.92,-2.17 -1.87,-2.22 -1.81,-2.26 -1.76,-2.31 -1.69,-2.35 -1.64,-2.39 -1.59,-2.43 -1.52,-2.47 -1.46,-2.5 -1.39,-2.54 -1.34,-2.58 -1.27,-2.6 -1.21,-2.64 -1.14,-2.66 -1.08,-2.69 -1.01,-2.72 -0.94,-2.74 -0.87,-2.76 -0.81,-2.79 -0.74,-2.8 -0.67,-2.82 -0.6,-2.84 -0.53,-2.85 -0.46,-2.86 -0.39,-2.87 -0.32,-2.88 -0.25,-2.89 -0.18,-2.89 -0.1,-2.9 -0.04,-2.9 m 55.12,0 0.02,-1.58 0.06,-1.58 0.1,-1.58 0.14,-1.58 0.18,-1.57 0.21,-1.57 0.26,-1.56 0.3,-1.56 0.33,-1.55 0.38,-1.53 0.41,-1.53 0.45,-1.52 0.49,-1.51 0.53,-1.49 0.56,-1.48 0.6,-1.46 0.64,-1.45 0.68,-1.43 0.71,-1.42 0.74,-1.4 0.78,-1.37 0.82,-1.36 0.84,-1.34 0.89,-1.31 0.91,-1.29 0.95,-1.27 0.97,-1.25 1.01,-1.22 1.04,-1.19 1.07,-1.17 1.1,-1.14 1.13,-1.11 1.15,-1.09 1.18,-1.05 1.21,-1.02 1.23,-1 1.26,-0.96 1.28,-0.93 1.3,-0.9 1.33,-0.86 1.35,-0.84 1.36,-0.79 1.39,-0.77 1.41,-0.72 1.42,-0.7 1.44,-0.65 1.46,-0.62 1.47,-0.58 1.49,-0.55 1.5,-0.51 1.51,-0.47 1.52,-0.43 1.53,-0.39 1.55,-0.36 1.55,-0.31 1.56,-0.28 1.56,-0.24 1.57,-0.2 1.58,-0.16 1.57,-0.12 1.59,-0.08 1.58,-0.04 1.58,0 1.58,0.04 1.59,0.08 1.57,0.12 1.58,0.16 1.57,0.2 1.56,0.24 1.56,0.28 1.55,0.31 1.55,0.36 1.53,0.39 1.52,0.43 1.51,0.47 1.5,0.51 1.49,0.55 1.47,0.58 1.46,0.62 1.44,0.65 1.42,0.7 1.41,0.72 1.39,0.77 1.36,0.79 1.35,0.84 1.33,0.86 1.3,0.9 1.28,0.93 1.26,0.96 1.23,1 1.21,1.02 1.18,1.05 1.15,1.09 1.13,1.11 1.1,1.14 1.07,1.17 1.04,1.19 1.01,1.22 0.97,1.25 0.95,1.27 0.91,1.29 0.89,1.31 0.84,1.34 0.82,1.36 0.78,1.37 0.74,1.4 0.71,1.42 0.68,1.43 0.64,1.45 0.6,1.46 0.56,1.48 0.53,1.49 0.49,1.51 0.45,1.52 0.41,1.53 0.38,1.53 0.33,1.55 0.3,1.56 0.26,1.56 0.21,1.57 0.18,1.57 0.14,1.58 0.1,1.58 0.06,1.58 0.02,1.58 -0.02,1.58 -0.06,1.58 -0.1,1.58 -0.14,1.58 -0.18,1.57 -0.21,1.57 -0.26,1.56 -0.3,1.56 -0.33,1.55 -0.38,1.53 -0.41,1.53 -0.45,1.52 -0.49,1.51 -0.53,1.49 -0.56,1.48 -0.6,1.46 -0.64,1.45 -0.68,1.43 -0.71,1.42 -0.74,1.4 -0.78,1.37 -0.82,1.36 -0.84,1.34 -0.89,1.31 -0.91,1.29 -0.95,1.27 -0.97,1.25 -1.01,1.22 -1.04,1.19 -1.07,1.17 -1.1,1.14 -1.13,1.11 -1.15,1.09 -1.18,1.05 -1.21,1.02 -1.23,1 -1.26,0.96 -1.28,0.93 -1.3,0.9 -1.33,0.86 -1.35,0.84 -1.36,0.79 -1.39,0.77 -1.41,0.72 -1.42,0.7 -1.44,0.65 -1.46,0.62 -1.47,0.58 -1.49,0.55 -1.5,0.51 -1.51,0.47 -1.52,0.43 -1.53,0.39 -1.55,0.36 -1.55,0.31 -1.56,0.28 -1.56,0.24 -1.57,0.2 -1.58,0.16 -1.57,0.12 -1.59,0.08 -1.58,0.04 -1.58,0 -1.58,-0.04 -1.59,-0.08 -1.57,-0.12 -1.58,-0.16 -1.57,-0.2 -1.56,-0.24 -1.56,-0.28 -1.55,-0.31 -1.55,-0.36 -1.53,-0.39 -1.52,-0.43 -1.51,-0.47 -1.5,-0.51 -1.49,-0.55 -1.47,-0.58 -1.46,-0.62 -1.44,-0.65 -1.42,-0.7 -1.41,-0.72 -1.39,-0.77 -1.36,-0.79 -1.35,-0.84 -1.33,-0.86 -1.3,-0.9 -1.28,-0.93 -1.26,-0.96 -1.23,-1 -1.21,-1.02 -1.18,-1.05 -1.15,-1.09 -1.13,-1.11 -1.1,-1.14 -1.07,-1.17 -1.04,-1.19 -1.01,-1.22 -0.97,-1.25 -0.95,-1.27 -0.91,-1.29 -0.89,-1.31 -0.84,-1.34 -0.82,-1.36 -0.78,-1.37 -0.74,-1.4 -0.71,-1.42 -0.68,-1.43 -0.64,-1.45 -0.6,-1.46 -0.56,-1.48 -0.53,-1.49 -0.49,-1.51 -0.45,-1.52 -0.41,-1.53 -0.38,-1.53 -0.33,-1.55 -0.3,-1.56 -0.26,-1.56 -0.21,-1.57 -0.18,-1.57 -0.14,-1.58 -0.1,-1.58 -0.06,-1.58 -0.02,-1.58 m 4059.05,-3287.4 0.04,-2.9 0.1,-2.9 0.18,-2.89 0.25,-2.89 0.32,-2.88 0.39,-2.87 0.46,-2.86 0.53,-2.85 0.6,-2.84 0.67,-2.82 0.74,-2.8 0.81,-2.79 0.87,-2.76 0.94,-2.74 1.01,-2.72 1.08,-2.69 1.14,-2.66 1.21,-2.64 1.27,-2.6 1.34,-2.58 1.39,-2.54 1.46,-2.5 1.52,-2.47 1.59,-2.43 1.64,-2.39 1.69,-2.35 1.76,-2.31 1.81,-2.26 1.87,-2.22 1.92,-2.17 1.97,-2.12 2.02,-2.08 2.08,-2.02 2.12,-1.97 2.17,-1.92 2.22,-1.87 2.26,-1.81 2.31,-1.76 2.35,-1.69 2.39,-1.64 2.43,-1.59 2.47,-1.52 2.5,-1.46 2.54,-1.39 2.58,-1.34 2.6,-1.27 2.64,-1.21 2.66,-1.14 2.69,-1.08 2.72,-1.01 2.74,-0.94 2.76,-0.87 2.79,-0.81 2.8,-0.74 2.82,-0.67 2.84,-0.6 2.85,-0.53 2.86,-0.46 2.87,-0.39 2.88,-0.32 2.89,-0.25 2.89,-0.18 2.9,-0.1 2.9,-0.04 2.9,0.04 2.9,0.1 2.89,0.18 2.89,0.25 2.88,0.32 2.87,0.39 2.86,0.46 2.85,0.53 2.84,0.6 2.82,0.67 2.8,0.74 2.79,0.81 2.76,0.87 2.74,0.94 2.72,1.01 2.69,1.08 2.66,1.14 2.64,1.21 2.6,1.27 2.58,1.34 2.54,1.39 2.5,1.46 2.47,1.52 2.43,1.59 2.39,1.64 2.35,1.69 2.31,1.76 2.26,1.81 2.22,1.87 2.17,1.92 2.12,1.97 2.08,2.02 2.02,2.08 1.97,2.12 1.92,2.17 1.87,2.22 1.81,2.26 1.76,2.31 1.69,2.35 1.64,2.39 1.59,2.43 1.52,2.47 1.46,2.5 1.39,2.54 1.34,2.58 1.27,2.6 1.21,2.64 1.14,2.66 1.08,2.69 1.01,2.72 0.94,2.74 0.87,2.76 0.81,2.79 0.74,2.8 0.67,2.82 0.6,2.84 0.53,2.85 0.46,2.86 0.39,2.87 0.32,2.88 0.25,2.89 0.18,2.89 0.1,2.9 0.04,2.9 -0.04,2.9 -0.1,2.9 -0.18,2.89 -0.25,2.89 -0.32,2.88 -0.39,2.87 -0.46,2.86 -0.53,2.85 -0.6,2.84 -0.67,2.82 -0.74,2.8 -0.81,2.79 -0.87,2.76 -0.94,2.74 -1.01,2.72 -1.08,2.69 -1.14,2.66 -1.21,2.64 -1.27,2.6 -1.34,2.58 -1.39,2.54 -1.46,2.5 -1.52,2.47 -1.59,2.43 -1.64,2.39 -1.69,2.35 -1.76,2.31 -1.81,2.26 -1.87,2.22 -1.92,2.17 -1.97,2.12 -2.02,2.08 -2.08,2.02 -2.12,1.97 -2.17,1.92 -2.22,1.87 -2.26,1.81 -2.31,1.76 -2.35,1.69 -2.39,1.64 -2.43,1.59 -2.47,1.52 -2.5,1.46 -2.54,1.39 -2.58,1.34 -2.6,1.27 -2.64,1.21 -2.66,1.14 -2.69,1.08 -2.72,1.01 -2.74,0.94 -2.76,0.87 -2.79,0.81 -2.8,0.74 -2.82,0.67 -2.84,0.6 -2.85,0.53 -2.86,0.46 -2.87,0.39 -2.88,0.32 -2.89,0.25 -2.89,0.18 -2.9,0.1 -2.9,0.04 -2.9,-0.04 -2.9,-0.1 -2.89,-0.18 -2.89,-0.25 -2.88,-0.32 -2.87,-0.39 -2.86,-0.46 -2.85,-0.53 -2.84,-0.6 -2.82,-0.67 -2.8,-0.74 -2.79,-0.81 -2.76,-0.87 -2.74,-0.94 -2.72,-1.01 -2.69,-1.08 -2.66,-1.14 -2.64,-1.21 -2.6,-1.27 -2.58,-1.34 -2.54,-1.39 -2.5,-1.46 -2.47,-1.52 -2.43,-1.59 -2.39,-1.64 -2.35,-1.69 -2.31,-1.76 -2.26,-1.81 -2.22,-1.87 -2.17,-1.92 -2.12,-1.97 -2.08,-2.02 -2.02,-2.08 -1.97,-2.12 -1.92,-2.17 -1.87,-2.22 -1.81,-2.26 -1.76,-2.31 -1.69,-2.35 -1.64,-2.39 -1.59,-2.43 -1.52,-2.47 -1.46,-2.5 -1.39,-2.54 -1.34,-2.58 -1.27,-2.6 -1.21,-2.64 -1.14,-2.66 -1.08,-2.69 -1.01,-2.72 -0.94,-2.74 -0.87,-2.76 -0.81,-2.79 -0.74,-2.8 -0.67,-2.82 -0.6,-2.84 -0.53,-2.85 -0.46,-2.86 -0.39,-2.87 -0.32,-2.88 -0.25,-2.89 -0.18,-2.89 -0.1,-2.9 -0.04,-2.9 m 0,-1614.17 0.04,-2.9 0.1,-2.9 0.18,-2.89 0.25,-2.89 0.32,-2.88 0.39,-2.87 0.46,-2.86 0.53,-2.85 0.6,-2.84 0.67,-2.82 0.74,-2.8 0.81,-2.79 0.87,-2.76 0.94,-2.74 1.01,-2.72 1.08,-2.69 1.14,-2.66 1.21,-2.64 1.27,-2.6 1.34,-2.58 1.39,-2.54 1.46,-2.5 1.52,-2.47 1.59,-2.43 1.64,-2.39 1.69,-2.35 1.76,-2.31 1.81,-2.26 1.87,-2.22 1.92,-2.17 1.97,-2.12 2.02,-2.08 2.08,-2.02 2.12,-1.97 2.17,-1.92 2.22,-1.87 2.26,-1.81 2.31,-1.76 2.35,-1.69 2.39,-1.64 2.43,-1.59 2.47,-1.52 2.5,-1.46 2.54,-1.39 2.58,-1.34 2.6,-1.27 2.64,-1.21 2.66,-1.14 2.69,-1.08 2.72,-1.01 2.74,-0.94 2.76,-0.87 2.79,-0.81 2.8,-0.74 2.82,-0.67 2.84,-0.6 2.85,-0.53 2.86,-0.46 2.87,-0.39 2.88,-0.32 2.89,-0.25 2.89,-0.18 2.9,-0.1 2.9,-0.04 2.9,0.04 2.9,0.1 2.89,0.18 2.89,0.25 2.88,0.32 2.87,0.39 2.86,0.46 2.85,0.53 2.84,0.6 2.82,0.67 2.8,0.74 2.79,0.81 2.76,0.87 2.74,0.94 2.72,1.01 2.69,1.08 2.66,1.14 2.64,1.21 2.6,1.27 2.58,1.34 2.54,1.39 2.5,1.46 2.47,1.52 2.43,1.59 2.39,1.64 2.35,1.69 2.31,1.76 2.26,1.81 2.22,1.87 2.17,1.92 2.12,1.97 2.08,2.02 2.02,2.08 1.97,2.12 1.92,2.17 1.87,2.22 1.81,2.26 1.76,2.31 1.69,2.35 1.64,2.39 1.59,2.43 1.52,2.47 1.46,2.5 1.39,2.54 1.34,2.58 1.27,2.6 1.21,2.64 1.14,2.66 1.08,2.69 1.01,2.72 0.94,2.74 0.87,2.76 0.81,2.79 0.74,2.8 0.67,2.82 0.6,2.84 0.53,2.85 0.46,2.86 0.39,2.87 0.32,2.88 0.25,2.89 0.18,2.89 0.1,2.9 0.04,2.9 -0.04,2.9 -0.1,2.9 -0.18,2.89 -0.25,2.89 -0.32,2.88 -0.39,2.87 -0.46,2.86 -0.53,2.85 -0.6,2.84 -0.67,2.82 -0.74,2.8 -0.81,2.79 -0.87,2.76 -0.94,2.74 -1.01,2.72 -1.08,2.69 -1.14,2.66 -1.21,2.64 -1.27,2.6 -1.34,2.58 -1.39,2.54 -1.46,2.5 -1.52,2.47 -1.59,2.43 -1.64,2.39 -1.69,2.35 -1.76,2.31 -1.81,2.26 -1.87,2.22 -1.92,2.17 -1.97,2.12 -2.02,2.08 -2.08,2.02 -2.12,1.97 -2.17,1.92 -2.22,1.87 -2.26,1.81 -2.31,1.76 -2.35,1.69 -2.39,1.64 -2.43,1.59 -2.47,1.52 -2.5,1.46 -2.54,1.39 -2.58,1.34 -2.6,1.27 -2.64,1.21 -2.66,1.14 -2.69,1.08 -2.72,1.01 -2.74,0.94 -2.76,0.87 -2.79,0.81 -2.8,0.74 -2.82,0.67 -2.84,0.6 -2.85,0.53 -2.86,0.46 -2.87,0.39 -2.88,0.32 -2.89,0.25 -2.89,0.18 -2.9,0.1 -2.9,0.04 -2.9,-0.04 -2.9,-0.1 -2.89,-0.18 -2.89,-0.25 -2.88,-0.32 -2.87,-0.39 -2.86,-0.46 -2.85,-0.53 -2.84,-0.6 -2.82,-0.67 -2.8,-0.74 -2.79,-0.81 -2.76,-0.87 -2.74,-0.94 -2.72,-1.01 -2.69,-1.08 -2.66,-1.14 -2.64,-1.21 -2.6,-1.27 -2.58,-1.34 -2.54,-1.39 -2.5,-1.46 -2.47,-1.52 -2.43,-1.59 -2.39,-1.64 -2.35,-1.69 -2.31,-1.76 -2.26,-1.81 -2.22,-1.87 -2.17,-1.92 -2.12,-1.97 -2.08,-2.02 -2.02,-2.08 -1.97,-2.12 -1.92,-2.17 -1.87,-2.22 -1.81,-2.26 -1.76,-2.31 -1.69,-2.35 -1.64,-2.39 -1.59,-2.43 -1.52,-2.47 -1.46,-2.5 -1.39,-2.54 -1.34,-2.58 -1.27,-2.6 -1.21,-2.64 -1.14,-2.66 -1.08,-2.69 -1.01,-2.72 -0.94,-2.74 -0.87,-2.76 -0.81,-2.79 -0.74,-2.8 -0.67,-2.82 -0.6,-2.84 -0.53,-2.85 -0.46,-2.86 -0.39,-2.87 -0.32,-2.88 -0.25,-2.89 -0.18,-2.89 -0.1,-2.9 -0.04,-2.9 m -4114.17,-3326.78 0.04,-2.9 0.1,-2.9 0.18,-2.89 0.25,-2.89 0.32,-2.88 0.39,-2.87 0.46,-2.86 0.53,-2.85 0.6,-2.84 0.67,-2.82 0.74,-2.8 0.81,-2.79 0.87,-2.76 0.94,-2.74 1.01,-2.72 1.08,-2.69 1.14,-2.66 1.21,-2.64 1.27,-2.6 1.34,-2.58 1.39,-2.54 1.46,-2.5 1.52,-2.47 1.59,-2.43 1.64,-2.39 1.69,-2.35 1.76,-2.31 1.81,-2.26 1.87,-2.22 1.92,-2.17 1.97,-2.12 2.02,-2.08 2.08,-2.02 2.12,-1.97 2.17,-1.92 2.22,-1.87 2.26,-1.81 2.31,-1.76 2.35,-1.69 2.39,-1.64 2.43,-1.59 2.47,-1.52 2.5,-1.46 2.54,-1.39 2.58,-1.34 2.6,-1.27 2.64,-1.21 2.66,-1.14 2.69,-1.08 2.72,-1.01 2.74,-0.94 2.76,-0.87 2.79,-0.81 2.8,-0.74 2.82,-0.67 2.84,-0.6 2.85,-0.53 2.86,-0.46 2.87,-0.39 2.88,-0.32 2.89,-0.25 2.89,-0.18 2.9,-0.1 2.9,-0.04 2.9,0.04 2.9,0.1 2.89,0.18 2.89,0.25 2.88,0.32 2.87,0.39 2.86,0.46 2.85,0.53 2.84,0.6 2.82,0.67 2.8,0.74 2.79,0.81 2.76,0.87 2.74,0.94 2.72,1.01 2.69,1.08 2.66,1.14 2.64,1.21 2.6,1.27 2.58,1.34 2.54,1.39 2.5,1.46 2.47,1.52 2.43,1.59 2.39,1.64 2.35,1.69 2.31,1.76 2.26,1.81 2.22,1.87 2.17,1.92 2.12,1.97 2.08,2.02 2.02,2.08 1.97,2.12 1.92,2.17 1.87,2.22 1.81,2.26 1.76,2.31 1.69,2.35 1.64,2.39 1.59,2.43 1.52,2.47 1.46,2.5 1.39,2.54 1.34,2.58 1.27,2.6 1.21,2.64 1.14,2.66 1.08,2.69 1.01,2.72 0.94,2.74 0.87,2.76 0.81,2.79 0.74,2.8 0.67,2.82 0.6,2.84 0.53,2.85 0.46,2.86 0.39,2.87 0.32,2.88 0.25,2.89 0.18,2.89 0.1,2.9 0.04,2.9 -0.04,2.9 -0.1,2.9 -0.18,2.89 -0.25,2.89 -0.32,2.88 -0.39,2.87 -0.46,2.86 -0.53,2.85 -0.6,2.84 -0.67,2.82 -0.74,2.8 -0.81,2.79 -0.87,2.76 -0.94,2.74 -1.01,2.72 -1.08,2.69 -1.14,2.66 -1.21,2.64 -1.27,2.6 -1.34,2.58 -1.39,2.54 -1.46,2.5 -1.52,2.47 -1.59,2.43 -1.64,2.39 -1.69,2.35 -1.76,2.31 -1.81,2.26 -1.87,2.22 -1.92,2.17 -1.97,2.12 -2.02,2.08 -2.08,2.02 -2.12,1.97 -2.17,1.92 -2.22,1.87 -2.26,1.81 -2.31,1.76 -2.35,1.69 -2.39,1.64 -2.43,1.59 -2.47,1.52 -2.5,1.46 -2.54,1.39 -2.58,1.34 -2.6,1.27 -2.64,1.21 -2.66,1.14 -2.69,1.08 -2.72,1.01 -2.74,0.94 -2.76,0.87 -2.79,0.81 -2.8,0.74 -2.82,0.67 -2.84,0.6 -2.85,0.53 -2.86,0.46 -2.87,0.39 -2.88,0.32 -2.89,0.25 -2.89,0.18 -2.9,0.1 -2.9,0.04 -2.9,-0.04 -2.9,-0.1 -2.89,-0.18 -2.89,-0.25 -2.88,-0.32 -2.87,-0.39 -2.86,-0.46 -2.85,-0.53 -2.84,-0.6 -2.82,-0.67 -2.8,-0.74 -2.79,-0.81 -2.76,-0.87 -2.74,-0.94 -2.72,-1.01 -2.69,-1.08 -2.66,-1.14 -2.64,-1.21 -2.6,-1.27 -2.58,-1.34 -2.54,-1.39 -2.5,-1.46 -2.47,-1.52 -2.43,-1.59 -2.39,-1.64 -2.35,-1.69 -2.31,-1.76 -2.26,-1.81 -2.22,-1.87 -2.17,-1.92 -2.12,-1.97 -2.08,-2.02 -2.02,-2.08 -1.97,-2.12 -1.92,-2.17 -1.87,-2.22 -1.81,-2.26 -1.76,-2.31 -1.69,-2.35 -1.64,-2.39 -1.59,-2.43 -1.52,-2.47 -1.46,-2.5 -1.39,-2.54 -1.34,-2.58 -1.27,-2.6 -1.21,-2.64 -1.14,-2.66 -1.08,-2.69 -1.01,-2.72 -0.94,-2.74 -0.87,-2.76 -0.81,-2.79 -0.74,-2.8 -0.67,-2.82 -0.6,-2.84 -0.53,-2.85 -0.46,-2.86 -0.39,-2.87 -0.32,-2.88 -0.25,-2.89 -0.18,-2.89 -0.1,-2.9 -0.04,-2.9 m 55.12,0 0.02,-1.58 0.06,-1.58 0.1,-1.58 0.14,-1.58 0.18,-1.57 0.21,-1.57 0.26,-1.56 0.3,-1.56 0.33,-1.55 0.38,-1.53 0.41,-1.53 0.45,-1.52 0.49,-1.51 0.53,-1.49 0.56,-1.48 0.6,-1.46 0.64,-1.45 0.68,-1.43 0.71,-1.42 0.74,-1.4 0.78,-1.37 0.82,-1.36 0.84,-1.34 0.89,-1.31 0.91,-1.29 0.95,-1.27 0.97,-1.25 1.01,-1.22 1.04,-1.19 1.07,-1.17 1.1,-1.14 1.13,-1.11 1.15,-1.09 1.18,-1.05 1.21,-1.02 1.23,-1 1.26,-0.96 1.28,-0.93 1.3,-0.9 1.33,-0.86 1.35,-0.84 1.36,-0.79 1.39,-0.77 1.41,-0.72 1.42,-0.7 1.44,-0.65 1.46,-0.62 1.47,-0.58 1.49,-0.55 1.5,-0.51 1.51,-0.47 1.52,-0.43 1.53,-0.39 1.55,-0.36 1.55,-0.31 1.56,-0.28 1.56,-0.24 1.57,-0.2 1.58,-0.16 1.57,-0.12 1.59,-0.08 1.58,-0.04 1.58,0 1.58,0.04 1.59,0.08 1.57,0.12 1.58,0.16 1.57,0.2 1.56,0.24 1.56,0.28 1.55,0.31 1.55,0.36 1.53,0.39 1.52,0.43 1.51,0.47 1.5,0.51 1.49,0.55 1.47,0.58 1.46,0.62 1.44,0.65 1.42,0.7 1.41,0.72 1.39,0.77 1.36,0.79 1.35,0.84 1.33,0.86 1.3,0.9 1.28,0.93 1.26,0.96 1.23,1 1.21,1.02 1.18,1.05 1.15,1.09 1.13,1.11 1.1,1.14 1.07,1.17 1.04,1.19 1.01,1.22 0.97,1.25 0.95,1.27 0.91,1.29 0.89,1.31 0.84,1.34 0.82,1.36 0.78,1.37 0.74,1.4 0.71,1.42 0.68,1.43 0.64,1.45 0.6,1.46 0.56,1.48 0.53,1.49 0.49,1.51 0.45,1.52 0.41,1.53 0.38,1.53 0.33,1.55 0.3,1.56 0.26,1.56 0.21,1.57 0.18,1.57 0.14,1.58 0.1,1.58 0.06,1.58 0.02,1.58 -0.02,1.58 -0.06,1.58 -0.1,1.58 -0.14,1.58 -0.18,1.57 -0.21,1.57 -0.26,1.56 -0.3,1.56 -0.33,1.55 -0.38,1.53 -0.41,1.53 -0.45,1.52 -0.49,1.51 -0.53,1.49 -0.56,1.48 -0.6,1.46 -0.64,1.45 -0.68,1.43 -0.71,1.42 -0.74,1.4 -0.78,1.37 -0.82,1.36 -0.84,1.34 -0.89,1.31 -0.91,1.29 -0.95,1.27 -0.97,1.25 -1.01,1.22 -1.04,1.19 -1.07,1.17 -1.1,1.14 -1.13,1.11 -1.15,1.09 -1.18,1.05 -1.21,1.02 -1.23,1 -1.26,0.96 -1.28,0.93 -1.3,0.9 -1.33,0.86 -1.35,0.84 -1.36,0.79 -1.39,0.77 -1.41,0.72 -1.42,0.7 -1.44,0.65 -1.46,0.62 -1.47,0.58 -1.49,0.55 -1.5,0.51 -1.51,0.47 -1.52,0.43 -1.53,0.39 -1.55,0.36 -1.55,0.31 -1.56,0.28 -1.56,0.24 -1.57,0.2 -1.58,0.16 -1.57,0.12 -1.59,0.08 -1.58,0.04 -1.58,0 -1.58,-0.04 -1.59,-0.08 -1.57,-0.12 -1.58,-0.16 -1.57,-0.2 -1.56,-0.24 -1.56,-0.28 -1.55,-0.31 -1.55,-0.36 -1.53,-0.39 -1.52,-0.43 -1.51,-0.47 -1.5,-0.51 -1.49,-0.55 -1.47,-0.58 -1.46,-0.62 -1.44,-0.65 -1.42,-0.7 -1.41,-0.72 -1.39,-0.77 -1.36,-0.79 -1.35,-0.84 -1.33,-0.86 -1.3,-0.9 -1.28,-0.93 -1.26,-0.96 -1.23,-1 -1.21,-1.02 -1.18,-1.05 -1.15,-1.09 -1.13,-1.11 -1.1,-1.14 -1.07,-1.17 -1.04,-1.19 -1.01,-1.22 -0.97,-1.25 -0.95,-1.27 -0.91,-1.29 -0.89,-1.31 -0.84,-1.34 -0.82,-1.36 -0.78,-1.37 -0.74,-1.4 -0.71,-1.42 -0.68,-1.43 -0.64,-1.45 -0.6,-1.46 -0.56,-1.48 -0.53,-1.49 -0.49,-1.51 -0.45,-1.52 -0.41,-1.53 -0.38,-1.53 -0.33,-1.55 -0.3,-1.56 -0.26,-1.56 -0.21,-1.57 -0.18,-1.57 -0.14,-1.58 -0.1,-1.58 -0.06,-1.58 -0.02,-1.58 m -216.54,-905.51 0.02,-1.58 0.06,-1.58 0.1,-1.58 0.14,-1.58 0.18,-1.57 0.21,-1.57 0.26,-1.56 0.3,-1.56 0.33,-1.55 0.38,-1.53 0.41,-1.53 0.45,-1.52 0.49,-1.51 0.53,-1.49 0.56,-1.48 0.6,-1.46 0.64,-1.45 0.68,-1.43 0.71,-1.42 0.74,-1.4 0.78,-1.37 0.82,-1.36 0.84,-1.34 0.89,-1.31 0.91,-1.29 0.95,-1.27 0.97,-1.25 1.01,-1.22 1.04,-1.19 1.07,-1.17 1.1,-1.14 1.13,-1.11 1.15,-1.09 1.18,-1.05 1.21,-1.02 1.23,-1 1.26,-0.96 1.28,-0.93 1.3,-0.9 1.33,-0.86 1.35,-0.84 1.36,-0.79 1.39,-0.77 1.41,-0.72 1.42,-0.7 1.44,-0.65 1.46,-0.62 1.47,-0.58 1.49,-0.55 1.5,-0.51 1.51,-0.47 1.52,-0.43 1.53,-0.39 1.55,-0.36 1.55,-0.31 1.56,-0.28 1.56,-0.24 1.57,-0.2 1.58,-0.16 1.57,-0.12 1.59,-0.08 1.58,-0.04 1.58,0 1.58,0.04 1.59,0.08 1.57,0.12 1.58,0.16 1.57,0.2 1.56,0.24 1.56,0.28 1.55,0.31 1.55,0.36 1.53,0.39 1.52,0.43 1.51,0.47 1.5,0.51 1.49,0.55 1.47,0.58 1.46,0.62 1.44,0.65 1.42,0.7 1.41,0.72 1.39,0.77 1.36,0.79 1.35,0.84 1.33,0.86 1.3,0.9 1.28,0.93 1.26,0.96 1.23,1 1.21,1.02 1.18,1.05 1.15,1.09 1.13,1.11 1.1,1.14 1.07,1.17 1.04,1.19 1.01,1.22 0.97,1.25 0.95,1.27 0.91,1.29 0.89,1.31 0.84,1.34 0.82,1.36 0.78,1.37 0.74,1.4 0.71,1.42 0.68,1.43 0.64,1.45 0.6,1.46 0.56,1.48 0.53,1.49 0.49,1.51 0.45,1.52 0.41,1.53 0.38,1.53 0.33,1.55 0.3,1.56 0.26,1.56 0.21,1.57 0.18,1.57 0.14,1.58 0.1,1.58 0.06,1.58 0.02,1.58 -0.02,1.58 -0.06,1.58 -0.1,1.58 -0.14,1.58 -0.18,1.57 -0.21,1.57 -0.26,1.56 -0.3,1.56 -0.33,1.55 -0.38,1.53 -0.41,1.53 -0.45,1.52 -0.49,1.51 -0.53,1.49 -0.56,1.48 -0.6,1.46 -0.64,1.45 -0.68,1.43 -0.71,1.42 -0.74,1.4 -0.78,1.37 -0.82,1.36 -0.84,1.34 -0.89,1.31 -0.91,1.29 -0.95,1.27 -0.97,1.25 -1.01,1.22 -1.04,1.19 -1.07,1.17 -1.1,1.14 -1.13,1.11 -1.15,1.09 -1.18,1.05 -1.21,1.02 -1.23,1 -1.26,0.96 -1.28,0.93 -1.3,0.9 -1.33,0.86 -1.35,0.84 -1.36,0.79 -1.39,0.77 -1.41,0.72 -1.42,0.7 -1.44,0.65 -1.46,0.62 -1.47,0.58 -1.49,0.55 -1.5,0.51 -1.51,0.47 -1.52,0.43 -1.53,0.39 -1.55,0.36 -1.55,0.31 -1.56,0.28 -1.56,0.24 -1.57,0.2 -1.58,0.16 -1.57,0.12 -1.59,0.08 -1.58,0.04 -1.58,0 -1.58,-0.04 -1.59,-0.08 -1.57,-0.12 -1.58,-0.16 -1.57,-0.2 -1.56,-0.24 -1.56,-0.28 -1.55,-0.31 -1.55,-0.36 -1.53,-0.39 -1.52,-0.43 -1.51,-0.47 -1.5,-0.51 -1.49,-0.55 -1.47,-0.58 -1.46,-0.62 -1.44,-0.65 -1.42,-0.7 -1.41,-0.72 -1.39,-0.77 -1.36,-0.79 -1.35,-0.84 -1.33,-0.86 -1.3,-0.9 -1.28,-0.93 -1.26,-0.96 -1.23,-1 -1.21,-1.02 -1.18,-1.05 -1.15,-1.09 -1.13,-1.11 -1.1,-1.14 -1.07,-1.17 -1.04,-1.19 -1.01,-1.22 -0.97,-1.25 -0.95,-1.27 -0.91,-1.29 -0.89,-1.31 -0.84,-1.34 -0.82,-1.36 -0.78,-1.37 -0.74,-1.4 -0.71,-1.42 -0.68,-1.43 -0.64,-1.45 -0.6,-1.46 -0.56,-1.48 -0.53,-1.49 -0.49,-1.51 -0.45,-1.52 -0.41,-1.53 -0.38,-1.53 -0.33,-1.55 -0.3,-1.56 -0.26,-1.56 -0.21,-1.57 -0.18,-1.57 -0.14,-1.58 -0.1,-1.58 -0.06,-1.58 -0.02,-1.58 m 8389.77,905.51 0.04,-2.9 0.1,-2.9 0.18,-2.89 0.25,-2.89 0.32,-2.88 0.39,-2.87 0.46,-2.86 0.53,-2.85 0.6,-2.84 0.67,-2.82 0.74,-2.8 0.81,-2.79 0.87,-2.76 0.94,-2.74 1.01,-2.72 1.08,-2.69 1.14,-2.66 1.21,-2.64 1.27,-2.6 1.34,-2.58 1.39,-2.54 1.46,-2.5 1.52,-2.47 1.59,-2.43 1.64,-2.39 1.69,-2.35 1.76,-2.31 1.81,-2.26 1.87,-2.22 1.92,-2.17 1.97,-2.12 2.02,-2.08 2.08,-2.02 2.12,-1.97 2.17,-1.92 2.22,-1.87 2.26,-1.81 2.31,-1.76 2.35,-1.69 2.39,-1.64 2.43,-1.59 2.47,-1.52 2.5,-1.46 2.54,-1.39 2.58,-1.34 2.6,-1.27 2.64,-1.21 2.66,-1.14 2.69,-1.08 2.72,-1.01 2.74,-0.94 2.76,-0.87 2.79,-0.81 2.8,-0.74 2.82,-0.67 2.84,-0.6 2.85,-0.53 2.86,-0.46 2.87,-0.39 2.88,-0.32 2.89,-0.25 2.89,-0.18 2.9,-0.1 2.9,-0.04 2.9,0.04 2.9,0.1 2.89,0.18 2.89,0.25 2.88,0.32 2.87,0.39 2.86,0.46 2.85,0.53 2.84,0.6 2.82,0.67 2.8,0.74 2.79,0.81 2.76,0.87 2.74,0.94 2.72,1.01 2.69,1.08 2.66,1.14 2.64,1.21 2.6,1.27 2.58,1.34 2.54,1.39 2.5,1.46 2.47,1.52 2.43,1.59 2.39,1.64 2.35,1.69 2.31,1.76 2.26,1.81 2.22,1.87 2.17,1.92 2.12,1.97 2.08,2.02 2.02,2.08 1.97,2.12 1.92,2.17 1.87,2.22 1.81,2.26 1.76,2.31 1.69,2.35 1.64,2.39 1.59,2.43 1.52,2.47 1.46,2.5 1.39,2.54 1.34,2.58 1.27,2.6 1.21,2.64 1.14,2.66 1.08,2.69 1.01,2.72 0.94,2.74 0.87,2.76 0.81,2.79 0.74,2.8 0.67,2.82 0.6,2.84 0.53,2.85 0.46,2.86 0.39,2.87 0.32,2.88 0.25,2.89 0.18,2.89 0.1,2.9 0.04,2.9 -0.04,2.9 -0.1,2.9 -0.18,2.89 -0.25,2.89 -0.32,2.88 -0.39,2.87 -0.46,2.86 -0.53,2.85 -0.6,2.84 -0.67,2.82 -0.74,2.8 -0.81,2.79 -0.87,2.76 -0.94,2.74 -1.01,2.72 -1.08,2.69 -1.14,2.66 -1.21,2.64 -1.27,2.6 -1.34,2.58 -1.39,2.54 -1.46,2.5 -1.52,2.47 -1.59,2.43 -1.64,2.39 -1.69,2.35 -1.76,2.31 -1.81,2.26 -1.87,2.22 -1.92,2.17 -1.97,2.12 -2.02,2.08 -2.08,2.02 -2.12,1.97 -2.17,1.92 -2.22,1.87 -2.26,1.81 -2.31,1.76 -2.35,1.69 -2.39,1.64 -2.43,1.59 -2.47,1.52 -2.5,1.46 -2.54,1.39 -2.58,1.34 -2.6,1.27 -2.64,1.21 -2.66,1.14 -2.69,1.08 -2.72,1.01 -2.74,0.94 -2.76,0.87 -2.79,0.81 -2.8,0.74 -2.82,0.67 -2.84,0.6 -2.85,0.53 -2.86,0.46 -2.87,0.39 -2.88,0.32 -2.89,0.25 -2.89,0.18 -2.9,0.1 -2.9,0.04 -2.9,-0.04 -2.9,-0.1 -2.89,-0.18 -2.89,-0.25 -2.88,-0.32 -2.87,-0.39 -2.86,-0.46 -2.85,-0.53 -2.84,-0.6 -2.82,-0.67 -2.8,-0.74 -2.79,-0.81 -2.76,-0.87 -2.74,-0.94 -2.72,-1.01 -2.69,-1.08 -2.66,-1.14 -2.64,-1.21 -2.6,-1.27 -2.58,-1.34 -2.54,-1.39 -2.5,-1.46 -2.47,-1.52 -2.43,-1.59 -2.39,-1.64 -2.35,-1.69 -2.31,-1.76 -2.26,-1.81 -2.22,-1.87 -2.17,-1.92 -2.12,-1.97 -2.08,-2.02 -2.02,-2.08 -1.97,-2.12 -1.92,-2.17 -1.87,-2.22 -1.81,-2.26 -1.76,-2.31 -1.69,-2.35 -1.64,-2.39 -1.59,-2.43 -1.52,-2.47 -1.46,-2.5 -1.39,-2.54 -1.34,-2.58 -1.27,-2.6 -1.21,-2.64 -1.14,-2.66 -1.08,-2.69 -1.01,-2.72 -0.94,-2.74 -0.87,-2.76 -0.81,-2.79 -0.74,-2.8 -0.67,-2.82 -0.6,-2.84 -0.53,-2.85 -0.46,-2.86 -0.39,-2.87 -0.32,-2.88 -0.25,-2.89 -0.18,-2.89 -0.1,-2.9 -0.04,-2.9 m 55.12,0 0.02,-1.58 0.06,-1.58 0.1,-1.58 0.14,-1.58 0.18,-1.57 0.21,-1.57 0.26,-1.56 0.3,-1.56 0.33,-1.55 0.38,-1.53 0.41,-1.53 0.45,-1.52 0.49,-1.51 0.53,-1.49 0.56,-1.48 0.6,-1.46 0.64,-1.45 0.68,-1.43 0.71,-1.42 0.74,-1.4 0.78,-1.37 0.82,-1.36 0.84,-1.34 0.89,-1.31 0.91,-1.29 0.95,-1.27 0.97,-1.25 1.01,-1.22 1.04,-1.19 1.07,-1.17 1.1,-1.14 1.13,-1.11 1.15,-1.09 1.18,-1.05 1.21,-1.02 1.23,-1 1.26,-0.96 1.28,-0.93 1.3,-0.9 1.33,-0.86 1.35,-0.84 1.36,-0.79 1.39,-0.77 1.41,-0.72 1.42,-0.7 1.44,-0.65 1.46,-0.62 1.47,-0.58 1.49,-0.55 1.5,-0.51 1.51,-0.47 1.52,-0.43 1.53,-0.39 1.55,-0.36 1.55,-0.31 1.56,-0.28 1.56,-0.24 1.57,-0.2 1.58,-0.16 1.57,-0.12 1.59,-0.08 1.58,-0.04 1.58,0 1.58,0.04 1.59,0.08 1.57,0.12 1.58,0.16 1.57,0.2 1.56,0.24 1.56,0.28 1.55,0.31 1.55,0.36 1.53,0.39 1.52,0.43 1.51,0.47 1.5,0.51 1.49,0.55 1.47,0.58 1.46,0.62 1.44,0.65 1.42,0.7 1.41,0.72 1.39,0.77 1.36,0.79 1.35,0.84 1.33,0.86 1.3,0.9 1.28,0.93 1.26,0.96 1.23,1 1.21,1.02 1.18,1.05 1.15,1.09 1.13,1.11 1.1,1.14 1.07,1.17 1.04,1.19 1.01,1.22 0.97,1.25 0.95,1.27 0.91,1.29 0.89,1.31 0.84,1.34 0.82,1.36 0.78,1.37 0.74,1.4 0.71,1.42 0.68,1.43 0.64,1.45 0.6,1.46 0.56,1.48 0.53,1.49 0.49,1.51 0.45,1.52 0.41,1.53 0.38,1.53 0.33,1.55 0.3,1.56 0.26,1.56 0.21,1.57 0.18,1.57 0.14,1.58 0.1,1.58 0.06,1.58 0.02,1.58 -0.02,1.58 -0.06,1.58 -0.1,1.58 -0.14,1.58 -0.18,1.57 -0.21,1.57 -0.26,1.56 -0.3,1.56 -0.33,1.55 -0.38,1.53 -0.41,1.53 -0.45,1.52 -0.49,1.51 -0.53,1.49 -0.56,1.48 -0.6,1.46 -0.64,1.45 -0.68,1.43 -0.71,1.42 -0.74,1.4 -0.78,1.37 -0.82,1.36 -0.84,1.34 -0.89,1.31 -0.91,1.29 -0.95,1.27 -0.97,1.25 -1.01,1.22 -1.04,1.19 -1.07,1.17 -1.1,1.14 -1.13,1.11 -1.15,1.09 -1.18,1.05 -1.21,1.02 -1.23,1 -1.26,0.96 -1.28,0.93 -1.3,0.9 -1.33,0.86 -1.35,0.84 -1.36,0.79 -1.39,0.77 -1.41,0.72 -1.42,0.7 -1.44,0.65 -1.46,0.62 -1.47,0.58 -1.49,0.55 -1.5,0.51 -1.51,0.47 -1.52,0.43 -1.53,0.39 -1.55,0.36 -1.55,0.31 -1.56,0.28 -1.56,0.24 -1.57,0.2 -1.58,0.16 -1.57,0.12 -1.59,0.08 -1.58,0.04 -1.58,0 -1.58,-0.04 -1.59,-0.08 -1.57,-0.12 -1.58,-0.16 -1.57,-0.2 -1.56,-0.24 -1.56,-0.28 -1.55,-0.31 -1.55,-0.36 -1.53,-0.39 -1.52,-0.43 -1.51,-0.47 -1.5,-0.51 -1.49,-0.55 -1.47,-0.58 -1.46,-0.62 -1.44,-0.65 -1.42,-0.7 -1.41,-0.72 -1.39,-0.77 -1.36,-0.79 -1.35,-0.84 -1.33,-0.86 -1.3,-0.9 -1.28,-0.93 -1.26,-0.96 -1.23,-1 -1.21,-1.02 -1.18,-1.05 -1.15,-1.09 -1.13,-1.11 -1.1,-1.14 -1.07,-1.17 -1.04,-1.19 -1.01,-1.22 -0.97,-1.25 -0.95,-1.27 -0.91,-1.29 -0.89,-1.31 -0.84,-1.34 -0.82,-1.36 -0.78,-1.37 -0.74,-1.4 -0.71,-1.42 -0.68,-1.43 -0.64,-1.45 -0.6,-1.46 -0.56,-1.48 -0.53,-1.49 -0.49,-1.51 -0.45,-1.52 -0.41,-1.53 -0.38,-1.53 -0.33,-1.55 -0.3,-1.56 -0.26,-1.56 -0.21,-1.57 -0.18,-1.57 -0.14,-1.58 -0.1,-1.58 -0.06,-1.58 -0.02,-1.58 m -55.12,8228.35 0.04,-2.9 0.1,-2.9 0.18,-2.89 0.25,-2.89 0.32,-2.88 0.39,-2.87 0.46,-2.86 0.53,-2.85 0.6,-2.84 0.67,-2.82 0.74,-2.8 0.81,-2.79 0.87,-2.76 0.94,-2.74 1.01,-2.72 1.08,-2.69 1.14,-2.66 1.21,-2.64 1.27,-2.6 1.34,-2.58 1.39,-2.54 1.46,-2.5 1.52,-2.47 1.59,-2.43 1.64,-2.39 1.69,-2.35 1.76,-2.31 1.81,-2.26 1.87,-2.22 1.92,-2.17 1.97,-2.12 2.02,-2.08 2.08,-2.02 2.12,-1.97 2.17,-1.92 2.22,-1.87 2.26,-1.81 2.31,-1.76 2.35,-1.69 2.39,-1.64 2.43,-1.59 2.47,-1.52 2.5,-1.46 2.54,-1.39 2.58,-1.34 2.6,-1.27 2.64,-1.21 2.66,-1.14 2.69,-1.08 2.72,-1.01 2.74,-0.94 2.76,-0.87 2.79,-0.81 2.8,-0.74 2.82,-0.67 2.84,-0.6 2.85,-0.53 2.86,-0.46 2.87,-0.39 2.88,-0.32 2.89,-0.25 2.89,-0.18 2.9,-0.1 2.9,-0.04 2.9,0.04 2.9,0.1 2.89,0.18 2.89,0.25 2.88,0.32 2.87,0.39 2.86,0.46 2.85,0.53 2.84,0.6 2.82,0.67 2.8,0.74 2.79,0.81 2.76,0.87 2.74,0.94 2.72,1.01 2.69,1.08 2.66,1.14 2.64,1.21 2.6,1.27 2.58,1.34 2.54,1.39 2.5,1.46 2.47,1.52 2.43,1.59 2.39,1.64 2.35,1.69 2.31,1.76 2.26,1.81 2.22,1.87 2.17,1.92 2.12,1.97 2.08,2.02 2.02,2.08 1.97,2.12 1.92,2.17 1.87,2.22 1.81,2.26 1.76,2.31 1.69,2.35 1.64,2.39 1.59,2.43 1.52,2.47 1.46,2.5 1.39,2.54 1.34,2.58 1.27,2.6 1.21,2.64 1.14,2.66 1.08,2.69 1.01,2.72 0.94,2.74 0.87,2.76 0.81,2.79 0.74,2.8 0.67,2.82 0.6,2.84 0.53,2.85 0.46,2.86 0.39,2.87 0.32,2.88 0.25,2.89 0.18,2.89 0.1,2.9 0.04,2.9 -0.04,2.9 -0.1,2.9 -0.18,2.89 -0.25,2.89 -0.32,2.88 -0.39,2.87 -0.46,2.86 -0.53,2.85 -0.6,2.84 -0.67,2.82 -0.74,2.8 -0.81,2.79 -0.87,2.76 -0.94,2.74 -1.01,2.72 -1.08,2.69 -1.14,2.66 -1.21,2.64 -1.27,2.6 -1.34,2.58 -1.39,2.54 -1.46,2.5 -1.52,2.47 -1.59,2.43 -1.64,2.39 -1.69,2.35 -1.76,2.31 -1.81,2.26 -1.87,2.22 -1.92,2.17 -1.97,2.12 -2.02,2.08 -2.08,2.02 -2.12,1.97 -2.17,1.92 -2.22,1.87 -2.26,1.81 -2.31,1.76 -2.35,1.69 -2.39,1.64 -2.43,1.59 -2.47,1.52 -2.5,1.46 -2.54,1.39 -2.58,1.34 -2.6,1.27 -2.64,1.21 -2.66,1.14 -2.69,1.08 -2.72,1.01 -2.74,0.94 -2.76,0.87 -2.79,0.81 -2.8,0.74 -2.82,0.67 -2.84,0.6 -2.85,0.53 -2.86,0.46 -2.87,0.39 -2.88,0.32 -2.89,0.25 -2.89,0.18 -2.9,0.1 -2.9,0.04 -2.9,-0.04 -2.9,-0.1 -2.89,-0.18 -2.89,-0.25 -2.88,-0.32 -2.87,-0.39 -2.86,-0.46 -2.85,-0.53 -2.84,-0.6 -2.82,-0.67 -2.8,-0.74 -2.79,-0.81 -2.76,-0.87 -2.74,-0.94 -2.72,-1.01 -2.69,-1.08 -2.66,-1.14 -2.64,-1.21 -2.6,-1.27 -2.58,-1.34 -2.54,-1.39 -2.5,-1.46 -2.47,-1.52 -2.43,-1.59 -2.39,-1.64 -2.35,-1.69 -2.31,-1.76 -2.26,-1.81 -2.22,-1.87 -2.17,-1.92 -2.12,-1.97 -2.08,-2.02 -2.02,-2.08 -1.97,-2.12 -1.92,-2.17 -1.87,-2.22 -1.81,-2.26 -1.76,-2.31 -1.69,-2.35 -1.64,-2.39 -1.59,-2.43 -1.52,-2.47 -1.46,-2.5 -1.39,-2.54 -1.34,-2.58 -1.27,-2.6 -1.21,-2.64 -1.14,-2.66 -1.08,-2.69 -1.01,-2.72 -0.94,-2.74 -0.87,-2.76 -0.81,-2.79 -0.74,-2.8 -0.67,-2.82 -0.6,-2.84 -0.53,-2.85 -0.46,-2.86 -0.39,-2.87 -0.32,-2.88 -0.25,-2.89 -0.18,-2.89 -0.1,-2.9 -0.04,-2.9 m 55.12,0 0.02,-1.58 0.06,-1.58 0.1,-1.58 0.14,-1.58 0.18,-1.57 0.21,-1.57 0.26,-1.56 0.3,-1.56 0.33,-1.55 0.38,-1.53 0.41,-1.53 0.45,-1.52 0.49,-1.51 0.53,-1.49 0.56,-1.48 0.6,-1.46 0.64,-1.45 0.68,-1.43 0.71,-1.42 0.74,-1.4 0.78,-1.37 0.82,-1.36 0.84,-1.34 0.89,-1.31 0.91,-1.29 0.95,-1.27 0.97,-1.25 1.01,-1.22 1.04,-1.19 1.07,-1.17 1.1,-1.14 1.13,-1.11 1.15,-1.09 1.18,-1.05 1.21,-1.02 1.23,-1 1.26,-0.96 1.28,-0.93 1.3,-0.9 1.33,-0.86 1.35,-0.84 1.36,-0.79 1.39,-0.77 1.41,-0.72 1.42,-0.7 1.44,-0.65 1.46,-0.62 1.47,-0.58 1.49,-0.55 1.5,-0.51 1.51,-0.47 1.52,-0.43 1.53,-0.39 1.55,-0.36 1.55,-0.31 1.56,-0.28 1.56,-0.24 1.57,-0.2 1.58,-0.16 1.57,-0.12 1.59,-0.08 1.58,-0.04 1.58,0 1.58,0.04 1.59,0.08 1.57,0.12 1.58,0.16 1.57,0.2 1.56,0.24 1.56,0.28 1.55,0.31 1.55,0.36 1.53,0.39 1.52,0.43 1.51,0.47 1.5,0.51 1.49,0.55 1.47,0.58 1.46,0.62 1.44,0.65 1.42,0.7 1.41,0.72 1.39,0.77 1.36,0.79 1.35,0.84 1.33,0.86 1.3,0.9 1.28,0.93 1.26,0.96 1.23,1 1.21,1.02 1.18,1.05 1.15,1.09 1.13,1.11 1.1,1.14 1.07,1.17 1.04,1.19 1.01,1.22 0.97,1.25 0.95,1.27 0.91,1.29 0.89,1.31 0.84,1.34 0.82,1.36 0.78,1.37 0.74,1.4 0.71,1.42 0.68,1.43 0.64,1.45 0.6,1.46 0.56,1.48 0.53,1.49 0.49,1.51 0.45,1.52 0.41,1.53 0.38,1.53 0.33,1.55 0.3,1.56 0.26,1.56 0.21,1.57 0.18,1.57 0.14,1.58 0.1,1.58 0.06,1.58 0.02,1.58 -0.02,1.58 -0.06,1.58 -0.1,1.58 -0.14,1.58 -0.18,1.57 -0.21,1.57 -0.26,1.56 -0.3,1.56 -0.33,1.55 -0.38,1.53 -0.41,1.53 -0.45,1.52 -0.49,1.51 -0.53,1.49 -0.56,1.48 -0.6,1.46 -0.64,1.45 -0.68,1.43 -0.71,1.42 -0.74,1.4 -0.78,1.37 -0.82,1.36 -0.84,1.34 -0.89,1.31 -0.91,1.29 -0.95,1.27 -0.97,1.25 -1.01,1.22 -1.04,1.19 -1.07,1.17 -1.1,1.14 -1.13,1.11 -1.15,1.09 -1.18,1.05 -1.21,1.02 -1.23,1 -1.26,0.96 -1.28,0.93 -1.3,0.9 -1.33,0.86 -1.35,0.84 -1.36,0.79 -1.39,0.77 -1.41,0.72 -1.42,0.7 -1.44,0.65 -1.46,0.62 -1.47,0.58 -1.49,0.55 -1.5,0.51 -1.51,0.47 -1.52,0.43 -1.53,0.39 -1.55,0.36 -1.55,0.31 -1.56,0.28 -1.56,0.24 -1.57,0.2 -1.58,0.16 -1.57,0.12 -1.59,0.08 -1.58,0.04 -1.58,0 -1.58,-0.04 -1.59,-0.08 -1.57,-0.12 -1.58,-0.16 -1.57,-0.2 -1.56,-0.24 -1.56,-0.28 -1.55,-0.31 -1.55,-0.36 -1.53,-0.39 -1.52,-0.43 -1.51,-0.47 -1.5,-0.51 -1.49,-0.55 -1.47,-0.58 -1.46,-0.62 -1.44,-0.65 -1.42,-0.7 -1.41,-0.72 -1.39,-0.77 -1.36,-0.79 -1.35,-0.84 -1.33,-0.86 -1.3,-0.9 -1.28,-0.93 -1.26,-0.96 -1.23,-1 -1.21,-1.02 -1.18,-1.05 -1.15,-1.09 -1.13,-1.11 -1.1,-1.14 -1.07,-1.17 -1.04,-1.19 -1.01,-1.22 -0.97,-1.25 -0.95,-1.27 -0.91,-1.29 -0.89,-1.31 -0.84,-1.34 -0.82,-1.36 -0.78,-1.37 -0.74,-1.4 -0.71,-1.42 -0.68,-1.43 -0.64,-1.45 -0.6,-1.46 -0.56,-1.48 -0.53,-1.49 -0.49,-1.51 -0.45,-1.52 -0.41,-1.53 -0.38,-1.53 -0.33,-1.55 -0.3,-1.56 -0.26,-1.56 -0.21,-1.57 -0.18,-1.57 -0.14,-1.58 -0.1,-1.58 -0.06,-1.58 -0.02,-1.58" />
  <g
     style="fill-rule:evenodd;stroke-width:0;stroke-linecap:round;stroke-linejoin:round;stroke:#ffffff"
     id="g4256"
     transform="translate(-3.255393e-4,0.00101321)">
    <g
       id="g4229"
       transform="matrix(1,0,0,-1,0,10580.24)"
       style="fill:currentColor;stroke:#ffffff">
      <path
         id="path4231"
         d="m 433.04,538.15 157.48,-157.48 9685.04,0 157.48,157.48 0,8937.01 -157.48,157.48 -8503.94,0 -39.37,39.37 0,488.19 -39.37,39.37 -1062.99,0 -39.37,-39.37 0,-527.56 -157.48,-157.48 0,-8937.01 m 826.77,236.22 0.04,2.9 0.1,2.9 0.18,2.89 0.25,2.89 0.32,2.88 0.39,2.87 0.46,2.86 0.53,2.85 0.6,2.84 0.67,2.82 0.74,2.8 0.81,2.79 0.87,2.76 0.94,2.74 1.01,2.72 1.08,2.69 1.14,2.66 1.21,2.64 1.27,2.6 1.34,2.58 1.39,2.54 1.46,2.5 1.52,2.47 1.59,2.43 1.64,2.39 1.69,2.35 1.76,2.31 1.81,2.26 1.87,2.22 1.92,2.17 1.97,2.12 2.02,2.08 2.08,2.02 2.12,1.97 2.17,1.92 2.22,1.87 2.26,1.81 2.31,1.76 2.35,1.69 2.39,1.64 2.43,1.59 2.47,1.52 2.5,1.46 2.54,1.39 2.58,1.34 2.6,1.27 2.64,1.21 2.66,1.14 2.69,1.08 2.72,1.01 2.74,0.94 2.76,0.87 2.79,0.81 2.8,0.74 2.82,0.67 2.84,0.6 2.85,0.53 2.86,0.46 2.87,0.39 2.88,0.32 2.89,0.25 2.89,0.18 2.9,0.1 2.9,0.04 2.9,-0.04 2.9,-0.1 2.89,-0.18 2.89,-0.25 2.88,-0.32 2.87,-0.39 2.86,-0.46 2.85,-0.53 2.84,-0.6 2.82,-0.67 2.8,-0.74 2.79,-0.81 2.76,-0.87 2.74,-0.94 2.72,-1.01 2.69,-1.08 2.66,-1.14 2.64,-1.21 2.6,-1.27 2.58,-1.34 2.54,-1.39 2.5,-1.46 2.47,-1.52 2.43,-1.59 2.39,-1.64 2.35,-1.69 2.31,-1.76 2.26,-1.81 2.22,-1.87 2.17,-1.92 2.12,-1.97 2.08,-2.02 2.02,-2.08 1.97,-2.12 1.92,-2.17 1.87,-2.22 1.81,-2.26 1.76,-2.31 1.69,-2.35 1.64,-2.39 1.59,-2.43 1.52,-2.47 1.46,-2.5 1.39,-2.54 1.34,-2.58 1.27,-2.6 1.21,-2.64 1.14,-2.66 1.08,-2.69 1.01,-2.72 0.94,-2.74 0.87,-2.76 0.81,-2.79 0.74,-2.8 0.67,-2.82 0.6,-2.84 0.53,-2.85 0.46,-2.86 0.39,-2.87 0.32,-2.88 0.25,-2.89 0.18,-2.89 0.1,-2.9 0.04,-2.9 -0.04,-2.9 -0.1,-2.9 -0.18,-2.89 -0.25,-2.89 -0.32,-2.88 -0.39,-2.87 -0.46,-2.86 -0.53,-2.85 -0.6,-2.84 -0.67,-2.82 -0.74,-2.8 -0.81,-2.79 -0.87,-2.76 -0.94,-2.74 -1.01,-2.72 -1.08,-2.69 -1.14,-2.66 -1.21,-2.64 -1.27,-2.6 -1.34,-2.58 -1.39,-2.54 -1.46,-2.5 -1.52,-2.47 -1.59,-2.43 -1.64,-2.39 -1.69,-2.35 -1.76,-2.31 -1.81,-2.26 -1.87,-2.22 -1.92,-2.17 -1.97,-2.12 -2.02,-2.08 -2.08,-2.02 -2.12,-1.97 -2.17,-1.92 -2.22,-1.87 -2.26,-1.81 -2.31,-1.76 -2.35,-1.69 -2.39,-1.64 -2.43,-1.59 -2.47,-1.52 -2.5,-1.46 -2.54,-1.39 -2.58,-1.34 -2.6,-1.27 -2.64,-1.21 -2.66,-1.14 -2.69,-1.08 -2.72,-1.01 -2.74,-0.94 -2.76,-0.87 -2.79,-0.81 -2.8,-0.74 -2.82,-0.67 -2.84,-0.6 -2.85,-0.53 -2.86,-0.46 -2.87,-0.39 -2.88,-0.32 -2.89,-0.25 -2.89,-0.18 -2.9,-0.1 -2.9,-0.04 -2.9,0.04 -2.9,0.1 -2.89,0.18 -2.89,0.25 -2.88,0.32 -2.87,0.39 -2.86,0.46 -2.85,0.53 -2.84,0.6 -2.82,0.67 -2.8,0.74 -2.79,0.81 -2.76,0.87 -2.74,0.94 -2.72,1.01 -2.69,1.08 -2.66,1.14 -2.64,1.21 -2.6,1.27 -2.58,1.34 -2.54,1.39 -2.5,1.46 -2.47,1.52 -2.43,1.59 -2.39,1.64 -2.35,1.69 -2.31,1.76 -2.26,1.81 -2.22,1.87 -2.17,1.92 -2.12,1.97 -2.08,2.02 -2.02,2.08 -1.97,2.12 -1.92,2.17 -1.87,2.22 -1.81,2.26 -1.76,2.31 -1.69,2.35 -1.64,2.39 -1.59,2.43 -1.52,2.47 -1.46,2.5 -1.39,2.54 -1.34,2.58 -1.27,2.6 -1.21,2.64 -1.14,2.66 -1.08,2.69 -1.01,2.72 -0.94,2.74 -0.87,2.76 -0.81,2.79 -0.74,2.8 -0.67,2.82 -0.6,2.84 -0.53,2.85 -0.46,2.86 -0.39,2.87 -0.32,2.88 -0.25,2.89 -0.18,2.89 -0.1,2.9 -0.04,2.9 m 55.12,0 0.02,1.58 0.06,1.58 0.1,1.58 0.14,1.58 0.18,1.57 0.21,1.57 0.26,1.56 0.3,1.56 0.33,1.55 0.38,1.53 0.41,1.53 0.45,1.52 0.49,1.51 0.53,1.49 0.56,1.48 0.6,1.46 0.64,1.45 0.68,1.43 0.71,1.42 0.74,1.4 0.78,1.37 0.82,1.36 0.84,1.34 0.89,1.31 0.91,1.29 0.95,1.27 0.97,1.25 1.01,1.22 1.04,1.19 1.07,1.17 1.1,1.14 1.13,1.11 1.15,1.09 1.18,1.05 1.21,1.02 1.23,1 1.26,0.96 1.28,0.93 1.3,0.9 1.33,0.86 1.35,0.84 1.36,0.79 1.39,0.77 1.41,0.72 1.42,0.7 1.44,0.65 1.46,0.62 1.47,0.58 1.49,0.55 1.5,0.51 1.51,0.47 1.52,0.43 1.53,0.39 1.55,0.36 1.55,0.31 1.56,0.28 1.56,0.24 1.57,0.2 1.58,0.16 1.57,0.12 1.59,0.08 1.58,0.04 1.58,0 1.58,-0.04 1.59,-0.08 1.57,-0.12 1.58,-0.16 1.57,-0.2 1.56,-0.24 1.56,-0.28 1.55,-0.31 1.55,-0.36 1.53,-0.39 1.52,-0.43 1.51,-0.47 1.5,-0.51 1.49,-0.55 1.47,-0.58 1.46,-0.62 1.44,-0.65 1.42,-0.7 1.41,-0.72 1.39,-0.77 1.36,-0.79 1.35,-0.84 1.33,-0.86 1.3,-0.9 1.28,-0.93 1.26,-0.96 1.23,-1 1.21,-1.02 1.18,-1.05 1.15,-1.09 1.13,-1.11 1.1,-1.14 1.07,-1.17 1.04,-1.19 1.01,-1.22 0.97,-1.25 0.95,-1.27 0.91,-1.29 0.89,-1.31 0.84,-1.34 0.82,-1.36 0.78,-1.37 0.74,-1.4 0.71,-1.42 0.68,-1.43 0.64,-1.45 0.6,-1.46 0.56,-1.48 0.53,-1.49 0.49,-1.51 0.45,-1.52 0.41,-1.53 0.38,-1.53 0.33,-1.55 0.3,-1.56 0.26,-1.56 0.21,-1.57 0.18,-1.57 0.14,-1.58 0.1,-1.58 0.06,-1.58 0.02,-1.58 -0.02,-1.58 -0.06,-1.58 -0.1,-1.58 -0.14,-1.58 -0.18,-1.57 -0.21,-1.57 -0.26,-1.56 -0.3,-1.56 -0.33,-1.55 -0.38,-1.53 -0.41,-1.53 -0.45,-1.52 -0.49,-1.51 -0.53,-1.49 -0.56,-1.48 -0.6,-1.46 -0.64,-1.45 -0.68,-1.43 -0.71,-1.42 -0.74,-1.4 -0.78,-1.37 -0.82,-1.36 -0.84,-1.34 -0.89,-1.31 -0.91,-1.29 -0.95,-1.27 -0.97,-1.25 -1.01,-1.22 -1.04,-1.19 -1.07,-1.17 -1.1,-1.14 -1.13,-1.11 -1.15,-1.09 -1.18,-1.05 -1.21,-1.02 -1.23,-1 -1.26,-0.96 -1.28,-0.93 -1.3,-0.9 -1.33,-0.86 -1.35,-0.84 -1.36,-0.79 -1.39,-0.77 -1.41,-0.72 -1.42,-0.7 -1.44,-0.65 -1.46,-0.62 -1.47,-0.58 -1.49,-0.55 -1.5,-0.51 -1.51,-0.47 -1.52,-0.43 -1.53,-0.39 -1.55,-0.36 -1.55,-0.31 -1.56,-0.28 -1.56,-0.24 -1.57,-0.2 -1.58,-0.16 -1.57,-0.12 -1.59,-0.08 -1.58,-0.04 -1.58,0 -1.58,0.04 -1.59,0.08 -1.57,0.12 -1.58,0.16 -1.57,0.2 -1.56,0.24 -1.56,0.28 -1.55,0.31 -1.55,0.36 -1.53,0.39 -1.52,0.43 -1.51,0.47 -1.5,0.51 -1.49,0.55 -1.47,0.58 -1.46,0.62 -1.44,0.65 -1.42,0.7 -1.41,0.72 -1.39,0.77 -1.36,0.79 -1.35,0.84 -1.33,0.86 -1.3,0.9 -1.28,0.93 -1.26,0.96 -1.23,1 -1.21,1.02 -1.18,1.05 -1.15,1.09 -1.13,1.11 -1.1,1.14 -1.07,1.17 -1.04,1.19 -1.01,1.22 -0.97,1.25 -0.95,1.27 -0.91,1.29 -0.89,1.31 -0.84,1.34 -0.82,1.36 -0.78,1.37 -0.74,1.4 -0.71,1.42 -0.68,1.43 -0.64,1.45 -0.6,1.46 -0.56,1.48 -0.53,1.49 -0.49,1.51 -0.45,1.52 -0.41,1.53 -0.38,1.53 -0.33,1.55 -0.3,1.56 -0.26,1.56 -0.21,1.57 -0.18,1.57 -0.14,1.58 -0.1,1.58 -0.06,1.58 -0.02,1.58 m 4059.05,3287.4 0.04,2.9 0.1,2.9 0.18,2.89 0.25,2.89 0.32,2.88 0.39,2.87 0.46,2.86 0.53,2.85 0.6,2.84 0.67,2.82 0.74,2.8 0.81,2.79 0.87,2.76 0.94,2.74 1.01,2.72 1.08,2.69 1.14,2.66 1.21,2.64 1.27,2.6 1.34,2.58 1.39,2.54 1.46,2.5 1.52,2.47 1.59,2.43 1.64,2.39 1.69,2.35 1.76,2.31 1.81,2.26 1.87,2.22 1.92,2.17 1.97,2.12 2.02,2.08 2.08,2.02 2.12,1.97 2.17,1.92 2.22,1.87 2.26,1.81 2.31,1.76 2.35,1.69 2.39,1.64 2.43,1.59 2.47,1.52 2.5,1.46 2.54,1.39 2.58,1.34 2.6,1.27 2.64,1.21 2.66,1.14 2.69,1.08 2.72,1.01 2.74,0.94 2.76,0.87 2.79,0.81 2.8,0.74 2.82,0.67 2.84,0.6 2.85,0.53 2.86,0.46 2.87,0.39 2.88,0.32 2.89,0.25 2.89,0.18 2.9,0.1 2.9,0.04 2.9,-0.04 2.9,-0.1 2.89,-0.18 2.89,-0.25 2.88,-0.32 2.87,-0.39 2.86,-0.46 2.85,-0.53 2.84,-0.6 2.82,-0.67 2.8,-0.74 2.79,-0.81 2.76,-0.87 2.74,-0.94 2.72,-1.01 2.69,-1.08 2.66,-1.14 2.64,-1.21 2.6,-1.27 2.58,-1.34 2.54,-1.39 2.5,-1.46 2.47,-1.52 2.43,-1.59 2.39,-1.64 2.35,-1.69 2.31,-1.76 2.26,-1.81 2.22,-1.87 2.17,-1.92 2.12,-1.97 2.08,-2.02 2.02,-2.08 1.97,-2.12 1.92,-2.17 1.87,-2.22 1.81,-2.26 1.76,-2.31 1.69,-2.35 1.64,-2.39 1.59,-2.43 1.52,-2.47 1.46,-2.5 1.39,-2.54 1.34,-2.58 1.27,-2.6 1.21,-2.64 1.14,-2.66 1.08,-2.69 1.01,-2.72 0.94,-2.74 0.87,-2.76 0.81,-2.79 0.74,-2.8 0.67,-2.82 0.6,-2.84 0.53,-2.85 0.46,-2.86 0.39,-2.87 0.32,-2.88 0.25,-2.89 0.18,-2.89 0.1,-2.9 0.04,-2.9 -0.04,-2.9 -0.1,-2.9 -0.18,-2.89 -0.25,-2.89 -0.32,-2.88 -0.39,-2.87 -0.46,-2.86 -0.53,-2.85 -0.6,-2.84 -0.67,-2.82 -0.74,-2.8 -0.81,-2.79 -0.87,-2.76 -0.94,-2.74 -1.01,-2.72 -1.08,-2.69 -1.14,-2.66 -1.21,-2.64 -1.27,-2.6 -1.34,-2.58 -1.39,-2.54 -1.46,-2.5 -1.52,-2.47 -1.59,-2.43 -1.64,-2.39 -1.69,-2.35 -1.76,-2.31 -1.81,-2.26 -1.87,-2.22 -1.92,-2.17 -1.97,-2.12 -2.02,-2.08 -2.08,-2.02 -2.12,-1.97 -2.17,-1.92 -2.22,-1.87 -2.26,-1.81 -2.31,-1.76 -2.35,-1.69 -2.39,-1.64 -2.43,-1.59 -2.47,-1.52 -2.5,-1.46 -2.54,-1.39 -2.58,-1.34 -2.6,-1.27 -2.64,-1.21 -2.66,-1.14 -2.69,-1.08 -2.72,-1.01 -2.74,-0.94 -2.76,-0.87 -2.79,-0.81 -2.8,-0.74 -2.82,-0.67 -2.84,-0.6 -2.85,-0.53 -2.86,-0.46 -2.87,-0.39 -2.88,-0.32 -2.89,-0.25 -2.89,-0.18 -2.9,-0.1 -2.9,-0.04 -2.9,0.04 -2.9,0.1 -2.89,0.18 -2.89,0.25 -2.88,0.32 -2.87,0.39 -2.86,0.46 -2.85,0.53 -2.84,0.6 -2.82,0.67 -2.8,0.74 -2.79,0.81 -2.76,0.87 -2.74,0.94 -2.72,1.01 -2.69,1.08 -2.66,1.14 -2.64,1.21 -2.6,1.27 -2.58,1.34 -2.54,1.39 -2.5,1.46 -2.47,1.52 -2.43,1.59 -2.39,1.64 -2.35,1.69 -2.31,1.76 -2.26,1.81 -2.22,1.87 -2.17,1.92 -2.12,1.97 -2.08,2.02 -2.02,2.08 -1.97,2.12 -1.92,2.17 -1.87,2.22 -1.81,2.26 -1.76,2.31 -1.69,2.35 -1.64,2.39 -1.59,2.43 -1.52,2.47 -1.46,2.5 -1.39,2.54 -1.34,2.58 -1.27,2.6 -1.21,2.64 -1.14,2.66 -1.08,2.69 -1.01,2.72 -0.94,2.74 -0.87,2.76 -0.81,2.79 -0.74,2.8 -0.67,2.82 -0.6,2.84 -0.53,2.85 -0.46,2.86 -0.39,2.87 -0.32,2.88 -0.25,2.89 -0.18,2.89 -0.1,2.9 -0.04,2.9 m 0,1614.17 0.04,2.9 0.1,2.9 0.18,2.89 0.25,2.89 0.32,2.88 0.39,2.87 0.46,2.86 0.53,2.85 0.6,2.84 0.67,2.82 0.74,2.8 0.81,2.79 0.87,2.76 0.94,2.74 1.01,2.72 1.08,2.69 1.14,2.66 1.21,2.64 1.27,2.6 1.34,2.58 1.39,2.54 1.46,2.5 1.52,2.47 1.59,2.43 1.64,2.39 1.69,2.35 1.76,2.31 1.81,2.26 1.87,2.22 1.92,2.17 1.97,2.12 2.02,2.08 2.08,2.02 2.12,1.97 2.17,1.92 2.22,1.87 2.26,1.81 2.31,1.76 2.35,1.69 2.39,1.64 2.43,1.59 2.47,1.52 2.5,1.46 2.54,1.39 2.58,1.34 2.6,1.27 2.64,1.21 2.66,1.14 2.69,1.08 2.72,1.01 2.74,0.94 2.76,0.87 2.79,0.81 2.8,0.74 2.82,0.67 2.84,0.6 2.85,0.53 2.86,0.46 2.87,0.39 2.88,0.32 2.89,0.25 2.89,0.18 2.9,0.1 2.9,0.04 2.9,-0.04 2.9,-0.1 2.89,-0.18 2.89,-0.25 2.88,-0.32 2.87,-0.39 2.86,-0.46 2.85,-0.53 2.84,-0.6 2.82,-0.67 2.8,-0.74 2.79,-0.81 2.76,-0.87 2.74,-0.94 2.72,-1.01 2.69,-1.08 2.66,-1.14 2.64,-1.21 2.6,-1.27 2.58,-1.34 2.54,-1.39 2.5,-1.46 2.47,-1.52 2.43,-1.59 2.39,-1.64 2.35,-1.69 2.31,-1.76 2.26,-1.81 2.22,-1.87 2.17,-1.92 2.12,-1.97 2.08,-2.02 2.02,-2.08 1.97,-2.12 1.92,-2.17 1.87,-2.22 1.81,-2.26 1.76,-2.31 1.69,-2.35 1.64,-2.39 1.59,-2.43 1.52,-2.47 1.46,-2.5 1.39,-2.54 1.34,-2.58 1.27,-2.6 1.21,-2.64 1.14,-2.66 1.08,-2.69 1.01,-2.72 0.94,-2.74 0.87,-2.76 0.81,-2.79 0.74,-2.8 0.67,-2.82 0.6,-2.84 0.53,-2.85 0.46,-2.86 0.39,-2.87 0.32,-2.88 0.25,-2.89 0.18,-2.89 0.1,-2.9 0.04,-2.9 -0.04,-2.9 -0.1,-2.9 -0.18,-2.89 -0.25,-2.89 -0.32,-2.88 -0.39,-2.87 -0.46,-2.86 -0.53,-2.85 -0.6,-2.84 -0.67,-2.82 -0.74,-2.8 -0.81,-2.79 -0.87,-2.76 -0.94,-2.74 -1.01,-2.72 -1.08,-2.69 -1.14,-2.66 -1.21,-2.64 -1.27,-2.6 -1.34,-2.58 -1.39,-2.54 -1.46,-2.5 -1.52,-2.47 -1.59,-2.43 -1.64,-2.39 -1.69,-2.35 -1.76,-2.31 -1.81,-2.26 -1.87,-2.22 -1.92,-2.17 -1.97,-2.12 -2.02,-2.08 -2.08,-2.02 -2.12,-1.97 -2.17,-1.92 -2.22,-1.87 -2.26,-1.81 -2.31,-1.76 -2.35,-1.69 -2.39,-1.64 -2.43,-1.59 -2.47,-1.52 -2.5,-1.46 -2.54,-1.39 -2.58,-1.34 -2.6,-1.27 -2.64,-1.21 -2.66,-1.14 -2.69,-1.08 -2.72,-1.01 -2.74,-0.94 -2.76,-0.87 -2.79,-0.81 -2.8,-0.74 -2.82,-0.67 -2.84,-0.6 -2.85,-0.53 -2.86,-0.46 -2.87,-0.39 -2.88,-0.32 -2.89,-0.25 -2.89,-0.18 -2.9,-0.1 -2.9,-0.04 -2.9,0.04 -2.9,0.1 -2.89,0.18 -2.89,0.25 -2.88,0.32 -2.87,0.39 -2.86,0.46 -2.85,0.53 -2.84,0.6 -2.82,0.67 -2.8,0.74 -2.79,0.81 -2.76,0.87 -2.74,0.94 -2.72,1.01 -2.69,1.08 -2.66,1.14 -2.64,1.21 -2.6,1.27 -2.58,1.34 -2.54,1.39 -2.5,1.46 -2.47,1.52 -2.43,1.59 -2.39,1.64 -2.35,1.69 -2.31,1.76 -2.26,1.81 -2.22,1.87 -2.17,1.92 -2.12,1.97 -2.08,2.02 -2.02,2.08 -1.97,2.12 -1.92,2.17 -1.87,2.22 -1.81,2.26 -1.76,2.31 -1.69,2.35 -1.64,2.39 -1.59,2.43 -1.52,2.47 -1.46,2.5 -1.39,2.54 -1.34,2.58 -1.27,2.6 -1.21,2.64 -1.14,2.66 -1.08,2.69 -1.01,2.72 -0.94,2.74 -0.87,2.76 -0.81,2.79 -0.74,2.8 -0.67,2.82 -0.6,2.84 -0.53,2.85 -0.46,2.86 -0.39,2.87 -0.32,2.88 -0.25,2.89 -0.18,2.89 -0.1,2.9 -0.04,2.9 m -4114.17,3326.78 0.04,2.9 0.1,2.9 0.18,2.89 0.25,2.89 0.32,2.88 0.39,2.87 0.46,2.86 0.53,2.85 0.6,2.84 0.67,2.82 0.74,2.8 0.81,2.79 0.87,2.76 0.94,2.74 1.01,2.72 1.08,2.69 1.14,2.66 1.21,2.64 1.27,2.6 1.34,2.58 1.39,2.54 1.46,2.5 1.52,2.47 1.59,2.43 1.64,2.39 1.69,2.35 1.76,2.31 1.81,2.26 1.87,2.22 1.92,2.17 1.97,2.12 2.02,2.08 2.08,2.02 2.12,1.97 2.17,1.92 2.22,1.87 2.26,1.81 2.31,1.76 2.35,1.69 2.39,1.64 2.43,1.59 2.47,1.52 2.5,1.46 2.54,1.39 2.58,1.34 2.6,1.27 2.64,1.21 2.66,1.14 2.69,1.08 2.72,1.01 2.74,0.94 2.76,0.87 2.79,0.81 2.8,0.74 2.82,0.67 2.84,0.6 2.85,0.53 2.86,0.46 2.87,0.39 2.88,0.32 2.89,0.25 2.89,0.18 2.9,0.1 2.9,0.04 2.9,-0.04 2.9,-0.1 2.89,-0.18 2.89,-0.25 2.88,-0.32 2.87,-0.39 2.86,-0.46 2.85,-0.53 2.84,-0.6 2.82,-0.67 2.8,-0.74 2.79,-0.81 2.76,-0.87 2.74,-0.94 2.72,-1.01 2.69,-1.08 2.66,-1.14 2.64,-1.21 2.6,-1.27 2.58,-1.34 2.54,-1.39 2.5,-1.46 2.47,-1.52 2.43,-1.59 2.39,-1.64 2.35,-1.69 2.31,-1.76 2.26,-1.81 2.22,-1.87 2.17,-1.92 2.12,-1.97 2.08,-2.02 2.02,-2.08 1.97,-2.12 1.92,-2.17 1.87,-2.22 1.81,-2.26 1.76,-2.31 1.69,-2.35 1.64,-2.39 1.59,-2.43 1.52,-2.47 1.46,-2.5 1.39,-2.54 1.34,-2.58 1.27,-2.6 1.21,-2.64 1.14,-2.66 1.08,-2.69 1.01,-2.72 0.94,-2.74 0.87,-2.76 0.81,-2.79 0.74,-2.8 0.67,-2.82 0.6,-2.84 0.53,-2.85 0.46,-2.86 0.39,-2.87 0.32,-2.88 0.25,-2.89 0.18,-2.89 0.1,-2.9 0.04,-2.9 -0.04,-2.9 -0.1,-2.9 -0.18,-2.89 -0.25,-2.89 -0.32,-2.88 -0.39,-2.87 -0.46,-2.86 -0.53,-2.85 -0.6,-2.84 -0.67,-2.82 -0.74,-2.8 -0.81,-2.79 -0.87,-2.76 -0.94,-2.74 -1.01,-2.72 -1.08,-2.69 -1.14,-2.66 -1.21,-2.64 -1.27,-2.6 -1.34,-2.58 -1.39,-2.54 -1.46,-2.5 -1.52,-2.47 -1.59,-2.43 -1.64,-2.39 -1.69,-2.35 -1.76,-2.31 -1.81,-2.26 -1.87,-2.22 -1.92,-2.17 -1.97,-2.12 -2.02,-2.08 -2.08,-2.02 -2.12,-1.97 -2.17,-1.92 -2.22,-1.87 -2.26,-1.81 -2.31,-1.76 -2.35,-1.69 -2.39,-1.64 -2.43,-1.59 -2.47,-1.52 -2.5,-1.46 -2.54,-1.39 -2.58,-1.34 -2.6,-1.27 -2.64,-1.21 -2.66,-1.14 -2.69,-1.08 -2.72,-1.01 -2.74,-0.94 -2.76,-0.87 -2.79,-0.81 -2.8,-0.74 -2.82,-0.67 -2.84,-0.6 -2.85,-0.53 -2.86,-0.46 -2.87,-0.39 -2.88,-0.32 -2.89,-0.25 -2.89,-0.18 -2.9,-0.1 -2.9,-0.04 -2.9,0.04 -2.9,0.1 -2.89,0.18 -2.89,0.25 -2.88,0.32 -2.87,0.39 -2.86,0.46 -2.85,0.53 -2.84,0.6 -2.82,0.67 -2.8,0.74 -2.79,0.81 -2.76,0.87 -2.74,0.94 -2.72,1.01 -2.69,1.08 -2.66,1.14 -2.64,1.21 -2.6,1.27 -2.58,1.34 -2.54,1.39 -2.5,1.46 -2.47,1.52 -2.43,1.59 -2.39,1.64 -2.35,1.69 -2.31,1.76 -2.26,1.81 -2.22,1.87 -2.17,1.92 -2.12,1.97 -2.08,2.02 -2.02,2.08 -1.97,2.12 -1.92,2.17 -1.87,2.22 -1.81,2.26 -1.76,2.31 -1.69,2.35 -1.64,2.39 -1.59,2.43 -1.52,2.47 -1.46,2.5 -1.39,2.54 -1.34,2.58 -1.27,2.6 -1.21,2.64 -1.14,2.66 -1.08,2.69 -1.01,2.72 -0.94,2.74 -0.87,2.76 -0.81,2.79 -0.74,2.8 -0.67,2.82 -0.6,2.84 -0.53,2.85 -0.46,2.86 -0.39,2.87 -0.32,2.88 -0.25,2.89 -0.18,2.89 -0.1,2.9 -0.04,2.9 m 55.12,0 0.02,1.58 0.06,1.58 0.1,1.58 0.14,1.58 0.18,1.57 0.21,1.57 0.26,1.56 0.3,1.56 0.33,1.55 0.38,1.53 0.41,1.53 0.45,1.52 0.49,1.51 0.53,1.49 0.56,1.48 0.6,1.46 0.64,1.45 0.68,1.43 0.71,1.42 0.74,1.4 0.78,1.37 0.82,1.36 0.84,1.34 0.89,1.31 0.91,1.29 0.95,1.27 0.97,1.25 1.01,1.22 1.04,1.19 1.07,1.17 1.1,1.14 1.13,1.11 1.15,1.09 1.18,1.05 1.21,1.02 1.23,1 1.26,0.96 1.28,0.93 1.3,0.9 1.33,0.86 1.35,0.84 1.36,0.79 1.39,0.77 1.41,0.72 1.42,0.7 1.44,0.65 1.46,0.62 1.47,0.58 1.49,0.55 1.5,0.51 1.51,0.47 1.52,0.43 1.53,0.39 1.55,0.36 1.55,0.31 1.56,0.28 1.56,0.24 1.57,0.2 1.58,0.16 1.57,0.12 1.59,0.08 1.58,0.04 1.58,0 1.58,-0.04 1.59,-0.08 1.57,-0.12 1.58,-0.16 1.57,-0.2 1.56,-0.24 1.56,-0.28 1.55,-0.31 1.55,-0.36 1.53,-0.39 1.52,-0.43 1.51,-0.47 1.5,-0.51 1.49,-0.55 1.47,-0.58 1.46,-0.62 1.44,-0.65 1.42,-0.7 1.41,-0.72 1.39,-0.77 1.36,-0.79 1.35,-0.84 1.33,-0.86 1.3,-0.9 1.28,-0.93 1.26,-0.96 1.23,-1 1.21,-1.02 1.18,-1.05 1.15,-1.09 1.13,-1.11 1.1,-1.14 1.07,-1.17 1.04,-1.19 1.01,-1.22 0.97,-1.25 0.95,-1.27 0.91,-1.29 0.89,-1.31 0.84,-1.34 0.82,-1.36 0.78,-1.37 0.74,-1.4 0.71,-1.42 0.68,-1.43 0.64,-1.45 0.6,-1.46 0.56,-1.48 0.53,-1.49 0.49,-1.51 0.45,-1.52 0.41,-1.53 0.38,-1.53 0.33,-1.55 0.3,-1.56 0.26,-1.56 0.21,-1.57 0.18,-1.57 0.14,-1.58 0.1,-1.58 0.06,-1.58 0.02,-1.58 -0.02,-1.58 -0.06,-1.58 -0.1,-1.58 -0.14,-1.58 -0.18,-1.57 -0.21,-1.57 -0.26,-1.56 -0.3,-1.56 -0.33,-1.55 -0.38,-1.53 -0.41,-1.53 -0.45,-1.52 -0.49,-1.51 -0.53,-1.49 -0.56,-1.48 -0.6,-1.46 -0.64,-1.45 -0.68,-1.43 -0.71,-1.42 -0.74,-1.4 -0.78,-1.37 -0.82,-1.36 -0.84,-1.34 -0.89,-1.31 -0.91,-1.29 -0.95,-1.27 -0.97,-1.25 -1.01,-1.22 -1.04,-1.19 -1.07,-1.17 -1.1,-1.14 -1.13,-1.11 -1.15,-1.09 -1.18,-1.05 -1.21,-1.02 -1.23,-1 -1.26,-0.96 -1.28,-0.93 -1.3,-0.9 -1.33,-0.86 -1.35,-0.84 -1.36,-0.79 -1.39,-0.77 -1.41,-0.72 -1.42,-0.7 -1.44,-0.65 -1.46,-0.62 -1.47,-0.58 -1.49,-0.55 -1.5,-0.51 -1.51,-0.47 -1.52,-0.43 -1.53,-0.39 -1.55,-0.36 -1.55,-0.31 -1.56,-0.28 -1.56,-0.24 -1.57,-0.2 -1.58,-0.16 -1.57,-0.12 -1.59,-0.08 -1.58,-0.04 -1.58,0 -1.58,0.04 -1.59,0.08 -1.57,0.12 -1.58,0.16 -1.57,0.2 -1.56,0.24 -1.56,0.28 -1.55,0.31 -1.55,0.36 -1.53,0.39 -1.52,0.43 -1.51,0.47 -1.5,0.51 -1.49,0.55 -1.47,0.58 -1.46,0.62 -1.44,0.65 -1.42,0.7 -1.41,0.72 -1.39,0.77 -1.36,0.79 -1.35,0.84 -1.33,0.86 -1.3,0.9 -1.28,0.93 -1.26,0.96 -1.23,1 -1.21,1.02 -1.18,1.05 -1.15,1.09 -1.13,1.11 -1.1,1.14 -1.07,1.17 -1.04,1.19 -1.01,1.22 -0.97,1.25 -0.95,1.27 -0.91,1.29 -0.89,1.31 -0.84,1.34 -0.82,1.36 -0.78,1.37 -0.74,1.4 -0.71,1.42 -0.68,1.43 -0.64,1.45 -0.6,1.46 -0.56,1.48 -0.53,1.49 -0.49,1.51 -0.45,1.52 -0.41,1.53 -0.38,1.53 -0.33,1.55 -0.3,1.56 -0.26,1.56 -0.21,1.57 -0.18,1.57 -0.14,1.58 -0.1,1.58 -0.06,1.58 -0.02,1.58 m -216.54,905.51 0.02,1.58 0.06,1.58 0.1,1.58 0.14,1.58 0.18,1.57 0.21,1.57 0.26,1.56 0.3,1.56 0.33,1.55 0.38,1.53 0.41,1.53 0.45,1.52 0.49,1.51 0.53,1.49 0.56,1.48 0.6,1.46 0.64,1.45 0.68,1.43 0.71,1.42 0.74,1.4 0.78,1.37 0.82,1.36 0.84,1.34 0.89,1.31 0.91,1.29 0.95,1.27 0.97,1.25 1.01,1.22 1.04,1.19 1.07,1.17 1.1,1.14 1.13,1.11 1.15,1.09 1.18,1.05 1.21,1.02 1.23,1 1.26,0.96 1.28,0.93 1.3,0.9 1.33,0.86 1.35,0.84 1.36,0.79 1.39,0.77 1.41,0.72 1.42,0.7 1.44,0.65 1.46,0.62 1.47,0.58 1.49,0.55 1.5,0.51 1.51,0.47 1.52,0.43 1.53,0.39 1.55,0.36 1.55,0.31 1.56,0.28 1.56,0.24 1.57,0.2 1.58,0.16 1.57,0.12 1.59,0.08 1.58,0.04 1.58,0 1.58,-0.04 1.59,-0.08 1.57,-0.12 1.58,-0.16 1.57,-0.2 1.56,-0.24 1.56,-0.28 1.55,-0.31 1.55,-0.36 1.53,-0.39 1.52,-0.43 1.51,-0.47 1.5,-0.51 1.49,-0.55 1.47,-0.58 1.46,-0.62 1.44,-0.65 1.42,-0.7 1.41,-0.72 1.39,-0.77 1.36,-0.79 1.35,-0.84 1.33,-0.86 1.3,-0.9 1.28,-0.93 1.26,-0.96 1.23,-1 1.21,-1.02 1.18,-1.05 1.15,-1.09 1.13,-1.11 1.1,-1.14 1.07,-1.17 1.04,-1.19 1.01,-1.22 0.97,-1.25 0.95,-1.27 0.91,-1.29 0.89,-1.31 0.84,-1.34 0.82,-1.36 0.78,-1.37 0.74,-1.4 0.71,-1.42 0.68,-1.43 0.64,-1.45 0.6,-1.46 0.56,-1.48 0.53,-1.49 0.49,-1.51 0.45,-1.52 0.41,-1.53 0.38,-1.53 0.33,-1.55 0.3,-1.56 0.26,-1.56 0.21,-1.57 0.18,-1.57 0.14,-1.58 0.1,-1.58 0.06,-1.58 0.02,-1.58 -0.02,-1.58 -0.06,-1.58 -0.1,-1.58 -0.14,-1.58 -0.18,-1.57 -0.21,-1.57 -0.26,-1.56 -0.3,-1.56 -0.33,-1.55 -0.38,-1.53 -0.41,-1.53 -0.45,-1.52 -0.49,-1.51 -0.53,-1.49 -0.56,-1.48 -0.6,-1.46 -0.64,-1.45 -0.68,-1.43 -0.71,-1.42 -0.74,-1.4 -0.78,-1.37 -0.82,-1.36 -0.84,-1.34 -0.89,-1.31 -0.91,-1.29 -0.95,-1.27 -0.97,-1.25 -1.01,-1.22 -1.04,-1.19 -1.07,-1.17 -1.1,-1.14 -1.13,-1.11 -1.15,-1.09 -1.18,-1.05 -1.21,-1.02 -1.23,-1 -1.26,-0.96 -1.28,-0.93 -1.3,-0.9 -1.33,-0.86 -1.35,-0.84 -1.36,-0.79 -1.39,-0.77 -1.41,-0.72 -1.42,-0.7 -1.44,-0.65 -1.46,-0.62 -1.47,-0.58 -1.49,-0.55 -1.5,-0.51 -1.51,-0.47 -1.52,-0.43 -1.53,-0.39 -1.55,-0.36 -1.55,-0.31 -1.56,-0.28 -1.56,-0.24 -1.57,-0.2 -1.58,-0.16 -1.57,-0.12 -1.59,-0.08 -1.58,-0.04 -1.58,0 -1.58,0.04 -1.59,0.08 -1.57,0.12 -1.58,0.16 -1.57,0.2 -1.56,0.24 -1.56,0.28 -1.55,0.31 -1.55,0.36 -1.53,0.39 -1.52,0.43 -1.51,0.47 -1.5,0.51 -1.49,0.55 -1.47,0.58 -1.46,0.62 -1.44,0.65 -1.42,0.7 -1.41,0.72 -1.39,0.77 -1.36,0.79 -1.35,0.84 -1.33,0.86 -1.3,0.9 -1.28,0.93 -1.26,0.96 -1.23,1 -1.21,1.02 -1.18,1.05 -1.15,1.09 -1.13,1.11 -1.1,1.14 -1.07,1.17 -1.04,1.19 -1.01,1.22 -0.97,1.25 -0.95,1.27 -0.91,1.29 -0.89,1.31 -0.84,1.34 -0.82,1.36 -0.78,1.37 -0.74,1.4 -0.71,1.42 -0.68,1.43 -0.64,1.45 -0.6,1.46 -0.56,1.48 -0.53,1.49 -0.49,1.51 -0.45,1.52 -0.41,1.53 -0.38,1.53 -0.33,1.55 -0.3,1.56 -0.26,1.56 -0.21,1.57 -0.18,1.57 -0.14,1.58 -0.1,1.58 -0.06,1.58 -0.02,1.58 m 8389.77,-905.51 0.04,2.9 0.1,2.9 0.18,2.89 0.25,2.89 0.32,2.88 0.39,2.87 0.46,2.86 0.53,2.85 0.6,2.84 0.67,2.82 0.74,2.8 0.81,2.79 0.87,2.76 0.94,2.74 1.01,2.72 1.08,2.69 1.14,2.66 1.21,2.64 1.27,2.6 1.34,2.58 1.39,2.54 1.46,2.5 1.52,2.47 1.59,2.43 1.64,2.39 1.69,2.35 1.76,2.31 1.81,2.26 1.87,2.22 1.92,2.17 1.97,2.12 2.02,2.08 2.08,2.02 2.12,1.97 2.17,1.92 2.22,1.87 2.26,1.81 2.31,1.76 2.35,1.69 2.39,1.64 2.43,1.59 2.47,1.52 2.5,1.46 2.54,1.39 2.58,1.34 2.6,1.27 2.64,1.21 2.66,1.14 2.69,1.08 2.72,1.01 2.74,0.94 2.76,0.87 2.79,0.81 2.8,0.74 2.82,0.67 2.84,0.6 2.85,0.53 2.86,0.46 2.87,0.39 2.88,0.32 2.89,0.25 2.89,0.18 2.9,0.1 2.9,0.04 2.9,-0.04 2.9,-0.1 2.89,-0.18 2.89,-0.25 2.88,-0.32 2.87,-0.39 2.86,-0.46 2.85,-0.53 2.84,-0.6 2.82,-0.67 2.8,-0.74 2.79,-0.81 2.76,-0.87 2.74,-0.94 2.72,-1.01 2.69,-1.08 2.66,-1.14 2.64,-1.21 2.6,-1.27 2.58,-1.34 2.54,-1.39 2.5,-1.46 2.47,-1.52 2.43,-1.59 2.39,-1.64 2.35,-1.69 2.31,-1.76 2.26,-1.81 2.22,-1.87 2.17,-1.92 2.12,-1.97 2.08,-2.02 2.02,-2.08 1.97,-2.12 1.92,-2.17 1.87,-2.22 1.81,-2.26 1.76,-2.31 1.69,-2.35 1.64,-2.39 1.59,-2.43 1.52,-2.47 1.46,-2.5 1.39,-2.54 1.34,-2.58 1.27,-2.6 1.21,-2.64 1.14,-2.66 1.08,-2.69 1.01,-2.72 0.94,-2.74 0.87,-2.76 0.81,-2.79 0.74,-2.8 0.67,-2.82 0.6,-2.84 0.53,-2.85 0.46,-2.86 0.39,-2.87 0.32,-2.88 0.25,-2.89 0.18,-2.89 0.1,-2.9 0.04,-2.9 -0.04,-2.9 -0.1,-2.9 -0.18,-2.89 -0.25,-2.89 -0.32,-2.88 -0.39,-2.87 -0.46,-2.86 -0.53,-2.85 -0.6,-2.84 -0.67,-2.82 -0.74,-2.8 -0.81,-2.79 -0.87,-2.76 -0.94,-2.74 -1.01,-2.72 -1.08,-2.69 -1.14,-2.66 -1.21,-2.64 -1.27,-2.6 -1.34,-2.58 -1.39,-2.54 -1.46,-2.5 -1.52,-2.47 -1.59,-2.43 -1.64,-2.39 -1.69,-2.35 -1.76,-2.31 -1.81,-2.26 -1.87,-2.22 -1.92,-2.17 -1.97,-2.12 -2.02,-2.08 -2.08,-2.02 -2.12,-1.97 -2.17,-1.92 -2.22,-1.87 -2.26,-1.81 -2.31,-1.76 -2.35,-1.69 -2.39,-1.64 -2.43,-1.59 -2.47,-1.52 -2.5,-1.46 -2.54,-1.39 -2.58,-1.34 -2.6,-1.27 -2.64,-1.21 -2.66,-1.14 -2.69,-1.08 -2.72,-1.01 -2.74,-0.94 -2.76,-0.87 -2.79,-0.81 -2.8,-0.74 -2.82,-0.67 -2.84,-0.6 -2.85,-0.53 -2.86,-0.46 -2.87,-0.39 -2.88,-0.32 -2.89,-0.25 -2.89,-0.18 -2.9,-0.1 -2.9,-0.04 -2.9,0.04 -2.9,0.1 -2.89,0.18 -2.89,0.25 -2.88,0.32 -2.87,0.39 -2.86,0.46 -2.85,0.53 -2.84,0.6 -2.82,0.67 -2.8,0.74 -2.79,0.81 -2.76,0.87 -2.74,0.94 -2.72,1.01 -2.69,1.08 -2.66,1.14 -2.64,1.21 -2.6,1.27 -2.58,1.34 -2.54,1.39 -2.5,1.46 -2.47,1.52 -2.43,1.59 -2.39,1.64 -2.35,1.69 -2.31,1.76 -2.26,1.81 -2.22,1.87 -2.17,1.92 -2.12,1.97 -2.08,2.02 -2.02,2.08 -1.97,2.12 -1.92,2.17 -1.87,2.22 -1.81,2.26 -1.76,2.31 -1.69,2.35 -1.64,2.39 -1.59,2.43 -1.52,2.47 -1.46,2.5 -1.39,2.54 -1.34,2.58 -1.27,2.6 -1.21,2.64 -1.14,2.66 -1.08,2.69 -1.01,2.72 -0.94,2.74 -0.87,2.76 -0.81,2.79 -0.74,2.8 -0.67,2.82 -0.6,2.84 -0.53,2.85 -0.46,2.86 -0.39,2.87 -0.32,2.88 -0.25,2.89 -0.18,2.89 -0.1,2.9 -0.04,2.9 m 55.12,0 0.02,1.58 0.06,1.58 0.1,1.58 0.14,1.58 0.18,1.57 0.21,1.57 0.26,1.56 0.3,1.56 0.33,1.55 0.38,1.53 0.41,1.53 0.45,1.52 0.49,1.51 0.53,1.49 0.56,1.48 0.6,1.46 0.64,1.45 0.68,1.43 0.71,1.42 0.74,1.4 0.78,1.37 0.82,1.36 0.84,1.34 0.89,1.31 0.91,1.29 0.95,1.27 0.97,1.25 1.01,1.22 1.04,1.19 1.07,1.17 1.1,1.14 1.13,1.11 1.15,1.09 1.18,1.05 1.21,1.02 1.23,1 1.26,0.96 1.28,0.93 1.3,0.9 1.33,0.86 1.35,0.84 1.36,0.79 1.39,0.77 1.41,0.72 1.42,0.7 1.44,0.65 1.46,0.62 1.47,0.58 1.49,0.55 1.5,0.51 1.51,0.47 1.52,0.43 1.53,0.39 1.55,0.36 1.55,0.31 1.56,0.28 1.56,0.24 1.57,0.2 1.58,0.16 1.57,0.12 1.59,0.08 1.58,0.04 1.58,0 1.58,-0.04 1.59,-0.08 1.57,-0.12 1.58,-0.16 1.57,-0.2 1.56,-0.24 1.56,-0.28 1.55,-0.31 1.55,-0.36 1.53,-0.39 1.52,-0.43 1.51,-0.47 1.5,-0.51 1.49,-0.55 1.47,-0.58 1.46,-0.62 1.44,-0.65 1.42,-0.7 1.41,-0.72 1.39,-0.77 1.36,-0.79 1.35,-0.84 1.33,-0.86 1.3,-0.9 1.28,-0.93 1.26,-0.96 1.23,-1 1.21,-1.02 1.18,-1.05 1.15,-1.09 1.13,-1.11 1.1,-1.14 1.07,-1.17 1.04,-1.19 1.01,-1.22 0.97,-1.25 0.95,-1.27 0.91,-1.29 0.89,-1.31 0.84,-1.34 0.82,-1.36 0.78,-1.37 0.74,-1.4 0.71,-1.42 0.68,-1.43 0.64,-1.45 0.6,-1.46 0.56,-1.48 0.53,-1.49 0.49,-1.51 0.45,-1.52 0.41,-1.53 0.38,-1.53 0.33,-1.55 0.3,-1.56 0.26,-1.56 0.21,-1.57 0.18,-1.57 0.14,-1.58 0.1,-1.58 0.06,-1.58 0.02,-1.58 -0.02,-1.58 -0.06,-1.58 -0.1,-1.58 -0.14,-1.58 -0.18,-1.57 -0.21,-1.57 -0.26,-1.56 -0.3,-1.56 -0.33,-1.55 -0.38,-1.53 -0.41,-1.53 -0.45,-1.52 -0.49,-1.51 -0.53,-1.49 -0.56,-1.48 -0.6,-1.46 -0.64,-1.45 -0.68,-1.43 -0.71,-1.42 -0.74,-1.4 -0.78,-1.37 -0.82,-1.36 -0.84,-1.34 -0.89,-1.31 -0.91,-1.29 -0.95,-1.27 -0.97,-1.25 -1.01,-1.22 -1.04,-1.19 -1.07,-1.17 -1.1,-1.14 -1.13,-1.11 -1.15,-1.09 -1.18,-1.05 -1.21,-1.02 -1.23,-1 -1.26,-0.96 -1.28,-0.93 -1.3,-0.9 -1.33,-0.86 -1.35,-0.84 -1.36,-0.79 -1.39,-0.77 -1.41,-0.72 -1.42,-0.7 -1.44,-0.65 -1.46,-0.62 -1.47,-0.58 -1.49,-0.55 -1.5,-0.51 -1.51,-0.47 -1.52,-0.43 -1.53,-0.39 -1.55,-0.36 -1.55,-0.31 -1.56,-0.28 -1.56,-0.24 -1.57,-0.2 -1.58,-0.16 -1.57,-0.12 -1.59,-0.08 -1.58,-0.04 -1.58,0 -1.58,0.04 -1.59,0.08 -1.57,0.12 -1.58,0.16 -1.57,0.2 -1.56,0.24 -1.56,0.28 -1.55,0.31 -1.55,0.36 -1.53,0.39 -1.52,0.43 -1.51,0.47 -1.5,0.51 -1.49,0.55 -1.47,0.58 -1.46,0.62 -1.44,0.65 -1.42,0.7 -1.41,0.72 -1.39,0.77 -1.36,0.79 -1.35,0.84 -1.33,0.86 -1.3,0.9 -1.28,0.93 -1.26,0.96 -1.23,1 -1.21,1.02 -1.18,1.05 -1.15,1.09 -1.13,1.11 -1.1,1.14 -1.07,1.17 -1.04,1.19 -1.01,1.22 -0.97,1.25 -0.95,1.27 -0.91,1.29 -0.89,1.31 -0.84,1.34 -0.82,1.36 -0.78,1.37 -0.74,1.4 -0.71,1.42 -0.68,1.43 -0.64,1.45 -0.6,1.46 -0.56,1.48 -0.53,1.49 -0.49,1.51 -0.45,1.52 -0.41,1.53 -0.38,1.53 -0.33,1.55 -0.3,1.56 -0.26,1.56 -0.21,1.57 -0.18,1.57 -0.14,1.58 -0.1,1.58 -0.06,1.58 -0.02,1.58 m -55.12,-8228.35 0.04,2.9 0.1,2.9 0.18,2.89 0.25,2.89 0.32,2.88 0.39,2.87 0.46,2.86 0.53,2.85 0.6,2.84 0.67,2.82 0.74,2.8 0.81,2.79 0.87,2.76 0.94,2.74 1.01,2.72 1.08,2.69 1.14,2.66 1.21,2.64 1.27,2.6 1.34,2.58 1.39,2.54 1.46,2.5 1.52,2.47 1.59,2.43 1.64,2.39 1.69,2.35 1.76,2.31 1.81,2.26 1.87,2.22 1.92,2.17 1.97,2.12 2.02,2.08 2.08,2.02 2.12,1.97 2.17,1.92 2.22,1.87 2.26,1.81 2.31,1.76 2.35,1.69 2.39,1.64 2.43,1.59 2.47,1.52 2.5,1.46 2.54,1.39 2.58,1.34 2.6,1.27 2.64,1.21 2.66,1.14 2.69,1.08 2.72,1.01 2.74,0.94 2.76,0.87 2.79,0.81 2.8,0.74 2.82,0.67 2.84,0.6 2.85,0.53 2.86,0.46 2.87,0.39 2.88,0.32 2.89,0.25 2.89,0.18 2.9,0.1 2.9,0.04 2.9,-0.04 2.9,-0.1 2.89,-0.18 2.89,-0.25 2.88,-0.32 2.87,-0.39 2.86,-0.46 2.85,-0.53 2.84,-0.6 2.82,-0.67 2.8,-0.74 2.79,-0.81 2.76,-0.87 2.74,-0.94 2.72,-1.01 2.69,-1.08 2.66,-1.14 2.64,-1.21 2.6,-1.27 2.58,-1.34 2.54,-1.39 2.5,-1.46 2.47,-1.52 2.43,-1.59 2.39,-1.64 2.35,-1.69 2.31,-1.76 2.26,-1.81 2.22,-1.87 2.17,-1.92 2.12,-1.97 2.08,-2.02 2.02,-2.08 1.97,-2.12 1.92,-2.17 1.87,-2.22 1.81,-2.26 1.76,-2.31 1.69,-2.35 1.64,-2.39 1.59,-2.43 1.52,-2.47 1.46,-2.5 1.39,-2.54 1.34,-2.58 1.27,-2.6 1.21,-2.64 1.14,-2.66 1.08,-2.69 1.01,-2.72 0.94,-2.74 0.87,-2.76 0.81,-2.79 0.74,-2.8 0.67,-2.82 0.6,-2.84 0.53,-2.85 0.46,-2.86 0.39,-2.87 0.32,-2.88 0.25,-2.89 0.18,-2.89 0.1,-2.9 0.04,-2.9 -0.04,-2.9 -0.1,-2.9 -0.18,-2.89 -0.25,-2.89 -0.32,-2.88 -0.39,-2.87 -0.46,-2.86 -0.53,-2.85 -0.6,-2.84 -0.67,-2.82 -0.74,-2.8 -0.81,-2.79 -0.87,-2.76 -0.94,-2.74 -1.01,-2.72 -1.08,-2.69 -1.14,-2.66 -1.21,-2.64 -1.27,-2.6 -1.34,-2.58 -1.39,-2.54 -1.46,-2.5 -1.52,-2.47 -1.59,-2.43 -1.64,-2.39 -1.69,-2.35 -1.76,-2.31 -1.81,-2.26 -1.87,-2.22 -1.92,-2.17 -1.97,-2.12 -2.02,-2.08 -2.08,-2.02 -2.12,-1.97 -2.17,-1.92 -2.22,-1.87 -2.26,-1.81 -2.31,-1.76 -2.35,-1.69 -2.39,-1.64 -2.43,-1.59 -2.47,-1.52 -2.5,-1.46 -2.54,-1.39 -2.58,-1.34 -2.6,-1.27 -2.64,-1.21 -2.66,-1.14 -2.69,-1.08 -2.72,-1.01 -2.74,-0.94 -2.76,-0.87 -2.79,-0.81 -2.8,-0.74 -2.82,-0.67 -2.84,-0.6 -2.85,-0.53 -2.86,-0.46 -2.87,-0.39 -2.88,-0.32 -2.89,-0.25 -2.89,-0.18 -2.9,-0.1 -2.9,-0.04 -2.9,0.04 -2.9,0.1 -2.89,0.18 -2.89,0.25 -2.88,0.32 -2.87,0.39 -2.86,0.46 -2.85,0.53 -2.84,0.6 -2.82,0.67 -2.8,0.74 -2.79,0.81 -2.76,0.87 -2.74,0.94 -2.72,1.01 -2.69,1.08 -2.66,1.14 -2.64,1.21 -2.6,1.27 -2.58,1.34 -2.54,1.39 -2.5,1.46 -2.47,1.52 -2.43,1.59 -2.39,1.64 -2.35,1.69 -2.31,1.76 -2.26,1.81 -2.22,1.87 -2.17,1.92 -2.12,1.97 -2.08,2.02 -2.02,2.08 -1.97,2.12 -1.92,2.17 -1.87,2.22 -1.81,2.26 -1.76,2.31 -1.69,2.35 -1.64,2.39 -1.59,2.43 -1.52,2.47 -1.46,2.5 -1.39,2.54 -1.34,2.58 -1.27,2.6 -1.21,2.64 -1.14,2.66 -1.08,2.69 -1.01,2.72 -0.94,2.74 -0.87,2.76 -0.81,2.79 -0.74,2.8 -0.67,2.82 -0.6,2.84 -0.53,2.85 -0.46,2.86 -0.39,2.87 -0.32,2.88 -0.25,2.89 -0.18,2.89 -0.1,2.9 -0.04,2.9 m 55.12,0 0.02,1.58 0.06,1.58 0.1,1.58 0.14,1.58 0.18,1.57 0.21,1.57 0.26,1.56 0.3,1.56 0.33,1.55 0.38,1.53 0.41,1.53 0.45,1.52 0.49,1.51 0.53,1.49 0.56,1.48 0.6,1.46 0.64,1.45 0.68,1.43 0.71,1.42 0.74,1.4 0.78,1.37 0.82,1.36 0.84,1.34 0.89,1.31 0.91,1.29 0.95,1.27 0.97,1.25 1.01,1.22 1.04,1.19 1.07,1.17 1.1,1.14 1.13,1.11 1.15,1.09 1.18,1.05 1.21,1.02 1.23,1 1.26,0.96 1.28,0.93 1.3,0.9 1.33,0.86 1.35,0.84 1.36,0.79 1.39,0.77 1.41,0.72 1.42,0.7 1.44,0.65 1.46,0.62 1.47,0.58 1.49,0.55 1.5,0.51 1.51,0.47 1.52,0.43 1.53,0.39 1.55,0.36 1.55,0.31 1.56,0.28 1.56,0.24 1.57,0.2 1.58,0.16 1.57,0.12 1.59,0.08 1.58,0.04 1.58,0 1.58,-0.04 1.59,-0.08 1.57,-0.12 1.58,-0.16 1.57,-0.2 1.56,-0.24 1.56,-0.28 1.55,-0.31 1.55,-0.36 1.53,-0.39 1.52,-0.43 1.51,-0.47 1.5,-0.51 1.49,-0.55 1.47,-0.58 1.46,-0.62 1.44,-0.65 1.42,-0.7 1.41,-0.72 1.39,-0.77 1.36,-0.79 1.35,-0.84 1.33,-0.86 1.3,-0.9 1.28,-0.93 1.26,-0.96 1.23,-1 1.21,-1.02 1.18,-1.05 1.15,-1.09 1.13,-1.11 1.1,-1.14 1.07,-1.17 1.04,-1.19 1.01,-1.22 0.97,-1.25 0.95,-1.27 0.91,-1.29 0.89,-1.31 0.84,-1.34 0.82,-1.36 0.78,-1.37 0.74,-1.4 0.71,-1.42 0.68,-1.43 0.64,-1.45 0.6,-1.46 0.56,-1.48 0.53,-1.49 0.49,-1.51 0.45,-1.52 0.41,-1.53 0.38,-1.53 0.33,-1.55 0.3,-1.56 0.26,-1.56 0.21,-1.57 0.18,-1.57 0.14,-1.58 0.1,-1.58 0.06,-1.58 0.02,-1.58 -0.02,-1.58 -0.06,-1.58 -0.1,-1.58 -0.14,-1.58 -0.18,-1.57 -0.21,-1.57 -0.26,-1.56 -0.3,-1.56 -0.33,-1.55 -0.38,-1.53 -0.41,-1.53 -0.45,-1.52 -0.49,-1.51 -0.53,-1.49 -0.56,-1.48 -0.6,-1.46 -0.64,-1.45 -0.68,-1.43 -0.71,-1.42 -0.74,-1.4 -0.78,-1.37 -0.82,-1.36 -0.84,-1.34 -0.89,-1.31 -0.91,-1.29 -0.95,-1.27 -0.97,-1.25 -1.01,-1.22 -1.04,-1.19 -1.07,-1.17 -1.1,-1.14 -1.13,-1.11 -1.15,-1.09 -1.18,-1.05 -1.21,-1.02 -1.23,-1 -1.26,-0.96 -1.28,-0.93 -1.3,-0.9 -1.33,-0.86 -1.35,-0.84 -1.36,-0.79 -1.39,-0.77 -1.41,-0.72 -1.42,-0.7 -1.44,-0.65 -1.46,-0.62 -1.47,-0.58 -1.49,-0.55 -1.5,-0.51 -1.51,-0.47 -1.52,-0.43 -1.53,-0.39 -1.55,-0.36 -1.55,-0.31 -1.56,-0.28 -1.56,-0.24 -1.57,-0.2 -1.58,-0.16 -1.57,-0.12 -1.59,-0.08 -1.58,-0.04 -1.58,0 -1.58,0.04 -1.59,0.08 -1.57,0.12 -1.58,0.16 -1.57,0.2 -1.56,0.24 -1.56,0.28 -1.55,0.31 -1.55,0.36 -1.53,0.39 -1.52,0.43 -1.51,0.47 -1.5,0.51 -1.49,0.55 -1.47,0.58 -1.46,0.62 -1.44,0.65 -1.42,0.7 -1.41,0.72 -1.39,0.77 -1.36,0.79 -1.35,0.84 -1.33,0.86 -1.3,0.9 -1.28,0.93 -1.26,0.96 -1.23,1 -1.21,1.02 -1.18,1.05 -1.15,1.09 -1.13,1.11 -1.1,1.14 -1.07,1.17 -1.04,1.19 -1.01,1.22 -0.97,1.25 -0.95,1.27 -0.91,1.29 -0.89,1.31 -0.84,1.34 -0.82,1.36 -0.78,1.37 -0.74,1.4 -0.71,1.42 -0.68,1.43 -0.64,1.45 -0.6,1.46 -0.56,1.48 -0.53,1.49 -0.49,1.51 -0.45,1.52 -0.41,1.53 -0.38,1.53 -0.33,1.55 -0.3,1.56 -0.26,1.56 -0.21,1.57 -0.18,1.57 -0.14,1.58 -0.1,1.58 -0.06,1.58 -0.02,1.58"
         inkscape:connector-curvature="0"
         style="fill:none;stroke-width:0;stroke:#ffffff" />
      <path
         id="path4233"
         d="m 1576.84,9589.26 10.67,10.68 m -10.67,-10.68 -21.35,0 -10.68,10.68 0,42.7 10.68,10.67 21.35,0 10.67,-10.67 m -64.45,0 -10.68,10.67 -21.35,0 -10.67,-10.67 0,-42.7 10.67,-10.68 21.35,0 10.68,10.68 m -64.46,10.67 0,42.7 m 0,-42.7 -21.35,-21.35 -21.35,21.35 0,42.7 m -517.36,-10.67 0,-42.7 -10.68,-10.68 -32.03,0 0,64.05 32.03,0 10.68,-10.67 m -64.46,10.67 0,-64.05 -42.7,64.05 0,-64.05 m -21.75,10.68 0,21.35 -21.35,0 m 21.35,21.35 -10.68,10.67 -21.35,0 -10.68,-10.67 0,-42.7 10.68,-10.68 21.35,0 10.68,10.68"
         inkscape:connector-curvature="0"
         style="fill:none;stroke-width:6;stroke:#ffffff" />
      <path
         id="path4235"
         d="m 825.59,1152.99 0,-21.8 m 0,-43.62 0,-87.23 m -21.81,0 43.62,0 m 43.39,0 0,87.23 65.42,0 21.8,-21.81 0,-65.42 m 65.09,21.81 21.81,-21.81 m -21.81,21.81 0,87.23 m -21.81,-21.81 43.62,0 m 173.89,-65.42 21.81,21.81 65.42,0 m 0,21.8 0,-65.42 -65.42,0 -21.81,21.81 m 21.81,65.42 43.61,0 21.81,-21.81 m 43.27,-21.8 43.62,43.61 21.81,0 m 43.33,-21.81 0,-43.61 21.81,-21.81 43.61,0 m 21.81,43.62 -87.23,0 m 0,21.8 21.81,21.81 43.61,0 21.81,-21.81 0,-21.8 m 43.27,-21.81 21.81,21.81 65.42,0 m 0,21.8 0,-65.42 -65.42,0 -21.81,21.81 m 21.81,65.42 43.62,0 21.8,-21.81 m -326.49,21.81 0,-87.23 m -543.71,87.23 -21.81,0 m -43.33,0 -21.81,0 -43.61,-43.61 m 0,43.61 0,-87.23 m -65.09,43.62 -65.42,0 m 0,-43.62 0,130.85 65.42,0 21.81,-21.81 0,-43.62 -21.81,-21.8"
         inkscape:connector-curvature="0"
         style="fill:none;stroke-width:11;stroke:#ffffff" />
      <path
         id="path4237"
         d="m 656.5,705.89 46.04,0 23.02,-23.02 -92.08,-92.08 23.02,-23.02 46.04,0 23.02,23.02 0,92.08 m 69.06,-23.02 0,-23.02 23.02,0 0,23.02 -23.02,0 m 0,-69.06 0,-23.02 23.02,0 0,23.02 -23.02,0 m 23.02,-23.02 -46.04,-46.04 m 92.08,69.06 0,92.08 23.02,23.02 46.03,0 23.02,-23.02 -92.07,-92.08 23.02,-23.02 46.03,0 23.02,23.02 0,92.08 m 46.04,23.02 46.04,0 0,-138.12 -46.04,0 m -368.31,23.02 0,92.08 23.02,23.02 m -69.06,0 -46.04,0 0,-138.12 46.04,0 m 1780.73,23.02 23.02,-23.02 46.04,0 23.02,23.02 0,46.04 -23.02,23.02 -23.02,0 -46.04,-23.02 0,69.06 92.08,0 m 46.04,-23.02 23.02,23.02 46.04,0 23.02,-23.02 -92.08,-92.08 23.02,-23.02 46.04,0 23.02,23.02 0,92.08 m -92.08,0 0,-92.08 m 1759.52,-23.02 92.08,0 m -46.04,0 0,138.12 -46.04,-46.04 m 138.12,23.02 0,-92.08 92.08,92.08 0,-92.08 -23.02,-23.02 -46.04,0 -23.02,23.02 m 0,92.08 23.02,23.02 46.04,0 23.02,-23.02 m 46.04,0 0,-92.08 92.07,92.08 0,-92.08 -23.02,-23.02 -46.03,0 -23.02,23.02 m 0,92.08 23.02,23.02 46.03,0 23.02,-23.02 m 1608.07,-23.02 46.04,46.04 0,-138.12 m -46.04,0 92.08,0 m 46.04,23.02 23.02,-23.02 46.03,0 23.02,23.02 0,46.04 -23.02,23.02 -23.02,0 -46.03,-23.02 0,69.06 92.07,0 m 46.04,-23.02 23.02,23.02 46.04,0 23.02,-23.02 -92.08,-92.08 23.02,-23.02 46.04,0 23.02,23.02 0,92.08 m -92.08,0 0,-92.08 m 1684.4,-23.02 92.08,92.08 0,23.02 -23.02,23.02 -46.04,0 -23.02,-23.02 m 0,-115.1 92.08,0 m 46.04,23.02 0,92.08 23.02,23.02 46.03,0 23.02,-23.02 -92.07,-92.08 23.02,-23.02 46.03,0 23.02,23.02 0,92.08 m 46.04,0 23.02,23.02 46.04,0 23.02,-23.02 -92.08,-92.08 23.02,-23.02 46.04,0 23.02,23.02 0,92.08 m -92.08,0 0,-92.08 m 1511.17,-23.02 92.08,92.08 0,23.02 -23.02,23.02 -46.04,0 -23.02,-23.02 m 0,-115.1 92.08,0 m 46.04,23.02 23.02,-23.02 46.04,0 23.02,23.02 0,46.04 -23.02,23.02 -23.02,0 -46.04,-23.02 0,69.06 92.08,0 m 46.04,-23.02 23.01,23.02 46.04,0 23.02,-23.02 -92.07,-92.08 23.01,-23.02 46.04,0 23.02,23.02 0,92.08 m -92.07,0 0,-92.08 m -9333.12,4125.99 -23.02,-23.02 -46.04,0 -23.02,23.02 m 0,46.03 46.04,23.02 23.02,0 23.02,-23.02 0,-46.03 m -92.08,46.03 0,69.06 92.08,0 m -138.12,-23.02 -92.08,-92.07 23.02,-23.02 46.04,0 23.02,23.02 0,92.07 -23.02,23.02 -46.04,0 -23.02,-23.02 0,-92.07 m -46.04,-23.02 -92.08,0 m 46.04,0 0,138.11 -46.04,-46.04 m 0,1876.43 92.08,0 m -46.04,0 0,138.12 -46.04,-46.04 m 138.12,-23.02 0,69.06 92.08,0 m 46.04,0 0,-69.06 46.04,23.02 23.02,0 23.02,-23.02 0,-46.04 -23.02,-23.02 -46.04,0 -23.02,23.02 m -46.04,0 -23.02,-23.02 -46.04,0 -23.02,23.02 m 0,46.04 46.04,23.02 23.02,0 23.02,-23.02 0,-46.04 m 46.04,115.1 92.08,0 m -23.02,1830.38 -46.04,0 -23.02,23.02 m -46.04,0 0,92.08 -92.08,-92.08 23.02,-23.02 46.04,0 23.02,23.02 m 46.04,46.04 46.04,23.02 23.02,0 23.02,-23.02 0,-46.04 -23.02,-23.02 m -69.06,69.06 0,69.06 92.08,0 m -138.12,-23.02 -23.02,23.02 -46.04,0 -23.02,-23.02 0,-92.08 m -46.04,-23.02 -92.08,0 92.08,92.08 0,23.02 -23.02,23.02 -46.04,0 -23.02,-23.02 m 0,333.72 92.08,92.08 0,23.02 -23.02,23.02 -46.04,0 -23.02,-23.02 m 0,-115.1 92.08,0 m 46.04,0 92.08,0 m -46.04,0 0,138.12 -46.04,-46.04 m 138.12,23.02 0,-92.08 92.08,92.08 0,-92.08 -23.02,-23.02 -46.04,0 -23.02,23.02 m 0,92.08 23.02,23.02 46.04,0 23.02,-23.02 m -138.12,-6331.31 -92.08,0 0,-69.06 46.04,23.02 23.02,0 23.02,-23.02 0,-46.04 -23.02,-23.02 -46.04,0 -23.02,23.02 m -46.04,0 -23.02,-23.02 -46.04,0 -23.02,23.02 m 0,46.04 46.04,23.02 23.02,0 23.02,-23.02 0,-46.04 m -92.08,46.04 0,69.06 92.08,0"
         inkscape:connector-curvature="0"
         style="fill:none;stroke-width:12;stroke:#ffffff" />
      <path
         id="path4239"
         d="m 2091.13,9245.44 96.41,0 m -48.2,0 0,144.6 -48.21,-48.2 m 145.01,24.1 24.1,24.1 48.2,0 24.1,-24.1 0,-24.1 -96.4,-96.4 96.4,0 m 48.61,48.2 48.2,-48.2 48.2,48.2 0,96.4 m -96.4,0 0,-96.4 m 4035.72,24.1 96.41,0 m 48.6,0 0,-48.2 24.1,-24.1 48.2,0 m 24.1,48.2 -96.4,0 m 0,24.1 24.1,24.1 48.2,0 24.1,-24.1 0,-24.1 m 48.6,-24.1 24.1,24.1 72.31,0 m 0,24.1 0,-72.3 -72.31,0 -24.1,24.1 m 24.1,72.3 48.21,0 24.1,-24.1 m 48.6,24.1 48.2,0 m -24.1,24.1 0,-96.4 24.1,-24.1 m 48.47,0 0,144.6 72.3,0 24.1,-24.1 0,-24.1 -24.1,-24.1 -72.3,0 m 72.3,0 24.1,-24.1 0,-24.1 -24.1,-24.1 -72.3,0 m 145.01,24.1 0,48.2 24.1,24.1 48.2,0 24.1,-24.1 0,-24.1 -96.4,0 m 0,-24.1 24.1,-24.1 48.2,0 m 72.7,24.1 0,48.2 24.1,24.1 72.3,0 m 0,48.2 0,-144.6 -72.3,0 -24.1,24.1 m 290.01,-24.1 0,144.6 48.2,-48.2 48.21,48.2 0,-144.6 m 48.6,0 0,144.6 m 24.1,-72.3 72.3,-72.3 m 48.61,72.3 96.4,0 m 48.6,48.2 24.1,24.1 48.2,0 24.1,-24.1 0,-24.1 -96.4,-96.4 96.4,0 m -169.1,0 0,144.6 -72.3,-72.3 m -48.61,72.3 -96.4,-96.4 m 580.02,48.2 72.3,0 24.11,-24.1 0,-48.2 -24.11,-24.1 -72.3,0 0,144.6 m 145.01,-48.2 0,-72.3 24.1,-24.1 72.3,0 m 0,-24.1 -24.1,-24.1 -24.1,0 m 48.2,24.1 0,120.5 m 193.61,48.2 0,-144.6 m 0,48.2 72.3,0 24.1,24.1 0,48.2 -24.1,24.1 -72.3,0 m 145.01,0 0,-144.6 m 0,48.2 72.3,0 24.1,24.1 0,48.2 -24.1,24.1 -72.3,0 m 48.2,-96.4 48.2,-48.2 m 48.6,24.1 0,120.5 m 96.4,0 0,-120.5 -24.1,-24.1 -48.2,0 -24.1,24.1 m 145.01,0 24.1,-24.1 48.2,0 24.1,24.1 0,24.1 -24.1,24.1 -48.2,0 -24.1,24.1 0,24.1 24.1,24.1 48.2,0 24.1,-24.1 m 48.6,-24.1 0,-96.4 m 0,72.3 96.41,0 m 0,24.1 0,-96.4 m 48.6,24.1 24.1,-24.1 48.2,0 24.1,24.1 0,24.1 -24.1,24.1 -24.1,0 m 24.1,0 24.1,24.1 0,24.1 -24.1,24.1 -48.2,0 -24.1,-24.1 m -48.6,-24.1 -48.21,48.2 -48.2,-48.2 m 290.01,48.2 0,-144.6 72.31,0 24.1,24.1 0,96.4 -24.1,24.1 -72.31,0 m 145.01,-120.5 24.1,0 0,-24.1 -24.1,0 0,24.1 m 72.5,0 24.1,-24.1 48.21,0 24.1,24.1 m 48.6,0 0,96.4 24.1,24.1 48.2,0 24.1,-24.1 0,-96.4 -24.1,-24.1 -48.2,0 -24.1,24.1 m -48.6,96.4 -24.1,24.1 -48.21,0 -24.1,-24.1 0,-96.4 m 290.01,-24.1 0,144.6 48.21,-48.2 48.2,48.2 0,-144.6 m -3649.31,0 0,144.6 m -96.41,0 0,-144.6"
         inkscape:connector-curvature="0"
         style="fill:none;stroke-width:13;stroke:#ffffff" />
      <path
         id="path4241"
         d="m 6417.29,9018.46 0,-8070.86 3937.01,0 0,-196.85 -606.3,0 m -283.47,0 -1078.74,0 0,236.22 0,7.87 0,8023.62 1078.74,0 m 275.59,0 614.18,0 0,-196.85 -275.59,0 m 275.59,0 0,-1968.5 -9842.52,0 0,1968.5 9173.23,0 m -1299.22,196.85 -1968.5,0 -1968.5,0 0,-8267.71 1968.5,0 0,196.85 -4330.71,0 m -393.7,0 -1181.1,0 0,3937.01 9842.52,0 0,-1968.51 -9850.4,0 m 7.88,-1968.5 0,-196.85 724.41,0 m 283.46,0 2929.14,0 m 1968.5,0 1968.5,0 m 1968.51,196.85 0,1968.5 m 0,1968.51 0,1968.5 m -5905.51,2165.35 -1968.51,0 -960.63,0 m -283.46,0 -724.41,0 0,-196.85 m 1968.5,196.85 0,-8259.84 m -1968.5,4125.99 0,1968.5"
         inkscape:connector-curvature="0"
         style="fill:none;stroke-width:16;stroke:#ffffff" />
      <path
         id="path4243"
         d="m 1740.12,1026.34 0.04,-3.47 0.12,-3.47 0.2,-3.47 0.28,-3.46 0.37,-3.45 0.44,-3.45 0.52,-3.43 0.6,-3.42 0.68,-3.41 0.76,-3.38 0.84,-3.37 0.92,-3.35 0.99,-3.33 1.07,-3.3 1.15,-3.28 m 140.63,-98.57 3.47,0.04 3.47,0.12 3.47,0.2 3.46,0.28 3.45,0.37 3.45,0.44 3.43,0.52 3.42,0.6 3.41,0.68 3.38,0.76 3.37,0.84 3.35,0.92 3.33,0.99 3.3,1.07 3.28,1.15 m -51.04,-8.98 -3.47,0.04 -3.47,0.12 -3.47,0.2 -3.46,0.28 -3.45,0.37 -3.45,0.44 -3.43,0.52 -3.42,0.6 -3.41,0.68 -3.38,0.76 -3.37,0.84 -3.35,0.92 -3.33,0.99 -3.3,1.07 -3.28,1.15 m -98.57,140.63 0.04,3.47 0.12,3.47 0.2,3.47 0.28,3.46 0.37,3.45 0.44,3.45 0.52,3.43 0.6,3.42 0.68,3.41 0.76,3.38 0.84,3.37 0.92,3.35 0.99,3.33 1.07,3.3 1.15,3.28 m 140.63,98.57 3.47,-0.04 3.47,-0.12 3.47,-0.2 3.46,-0.28 3.45,-0.37 3.45,-0.44 3.43,-0.52 3.42,-0.6 3.41,-0.68 3.38,-0.76 3.37,-0.84 3.35,-0.92 3.33,-0.99 3.3,-1.07 3.28,-1.15 m 98.57,-140.63 -0.04,-3.47 -0.12,-3.47 -0.2,-3.47 -0.28,-3.46 -0.37,-3.45 -0.44,-3.45 -0.52,-3.43 -0.6,-3.42 -0.68,-3.41 -0.76,-3.38 -0.84,-3.37 -0.92,-3.35 -0.99,-3.33 -1.07,-3.3 -1.15,-3.28 m 8.98,51.04 -0.04,3.47 -0.12,3.47 -0.2,3.47 -0.28,3.46 -0.37,3.45 -0.44,3.45 -0.52,3.43 -0.6,3.42 -0.68,3.41 -0.76,3.38 -0.84,3.37 -0.92,3.35 -0.99,3.33 -1.07,3.3 -1.15,3.28 m -140.63,98.57 -3.47,-0.04 -3.47,-0.12 -3.47,-0.2 -3.46,-0.28 -3.45,-0.37 -3.45,-0.44 -3.43,-0.52 -3.42,-0.6 -3.41,-0.68 -3.38,-0.76 -3.37,-0.84 -3.35,-0.92 -3.33,-0.99 -3.3,-1.07 -3.28,-1.15 m -34.83,-18.12 -2.82,-2.02 -2.77,-2.09 -2.72,-2.16 -2.68,-2.21 -2.62,-2.28 -2.56,-2.34 -2.52,-2.4 -2.45,-2.45 -2.4,-2.52 -2.34,-2.56 -2.28,-2.62 -2.21,-2.68 -2.16,-2.72 -2.09,-2.77 -2.02,-2.82 m 0,-171.74 2.02,-2.82 2.09,-2.77 2.16,-2.72 2.21,-2.68 2.28,-2.62 2.34,-2.56 2.4,-2.52 2.45,-2.45 2.52,-2.4 2.56,-2.34 2.62,-2.28 2.68,-2.21 2.72,-2.16 2.77,-2.09 2.82,-2.02 m 171.74,0 2.82,2.02 2.77,2.09 2.72,2.16 2.68,2.21 2.62,2.28 2.56,2.34 2.52,2.4 2.45,2.45 2.4,2.52 2.34,2.56 2.28,2.62 2.21,2.68 2.16,2.72 2.09,2.77 2.02,2.82 m 0,171.74 -2.02,2.82 -2.09,2.77 -2.16,2.72 -2.21,2.68 -2.28,2.62 -2.34,2.56 -2.4,2.52 -2.45,2.45 -2.52,2.4 -2.56,2.34 -2.62,2.28 -2.68,2.21 -2.72,2.16 -2.77,2.09 -2.82,2.02 m 7906.26,7444.41 3.47,0.04 3.47,0.12 3.47,0.2 3.46,0.28 3.45,0.37 3.45,0.44 3.43,0.52 3.42,0.6 3.41,0.68 3.38,0.76 3.37,0.84 3.35,0.92 3.33,0.99 3.3,1.07 3.28,1.15 m -51.04,-8.98 -3.47,0.04 -3.47,0.12 -3.47,0.2 -3.46,0.28 -3.45,0.37 -3.45,0.44 -3.43,0.52 -3.42,0.6 -3.41,0.68 -3.38,0.76 -3.37,0.84 -3.35,0.92 -3.33,0.99 -3.3,1.07 -3.28,1.15 m -98.57,140.63 0.04,3.47 0.12,3.47 0.2,3.47 0.28,3.46 0.37,3.45 0.44,3.45 0.52,3.43 0.6,3.42 0.68,3.41 0.76,3.38 0.84,3.37 0.92,3.35 0.99,3.33 1.07,3.3 1.15,3.28 m -8.98,-51.04 0.04,-3.47 0.12,-3.47 0.2,-3.47 0.28,-3.46 0.37,-3.45 0.44,-3.45 0.52,-3.43 0.6,-3.42 0.68,-3.41 0.76,-3.38 0.84,-3.37 0.92,-3.35 0.99,-3.33 1.07,-3.3 1.15,-3.28 m 18.12,-34.83 2.02,-2.82 2.09,-2.77 2.16,-2.72 2.21,-2.68 2.28,-2.62 2.34,-2.56 2.4,-2.52 2.45,-2.45 2.52,-2.4 2.56,-2.34 2.62,-2.28 2.68,-2.21 2.72,-2.16 2.77,-2.09 2.82,-2.02 m 171.74,0 2.82,2.02 2.77,2.09 2.72,2.16 2.68,2.21 2.62,2.28 2.56,2.34 2.52,2.4 2.45,2.45 2.4,2.52 2.34,2.56 2.28,2.62 2.21,2.68 2.16,2.72 2.09,2.77 2.02,2.82 m 27.1,85.87 -0.04,3.47 -0.12,3.47 -0.2,3.47 -0.28,3.46 -0.37,3.45 -0.44,3.45 -0.52,3.43 -0.6,3.42 -0.68,3.41 -0.76,3.38 -0.84,3.37 -0.92,3.35 -0.99,3.33 -1.07,3.3 -1.15,3.28 m 8.98,-51.04 -0.04,-3.47 -0.12,-3.47 -0.2,-3.47 -0.28,-3.46 -0.37,-3.45 -0.44,-3.45 -0.52,-3.43 -0.6,-3.42 -0.68,-3.41 -0.76,-3.38 -0.84,-3.37 -0.92,-3.35 -0.99,-3.33 -1.07,-3.3 -1.15,-3.28 m -140.63,200.65 -3.47,-0.04 -3.47,-0.12 -3.47,-0.2 -3.46,-0.28 -3.45,-0.37 -3.45,-0.44 -3.43,-0.52 -3.42,-0.6 -3.41,-0.68 -3.38,-0.76 -3.37,-0.84 -3.35,-0.92 -3.33,-0.99 -3.3,-1.07 -3.28,-1.15 m 51.04,8.98 3.47,-0.04 3.47,-0.12 3.47,-0.2 3.46,-0.28 3.45,-0.37 3.45,-0.44 3.43,-0.52 3.42,-0.6 3.41,-0.68 3.38,-0.76 3.37,-0.84 3.35,-0.92 3.33,-0.99 3.3,-1.07 3.28,-1.15 m -136.91,-18.12 -2.82,-2.02 -2.77,-2.09 -2.72,-2.16 -2.68,-2.21 -2.62,-2.28 -2.56,-2.34 -2.52,-2.4 -2.45,-2.45 -2.4,-2.52 -2.34,-2.56 -2.28,-2.62 -2.21,-2.68 -2.16,-2.72 -2.09,-2.77 -2.02,-2.82 m 208.38,36.64 2.82,-2.02 2.77,-2.09 2.72,-2.16 2.68,-2.21 2.62,-2.28 2.56,-2.34 2.52,-2.4 2.45,-2.45 2.4,-2.52 2.34,-2.56 2.28,-2.62 2.21,-2.68 2.16,-2.72 2.09,-2.77 2.02,-2.82"
         inkscape:connector-curvature="0"
         style="fill:none;stroke-width:11.81000042;stroke:#ffffff" />
      <use
         id="use4245"
         y="9704.29"
         x="1157.45"
         xlink:href="#Heatbed-MK24_pad-17"
         width="100%"
         height="100%"
         style="stroke:#ffffff" />
      <path
         id="path4247"
         d="m 1111.38,9654.29 -37.5,0 0,100 37.5,0 m -37.5,0 -12.5,0 0,-100 12.5,0 m -47.14,3.94 -50,0 m 50,0 0,50 m 184.64,46.06 50,0 0,-100 -50,0 m 84.65,3.94 0,50 m 0,-50 50,0 m 300,0 50,0 0,50 m 0,400 0,50 -50,0 m -300,0 -50,0 0,-50 m -34.65,46.85 -50,0 m 50,0 0,-100 -50,0 m -100,0 -50,0 0,100 50,0 m -84.64,3.15 0,-50 m 0,50 -50,0 m -300,0 -50,0 0,-50 m 0,-400 0,-50 50,0"
         inkscape:connector-curvature="0"
         style="fill:none;stroke-width:5;stroke:#ffffff" />
      <path
         id="path4249"
         d="m 1029.23,9652.33 0,-46.04 30.69,0 m 15.35,0 30.69,0 m 15.35,0 23.02,0 7.67,7.67 0,30.7 -7.67,7.67 -23.02,0 0,-46.04 m 7.41,-6.9 15.34,0 m 23.28,6.9 30.7,0 m 7.41,8.45 -7.68,7.67 -23.02,0 0,-46.04 23.02,0 7.68,7.67 0,30.7 m 15.34,-7.68 15.35,15.35 0,-46.04 m -15.35,0 30.7,0 m -68.8,29.92 0,46.04 -15.35,-15.35 m -7.93,-14.57 -30.69,0 0,-46.04 30.69,0 m -46.04,0 -30.69,0 0,46.04 m -7.41,6.9 15.34,0 m -15.34,23.02 0,-46.04 m 0,46.04 30.69,0 m -26.1,311.44 -46.04,0 0,23.02 7.67,7.67 15.35,0 7.67,-7.67 0,-23.02 m 0,15.35 15.35,15.34 m 0,15.35 0,30.69 m 0,-15.34 -46.04,0 15.34,-15.35 m 72.15,-2.73 0,46.04 23.02,0 7.67,-7.68 0,-15.34 -7.67,-7.67 -23.02,0 m 15.34,0 15.35,-15.35 m 15.35,0 30.69,0 m -15.35,0 0,46.04 -15.34,-15.35 m 68.44,-31.26 46.04,0 m 0,-15.35 0,-30.69 m 0,15.34 -46.04,0 15.34,-15.34 m 15.35,46.04 -15.35,23.02 m 15.35,-23.02 15.35,23.02"
         inkscape:connector-curvature="0"
         style="fill:none;stroke-width:4;stroke:#ffffff" />
    </g>
  </g>
</svg>
