<?xml version="1.0" encoding="UTF-8" standalone="no"?>
<svg
   xmlns:dc="http://purl.org/dc/elements/1.1/"
   xmlns:cc="http://creativecommons.org/ns#"
   xmlns:rdf="http://www.w3.org/1999/02/22-rdf-syntax-ns#"
   xmlns:svg="http://www.w3.org/2000/svg"
   xmlns="http://www.w3.org/2000/svg"
   xmlns:sodipodi="http://sodipodi.sourceforge.net/DTD/sodipodi-0.dtd"
   xmlns:inkscape="http://www.inkscape.org/namespaces/inkscape"
   version="1.1"
   stroke-linecap="round"
   stroke-linejoin="round"
   stroke-width="0"
   fill-rule="evenodd"
   width="10in"
   height="9.8189in"
   viewBox="433.04 380.67 10000 9818.9"
   id="Heatbed-MK24"
   inkscape:version="0.91 r13725"
   sodipodi:docname="Outline.svg">
  <metadata
     id="metadata11">
    <rdf:RDF>
      <cc:Work
         rdf:about="">
        <dc:format>image/svg+xml</dc:format>
        <dc:type
           rdf:resource="http://purl.org/dc/dcmitype/StillImage" />
      </cc:Work>
    </rdf:RDF>
  </metadata>
  <defs
     id="defs9" />
  <sodipodi:namedview
     pagecolor="#ffffff"
     bordercolor="#666666"
     borderopacity="1"
     objecttolerance="10"
     gridtolerance="10"
     guidetolerance="10"
     inkscape:pageopacity="0"
     inkscape:pageshadow="2"
     inkscape:window-width="1920"
     inkscape:window-height="1020"
     id="namedview7"
     showgrid="false"
     inkscape:zoom="1.0682346"
     inkscape:cx="457.48899"
     inkscape:cy="564.48274"
     inkscape:window-x="1920"
     inkscape:window-y="34"
     inkscape:window-maximized="1"
     inkscape:current-layer="Heatbed-MK24" />
  <path
     inkscape:connector-curvature="0"
     style="fill:#4d4d4d;stroke:#4d4d4d;stroke-width:0"
     id="path5"
     d="m 433.04,10042.09 157.48,157.48 9685.04,0 157.48,-157.48 0,-8937.01 -157.48,-157.48 -8503.94,0 -39.37,-39.37 0,-488.19 -39.37,-39.37 -1062.99,0 -39.37,39.37 0,527.56 -157.48,157.48 0,8937.01 m 826.77,-236.22 0.04,-2.9 0.1,-2.9 0.18,-2.89 0.25,-2.89 0.32,-2.88 0.39,-2.87 0.46,-2.86 0.53,-2.85 0.6,-2.84 0.67,-2.82 0.74,-2.8 0.81,-2.79 0.87,-2.76 0.94,-2.74 1.01,-2.72 1.08,-2.69 1.14,-2.66 1.21,-2.64 1.27,-2.6 1.34,-2.58 1.39,-2.54 1.46,-2.5 1.52,-2.47 1.59,-2.43 1.64,-2.39 1.69,-2.35 1.76,-2.31 1.81,-2.26 1.87,-2.22 1.92,-2.17 1.97,-2.12 2.02,-2.08 2.08,-2.02 2.12,-1.97 2.17,-1.92 2.22,-1.87 2.26,-1.81 2.31,-1.76 2.35,-1.69 2.39,-1.64 2.43,-1.59 2.47,-1.52 2.5,-1.46 2.54,-1.39 2.58,-1.34 2.6,-1.27 2.64,-1.21 2.66,-1.14 2.69,-1.08 2.72,-1.01 2.74,-0.94 2.76,-0.87 2.79,-0.81 2.8,-0.74 2.82,-0.67 2.84,-0.6 2.85,-0.53 2.86,-0.46 2.87,-0.39 2.88,-0.32 2.89,-0.25 2.89,-0.18 2.9,-0.1 2.9,-0.04 2.9,0.04 2.9,0.1 2.89,0.18 2.89,0.25 2.88,0.32 2.87,0.39 2.86,0.46 2.85,0.53 2.84,0.6 2.82,0.67 2.8,0.74 2.79,0.81 2.76,0.87 2.74,0.94 2.72,1.01 2.69,1.08 2.66,1.14 2.64,1.21 2.6,1.27 2.58,1.34 2.54,1.39 2.5,1.46 2.47,1.52 2.43,1.59 2.39,1.64 2.35,1.69 2.31,1.76 2.26,1.81 2.22,1.87 2.17,1.92 2.12,1.97 2.08,2.02 2.02,2.08 1.97,2.12 1.92,2.17 1.87,2.22 1.81,2.26 1.76,2.31 1.69,2.35 1.64,2.39 1.59,2.43 1.52,2.47 1.46,2.5 1.39,2.54 1.34,2.58 1.27,2.6 1.21,2.64 1.14,2.66 1.08,2.69 1.01,2.72 0.94,2.74 0.87,2.76 0.81,2.79 0.74,2.8 0.67,2.82 0.6,2.84 0.53,2.85 0.46,2.86 0.39,2.87 0.32,2.88 0.25,2.89 0.18,2.89 0.1,2.9 0.04,2.9 -0.04,2.9 -0.1,2.9 -0.18,2.89 -0.25,2.89 -0.32,2.88 -0.39,2.87 -0.46,2.86 -0.53,2.85 -0.6,2.84 -0.67,2.82 -0.74,2.8 -0.81,2.79 -0.87,2.76 -0.94,2.74 -1.01,2.72 -1.08,2.69 -1.14,2.66 -1.21,2.64 -1.27,2.6 -1.34,2.58 -1.39,2.54 -1.46,2.5 -1.52,2.47 -1.59,2.43 -1.64,2.39 -1.69,2.35 -1.76,2.31 -1.81,2.26 -1.87,2.22 -1.92,2.17 -1.97,2.12 -2.02,2.08 -2.08,2.02 -2.12,1.97 -2.17,1.92 -2.22,1.87 -2.26,1.81 -2.31,1.76 -2.35,1.69 -2.39,1.64 -2.43,1.59 -2.47,1.52 -2.5,1.46 -2.54,1.39 -2.58,1.34 -2.6,1.27 -2.64,1.21 -2.66,1.14 -2.69,1.08 -2.72,1.01 -2.74,0.94 -2.76,0.87 -2.79,0.81 -2.8,0.74 -2.82,0.67 -2.84,0.6 -2.85,0.53 -2.86,0.46 -2.87,0.39 -2.88,0.32 -2.89,0.25 -2.89,0.18 -2.9,0.1 -2.9,0.04 -2.9,-0.04 -2.9,-0.1 -2.89,-0.18 -2.89,-0.25 -2.88,-0.32 -2.87,-0.39 -2.86,-0.46 -2.85,-0.53 -2.84,-0.6 -2.82,-0.67 -2.8,-0.74 -2.79,-0.81 -2.76,-0.87 -2.74,-0.94 -2.72,-1.01 -2.69,-1.08 -2.66,-1.14 -2.64,-1.21 -2.6,-1.27 -2.58,-1.34 -2.54,-1.39 -2.5,-1.46 -2.47,-1.52 -2.43,-1.59 -2.39,-1.64 -2.35,-1.69 -2.31,-1.76 -2.26,-1.81 -2.22,-1.87 -2.17,-1.92 -2.12,-1.97 -2.08,-2.02 -2.02,-2.08 -1.97,-2.12 -1.92,-2.17 -1.87,-2.22 -1.81,-2.26 -1.76,-2.31 -1.69,-2.35 -1.64,-2.39 -1.59,-2.43 -1.52,-2.47 -1.46,-2.5 -1.39,-2.54 -1.34,-2.58 -1.27,-2.6 -1.21,-2.64 -1.14,-2.66 -1.08,-2.69 -1.01,-2.72 -0.94,-2.74 -0.87,-2.76 -0.81,-2.79 -0.74,-2.8 -0.67,-2.82 -0.6,-2.84 -0.53,-2.85 -0.46,-2.86 -0.39,-2.87 -0.32,-2.88 -0.25,-2.89 -0.18,-2.89 -0.1,-2.9 -0.04,-2.9 m 55.12,0 0.02,-1.58 0.06,-1.58 0.1,-1.58 0.14,-1.58 0.18,-1.57 0.21,-1.57 0.26,-1.56 0.3,-1.56 0.33,-1.55 0.38,-1.53 0.41,-1.53 0.45,-1.52 0.49,-1.51 0.53,-1.49 0.56,-1.48 0.6,-1.46 0.64,-1.45 0.68,-1.43 0.71,-1.42 0.74,-1.4 0.78,-1.37 0.82,-1.36 0.84,-1.34 0.89,-1.31 0.91,-1.29 0.95,-1.27 0.97,-1.25 1.01,-1.22 1.04,-1.19 1.07,-1.17 1.1,-1.14 1.13,-1.11 1.15,-1.09 1.18,-1.05 1.21,-1.02 1.23,-1 1.26,-0.96 1.28,-0.93 1.3,-0.9 1.33,-0.86 1.35,-0.84 1.36,-0.79 1.39,-0.77 1.41,-0.72 1.42,-0.7 1.44,-0.65 1.46,-0.62 1.47,-0.58 1.49,-0.55 1.5,-0.51 1.51,-0.47 1.52,-0.43 1.53,-0.39 1.55,-0.36 1.55,-0.31 1.56,-0.28 1.56,-0.24 1.57,-0.2 1.58,-0.16 1.57,-0.12 1.59,-0.08 1.58,-0.04 1.58,0 1.58,0.04 1.59,0.08 1.57,0.12 1.58,0.16 1.57,0.2 1.56,0.24 1.56,0.28 1.55,0.31 1.55,0.36 1.53,0.39 1.52,0.43 1.51,0.47 1.5,0.51 1.49,0.55 1.47,0.58 1.46,0.62 1.44,0.65 1.42,0.7 1.41,0.72 1.39,0.77 1.36,0.79 1.35,0.84 1.33,0.86 1.3,0.9 1.28,0.93 1.26,0.96 1.23,1 1.21,1.02 1.18,1.05 1.15,1.09 1.13,1.11 1.1,1.14 1.07,1.17 1.04,1.19 1.01,1.22 0.97,1.25 0.95,1.27 0.91,1.29 0.89,1.31 0.84,1.34 0.82,1.36 0.78,1.37 0.74,1.4 0.71,1.42 0.68,1.43 0.64,1.45 0.6,1.46 0.56,1.48 0.53,1.49 0.49,1.51 0.45,1.52 0.41,1.53 0.38,1.53 0.33,1.55 0.3,1.56 0.26,1.56 0.21,1.57 0.18,1.57 0.14,1.58 0.1,1.58 0.06,1.58 0.02,1.58 -0.02,1.58 -0.06,1.58 -0.1,1.58 -0.14,1.58 -0.18,1.57 -0.21,1.57 -0.26,1.56 -0.3,1.56 -0.33,1.55 -0.38,1.53 -0.41,1.53 -0.45,1.52 -0.49,1.51 -0.53,1.49 -0.56,1.48 -0.6,1.46 -0.64,1.45 -0.68,1.43 -0.71,1.42 -0.74,1.4 -0.78,1.37 -0.82,1.36 -0.84,1.34 -0.89,1.31 -0.91,1.29 -0.95,1.27 -0.97,1.25 -1.01,1.22 -1.04,1.19 -1.07,1.17 -1.1,1.14 -1.13,1.11 -1.15,1.09 -1.18,1.05 -1.21,1.02 -1.23,1 -1.26,0.96 -1.28,0.93 -1.3,0.9 -1.33,0.86 -1.35,0.84 -1.36,0.79 -1.39,0.77 -1.41,0.72 -1.42,0.7 -1.44,0.65 -1.46,0.62 -1.47,0.58 -1.49,0.55 -1.5,0.51 -1.51,0.47 -1.52,0.43 -1.53,0.39 -1.55,0.36 -1.55,0.31 -1.56,0.28 -1.56,0.24 -1.57,0.2 -1.58,0.16 -1.57,0.12 -1.59,0.08 -1.58,0.04 -1.58,0 -1.58,-0.04 -1.59,-0.08 -1.57,-0.12 -1.58,-0.16 -1.57,-0.2 -1.56,-0.24 -1.56,-0.28 -1.55,-0.31 -1.55,-0.36 -1.53,-0.39 -1.52,-0.43 -1.51,-0.47 -1.5,-0.51 -1.49,-0.55 -1.47,-0.58 -1.46,-0.62 -1.44,-0.65 -1.42,-0.7 -1.41,-0.72 -1.39,-0.77 -1.36,-0.79 -1.35,-0.84 -1.33,-0.86 -1.3,-0.9 -1.28,-0.93 -1.26,-0.96 -1.23,-1 -1.21,-1.02 -1.18,-1.05 -1.15,-1.09 -1.13,-1.11 -1.1,-1.14 -1.07,-1.17 -1.04,-1.19 -1.01,-1.22 -0.97,-1.25 -0.95,-1.27 -0.91,-1.29 -0.89,-1.31 -0.84,-1.34 -0.82,-1.36 -0.78,-1.37 -0.74,-1.4 -0.71,-1.42 -0.68,-1.43 -0.64,-1.45 -0.6,-1.46 -0.56,-1.48 -0.53,-1.49 -0.49,-1.51 -0.45,-1.52 -0.41,-1.53 -0.38,-1.53 -0.33,-1.55 -0.3,-1.56 -0.26,-1.56 -0.21,-1.57 -0.18,-1.57 -0.14,-1.58 -0.1,-1.58 -0.06,-1.58 -0.02,-1.58 m 4059.05,-3287.4 0.04,-2.9 0.1,-2.9 0.18,-2.89 0.25,-2.89 0.32,-2.88 0.39,-2.87 0.46,-2.86 0.53,-2.85 0.6,-2.84 0.67,-2.82 0.74,-2.8 0.81,-2.79 0.87,-2.76 0.94,-2.74 1.01,-2.72 1.08,-2.69 1.14,-2.66 1.21,-2.64 1.27,-2.6 1.34,-2.58 1.39,-2.54 1.46,-2.5 1.52,-2.47 1.59,-2.43 1.64,-2.39 1.69,-2.35 1.76,-2.31 1.81,-2.26 1.87,-2.22 1.92,-2.17 1.97,-2.12 2.02,-2.08 2.08,-2.02 2.12,-1.97 2.17,-1.92 2.22,-1.87 2.26,-1.81 2.31,-1.76 2.35,-1.69 2.39,-1.64 2.43,-1.59 2.47,-1.52 2.5,-1.46 2.54,-1.39 2.58,-1.34 2.6,-1.27 2.64,-1.21 2.66,-1.14 2.69,-1.08 2.72,-1.01 2.74,-0.94 2.76,-0.87 2.79,-0.81 2.8,-0.74 2.82,-0.67 2.84,-0.6 2.85,-0.53 2.86,-0.46 2.87,-0.39 2.88,-0.32 2.89,-0.25 2.89,-0.18 2.9,-0.1 2.9,-0.04 2.9,0.04 2.9,0.1 2.89,0.18 2.89,0.25 2.88,0.32 2.87,0.39 2.86,0.46 2.85,0.53 2.84,0.6 2.82,0.67 2.8,0.74 2.79,0.81 2.76,0.87 2.74,0.94 2.72,1.01 2.69,1.08 2.66,1.14 2.64,1.21 2.6,1.27 2.58,1.34 2.54,1.39 2.5,1.46 2.47,1.52 2.43,1.59 2.39,1.64 2.35,1.69 2.31,1.76 2.26,1.81 2.22,1.87 2.17,1.92 2.12,1.97 2.08,2.02 2.02,2.08 1.97,2.12 1.92,2.17 1.87,2.22 1.81,2.26 1.76,2.31 1.69,2.35 1.64,2.39 1.59,2.43 1.52,2.47 1.46,2.5 1.39,2.54 1.34,2.58 1.27,2.6 1.21,2.64 1.14,2.66 1.08,2.69 1.01,2.72 0.94,2.74 0.87,2.76 0.81,2.79 0.74,2.8 0.67,2.82 0.6,2.84 0.53,2.85 0.46,2.86 0.39,2.87 0.32,2.88 0.25,2.89 0.18,2.89 0.1,2.9 0.04,2.9 -0.04,2.9 -0.1,2.9 -0.18,2.89 -0.25,2.89 -0.32,2.88 -0.39,2.87 -0.46,2.86 -0.53,2.85 -0.6,2.84 -0.67,2.82 -0.74,2.8 -0.81,2.79 -0.87,2.76 -0.94,2.74 -1.01,2.72 -1.08,2.69 -1.14,2.66 -1.21,2.64 -1.27,2.6 -1.34,2.58 -1.39,2.54 -1.46,2.5 -1.52,2.47 -1.59,2.43 -1.64,2.39 -1.69,2.35 -1.76,2.31 -1.81,2.26 -1.87,2.22 -1.92,2.17 -1.97,2.12 -2.02,2.08 -2.08,2.02 -2.12,1.97 -2.17,1.92 -2.22,1.87 -2.26,1.81 -2.31,1.76 -2.35,1.69 -2.39,1.64 -2.43,1.59 -2.47,1.52 -2.5,1.46 -2.54,1.39 -2.58,1.34 -2.6,1.27 -2.64,1.21 -2.66,1.14 -2.69,1.08 -2.72,1.01 -2.74,0.94 -2.76,0.87 -2.79,0.81 -2.8,0.74 -2.82,0.67 -2.84,0.6 -2.85,0.53 -2.86,0.46 -2.87,0.39 -2.88,0.32 -2.89,0.25 -2.89,0.18 -2.9,0.1 -2.9,0.04 -2.9,-0.04 -2.9,-0.1 -2.89,-0.18 -2.89,-0.25 -2.88,-0.32 -2.87,-0.39 -2.86,-0.46 -2.85,-0.53 -2.84,-0.6 -2.82,-0.67 -2.8,-0.74 -2.79,-0.81 -2.76,-0.87 -2.74,-0.94 -2.72,-1.01 -2.69,-1.08 -2.66,-1.14 -2.64,-1.21 -2.6,-1.27 -2.58,-1.34 -2.54,-1.39 -2.5,-1.46 -2.47,-1.52 -2.43,-1.59 -2.39,-1.64 -2.35,-1.69 -2.31,-1.76 -2.26,-1.81 -2.22,-1.87 -2.17,-1.92 -2.12,-1.97 -2.08,-2.02 -2.02,-2.08 -1.97,-2.12 -1.92,-2.17 -1.87,-2.22 -1.81,-2.26 -1.76,-2.31 -1.69,-2.35 -1.64,-2.39 -1.59,-2.43 -1.52,-2.47 -1.46,-2.5 -1.39,-2.54 -1.34,-2.58 -1.27,-2.6 -1.21,-2.64 -1.14,-2.66 -1.08,-2.69 -1.01,-2.72 -0.94,-2.74 -0.87,-2.76 -0.81,-2.79 -0.74,-2.8 -0.67,-2.82 -0.6,-2.84 -0.53,-2.85 -0.46,-2.86 -0.39,-2.87 -0.32,-2.88 -0.25,-2.89 -0.18,-2.89 -0.1,-2.9 -0.04,-2.9 m 0,-1614.17 0.04,-2.9 0.1,-2.9 0.18,-2.89 0.25,-2.89 0.32,-2.88 0.39,-2.87 0.46,-2.86 0.53,-2.85 0.6,-2.84 0.67,-2.82 0.74,-2.8 0.81,-2.79 0.87,-2.76 0.94,-2.74 1.01,-2.72 1.08,-2.69 1.14,-2.66 1.21,-2.64 1.27,-2.6 1.34,-2.58 1.39,-2.54 1.46,-2.5 1.52,-2.47 1.59,-2.43 1.64,-2.39 1.69,-2.35 1.76,-2.31 1.81,-2.26 1.87,-2.22 1.92,-2.17 1.97,-2.12 2.02,-2.08 2.08,-2.02 2.12,-1.97 2.17,-1.92 2.22,-1.87 2.26,-1.81 2.31,-1.76 2.35,-1.69 2.39,-1.64 2.43,-1.59 2.47,-1.52 2.5,-1.46 2.54,-1.39 2.58,-1.34 2.6,-1.27 2.64,-1.21 2.66,-1.14 2.69,-1.08 2.72,-1.01 2.74,-0.94 2.76,-0.87 2.79,-0.81 2.8,-0.74 2.82,-0.67 2.84,-0.6 2.85,-0.53 2.86,-0.46 2.87,-0.39 2.88,-0.32 2.89,-0.25 2.89,-0.18 2.9,-0.1 2.9,-0.04 2.9,0.04 2.9,0.1 2.89,0.18 2.89,0.25 2.88,0.32 2.87,0.39 2.86,0.46 2.85,0.53 2.84,0.6 2.82,0.67 2.8,0.74 2.79,0.81 2.76,0.87 2.74,0.94 2.72,1.01 2.69,1.08 2.66,1.14 2.64,1.21 2.6,1.27 2.58,1.34 2.54,1.39 2.5,1.46 2.47,1.52 2.43,1.59 2.39,1.64 2.35,1.69 2.31,1.76 2.26,1.81 2.22,1.87 2.17,1.92 2.12,1.97 2.08,2.02 2.02,2.08 1.97,2.12 1.92,2.17 1.87,2.22 1.81,2.26 1.76,2.31 1.69,2.35 1.64,2.39 1.59,2.43 1.52,2.47 1.46,2.5 1.39,2.54 1.34,2.58 1.27,2.6 1.21,2.64 1.14,2.66 1.08,2.69 1.01,2.72 0.94,2.74 0.87,2.76 0.81,2.79 0.74,2.8 0.67,2.82 0.6,2.84 0.53,2.85 0.46,2.86 0.39,2.87 0.32,2.88 0.25,2.89 0.18,2.89 0.1,2.9 0.04,2.9 -0.04,2.9 -0.1,2.9 -0.18,2.89 -0.25,2.89 -0.32,2.88 -0.39,2.87 -0.46,2.86 -0.53,2.85 -0.6,2.84 -0.67,2.82 -0.74,2.8 -0.81,2.79 -0.87,2.76 -0.94,2.74 -1.01,2.72 -1.08,2.69 -1.14,2.66 -1.21,2.64 -1.27,2.6 -1.34,2.58 -1.39,2.54 -1.46,2.5 -1.52,2.47 -1.59,2.43 -1.64,2.39 -1.69,2.35 -1.76,2.31 -1.81,2.26 -1.87,2.22 -1.92,2.17 -1.97,2.12 -2.02,2.08 -2.08,2.02 -2.12,1.97 -2.17,1.92 -2.22,1.87 -2.26,1.81 -2.31,1.76 -2.35,1.69 -2.39,1.64 -2.43,1.59 -2.47,1.52 -2.5,1.46 -2.54,1.39 -2.58,1.34 -2.6,1.27 -2.64,1.21 -2.66,1.14 -2.69,1.08 -2.72,1.01 -2.74,0.94 -2.76,0.87 -2.79,0.81 -2.8,0.74 -2.82,0.67 -2.84,0.6 -2.85,0.53 -2.86,0.46 -2.87,0.39 -2.88,0.32 -2.89,0.25 -2.89,0.18 -2.9,0.1 -2.9,0.04 -2.9,-0.04 -2.9,-0.1 -2.89,-0.18 -2.89,-0.25 -2.88,-0.32 -2.87,-0.39 -2.86,-0.46 -2.85,-0.53 -2.84,-0.6 -2.82,-0.67 -2.8,-0.74 -2.79,-0.81 -2.76,-0.87 -2.74,-0.94 -2.72,-1.01 -2.69,-1.08 -2.66,-1.14 -2.64,-1.21 -2.6,-1.27 -2.58,-1.34 -2.54,-1.39 -2.5,-1.46 -2.47,-1.52 -2.43,-1.59 -2.39,-1.64 -2.35,-1.69 -2.31,-1.76 -2.26,-1.81 -2.22,-1.87 -2.17,-1.92 -2.12,-1.97 -2.08,-2.02 -2.02,-2.08 -1.97,-2.12 -1.92,-2.17 -1.87,-2.22 -1.81,-2.26 -1.76,-2.31 -1.69,-2.35 -1.64,-2.39 -1.59,-2.43 -1.52,-2.47 -1.46,-2.5 -1.39,-2.54 -1.34,-2.58 -1.27,-2.6 -1.21,-2.64 -1.14,-2.66 -1.08,-2.69 -1.01,-2.72 -0.94,-2.74 -0.87,-2.76 -0.81,-2.79 -0.74,-2.8 -0.67,-2.82 -0.6,-2.84 -0.53,-2.85 -0.46,-2.86 -0.39,-2.87 -0.32,-2.88 -0.25,-2.89 -0.18,-2.89 -0.1,-2.9 -0.04,-2.9 m -4114.17,-3326.78 0.04,-2.9 0.1,-2.9 0.18,-2.89 0.25,-2.89 0.32,-2.88 0.39,-2.87 0.46,-2.86 0.53,-2.85 0.6,-2.84 0.67,-2.82 0.74,-2.8 0.81,-2.79 0.87,-2.76 0.94,-2.74 1.01,-2.72 1.08,-2.69 1.14,-2.66 1.21,-2.64 1.27,-2.6 1.34,-2.58 1.39,-2.54 1.46,-2.5 1.52,-2.47 1.59,-2.43 1.64,-2.39 1.69,-2.35 1.76,-2.31 1.81,-2.26 1.87,-2.22 1.92,-2.17 1.97,-2.12 2.02,-2.08 2.08,-2.02 2.12,-1.97 2.17,-1.92 2.22,-1.87 2.26,-1.81 2.31,-1.76 2.35,-1.69 2.39,-1.64 2.43,-1.59 2.47,-1.52 2.5,-1.46 2.54,-1.39 2.58,-1.34 2.6,-1.27 2.64,-1.21 2.66,-1.14 2.69,-1.08 2.72,-1.01 2.74,-0.94 2.76,-0.87 2.79,-0.81 2.8,-0.74 2.82,-0.67 2.84,-0.6 2.85,-0.53 2.86,-0.46 2.87,-0.39 2.88,-0.32 2.89,-0.25 2.89,-0.18 2.9,-0.1 2.9,-0.04 2.9,0.04 2.9,0.1 2.89,0.18 2.89,0.25 2.88,0.32 2.87,0.39 2.86,0.46 2.85,0.53 2.84,0.6 2.82,0.67 2.8,0.74 2.79,0.81 2.76,0.87 2.74,0.94 2.72,1.01 2.69,1.08 2.66,1.14 2.64,1.21 2.6,1.27 2.58,1.34 2.54,1.39 2.5,1.46 2.47,1.52 2.43,1.59 2.39,1.64 2.35,1.69 2.31,1.76 2.26,1.81 2.22,1.87 2.17,1.92 2.12,1.97 2.08,2.02 2.02,2.08 1.97,2.12 1.92,2.17 1.87,2.22 1.81,2.26 1.76,2.31 1.69,2.35 1.64,2.39 1.59,2.43 1.52,2.47 1.46,2.5 1.39,2.54 1.34,2.58 1.27,2.6 1.21,2.64 1.14,2.66 1.08,2.69 1.01,2.72 0.94,2.74 0.87,2.76 0.81,2.79 0.74,2.8 0.67,2.82 0.6,2.84 0.53,2.85 0.46,2.86 0.39,2.87 0.32,2.88 0.25,2.89 0.18,2.89 0.1,2.9 0.04,2.9 -0.04,2.9 -0.1,2.9 -0.18,2.89 -0.25,2.89 -0.32,2.88 -0.39,2.87 -0.46,2.86 -0.53,2.85 -0.6,2.84 -0.67,2.82 -0.74,2.8 -0.81,2.79 -0.87,2.76 -0.94,2.74 -1.01,2.72 -1.08,2.69 -1.14,2.66 -1.21,2.64 -1.27,2.6 -1.34,2.58 -1.39,2.54 -1.46,2.5 -1.52,2.47 -1.59,2.43 -1.64,2.39 -1.69,2.35 -1.76,2.31 -1.81,2.26 -1.87,2.22 -1.92,2.17 -1.97,2.12 -2.02,2.08 -2.08,2.02 -2.12,1.97 -2.17,1.92 -2.22,1.87 -2.26,1.81 -2.31,1.76 -2.35,1.69 -2.39,1.64 -2.43,1.59 -2.47,1.52 -2.5,1.46 -2.54,1.39 -2.58,1.34 -2.6,1.27 -2.64,1.21 -2.66,1.14 -2.69,1.08 -2.72,1.01 -2.74,0.94 -2.76,0.87 -2.79,0.81 -2.8,0.74 -2.82,0.67 -2.84,0.6 -2.85,0.53 -2.86,0.46 -2.87,0.39 -2.88,0.32 -2.89,0.25 -2.89,0.18 -2.9,0.1 -2.9,0.04 -2.9,-0.04 -2.9,-0.1 -2.89,-0.18 -2.89,-0.25 -2.88,-0.32 -2.87,-0.39 -2.86,-0.46 -2.85,-0.53 -2.84,-0.6 -2.82,-0.67 -2.8,-0.74 -2.79,-0.81 -2.76,-0.87 -2.74,-0.94 -2.72,-1.01 -2.69,-1.08 -2.66,-1.14 -2.64,-1.21 -2.6,-1.27 -2.58,-1.34 -2.54,-1.39 -2.5,-1.46 -2.47,-1.52 -2.43,-1.59 -2.39,-1.64 -2.35,-1.69 -2.31,-1.76 -2.26,-1.81 -2.22,-1.87 -2.17,-1.92 -2.12,-1.97 -2.08,-2.02 -2.02,-2.08 -1.97,-2.12 -1.92,-2.17 -1.87,-2.22 -1.81,-2.26 -1.76,-2.31 -1.69,-2.35 -1.64,-2.39 -1.59,-2.43 -1.52,-2.47 -1.46,-2.5 -1.39,-2.54 -1.34,-2.58 -1.27,-2.6 -1.21,-2.64 -1.14,-2.66 -1.08,-2.69 -1.01,-2.72 -0.94,-2.74 -0.87,-2.76 -0.81,-2.79 -0.74,-2.8 -0.67,-2.82 -0.6,-2.84 -0.53,-2.85 -0.46,-2.86 -0.39,-2.87 -0.32,-2.88 -0.25,-2.89 -0.18,-2.89 -0.1,-2.9 -0.04,-2.9 m 55.12,0 0.02,-1.58 0.06,-1.58 0.1,-1.58 0.14,-1.58 0.18,-1.57 0.21,-1.57 0.26,-1.56 0.3,-1.56 0.33,-1.55 0.38,-1.53 0.41,-1.53 0.45,-1.52 0.49,-1.51 0.53,-1.49 0.56,-1.48 0.6,-1.46 0.64,-1.45 0.68,-1.43 0.71,-1.42 0.74,-1.4 0.78,-1.37 0.82,-1.36 0.84,-1.34 0.89,-1.31 0.91,-1.29 0.95,-1.27 0.97,-1.25 1.01,-1.22 1.04,-1.19 1.07,-1.17 1.1,-1.14 1.13,-1.11 1.15,-1.09 1.18,-1.05 1.21,-1.02 1.23,-1 1.26,-0.96 1.28,-0.93 1.3,-0.9 1.33,-0.86 1.35,-0.84 1.36,-0.79 1.39,-0.77 1.41,-0.72 1.42,-0.7 1.44,-0.65 1.46,-0.62 1.47,-0.58 1.49,-0.55 1.5,-0.51 1.51,-0.47 1.52,-0.43 1.53,-0.39 1.55,-0.36 1.55,-0.31 1.56,-0.28 1.56,-0.24 1.57,-0.2 1.58,-0.16 1.57,-0.12 1.59,-0.08 1.58,-0.04 1.58,0 1.58,0.04 1.59,0.08 1.57,0.12 1.58,0.16 1.57,0.2 1.56,0.24 1.56,0.28 1.55,0.31 1.55,0.36 1.53,0.39 1.52,0.43 1.51,0.47 1.5,0.51 1.49,0.55 1.47,0.58 1.46,0.62 1.44,0.65 1.42,0.7 1.41,0.72 1.39,0.77 1.36,0.79 1.35,0.84 1.33,0.86 1.3,0.9 1.28,0.93 1.26,0.96 1.23,1 1.21,1.02 1.18,1.05 1.15,1.09 1.13,1.11 1.1,1.14 1.07,1.17 1.04,1.19 1.01,1.22 0.97,1.25 0.95,1.27 0.91,1.29 0.89,1.31 0.84,1.34 0.82,1.36 0.78,1.37 0.74,1.4 0.71,1.42 0.68,1.43 0.64,1.45 0.6,1.46 0.56,1.48 0.53,1.49 0.49,1.51 0.45,1.52 0.41,1.53 0.38,1.53 0.33,1.55 0.3,1.56 0.26,1.56 0.21,1.57 0.18,1.57 0.14,1.58 0.1,1.58 0.06,1.58 0.02,1.58 -0.02,1.58 -0.06,1.58 -0.1,1.58 -0.14,1.58 -0.18,1.57 -0.21,1.57 -0.26,1.56 -0.3,1.56 -0.33,1.55 -0.38,1.53 -0.41,1.53 -0.45,1.52 -0.49,1.51 -0.53,1.49 -0.56,1.48 -0.6,1.46 -0.64,1.45 -0.68,1.43 -0.71,1.42 -0.74,1.4 -0.78,1.37 -0.82,1.36 -0.84,1.34 -0.89,1.31 -0.91,1.29 -0.95,1.27 -0.97,1.25 -1.01,1.22 -1.04,1.19 -1.07,1.17 -1.1,1.14 -1.13,1.11 -1.15,1.09 -1.18,1.05 -1.21,1.02 -1.23,1 -1.26,0.96 -1.28,0.93 -1.3,0.9 -1.33,0.86 -1.35,0.84 -1.36,0.79 -1.39,0.77 -1.41,0.72 -1.42,0.7 -1.44,0.65 -1.46,0.62 -1.47,0.58 -1.49,0.55 -1.5,0.51 -1.51,0.47 -1.52,0.43 -1.53,0.39 -1.55,0.36 -1.55,0.31 -1.56,0.28 -1.56,0.24 -1.57,0.2 -1.58,0.16 -1.57,0.12 -1.59,0.08 -1.58,0.04 -1.58,0 -1.58,-0.04 -1.59,-0.08 -1.57,-0.12 -1.58,-0.16 -1.57,-0.2 -1.56,-0.24 -1.56,-0.28 -1.55,-0.31 -1.55,-0.36 -1.53,-0.39 -1.52,-0.43 -1.51,-0.47 -1.5,-0.51 -1.49,-0.55 -1.47,-0.58 -1.46,-0.62 -1.44,-0.65 -1.42,-0.7 -1.41,-0.72 -1.39,-0.77 -1.36,-0.79 -1.35,-0.84 -1.33,-0.86 -1.3,-0.9 -1.28,-0.93 -1.26,-0.96 -1.23,-1 -1.21,-1.02 -1.18,-1.05 -1.15,-1.09 -1.13,-1.11 -1.1,-1.14 -1.07,-1.17 -1.04,-1.19 -1.01,-1.22 -0.97,-1.25 -0.95,-1.27 -0.91,-1.29 -0.89,-1.31 -0.84,-1.34 -0.82,-1.36 -0.78,-1.37 -0.74,-1.4 -0.71,-1.42 -0.68,-1.43 -0.64,-1.45 -0.6,-1.46 -0.56,-1.48 -0.53,-1.49 -0.49,-1.51 -0.45,-1.52 -0.41,-1.53 -0.38,-1.53 -0.33,-1.55 -0.3,-1.56 -0.26,-1.56 -0.21,-1.57 -0.18,-1.57 -0.14,-1.58 -0.1,-1.58 -0.06,-1.58 -0.02,-1.58 m -216.54,-905.51 0.02,-1.58 0.06,-1.58 0.1,-1.58 0.14,-1.58 0.18,-1.57 0.21,-1.57 0.26,-1.56 0.3,-1.56 0.33,-1.55 0.38,-1.53 0.41,-1.53 0.45,-1.52 0.49,-1.51 0.53,-1.49 0.56,-1.48 0.6,-1.46 0.64,-1.45 0.68,-1.43 0.71,-1.42 0.74,-1.4 0.78,-1.37 0.82,-1.36 0.84,-1.34 0.89,-1.31 0.91,-1.29 0.95,-1.27 0.97,-1.25 1.01,-1.22 1.04,-1.19 1.07,-1.17 1.1,-1.14 1.13,-1.11 1.15,-1.09 1.18,-1.05 1.21,-1.02 1.23,-1 1.26,-0.96 1.28,-0.93 1.3,-0.9 1.33,-0.86 1.35,-0.84 1.36,-0.79 1.39,-0.77 1.41,-0.72 1.42,-0.7 1.44,-0.65 1.46,-0.62 1.47,-0.58 1.49,-0.55 1.5,-0.51 1.51,-0.47 1.52,-0.43 1.53,-0.39 1.55,-0.36 1.55,-0.31 1.56,-0.28 1.56,-0.24 1.57,-0.2 1.58,-0.16 1.57,-0.12 1.59,-0.08 1.58,-0.04 1.58,0 1.58,0.04 1.59,0.08 1.57,0.12 1.58,0.16 1.57,0.2 1.56,0.24 1.56,0.28 1.55,0.31 1.55,0.36 1.53,0.39 1.52,0.43 1.51,0.47 1.5,0.51 1.49,0.55 1.47,0.58 1.46,0.62 1.44,0.65 1.42,0.7 1.41,0.72 1.39,0.77 1.36,0.79 1.35,0.84 1.33,0.86 1.3,0.9 1.28,0.93 1.26,0.96 1.23,1 1.21,1.02 1.18,1.05 1.15,1.09 1.13,1.11 1.1,1.14 1.07,1.17 1.04,1.19 1.01,1.22 0.97,1.25 0.95,1.27 0.91,1.29 0.89,1.31 0.84,1.34 0.82,1.36 0.78,1.37 0.74,1.4 0.71,1.42 0.68,1.43 0.64,1.45 0.6,1.46 0.56,1.48 0.53,1.49 0.49,1.51 0.45,1.52 0.41,1.53 0.38,1.53 0.33,1.55 0.3,1.56 0.26,1.56 0.21,1.57 0.18,1.57 0.14,1.58 0.1,1.58 0.06,1.58 0.02,1.58 -0.02,1.58 -0.06,1.58 -0.1,1.58 -0.14,1.58 -0.18,1.57 -0.21,1.57 -0.26,1.56 -0.3,1.56 -0.33,1.55 -0.38,1.53 -0.41,1.53 -0.45,1.52 -0.49,1.51 -0.53,1.49 -0.56,1.48 -0.6,1.46 -0.64,1.45 -0.68,1.43 -0.71,1.42 -0.74,1.4 -0.78,1.37 -0.82,1.36 -0.84,1.34 -0.89,1.31 -0.91,1.29 -0.95,1.27 -0.97,1.25 -1.01,1.22 -1.04,1.19 -1.07,1.17 -1.1,1.14 -1.13,1.11 -1.15,1.09 -1.18,1.05 -1.21,1.02 -1.23,1 -1.26,0.96 -1.28,0.93 -1.3,0.9 -1.33,0.86 -1.35,0.84 -1.36,0.79 -1.39,0.77 -1.41,0.72 -1.42,0.7 -1.44,0.65 -1.46,0.62 -1.47,0.58 -1.49,0.55 -1.5,0.51 -1.51,0.47 -1.52,0.43 -1.53,0.39 -1.55,0.36 -1.55,0.31 -1.56,0.28 -1.56,0.24 -1.57,0.2 -1.58,0.16 -1.57,0.12 -1.59,0.08 -1.58,0.04 -1.58,0 -1.58,-0.04 -1.59,-0.08 -1.57,-0.12 -1.58,-0.16 -1.57,-0.2 -1.56,-0.24 -1.56,-0.28 -1.55,-0.31 -1.55,-0.36 -1.53,-0.39 -1.52,-0.43 -1.51,-0.47 -1.5,-0.51 -1.49,-0.55 -1.47,-0.58 -1.46,-0.62 -1.44,-0.65 -1.42,-0.7 -1.41,-0.72 -1.39,-0.77 -1.36,-0.79 -1.35,-0.84 -1.33,-0.86 -1.3,-0.9 -1.28,-0.93 -1.26,-0.96 -1.23,-1 -1.21,-1.02 -1.18,-1.05 -1.15,-1.09 -1.13,-1.11 -1.1,-1.14 -1.07,-1.17 -1.04,-1.19 -1.01,-1.22 -0.97,-1.25 -0.95,-1.27 -0.91,-1.29 -0.89,-1.31 -0.84,-1.34 -0.82,-1.36 -0.78,-1.37 -0.74,-1.4 -0.71,-1.42 -0.68,-1.43 -0.64,-1.45 -0.6,-1.46 -0.56,-1.48 -0.53,-1.49 -0.49,-1.51 -0.45,-1.52 -0.41,-1.53 -0.38,-1.53 -0.33,-1.55 -0.3,-1.56 -0.26,-1.56 -0.21,-1.57 -0.18,-1.57 -0.14,-1.58 -0.1,-1.58 -0.06,-1.58 -0.02,-1.58 m 8389.77,905.51 0.04,-2.9 0.1,-2.9 0.18,-2.89 0.25,-2.89 0.32,-2.88 0.39,-2.87 0.46,-2.86 0.53,-2.85 0.6,-2.84 0.67,-2.82 0.74,-2.8 0.81,-2.79 0.87,-2.76 0.94,-2.74 1.01,-2.72 1.08,-2.69 1.14,-2.66 1.21,-2.64 1.27,-2.6 1.34,-2.58 1.39,-2.54 1.46,-2.5 1.52,-2.47 1.59,-2.43 1.64,-2.39 1.69,-2.35 1.76,-2.31 1.81,-2.26 1.87,-2.22 1.92,-2.17 1.97,-2.12 2.02,-2.08 2.08,-2.02 2.12,-1.97 2.17,-1.92 2.22,-1.87 2.26,-1.81 2.31,-1.76 2.35,-1.69 2.39,-1.64 2.43,-1.59 2.47,-1.52 2.5,-1.46 2.54,-1.39 2.58,-1.34 2.6,-1.27 2.64,-1.21 2.66,-1.14 2.69,-1.08 2.72,-1.01 2.74,-0.94 2.76,-0.87 2.79,-0.81 2.8,-0.74 2.82,-0.67 2.84,-0.6 2.85,-0.53 2.86,-0.46 2.87,-0.39 2.88,-0.32 2.89,-0.25 2.89,-0.18 2.9,-0.1 2.9,-0.04 2.9,0.04 2.9,0.1 2.89,0.18 2.89,0.25 2.88,0.32 2.87,0.39 2.86,0.46 2.85,0.53 2.84,0.6 2.82,0.67 2.8,0.74 2.79,0.81 2.76,0.87 2.74,0.94 2.72,1.01 2.69,1.08 2.66,1.14 2.64,1.21 2.6,1.27 2.58,1.34 2.54,1.39 2.5,1.46 2.47,1.52 2.43,1.59 2.39,1.64 2.35,1.69 2.31,1.76 2.26,1.81 2.22,1.87 2.17,1.92 2.12,1.97 2.08,2.02 2.02,2.08 1.97,2.12 1.92,2.17 1.87,2.22 1.81,2.26 1.76,2.31 1.69,2.35 1.64,2.39 1.59,2.43 1.52,2.47 1.46,2.5 1.39,2.54 1.34,2.58 1.27,2.6 1.21,2.64 1.14,2.66 1.08,2.69 1.01,2.72 0.94,2.74 0.87,2.76 0.81,2.79 0.74,2.8 0.67,2.82 0.6,2.84 0.53,2.85 0.46,2.86 0.39,2.87 0.32,2.88 0.25,2.89 0.18,2.89 0.1,2.9 0.04,2.9 -0.04,2.9 -0.1,2.9 -0.18,2.89 -0.25,2.89 -0.32,2.88 -0.39,2.87 -0.46,2.86 -0.53,2.85 -0.6,2.84 -0.67,2.82 -0.74,2.8 -0.81,2.79 -0.87,2.76 -0.94,2.74 -1.01,2.72 -1.08,2.69 -1.14,2.66 -1.21,2.64 -1.27,2.6 -1.34,2.58 -1.39,2.54 -1.46,2.5 -1.52,2.47 -1.59,2.43 -1.64,2.39 -1.69,2.35 -1.76,2.31 -1.81,2.26 -1.87,2.22 -1.92,2.17 -1.97,2.12 -2.02,2.08 -2.08,2.02 -2.12,1.97 -2.17,1.92 -2.22,1.87 -2.26,1.81 -2.31,1.76 -2.35,1.69 -2.39,1.64 -2.43,1.59 -2.47,1.52 -2.5,1.46 -2.54,1.39 -2.58,1.34 -2.6,1.27 -2.64,1.21 -2.66,1.14 -2.69,1.08 -2.72,1.01 -2.74,0.94 -2.76,0.87 -2.79,0.81 -2.8,0.74 -2.82,0.67 -2.84,0.6 -2.85,0.53 -2.86,0.46 -2.87,0.39 -2.88,0.32 -2.89,0.25 -2.89,0.18 -2.9,0.1 -2.9,0.04 -2.9,-0.04 -2.9,-0.1 -2.89,-0.18 -2.89,-0.25 -2.88,-0.32 -2.87,-0.39 -2.86,-0.46 -2.85,-0.53 -2.84,-0.6 -2.82,-0.67 -2.8,-0.74 -2.79,-0.81 -2.76,-0.87 -2.74,-0.94 -2.72,-1.01 -2.69,-1.08 -2.66,-1.14 -2.64,-1.21 -2.6,-1.27 -2.58,-1.34 -2.54,-1.39 -2.5,-1.46 -2.47,-1.52 -2.43,-1.59 -2.39,-1.64 -2.35,-1.69 -2.31,-1.76 -2.26,-1.81 -2.22,-1.87 -2.17,-1.92 -2.12,-1.97 -2.08,-2.02 -2.02,-2.08 -1.97,-2.12 -1.92,-2.17 -1.87,-2.22 -1.81,-2.26 -1.76,-2.31 -1.69,-2.35 -1.64,-2.39 -1.59,-2.43 -1.52,-2.47 -1.46,-2.5 -1.39,-2.54 -1.34,-2.58 -1.27,-2.6 -1.21,-2.64 -1.14,-2.66 -1.08,-2.69 -1.01,-2.72 -0.94,-2.74 -0.87,-2.76 -0.81,-2.79 -0.74,-2.8 -0.67,-2.82 -0.6,-2.84 -0.53,-2.85 -0.46,-2.86 -0.39,-2.87 -0.32,-2.88 -0.25,-2.89 -0.18,-2.89 -0.1,-2.9 -0.04,-2.9 m 55.12,0 0.02,-1.58 0.06,-1.58 0.1,-1.58 0.14,-1.58 0.18,-1.57 0.21,-1.57 0.26,-1.56 0.3,-1.56 0.33,-1.55 0.38,-1.53 0.41,-1.53 0.45,-1.52 0.49,-1.51 0.53,-1.49 0.56,-1.48 0.6,-1.46 0.64,-1.45 0.68,-1.43 0.71,-1.42 0.74,-1.4 0.78,-1.37 0.82,-1.36 0.84,-1.34 0.89,-1.31 0.91,-1.29 0.95,-1.27 0.97,-1.25 1.01,-1.22 1.04,-1.19 1.07,-1.17 1.1,-1.14 1.13,-1.11 1.15,-1.09 1.18,-1.05 1.21,-1.02 1.23,-1 1.26,-0.96 1.28,-0.93 1.3,-0.9 1.33,-0.86 1.35,-0.84 1.36,-0.79 1.39,-0.77 1.41,-0.72 1.42,-0.7 1.44,-0.65 1.46,-0.62 1.47,-0.58 1.49,-0.55 1.5,-0.51 1.51,-0.47 1.52,-0.43 1.53,-0.39 1.55,-0.36 1.55,-0.31 1.56,-0.28 1.56,-0.24 1.57,-0.2 1.58,-0.16 1.57,-0.12 1.59,-0.08 1.58,-0.04 1.58,0 1.58,0.04 1.59,0.08 1.57,0.12 1.58,0.16 1.57,0.2 1.56,0.24 1.56,0.28 1.55,0.31 1.55,0.36 1.53,0.39 1.52,0.43 1.51,0.47 1.5,0.51 1.49,0.55 1.47,0.58 1.46,0.62 1.44,0.65 1.42,0.7 1.41,0.72 1.39,0.77 1.36,0.79 1.35,0.84 1.33,0.86 1.3,0.9 1.28,0.93 1.26,0.96 1.23,1 1.21,1.02 1.18,1.05 1.15,1.09 1.13,1.11 1.1,1.14 1.07,1.17 1.04,1.19 1.01,1.22 0.97,1.25 0.95,1.27 0.91,1.29 0.89,1.31 0.84,1.34 0.82,1.36 0.78,1.37 0.74,1.4 0.71,1.42 0.68,1.43 0.64,1.45 0.6,1.46 0.56,1.48 0.53,1.49 0.49,1.51 0.45,1.52 0.41,1.53 0.38,1.53 0.33,1.55 0.3,1.56 0.26,1.56 0.21,1.57 0.18,1.57 0.14,1.58 0.1,1.58 0.06,1.58 0.02,1.58 -0.02,1.58 -0.06,1.58 -0.1,1.58 -0.14,1.58 -0.18,1.57 -0.21,1.57 -0.26,1.56 -0.3,1.56 -0.33,1.55 -0.38,1.53 -0.41,1.53 -0.45,1.52 -0.49,1.51 -0.53,1.49 -0.56,1.48 -0.6,1.46 -0.64,1.45 -0.68,1.43 -0.71,1.42 -0.74,1.4 -0.78,1.37 -0.82,1.36 -0.84,1.34 -0.89,1.31 -0.91,1.29 -0.95,1.27 -0.97,1.25 -1.01,1.22 -1.04,1.19 -1.07,1.17 -1.1,1.14 -1.13,1.11 -1.15,1.09 -1.18,1.05 -1.21,1.02 -1.23,1 -1.26,0.96 -1.28,0.93 -1.3,0.9 -1.33,0.86 -1.35,0.84 -1.36,0.79 -1.39,0.77 -1.41,0.72 -1.42,0.7 -1.44,0.65 -1.46,0.62 -1.47,0.58 -1.49,0.55 -1.5,0.51 -1.51,0.47 -1.52,0.43 -1.53,0.39 -1.55,0.36 -1.55,0.31 -1.56,0.28 -1.56,0.24 -1.57,0.2 -1.58,0.16 -1.57,0.12 -1.59,0.08 -1.58,0.04 -1.58,0 -1.58,-0.04 -1.59,-0.08 -1.57,-0.12 -1.58,-0.16 -1.57,-0.2 -1.56,-0.24 -1.56,-0.28 -1.55,-0.31 -1.55,-0.36 -1.53,-0.39 -1.52,-0.43 -1.51,-0.47 -1.5,-0.51 -1.49,-0.55 -1.47,-0.58 -1.46,-0.62 -1.44,-0.65 -1.42,-0.7 -1.41,-0.72 -1.39,-0.77 -1.36,-0.79 -1.35,-0.84 -1.33,-0.86 -1.3,-0.9 -1.28,-0.93 -1.26,-0.96 -1.23,-1 -1.21,-1.02 -1.18,-1.05 -1.15,-1.09 -1.13,-1.11 -1.1,-1.14 -1.07,-1.17 -1.04,-1.19 -1.01,-1.22 -0.97,-1.25 -0.95,-1.27 -0.91,-1.29 -0.89,-1.31 -0.84,-1.34 -0.82,-1.36 -0.78,-1.37 -0.74,-1.4 -0.71,-1.42 -0.68,-1.43 -0.64,-1.45 -0.6,-1.46 -0.56,-1.48 -0.53,-1.49 -0.49,-1.51 -0.45,-1.52 -0.41,-1.53 -0.38,-1.53 -0.33,-1.55 -0.3,-1.56 -0.26,-1.56 -0.21,-1.57 -0.18,-1.57 -0.14,-1.58 -0.1,-1.58 -0.06,-1.58 -0.02,-1.58 m -55.12,8228.35 0.04,-2.9 0.1,-2.9 0.18,-2.89 0.25,-2.89 0.32,-2.88 0.39,-2.87 0.46,-2.86 0.53,-2.85 0.6,-2.84 0.67,-2.82 0.74,-2.8 0.81,-2.79 0.87,-2.76 0.94,-2.74 1.01,-2.72 1.08,-2.69 1.14,-2.66 1.21,-2.64 1.27,-2.6 1.34,-2.58 1.39,-2.54 1.46,-2.5 1.52,-2.47 1.59,-2.43 1.64,-2.39 1.69,-2.35 1.76,-2.31 1.81,-2.26 1.87,-2.22 1.92,-2.17 1.97,-2.12 2.02,-2.08 2.08,-2.02 2.12,-1.97 2.17,-1.92 2.22,-1.87 2.26,-1.81 2.31,-1.76 2.35,-1.69 2.39,-1.64 2.43,-1.59 2.47,-1.52 2.5,-1.46 2.54,-1.39 2.58,-1.34 2.6,-1.27 2.64,-1.21 2.66,-1.14 2.69,-1.08 2.72,-1.01 2.74,-0.94 2.76,-0.87 2.79,-0.81 2.8,-0.74 2.82,-0.67 2.84,-0.6 2.85,-0.53 2.86,-0.46 2.87,-0.39 2.88,-0.32 2.89,-0.25 2.89,-0.18 2.9,-0.1 2.9,-0.04 2.9,0.04 2.9,0.1 2.89,0.18 2.89,0.25 2.88,0.32 2.87,0.39 2.86,0.46 2.85,0.53 2.84,0.6 2.82,0.67 2.8,0.74 2.79,0.81 2.76,0.87 2.74,0.94 2.72,1.01 2.69,1.08 2.66,1.14 2.64,1.21 2.6,1.27 2.58,1.34 2.54,1.39 2.5,1.46 2.47,1.52 2.43,1.59 2.39,1.64 2.35,1.69 2.31,1.76 2.26,1.81 2.22,1.87 2.17,1.92 2.12,1.97 2.08,2.02 2.02,2.08 1.97,2.12 1.92,2.17 1.87,2.22 1.81,2.26 1.76,2.31 1.69,2.35 1.64,2.39 1.59,2.43 1.52,2.47 1.46,2.5 1.39,2.54 1.34,2.58 1.27,2.6 1.21,2.64 1.14,2.66 1.08,2.69 1.01,2.72 0.94,2.74 0.87,2.76 0.81,2.79 0.74,2.8 0.67,2.82 0.6,2.84 0.53,2.85 0.46,2.86 0.39,2.87 0.32,2.88 0.25,2.89 0.18,2.89 0.1,2.9 0.04,2.9 -0.04,2.9 -0.1,2.9 -0.18,2.89 -0.25,2.89 -0.32,2.88 -0.39,2.87 -0.46,2.86 -0.53,2.85 -0.6,2.84 -0.67,2.82 -0.74,2.8 -0.81,2.79 -0.87,2.76 -0.94,2.74 -1.01,2.72 -1.08,2.69 -1.14,2.66 -1.21,2.64 -1.27,2.6 -1.34,2.58 -1.39,2.54 -1.46,2.5 -1.52,2.47 -1.59,2.43 -1.64,2.39 -1.69,2.35 -1.76,2.31 -1.81,2.26 -1.87,2.22 -1.92,2.17 -1.97,2.12 -2.02,2.08 -2.08,2.02 -2.12,1.97 -2.17,1.92 -2.22,1.87 -2.26,1.81 -2.31,1.76 -2.35,1.69 -2.39,1.64 -2.43,1.59 -2.47,1.52 -2.5,1.46 -2.54,1.39 -2.58,1.34 -2.6,1.27 -2.64,1.21 -2.66,1.14 -2.69,1.08 -2.72,1.01 -2.74,0.94 -2.76,0.87 -2.79,0.81 -2.8,0.74 -2.82,0.67 -2.84,0.6 -2.85,0.53 -2.86,0.46 -2.87,0.39 -2.88,0.32 -2.89,0.25 -2.89,0.18 -2.9,0.1 -2.9,0.04 -2.9,-0.04 -2.9,-0.1 -2.89,-0.18 -2.89,-0.25 -2.88,-0.32 -2.87,-0.39 -2.86,-0.46 -2.85,-0.53 -2.84,-0.6 -2.82,-0.67 -2.8,-0.74 -2.79,-0.81 -2.76,-0.87 -2.74,-0.94 -2.72,-1.01 -2.69,-1.08 -2.66,-1.14 -2.64,-1.21 -2.6,-1.27 -2.58,-1.34 -2.54,-1.39 -2.5,-1.46 -2.47,-1.52 -2.43,-1.59 -2.39,-1.64 -2.35,-1.69 -2.31,-1.76 -2.26,-1.81 -2.22,-1.87 -2.17,-1.92 -2.12,-1.97 -2.08,-2.02 -2.02,-2.08 -1.97,-2.12 -1.92,-2.17 -1.87,-2.22 -1.81,-2.26 -1.76,-2.31 -1.69,-2.35 -1.64,-2.39 -1.59,-2.43 -1.52,-2.47 -1.46,-2.5 -1.39,-2.54 -1.34,-2.58 -1.27,-2.6 -1.21,-2.64 -1.14,-2.66 -1.08,-2.69 -1.01,-2.72 -0.94,-2.74 -0.87,-2.76 -0.81,-2.79 -0.74,-2.8 -0.67,-2.82 -0.6,-2.84 -0.53,-2.85 -0.46,-2.86 -0.39,-2.87 -0.32,-2.88 -0.25,-2.89 -0.18,-2.89 -0.1,-2.9 -0.04,-2.9 m 55.12,0 0.02,-1.58 0.06,-1.58 0.1,-1.58 0.14,-1.58 0.18,-1.57 0.21,-1.57 0.26,-1.56 0.3,-1.56 0.33,-1.55 0.38,-1.53 0.41,-1.53 0.45,-1.52 0.49,-1.51 0.53,-1.49 0.56,-1.48 0.6,-1.46 0.64,-1.45 0.68,-1.43 0.71,-1.42 0.74,-1.4 0.78,-1.37 0.82,-1.36 0.84,-1.34 0.89,-1.31 0.91,-1.29 0.95,-1.27 0.97,-1.25 1.01,-1.22 1.04,-1.19 1.07,-1.17 1.1,-1.14 1.13,-1.11 1.15,-1.09 1.18,-1.05 1.21,-1.02 1.23,-1 1.26,-0.96 1.28,-0.93 1.3,-0.9 1.33,-0.86 1.35,-0.84 1.36,-0.79 1.39,-0.77 1.41,-0.72 1.42,-0.7 1.44,-0.65 1.46,-0.62 1.47,-0.58 1.49,-0.55 1.5,-0.51 1.51,-0.47 1.52,-0.43 1.53,-0.39 1.55,-0.36 1.55,-0.31 1.56,-0.28 1.56,-0.24 1.57,-0.2 1.58,-0.16 1.57,-0.12 1.59,-0.08 1.58,-0.04 1.58,0 1.58,0.04 1.59,0.08 1.57,0.12 1.58,0.16 1.57,0.2 1.56,0.24 1.56,0.28 1.55,0.31 1.55,0.36 1.53,0.39 1.52,0.43 1.51,0.47 1.5,0.51 1.49,0.55 1.47,0.58 1.46,0.62 1.44,0.65 1.42,0.7 1.41,0.72 1.39,0.77 1.36,0.79 1.35,0.84 1.33,0.86 1.3,0.9 1.28,0.93 1.26,0.96 1.23,1 1.21,1.02 1.18,1.05 1.15,1.09 1.13,1.11 1.1,1.14 1.07,1.17 1.04,1.19 1.01,1.22 0.97,1.25 0.95,1.27 0.91,1.29 0.89,1.31 0.84,1.34 0.82,1.36 0.78,1.37 0.74,1.4 0.71,1.42 0.68,1.43 0.64,1.45 0.6,1.46 0.56,1.48 0.53,1.49 0.49,1.51 0.45,1.52 0.41,1.53 0.38,1.53 0.33,1.55 0.3,1.56 0.26,1.56 0.21,1.57 0.18,1.57 0.14,1.58 0.1,1.58 0.06,1.58 0.02,1.58 -0.02,1.58 -0.06,1.58 -0.1,1.58 -0.14,1.58 -0.18,1.57 -0.21,1.57 -0.26,1.56 -0.3,1.56 -0.33,1.55 -0.38,1.53 -0.41,1.53 -0.45,1.52 -0.49,1.51 -0.53,1.49 -0.56,1.48 -0.6,1.46 -0.64,1.45 -0.68,1.43 -0.71,1.42 -0.74,1.4 -0.78,1.37 -0.82,1.36 -0.84,1.34 -0.89,1.31 -0.91,1.29 -0.95,1.27 -0.97,1.25 -1.01,1.22 -1.04,1.19 -1.07,1.17 -1.1,1.14 -1.13,1.11 -1.15,1.09 -1.18,1.05 -1.21,1.02 -1.23,1 -1.26,0.96 -1.28,0.93 -1.3,0.9 -1.33,0.86 -1.35,0.84 -1.36,0.79 -1.39,0.77 -1.41,0.72 -1.42,0.7 -1.44,0.65 -1.46,0.62 -1.47,0.58 -1.49,0.55 -1.5,0.51 -1.51,0.47 -1.52,0.43 -1.53,0.39 -1.55,0.36 -1.55,0.31 -1.56,0.28 -1.56,0.24 -1.57,0.2 -1.58,0.16 -1.57,0.12 -1.59,0.08 -1.58,0.04 -1.58,0 -1.58,-0.04 -1.59,-0.08 -1.57,-0.12 -1.58,-0.16 -1.57,-0.2 -1.56,-0.24 -1.56,-0.28 -1.55,-0.31 -1.55,-0.36 -1.53,-0.39 -1.52,-0.43 -1.51,-0.47 -1.5,-0.51 -1.49,-0.55 -1.47,-0.58 -1.46,-0.62 -1.44,-0.65 -1.42,-0.7 -1.41,-0.72 -1.39,-0.77 -1.36,-0.79 -1.35,-0.84 -1.33,-0.86 -1.3,-0.9 -1.28,-0.93 -1.26,-0.96 -1.23,-1 -1.21,-1.02 -1.18,-1.05 -1.15,-1.09 -1.13,-1.11 -1.1,-1.14 -1.07,-1.17 -1.04,-1.19 -1.01,-1.22 -0.97,-1.25 -0.95,-1.27 -0.91,-1.29 -0.89,-1.31 -0.84,-1.34 -0.82,-1.36 -0.78,-1.37 -0.74,-1.4 -0.71,-1.42 -0.68,-1.43 -0.64,-1.45 -0.6,-1.46 -0.56,-1.48 -0.53,-1.49 -0.49,-1.51 -0.45,-1.52 -0.41,-1.53 -0.38,-1.53 -0.33,-1.55 -0.3,-1.56 -0.26,-1.56 -0.21,-1.57 -0.18,-1.57 -0.14,-1.58 -0.1,-1.58 -0.06,-1.58 -0.02,-1.58" />
</svg>
