<?xml version="1.0" encoding="UTF-8" standalone="no"?>
<!-- Generator: Adobe Illustrator 16.0.0, SVG Export Plug-In . SVG Version: 6.00 Build 0)  -->

<svg
   xmlns:dc="http://purl.org/dc/elements/1.1/"
   xmlns:cc="http://creativecommons.org/ns#"
   xmlns:rdf="http://www.w3.org/1999/02/22-rdf-syntax-ns#"
   xmlns:svg="http://www.w3.org/2000/svg"
   xmlns="http://www.w3.org/2000/svg"
   xmlns:sodipodi="http://sodipodi.sourceforge.net/DTD/sodipodi-0.dtd"
   xmlns:inkscape="http://www.inkscape.org/namespaces/inkscape"
   version="1.1"
   id="Layer_1"
   x="0px"
   y="0px"
   width="900"
   height="883.6488"
   viewBox="-5267.501 1198.164 899.99999 883.64883"
   enable-background="new -5267.501 1198.164 719.51 706.48"
   xml:space="preserve"
   inkscape:version="0.91 r13725"
   sodipodi:docname="Pulse Bottom Silkscreen.svg"><metadata
     id="metadata101"><rdf:RDF><cc:Work
         rdf:about=""><dc:format>image/svg+xml</dc:format><dc:type
           rdf:resource="http://purl.org/dc/dcmitype/StillImage" /><dc:title></dc:title></cc:Work></rdf:RDF></metadata><defs
     id="defs99" /><sodipodi:namedview
     pagecolor="#000000"
     bordercolor="#666666"
     borderopacity="1"
     objecttolerance="10"
     gridtolerance="10"
     guidetolerance="10"
     inkscape:pageopacity="0"
     inkscape:pageshadow="2"
     inkscape:window-width="1920"
     inkscape:window-height="1020"
     id="namedview97"
     showgrid="false"
     fit-margin-top="0"
     fit-margin-left="0"
     fit-margin-right="0"
     fit-margin-bottom="0"
     inkscape:zoom="0.66810103"
     inkscape:cx="439.7384"
     inkscape:cy="435.02998"
     inkscape:window-x="1920"
     inkscape:window-y="34"
     inkscape:window-maximized="1"
     inkscape:current-layer="Layer_1" /><rect
     x="-5187.6055"
     y="1332.5028"
     stroke-miterlimit="10"
     width="742.65356"
     height="675.31982"
     id="rect37"
     style="fill:none;stroke:#ffffff;stroke-width:2.99999976;stroke-miterlimit:10" /><g
     id="g39"
     transform="matrix(1.2502565,0,0,1.2502565,1319.6633,-298.52562)"><g
       id="g41"><path
         d="m -4925.672,1822.294 c 0,0.01 -0.16,0.229 -0.321,0.531 -0.081,0.15 -0.161,0.318 -0.226,0.498 -0.062,0.174 -0.108,0.355 -0.109,0.537 0,0.061 0.01,0.117 0.018,0.178 0.035,0.164 0.109,0.312 0.19,0.457 0.124,0.221 0.272,0.438 0.388,0.66 0.113,0.221 0.189,0.439 0.188,0.654 0,0.062 -0.01,0.117 -0.017,0.18 -0.065,0.338 -0.276,0.658 -0.479,0.889 -0.1,0.115 -0.197,0.205 -0.268,0.268 -0.035,0.031 -0.063,0.057 -0.082,0.07 l -0.022,0.018 -0.01,0 0.294,0.398 c 0.01,-0.01 0.22,-0.164 0.454,-0.434 0.234,-0.27 0.499,-0.648 0.591,-1.121 0.019,-0.092 0.026,-0.184 0.026,-0.271 0,-0.443 -0.199,-0.816 -0.383,-1.129 -0.094,-0.156 -0.187,-0.301 -0.258,-0.428 -0.072,-0.127 -0.121,-0.24 -0.137,-0.318 l -0.01,-0.074 c 0,-0.094 0.027,-0.229 0.081,-0.371 0.077,-0.217 0.201,-0.447 0.304,-0.623 0.051,-0.086 0.097,-0.158 0.131,-0.209 l 0.039,-0.059 0.014,-0.021 -0.405,-0.284 z"
         id="path43"
         inkscape:connector-curvature="0"
         style="fill:#ffffff" /><path
         d="m -4926.166,1827.96 -0.576,-0.773 0.188,-0.137 c 0.034,-0.027 0.06,-0.047 0.089,-0.076 0.068,-0.059 0.158,-0.143 0.25,-0.248 0.131,-0.148 0.361,-0.449 0.424,-0.777 0.01,-0.047 0.014,-0.09 0.014,-0.137 0,-0.156 -0.053,-0.33 -0.164,-0.551 -0.064,-0.125 -0.141,-0.248 -0.217,-0.371 -0.057,-0.094 -0.113,-0.186 -0.166,-0.279 -0.082,-0.146 -0.174,-0.324 -0.215,-0.521 -0.016,-0.074 -0.022,-0.148 -0.022,-0.227 10e-4,-0.189 0.042,-0.391 0.124,-0.617 0.061,-0.17 0.139,-0.342 0.238,-0.529 0.174,-0.326 0.34,-0.559 0.34,-0.559 l 0.135,-0.182 0.767,0.537 -0.171,0.275 c -0.029,0.045 -0.074,0.115 -0.125,0.199 -0.07,0.121 -0.203,0.357 -0.284,0.58 -0.05,0.137 -0.065,0.24 -0.065,0.293 l 0,0.057 0,0 c 0,0 0.023,0.074 0.107,0.223 0.042,0.074 0.091,0.154 0.143,0.238 l 0.113,0.184 c 0.214,0.363 0.413,0.768 0.415,1.25 0,0.104 -0.01,0.211 -0.03,0.316 -0.082,0.42 -0.299,0.832 -0.645,1.229 -0.214,0.244 -0.41,0.402 -0.484,0.461 l -0.187,0.142 z m 0.064,-0.688 0.018,0.025 c 0.07,-0.064 0.154,-0.148 0.24,-0.248 0.295,-0.338 0.472,-0.668 0.539,-1.012 0.015,-0.078 0.021,-0.154 0.021,-0.229 0,-0.391 -0.183,-0.727 -0.349,-1.012 l -0.109,-0.178 c -0.055,-0.09 -0.107,-0.174 -0.15,-0.252 -0.088,-0.154 -0.143,-0.283 -0.162,-0.387 l -0.01,-0.102 c 0,-0.141 0.031,-0.303 0.092,-0.473 0.088,-0.244 0.225,-0.492 0.321,-0.66 0.024,-0.039 0.046,-0.076 0.067,-0.109 l -0.024,-0.018 c -0.052,0.086 -0.116,0.193 -0.181,0.312 -0.088,0.164 -0.158,0.32 -0.211,0.469 -0.064,0.176 -0.096,0.326 -0.097,0.461 0,0.045 0,0.086 0.013,0.129 0.028,0.135 0.097,0.268 0.166,0.389 0.049,0.09 0.104,0.178 0.158,0.266 0.082,0.135 0.162,0.268 0.231,0.402 0.147,0.287 0.216,0.529 0.215,0.764 0,0.072 -0.01,0.143 -0.021,0.221 -0.084,0.439 -0.369,0.814 -0.531,1 -0.083,0.098 -0.167,0.18 -0.236,0.242 z"
         id="path45"
         inkscape:connector-curvature="0"
         style="fill:#ffffff" /></g><g
       id="g47"><path
         d="m -4923.556,1822.294 c 0,0.01 -0.161,0.229 -0.321,0.531 -0.08,0.15 -0.162,0.318 -0.225,0.498 -0.062,0.174 -0.109,0.355 -0.111,0.537 0,0.061 0.01,0.117 0.019,0.178 0.035,0.164 0.108,0.312 0.19,0.457 0.123,0.221 0.272,0.438 0.387,0.66 0.113,0.221 0.189,0.439 0.189,0.654 0,0.062 -0.01,0.117 -0.018,0.18 -0.064,0.338 -0.275,0.658 -0.479,0.889 -0.099,0.115 -0.195,0.205 -0.267,0.268 -0.035,0.031 -0.063,0.057 -0.083,0.07 l -0.021,0.018 0,0 0.293,0.398 c 0.01,-0.01 0.22,-0.164 0.453,-0.434 0.234,-0.27 0.498,-0.648 0.592,-1.119 0.019,-0.094 0.025,-0.186 0.025,-0.271 0,-0.443 -0.198,-0.818 -0.382,-1.131 -0.093,-0.156 -0.187,-0.299 -0.258,-0.426 -0.071,-0.129 -0.121,-0.24 -0.138,-0.318 l -0.01,-0.076 c 0,-0.092 0.029,-0.229 0.082,-0.371 0.078,-0.215 0.201,-0.447 0.303,-0.621 0.051,-0.086 0.098,-0.162 0.131,-0.211 l 0.039,-0.059 0.014,-0.02 -0.404,-0.285 z"
         id="path49"
         inkscape:connector-curvature="0"
         style="fill:#ffffff" /><path
         d="m -4924.052,1827.96 -0.58,-0.781 0.204,-0.135 c 0.027,-0.023 0.05,-0.041 0.078,-0.068 0.073,-0.062 0.161,-0.145 0.251,-0.25 0.132,-0.148 0.36,-0.449 0.426,-0.779 0.01,-0.047 0.013,-0.09 0.013,-0.135 0,-0.156 -0.054,-0.336 -0.164,-0.551 -0.064,-0.125 -0.142,-0.25 -0.217,-0.375 -0.058,-0.092 -0.113,-0.184 -0.166,-0.275 -0.082,-0.146 -0.172,-0.322 -0.215,-0.521 -0.016,-0.076 -0.021,-0.148 -0.022,-0.221 0,-0.193 0.042,-0.395 0.125,-0.623 0.058,-0.162 0.135,-0.336 0.237,-0.527 0.146,-0.273 0.291,-0.486 0.326,-0.539 l 0.121,-0.242 0.799,0.58 -0.174,0.271 c -0.031,0.045 -0.076,0.117 -0.123,0.197 -0.072,0.123 -0.205,0.359 -0.285,0.584 -0.049,0.137 -0.067,0.238 -0.066,0.291 l 0.01,0.057 0,0 c 0,0 0.023,0.074 0.107,0.225 0.041,0.072 0.09,0.15 0.141,0.232 l 0.115,0.189 c 0.214,0.361 0.413,0.764 0.415,1.248 0,0.102 -0.01,0.207 -0.03,0.316 -0.084,0.422 -0.301,0.834 -0.645,1.229 -0.227,0.26 -0.43,0.422 -0.486,0.463 l -0.191,0.14 z m 0.069,-0.688 0.019,0.025 c 0.068,-0.064 0.15,-0.146 0.238,-0.248 0.29,-0.332 0.473,-0.672 0.539,-1.012 0.016,-0.076 0.021,-0.152 0.021,-0.229 0,-0.391 -0.183,-0.727 -0.351,-1.012 l -0.11,-0.182 c -0.055,-0.088 -0.105,-0.172 -0.149,-0.248 -0.087,-0.154 -0.142,-0.285 -0.163,-0.387 l -0.01,-0.102 c 0,-0.182 0.057,-0.371 0.094,-0.473 0.088,-0.244 0.224,-0.492 0.321,-0.66 0.022,-0.039 0.045,-0.076 0.065,-0.109 l -0.023,-0.018 c -0.055,0.09 -0.117,0.193 -0.18,0.312 -0.092,0.172 -0.162,0.324 -0.211,0.465 -0.064,0.182 -0.097,0.332 -0.098,0.465 0,0.037 0,0.082 0.014,0.129 0.028,0.137 0.096,0.268 0.164,0.389 0.051,0.088 0.104,0.174 0.158,0.262 0.082,0.137 0.166,0.271 0.234,0.406 0.146,0.285 0.215,0.527 0.215,0.764 0,0.072 -0.01,0.145 -0.021,0.221 -0.084,0.439 -0.369,0.814 -0.531,1 -0.084,0.098 -0.166,0.18 -0.235,0.242 z"
         id="path51"
         inkscape:connector-curvature="0"
         style="fill:#ffffff" /></g><g
       id="g53"><path
         d="m -4921.535,1822.294 c 0,0.01 -0.162,0.229 -0.322,0.531 -0.081,0.15 -0.162,0.318 -0.225,0.498 -0.062,0.174 -0.109,0.355 -0.11,0.537 0,0.061 0.01,0.117 0.017,0.178 0.035,0.164 0.108,0.312 0.191,0.457 0.123,0.221 0.271,0.438 0.387,0.66 0.113,0.221 0.189,0.439 0.188,0.654 0,0.062 0,0.117 -0.017,0.18 -0.063,0.338 -0.275,0.658 -0.478,0.889 -0.101,0.115 -0.196,0.205 -0.269,0.268 -0.035,0.031 -0.062,0.057 -0.082,0.07 l -0.021,0.018 -0.01,0 0.295,0.398 c 0.01,-0.01 0.221,-0.164 0.455,-0.434 0.232,-0.27 0.498,-0.648 0.591,-1.119 0.017,-0.094 0.024,-0.186 0.024,-0.271 0,-0.445 -0.197,-0.818 -0.381,-1.131 -0.095,-0.156 -0.187,-0.299 -0.258,-0.426 -0.072,-0.129 -0.121,-0.24 -0.138,-0.318 l -0.01,-0.076 c 0,-0.092 0.028,-0.229 0.082,-0.371 0.076,-0.215 0.199,-0.447 0.301,-0.621 0.052,-0.086 0.099,-0.162 0.131,-0.211 l 0.039,-0.059 0.013,-0.02 -0.401,-0.285 z"
         id="path55"
         inkscape:connector-curvature="0"
         style="fill:#ffffff" /><path
         d="m -4922.026,1827.96 -0.597,-0.795 0.227,-0.129 c 0.016,-0.016 0.039,-0.033 0.066,-0.062 0.071,-0.061 0.16,-0.145 0.252,-0.25 0.131,-0.148 0.36,-0.451 0.424,-0.777 0.01,-0.049 0.013,-0.09 0.013,-0.137 10e-4,-0.154 -0.052,-0.334 -0.163,-0.549 -0.064,-0.127 -0.141,-0.25 -0.216,-0.373 -0.058,-0.092 -0.112,-0.186 -0.166,-0.279 -0.083,-0.145 -0.173,-0.322 -0.215,-0.523 -0.017,-0.074 -0.021,-0.146 -0.022,-0.223 0,-0.188 0.043,-0.391 0.125,-0.619 0.059,-0.166 0.138,-0.338 0.239,-0.527 0.158,-0.299 0.313,-0.523 0.333,-0.551 l 0.133,-0.193 0.773,0.543 -0.17,0.273 c -0.033,0.047 -0.076,0.115 -0.125,0.197 -0.123,0.211 -0.224,0.418 -0.281,0.58 -0.051,0.141 -0.069,0.244 -0.068,0.293 l 0.01,0.057 0,0 c 0,0 0.024,0.072 0.108,0.227 0.041,0.074 0.09,0.154 0.145,0.24 l 0.109,0.18 c 0.215,0.363 0.414,0.768 0.416,1.248 0,0.104 -0.01,0.209 -0.03,0.318 -0.084,0.424 -0.294,0.826 -0.644,1.227 -0.203,0.232 -0.39,0.389 -0.482,0.461 l -0.189,0.143 z m 0.06,-0.688 0.019,0.025 c 0.07,-0.064 0.153,-0.15 0.24,-0.248 0.293,-0.338 0.471,-0.67 0.539,-1.012 0.014,-0.076 0.021,-0.152 0.021,-0.229 0,-0.389 -0.181,-0.727 -0.351,-1.012 l -0.105,-0.174 c -0.057,-0.09 -0.109,-0.176 -0.154,-0.256 -0.086,-0.156 -0.142,-0.285 -0.162,-0.387 l -0.01,-0.102 c 0,-0.184 0.06,-0.373 0.095,-0.473 0.086,-0.242 0.222,-0.492 0.319,-0.66 0.023,-0.039 0.047,-0.076 0.066,-0.109 l -0.023,-0.018 c -0.053,0.086 -0.115,0.193 -0.18,0.312 -0.091,0.168 -0.159,0.32 -0.21,0.467 -0.063,0.18 -0.097,0.33 -0.097,0.461 0,0.043 0,0.086 0.013,0.131 0.028,0.137 0.097,0.268 0.165,0.389 0.05,0.09 0.104,0.178 0.158,0.266 0.082,0.135 0.163,0.27 0.232,0.402 0.147,0.285 0.215,0.529 0.215,0.764 0,0.072 -0.01,0.145 -0.021,0.221 -0.083,0.438 -0.368,0.812 -0.531,1 -0.086,0.098 -0.169,0.18 -0.238,0.242 z"
         id="path57"
         inkscape:connector-curvature="0"
         style="fill:#ffffff" /></g><g
       id="g59"><rect
         x="-4928.229"
         y="1829.106"
         width="9.302"
         height="0.52700001"
         id="rect61"
         style="fill:#ffffff" /><path
         d="m -4918.678,1829.884 -9.802,0 0,-1.027 9.802,0 0,1.027 z m -9.301,-0.5 8.802,-0.027 -8.802,0.027 z"
         id="path63"
         inkscape:connector-curvature="0"
         style="fill:#ffffff" /></g><g
       id="g65"><g
         id="g67"><path
           d="m -4892.767,1819.946 0,0.068 0.286,6.27 0,0 c 0,0.143 0.07,0.283 0.142,0.426 0.072,0.143 0.213,0.215 0.429,0.215 0.143,0 0.285,-0.072 0.426,-0.215 0.071,-0.07 0.144,-0.213 0.144,-0.426 l 0,0 0.285,-6.27 0,-0.068 0,0 0,0 0,0 c 0,-0.285 -0.071,-0.5 -0.214,-0.643 -0.143,-0.143 -0.355,-0.215 -0.641,-0.215 -0.286,0 -0.498,0.072 -0.642,0.215 -0.143,0.071 -0.215,0.284 -0.215,0.643 0,-0.072 0,-0.072 0,0 l 0,0 0,0 z"
           id="path69"
           inkscape:connector-curvature="0"
           style="fill:#ffffff" /></g><g
         id="g71"><path
           d="m -4891.2,1828.204 c -0.142,-0.143 -0.356,-0.283 -0.712,-0.283 -0.285,0 -0.498,0.07 -0.712,0.213 -0.143,0.143 -0.214,0.428 -0.214,0.713 0,0.285 0.071,0.57 0.214,0.711 0.144,0.145 0.429,0.285 0.712,0.285 0.283,0 0.499,-0.07 0.712,-0.285 0.144,-0.141 0.214,-0.426 0.214,-0.711 0,-0.285 -0.071,-0.498 -0.214,-0.643 z"
           id="path73"
           inkscape:connector-curvature="0"
           style="fill:#ffffff" /></g></g><g
       id="g75"><path
         d="m -4881.301,1833.12 -21.223,0 c -0.356,0 -0.713,-0.215 -0.926,-0.57 -0.213,-0.355 -0.213,-0.713 0,-1.068 l 10.684,-18.09 c 0.143,-0.354 0.498,-0.568 0.926,-0.568 l 0,0 c 0.355,0 0.711,0.215 0.924,0.498 l 10.541,18.23 c 0.213,0.357 0.213,0.713 0,1.07 -0.213,0.354 -0.569,0.498 -0.926,0.498 z m -19.371,-2.137 17.521,0 -8.688,-14.955 -8.833,14.955 z"
         id="path77"
         inkscape:connector-curvature="0"
         style="fill:#ffffff" /></g><g
       id="g79"><g
         id="g81"><path
           d="m -4912.968,1833.12 -21.224,0 c -0.354,0 -0.711,-0.215 -0.924,-0.57 -0.215,-0.355 -0.215,-0.713 0,-1.068 l 10.683,-18.09 c 0.142,-0.354 0.498,-0.568 0.925,-0.568 l 0,0 c 0.355,0 0.712,0.215 0.926,0.498 l 10.54,18.23 c 0.214,0.357 0.214,0.713 0,1.07 -0.212,0.354 -0.569,0.498 -0.926,0.498 z m -19.37,-2.137 17.52,0 -8.688,-14.955 -8.832,14.955 z"
           id="path83"
           inkscape:connector-curvature="0"
           style="fill:#ffffff" /></g></g></g><text
     font-size="5.83"
     id="text85"
     style="font-size:7.28899527px;font-family:Montserrat-Light;fill:#bcbec0"
     x="-4887.2642"
     y="2020.9211">HeatBed MK42 Designed by Josef Prusa</text>
<g
     id="g87"
     transform="matrix(1.2502565,0,0,1.2502565,1319.6633,-298.52562)"><path
       d="m -4832.625,1568.626 c -0.843,0 -1.64,0.338 -2.241,0.95 l -0.128,0.13 -8.357,0 c -0.954,0 -1.777,0.647 -2.002,1.576 l -4.676,13.428 -4.274,-35.314 c -0.128,-0.983 -0.915,-1.701 -1.961,-1.785 l 0,0 c -1.011,-0.047 -1.879,0.633 -2.089,1.626 l -8.48,30.037 -4.436,-0.052 5.612,-31.915 -23.515,0 -3.344,0 -20.162,0 0.837,-4.756 -15.761,0 -0.838,4.756 -20.18,0 -3.343,0 -23.513,0 -10.531,59.396 15.759,0 2.176,-11.953 7.767,0 3.343,0 20.171,0 3.344,0 9.074,0 3.344,0 20.172,0 3.344,0 23.514,0 2.012,-11.436 c 2.044,-0.01 5.729,-0.014 6.426,-0.014 l 0.01,0 c 0.928,-0.049 1.707,-0.715 1.898,-1.623 l 7.221,-23.887 3.131,35.505 c 0.134,0.989 0.954,1.723 1.998,1.785 l 0.046,0 c 0.956,0 1.777,-0.648 1.999,-1.575 l 7.536,-19.687 6.737,0 0.128,0.134 c 0.595,0.617 1.391,0.956 2.24,0.956 1.733,0 3.143,-1.407 3.143,-3.139 0,-1.733 -1.413,-3.143 -3.145,-3.143 z m -128.184,21.482 -11.102,0 -2.176,11.953 -6.445,0 8.893,-50.114 17.54,0 -6.71,38.161 z m 23.533,0 -17.529,0 6.716,-38.161 6.446,0 -5.579,31.707 4.637,0 5.579,-31.707 6.446,0 -6.716,38.161 z m 12.417,0 -6.447,0 7.562,-42.917 6.447,0 -7.562,42.917 z m 18.013,-31.705 -1.654,9.397 11.082,0 -3.926,22.308 -17.532,0 1.925,-11.211 6.498,0 -0.837,4.757 4.636,0 1.654,-9.4 -11.135,0 3.978,-22.308 17.534,0 -1.926,11.213 -6.454,0 0.783,-4.756 -4.626,0 0,0 z m 30.152,25.251 -1.135,6.454 -17.529,0 6.715,-38.161 17.529,0 -4.763,27.063 -11.019,0 -0.896,4.643 11.098,10e-4 0,0 z m 44.069,-10.592 c -0.712,0 -1.29,-0.579 -1.29,-1.292 0,-0.713 0.58,-1.292 1.29,-1.292 0.714,0 1.293,0.579 1.293,1.292 0,0.713 -0.58,1.292 -1.293,1.292 z"
       id="path89"
       inkscape:connector-curvature="0"
       style="fill:#ffffff" /><polygon
       points="-4970.778,1583.654 -4966.12,1583.654 -4961.674,1558.403 -4966.334,1558.403 "
       id="polygon91"
       style="fill:#ffffff" /><polygon
       points="-4878.701,1558.403 -4883.332,1558.403 -4885.823,1572.557 -4881.131,1572.557 "
       id="polygon93"
       style="fill:#ffffff" /></g><text
     style="font-size:15.00307846px;font-family:Montserrat-Regular;fill:#ffffff"
     id="text95"
     font-size="12"
     x="-4910.5352"
     y="1313.8376">www.matterhackers.com</text>
</svg>