<?xml version="1.0" encoding="UTF-8" standalone="no"?>
<!-- Generator: Adobe Illustrator 16.0.0, SVG Export Plug-In . SVG Version: 6.00 Build 0)  -->

<svg
   xmlns:dc="http://purl.org/dc/elements/1.1/"
   xmlns:cc="http://creativecommons.org/ns#"
   xmlns:rdf="http://www.w3.org/1999/02/22-rdf-syntax-ns#"
   xmlns:svg="http://www.w3.org/2000/svg"
   xmlns="http://www.w3.org/2000/svg"
   xmlns:sodipodi="http://sodipodi.sourceforge.net/DTD/sodipodi-0.dtd"
   xmlns:inkscape="http://www.inkscape.org/namespaces/inkscape"
   version="1.1"
   id="Layer_1"
   x="0px"
   y="0px"
   width="720px"
   height="705.6px"
   viewBox="0 0 720 705.6"
   enable-background="new 0 0 720 705.6"
   xml:space="preserve"
   inkscape:version="0.91 r13725"
   sodipodi:docname="Pulse Bottom Silkscreen 2.svg"><metadata
     id="metadata141"><rdf:RDF><cc:Work
         rdf:about=""><dc:format>image/svg+xml</dc:format><dc:type
           rdf:resource="http://purl.org/dc/dcmitype/StillImage" /><dc:title></dc:title></cc:Work></rdf:RDF></metadata><defs
     id="defs139" /><sodipodi:namedview
     pagecolor="#000000"
     bordercolor="#666666"
     borderopacity="1"
     objecttolerance="10"
     gridtolerance="10"
     guidetolerance="10"
     inkscape:pageopacity="0"
     inkscape:pageshadow="2"
     inkscape:window-width="1920"
     inkscape:window-height="1020"
     id="namedview137"
     showgrid="false"
     inkscape:zoom="1.3378685"
     inkscape:cx="373.45424"
     inkscape:cy="571.23773"
     inkscape:window-x="1920"
     inkscape:window-y="34"
     inkscape:window-maximized="1"
     inkscape:current-layer="Layer_1" /><path
     style="fill:#ffffff;fill-opacity:1;stroke:none;stroke-width:8;stroke-linejoin:miter;stroke-miterlimit:1;stroke-dasharray:none;stroke-opacity:1"
     d="m 362.23047,83.033203 0,8.900391 1.37891,0 0,-3.144532 c -10e-6,-1.126998 0.68421,-1.976281 1.82421,-1.988281 0.959,0 1.53516,0.586875 1.53516,1.546875 l 0,3.585938 1.37891,0 0,-3.970703 c 0,-1.523 -0.888,-2.458985 -2.375,-2.458985 -1.091,0 -1.90829,0.397875 -2.36328,1.296875 l 0,-3.767578 z m 21.82812,0 0,8.900391 1.37891,0 0,-1.78711 1.08008,-1.140625 1.87109,2.927735 1.63086,0 -2.54297,-3.910156 2.36328,-2.470704 -1.58398,0 -2.81836,2.853516 0,-5.373047 z m -43.11718,1.007813 0,1.751953 -0.89649,0 0,1.03125 0.89844,0 0,3.310547 c 0,1.306 0.82811,1.857416 1.78711,1.857422 0.54,0 1.06631,-0.166797 1.57031,-0.466797 l -0.34766,-1.054688 c -0.372,0.179 -0.67198,0.273438 -0.95898,0.273438 -0.433,0 -0.68359,-0.202326 -0.68359,-0.861329 l 0,-3.060546 1.88281,0 0,-1.029297 -1.88281,0 0,-1.751953 z m 4.88476,0 0,1.751953 -0.89844,0 0,1.03125 0.89844,0 0,3.310547 c 0,1.306 0.82811,1.857416 1.78711,1.857422 0.54,0 1.06827,-0.166797 1.57227,-0.466797 l -0.34766,-1.054688 c -0.372,0.179 -0.67294,0.273438 -0.96094,0.273438 -0.432,0 -0.68359,-0.202326 -0.68359,-0.861329 l 0,-3.060546 1.88281,0 0,-1.029297 -1.88281,0 0,-1.751953 z m 58.70313,1.451172 c -1.223,0 -2.34961,0.552656 -2.34961,1.847656 -0.012,2.303 3.3447,1.570906 3.3457,2.878906 0,0.48 -0.45497,0.683594 -1.04297,0.683594 -0.696,0 -1.58276,-0.300969 -2.13476,-0.792969 l -0.49219,0.984375 c 0.634,0.576 1.63037,0.886719 2.56641,0.886719 1.283,0 2.44531,-0.587531 2.44531,-1.894531 0.012,-2.315 -3.38086,-1.678516 -3.38086,-2.853516 0,-0.456 0.39551,-0.636719 0.93555,-0.636719 0.56299,0 1.27198,0.2145 1.83398,0.5625 l 0.50391,-1.019531 c -0.575,-0.407 -1.42647,-0.646484 -2.23047,-0.646484 z m -79.70508,0.01172 c -1.054,0 -1.87145,0.384203 -2.31445,1.283203 l 0,-1.234375 -1.36719,0 0,6.378907 1.36719,0 0,-3.154297 c 0,-1.115 0.67139,-1.956188 1.77539,-1.992188 0.936,0 1.49804,0.588547 1.49804,1.560547 l 0,3.585938 1.37891,0 0,-3.154297 c 0,-1.115 0.66095,-1.954235 1.75195,-1.990235 0.936,0 1.51172,0.588547 1.51172,1.560547 l 0,3.585938 1.37891,0 0,-3.970703 c 0,-1.523 -0.87389,-2.458985 -2.33789,-2.458985 -1.163,0 -2.01583,0.468157 -2.42383,1.535156 -0.299,-0.971997 -1.07875,-1.535156 -2.21875,-1.535156 z m 11.42578,0 c -1.212,0 -1.85809,0.275735 -2.74609,0.802735 l 0.5625,0.960937 c 0.636,-0.432 1.27181,-0.648437 1.88281,-0.648437 1.008,0 1.52439,0.480203 1.52539,1.283203 l 0,0.191406 -1.93164,0 c -1.535,0.012 -2.41016,0.756922 -2.41016,1.919922 0,1.127 0.86219,1.978516 2.24219,1.978516 0.922,-10e-7 1.65436,-0.276844 2.10938,-0.839844 l 0,0.779297 1.35546,0 -0.0117,-4.185547 c -0.012,-1.403 -0.93512,-2.242188 -2.57812,-2.242188 z m 16.76367,0 c -1.896,0.013 -3.22751,1.319 -3.22851,3.25 0,1.919 1.29667,3.226563 3.26367,3.226563 1.104,0 2.01567,-0.394125 2.63867,-1.078125 l -0.73242,-0.779297 c -0.468,0.479 -1.10383,0.742187 -1.79883,0.742187 -1.007,0 -1.76152,-0.61075 -1.97852,-1.59375 l 4.82227,0 c 0.168,-2.303 -0.74433,-3.767578 -2.98633,-3.767578 z m 8.01563,0 c -1.008,0 -1.77503,0.45536 -2.20703,1.31836 l 0,-1.269532 -1.37891,0 0,6.378907 1.37891,0 0,-3.333985 c 0.107,-1.091 0.92403,-1.84739 2.20703,-1.77539 z m 11.75976,0 c -1.211,0 -1.85909,0.275735 -2.74609,0.802735 l 0.5625,0.960937 c 0.636,-0.432 1.27181,-0.648437 1.88281,-0.648437 1.008,0 1.52439,0.480203 1.52539,1.283203 l 0,0.191406 -1.93164,0 c -1.535,0.012 -2.41045,0.756922 -2.41015,1.919922 -10e-6,1.127 0.86218,1.978516 2.24218,1.978516 0.922,-10e-7 1.65533,-0.276844 2.11133,-0.839844 l 0,0.779297 1.35547,0 -0.0137,-4.185547 c -0.012,-1.403 -0.93413,-2.242188 -2.57813,-2.242188 z m 7.05664,0 c -1.896,0 -3.21389,1.319 -3.21289,3.25 0,1.919 1.31885,3.226563 3.21485,3.226563 1.211,0 2.13398,-0.4315 2.70898,-1.1875 l -0.76758,-0.767578 c -0.432,0.504 -1.07881,0.767578 -1.88281,0.767578 -1.104,0 -1.89648,-0.827063 -1.89648,-2.039063 0,-1.211 0.79248,-2.037109 1.89648,-2.037109 0.767,-0.012 1.37827,0.26275 1.82227,0.71875 l 0.75586,-0.886719 c -0.58701,-0.672 -1.48868,-1.044922 -2.63868,-1.044922 z m 13.61914,0 c -1.895,0.013 -3.22751,1.319 -3.22851,3.25 0,1.919 1.29667,3.226563 3.26367,3.226563 1.104,0 2.01467,-0.394125 2.63867,-1.078125 l -0.73047,-0.779297 c -0.469,0.479 -1.10389,0.742187 -1.79882,0.742187 -1.00701,0 -1.76252,-0.61075 -1.97852,-1.59375 l 4.82031,0 c 0.168,-2.303 -0.74433,-3.767578 -2.98633,-3.767578 z m 8.01563,0 c -1.008,0 -1.77503,0.45536 -2.20703,1.31836 l 0,-1.269532 -1.37891,0 0,6.378907 1.37891,0 0,-3.333985 c 0.108,-1.091 0.92403,-1.84739 2.20703,-1.77539 z m 12.01172,0 c -1.894,0 -3.21389,1.319 -3.21289,3.25 0,1.919 1.31789,3.226563 3.21289,3.226563 1.212,0 2.13523,-0.4315 2.71093,-1.1875 l -0.76757,-0.767578 c -0.432,0.504 -1.07882,0.767578 -1.88282,0.767578 -1.104,0 -1.89453,-0.827063 -1.89453,-2.039063 0,-1.211 0.79053,-2.037109 1.89453,-2.037109 0.767,-0.012 1.37927,0.26275 1.82227,0.71875 l 0.75586,-0.886719 c -0.588,-0.672 -1.48667,-1.044922 -2.63867,-1.044922 z m 6.63672,0 c -1.98,0 -3.33399,1.308268 -3.33399,3.238282 0,1.918998 1.35499,3.238281 3.33399,3.238281 1.967,0 3.32226,-1.319282 3.32226,-3.238281 0,-1.930003 -1.35526,-3.238282 -3.32226,-3.238282 z m 8.44726,0 c -1.055,0 -1.87145,0.384203 -2.31445,1.283203 l 0,-1.234375 -1.36719,0 0,6.378907 1.36719,0 0,-3.154297 c 0,-1.115 0.66944,-1.956188 1.77344,-1.992188 0.936,0 1.5,0.588547 1.5,1.560547 l 0,3.585938 1.3789,0 0,-3.154297 c 0,-1.115 0.65996,-1.954235 1.75196,-1.990235 0.936,0 1.51171,0.588547 1.51171,1.560547 l 0,3.585938 1.37891,0 0,-3.970703 c 0,-1.523 -0.87584,-2.458985 -2.33984,-2.458985 -1.163,0 -2.01488,0.468157 -2.42188,1.535156 -0.3,-0.971997 -1.07975,-1.535156 -2.21875,-1.535156 z m -142.95508,0.04883 2.35157,6.38086 1.41406,0 1.61914,-4.726563 1.61914,4.726563 1.42773,0 2.30665,-6.324219 2.32812,6.324219 1.41602,0 1.61914,-4.726563 1.61914,4.726563 1.42773,0 2.30469,-6.324219 2.33008,6.324219 1.41406,0 1.61914,-4.726563 1.61914,4.726563 1.42774,0 2.32617,-6.38086 -1.40235,0 -1.63086,5.013672 -1.61914,-5.013672 -1.42773,0 -1.60742,5.013672 -1.6543,-5.013672 -1.37305,0 -0.041,0 -1.36133,0 -1.63086,5.013672 -1.61914,-5.013672 -1.42774,0 -1.60742,5.013672 -1.65429,-5.013672 -1.37305,0 -0.041,0 -1.36132,0 -1.63086,5.013672 -1.61914,-5.013672 -1.42774,0 -1.60742,5.013672 -1.6543,-5.013672 z m 67.4043,1.054688 c 1.043,0 1.72739,0.623297 1.77539,1.654297 l -3.64648,0 c 0.156,-1.019 0.86309,-1.654297 1.87109,-1.654297 z m 40.45117,0 c 1.044,0 1.72739,0.623297 1.77539,1.654297 l -3.64648,0 c 0.156,-1.019 0.86409,-1.654297 1.87109,-1.654297 z m 26.65235,0.08398 c 1.138,0 1.9414,0.8395 1.9414,2.0625 0,1.235 -0.8024,2.074219 -1.9414,2.074219 -1.152,0 -1.95508,-0.839219 -1.95508,-2.074219 0,-1.222 0.80308,-2.0625 1.95508,-2.0625 z m -84.38282,2.410156 1.72657,0 0,0.587891 c -0.073,0.696 -0.82755,1.210938 -1.81055,1.210938 -0.767,0 -1.23438,-0.372266 -1.23438,-0.947266 0,-0.612 0.41836,-0.850555 1.31836,-0.851563 z m 36.53907,0 1.72851,0 0,0.587891 c -0.073,0.696 -0.8285,1.210938 -1.8125,1.210938 -0.767,0 -1.23437,-0.372266 -1.23437,-0.947266 0,-0.612 0.41936,-0.850555 1.31836,-0.851563 z m -53.47071,1.355469 c -0.431,0 -0.75486,0.323297 -0.75586,0.779297 0,0.468 0.32386,0.804688 0.75586,0.804688 0.432,0 0.75586,-0.336688 0.75586,-0.804688 0,-0.456 -0.32386,-0.779297 -0.75586,-0.779297 z m 89.73633,0 c -0.432,0 -0.75586,0.323297 -0.75586,0.779297 0,0.468 0.32386,0.804688 0.75586,0.804688 0.432,0 0.75586,-0.336688 0.75586,-0.804688 0,-0.456 -0.32386,-0.779297 -0.75586,-0.779297 z m -346.048827,14.904299 0,543.14453 596.999997,0 0,-543.14453 z m 3,3 590.999997,0 0,537.14453 -590.999997,0 z m 275.638667,236.49805 -0.83789,4.75585 -20.17968,0 -3.34375,0 -23.51172,0 -10.53125,59.39649 15.75781,0 2.17578,-11.95313 7.76758,0 3.3418,0 20.17187,0 3.34571,0 9.07226,0 3.3457,0 20.17188,0 3.34375,0 23.51367,0 2.01172,-11.4375 c 2.043,-0.006 5.72878,-0.0137 6.42578,-0.0137 l 0.008,0 c 0.927,-0.049 1.70744,-0.71533 1.89844,-1.62304 l 7.2207,-23.88672 3.13086,35.50586 c 0.133,0.989 0.95305,1.72315 1.99805,1.78515 l 0.0449,0 c 0.957,0 1.777,-0.64917 2,-1.57617 l 7.53516,-19.68555 6.73828,0 0.12695,0.13282 c 0.595,0.617 1.39024,0.95703 2.24024,0.95703 1.734,0 3.14386,-1.40838 3.14257,-3.13868 0,-1.73499 -1.41253,-3.14453 -3.14453,-3.14453 -0.844,0 -1.63823,0.33918 -2.24023,0.95118 l -0.12695,0.1289 -8.35743,0 c -0.955,0 -1.77695,0.64717 -2.00195,1.57617 l -4.67578,13.42774 -4.27539,-35.31446 c -0.127,-0.98299 -0.91394,-1.6992 -1.96094,-1.7832 l -0.004,0 c -1.01,-0.047 -1.87889,0.632 -2.0879,1.625 l -8.48046,30.03711 -4.43555,-0.0527 5.61133,-31.91407 -23.51563,0 -3.34375,0 -20.16211,0 0.83594,-4.75585 z m 3.86329,4.63867 6.44726,0 -7.5625,42.91601 -6.44726,0 z m -47.89453,4.75586 17.53906,0 -6.70899,38.16015 -11.10156,0 -2.17773,11.95313 -6.44336,0 z m 23.54882,0 6.44727,0 -5.58008,31.70703 4.63672,0 5.58008,-31.70703 6.44531,0 -6.71484,38.16015 -17.5293,0 z m 35.93164,0 17.53516,0 -1.92578,11.21289 -6.45508,0 0.7832,-4.75586 -4.625,0 -1.65429,9.39648 11.08203,0 -3.92578,22.30664 -17.53321,0 1.92579,-11.21094 6.49804,0 -0.83789,4.75782 4.63672,0 1.6543,-9.40039 -11.13477,0 z m 23.51563,0 17.5293,0 -4.76563,27.0625 -11.01758,0 -0.89648,4.64453 11.09961,0 -1.13477,6.45312 -17.5293,0 z m -77.69141,6.45703 -4.44336,25.25 4.65821,0 4.44531,-25.25 z m 83.00196,0 -2.49024,14.15234 4.69141,0 2.42969,-14.15234 z m 50.70703,12.07422 c 0.715,0 1.29297,0.57801 1.29297,1.29101 0,0.713 -0.57997,1.29297 -1.29297,1.29297 -0.711,0 -1.28907,-0.57997 -1.28907,-1.29297 0,-0.713 0.58007,-1.29101 1.28907,-1.29101 z m -90.88282,242.3457 c -0.426,0 -0.78282,0.21436 -0.92382,0.56836 l -10.6836,18.08984 c -0.215,0.355 -0.215,0.71336 0,1.06836 0.213,0.355 0.56983,0.57031 0.92383,0.57031 l 21.22461,0 c 0.356,0 0.71278,-0.14404 0.92578,-0.49804 0.213,-0.358 0.213,-0.71333 0,-1.07031 l -10.54101,-18.23047 c -0.213,-0.283 -0.57079,-0.49805 -0.92579,-0.49805 z m 31.66797,0 c -0.428,0 -0.78278,0.21436 -0.92578,0.56836 l -10.68359,18.08984 c -0.213,0.355 -0.213,0.71336 0,1.06836 0.213,0.355 0.57078,0.57031 0.92578,0.57031 l 21.22266,0 c 0.358,0 0.71278,-0.14404 0.92578,-0.49804 0.213,-0.358 0.213,-0.71333 0,-1.07031 l -10.54102,-18.23047 c -0.213,-0.283 -0.56883,-0.49805 -0.92383,-0.49805 z m -31.66601,3.20508 8.6875,14.95312 -17.51953,0 z m 31.66601,0 8.68946,14.95312 -17.52149,0 z m -0.0703,3.05859 c -0.286,0 -0.49958,0.0718 -0.64258,0.21485 -0.145,0.071 -0.21484,0.28553 -0.21484,0.64453 l 0,0.0664 0.28515,6.27149 c 0,0.143 0.0706,0.28278 0.14258,0.42578 0.071,0.143 0.21469,0.21484 0.42969,0.21484 0.143,0 0.28478,-0.0718 0.42578,-0.21484 0.073,-0.071 0.14453,-0.21278 0.14453,-0.42578 l 0.28516,-6.27149 0,-0.0664 c 0,-0.285 -0.0718,-0.50153 -0.21484,-0.64453 -0.143,-0.14302 -0.35463,-0.21485 -0.64063,-0.21485 z m -31.72461,2.84961 -0.12109,0.24219 c -0.035,0.053 -0.17822,0.26606 -0.32422,0.53906 -0.101,0.191 -0.17933,0.36534 -0.23633,0.52734 -0.084,0.228 -0.125,0.43005 -0.125,0.62305 10e-4,0.073 0.004,0.1447 0.0195,0.2207 0.043,0.199 0.1348,0.37549 0.2168,0.52149 0.053,0.091 0.10706,0.18339 0.16406,0.27539 0.076,0.125 0.15475,0.25 0.21875,0.375 0.111,0.215 0.16406,0.39478 0.16406,0.55078 0,0.045 -0.006,0.0878 -0.0137,0.13477 -0.067,0.33 -0.29478,0.63129 -0.42578,0.77929 -0.09,0.105 -0.17795,0.188 -0.25195,0.25 -0.027,0.027 -0.0511,0.0454 -0.0781,0.0684 l -0.20312,0.13477 0.58008,0.78125 0.18945,-0.14063 c 0.056,-0.041 0.25933,-0.20484 0.48633,-0.46484 0.344,-0.395 0.56053,-0.80652 0.64453,-1.22852 0.021,-0.109 0.0312,-0.2144 0.0312,-0.3164 -0.002,-0.484 -0.20102,-0.88705 -0.41602,-1.24805 l -0.11523,-0.1875 c -0.051,-0.082 -0.0996,-0.16042 -0.14063,-0.23242 -0.084,-0.151 -0.10542,-0.22461 -0.10742,-0.22461 l -0.004,-0.0566 c 0,-0.053 0.0155,-0.15402 0.0645,-0.29102 0.08,-0.225 0.21315,-0.46098 0.28515,-0.58398 0.047,-0.08 0.0921,-0.15227 0.12305,-0.19727 l 0.17383,-0.27148 z m 2.04102,0.0352 -0.13282,0.19336 c -0.02,0.028 -0.17403,0.25178 -0.33203,0.55078 -0.101,0.189 -0.18123,0.36134 -0.24023,0.52734 -0.082,0.228 -0.123,0.43114 -0.125,0.61914 0.002,0.077 0.005,0.14866 0.0234,0.22266 0.041,0.201 0.13084,0.37648 0.21484,0.52148 0.053,0.093 0.10702,0.1873 0.16602,0.2793 0.074,0.123 0.15084,0.24605 0.21484,0.37305 0.112,0.215 0.16406,0.39478 0.16406,0.55078 0,0.047 -0.006,0.0897 -0.0137,0.13867 -0.063,0.326 -0.29283,0.62739 -0.42383,0.77539 -0.092,0.105 -0.17995,0.189 -0.25195,0.25 -0.027,0.029 -0.0504,0.0465 -0.0664,0.0625 l -0.22851,0.12891 0.59961,0.79492 0.1875,-0.14453 c 0.093,-0.072 0.27942,-0.22894 0.48242,-0.46094 0.35,-0.401 0.56053,-0.80256 0.64453,-1.22656 0.019,-0.109 0.0293,-0.21436 0.0293,-0.31836 -0.002,-0.48 -0.20102,-0.88505 -0.41602,-1.24805 l -0.10937,-0.17969 c -0.055,-0.086 -0.10354,-0.16623 -0.14454,-0.24023 -0.084,-0.155 -0.10542,-0.22656 -0.10742,-0.22656 l -0.006,-0.0586 c 0,-0.049 0.0174,-0.15197 0.0684,-0.29297 0.058,-0.162 0.15825,-0.36712 0.28125,-0.57812 0.049,-0.082 0.092,-0.15027 0.125,-0.19727 l 0.16992,-0.27343 z m -4.13086,0.002 -0.13477,0.18359 c 0,0 -0.16584,0.2326 -0.33984,0.5586 -0.099,0.187 -0.17728,0.35929 -0.23828,0.52929 -0.082,0.226 -0.12305,0.42819 -0.12305,0.61719 0,0.079 0.005,0.15256 0.0215,0.22656 0.041,0.197 0.13285,0.37549 0.21485,0.52149 0.053,0.093 0.10901,0.18334 0.16601,0.27734 0.076,0.123 0.1528,0.2461 0.2168,0.3711 0.111,0.221 0.16502,0.39573 0.16602,0.55273 0,0.047 -0.006,0.0897 -0.0156,0.13672 -0.063,0.328 -0.29283,0.62934 -0.42383,0.77734 -0.092,0.105 -0.182,0.18905 -0.25,0.24805 -0.029,0.029 -0.0549,0.0492 -0.0879,0.0762 l -0.1875,0.13672 0.57422,0.77344 0.1875,-0.14453 c 0.074,-0.059 0.27138,-0.21694 0.48438,-0.46094 0.346,-0.397 0.56253,-0.80852 0.64453,-1.22852 0.021,-0.105 0.0312,-0.2124 0.0312,-0.3164 -0.002,-0.482 -0.20102,-0.887 -0.41602,-1.25 l -0.11328,-0.1836 c -0.051,-0.084 -0.0996,-0.16428 -0.14258,-0.23828 -0.084,-0.149 -0.10542,-0.22265 -0.10742,-0.22265 l -0.004,-0.0566 c 0,-0.053 0.0154,-0.15597 0.0664,-0.29297 0.08,-0.223 0.21125,-0.45908 0.28125,-0.58008 0.051,-0.084 0.096,-0.15422 0.125,-0.19922 l 0.17383,-0.27539 z m 33.8125,5.94531 c -0.285,0 -0.49794,0.0699 -0.71094,0.21289 -0.143,0.143 -0.21484,0.42789 -0.21484,0.71289 0,0.285 0.0718,0.56994 0.21484,0.71094 0.143,0.144 0.42794,0.28516 0.71094,0.28516 0.283,0 0.49989,-0.0702 0.71289,-0.28516 0.142,-0.14 0.21289,-0.42494 0.21289,-0.71094 0,-0.286 -0.0699,-0.49757 -0.21289,-0.64257 -0.143,-0.142 -0.35789,-0.28321 -0.71289,-0.28321 z m -36.56641,0.93555 0,1.02734 9.80078,0 0,-1.02734 z m 81.05859,26.93945 c -0.79198,0 -1.51953,0.55675 -1.51953,1.59375 l 0,0.52149 -0.61328,0 0,0.57617 0.61328,0 0,4.02344 0.69336,0 0,-4.02344 1.35743,0 0,-0.57617 -1.35743,0 0,-0.61328 c 0,-0.549 0.37694,-0.84571 0.83594,-0.84571 0.244,0 0.5047,0.0901 0.7207,0.24414 l 0.28907,-0.56836 c -0.289,-0.215 -0.65953,-0.32403 -1.01954,-0.33203 z m -110.58984,0.0352 0,2.96289 c -0.35,-0.675 -1.00651,-1.0625 -1.85351,-1.0625 -1.34,0 -2.27735,0.98034 -2.27735,2.40234 0,1.414 0.93711,2.41407 2.28711,2.41407 0.846,0 1.49275,-0.38869 1.84375,-1.05469 l 0,1.01758 0.70313,0 0,-6.67969 z m 71.83594,0 0,2.96289 c -0.35,-0.675 -1.00652,-1.0625 -1.85352,-1.0625 -1.34,0 -2.27734,0.98034 -2.27734,2.40234 0,1.414 0.93711,2.41407 2.28711,2.41407 0.847,0 1.4947,-0.38869 1.8457,-1.05469 l 0,1.01758 0.70117,0 0,-6.67969 z m 4.96875,0 0,6.67969 0.70117,0 0,-1.01758 c 0.352,0.658 1.00066,1.04492 1.84766,1.04492 1.341,0 2.25881,-0.98077 2.25781,-2.38477 0,-1.424 -0.93534,-2.41406 -2.27734,-2.41406 -0.828,0 -1.47613,0.38669 -1.82813,1.05469 l 0,-2.96289 z m -27.60352,0.0898 c -0.261,0 -0.45898,0.20733 -0.45898,0.48633 0,0.279 0.19798,0.48633 0.45898,0.48633 0.262,0 0.45899,-0.20733 0.45899,-0.48633 0,-0.279 -0.19699,-0.48633 -0.45899,-0.48633 z m -22.87695,0.26172 c -0.748,0 -1.513,0.32405 -2.125,0.87305 l 0.31641,0.57617 c 0.505,-0.486 1.14275,-0.7832 1.71875,-0.7832 0.792,0 1.25976,0.36947 1.25976,0.98047 0,0.406 -0.33228,0.99048 -0.86328,1.52148 l -2.35937,2.56641 0,0.59375 4.33007,0 0,-0.68164 -3.41211,0 1.93555,-2.05469 c 0.667,-0.711 1.11719,-1.43897 1.11719,-2.04297 0,-0.945 -0.75697,-1.54883 -1.91797,-1.54883 z m -62.75586,0.0273 0,6.30079 0.7207,0 0,-2.77149 3.79883,0 0,2.77149 0.72071,0 0,-6.30079 -0.72071,0 0,2.84376 -3.79883,0 0,-2.84376 z m 21.14063,0 0,6.30079 2.70117,0 c 1.423,0 2.26858,-0.63794 2.26758,-1.71094 0,-0.863 -0.53046,-1.4568 -1.43946,-1.5918 0.739,-0.154 1.16211,-0.68583 1.16211,-1.42383 0,-0.99 -0.76515,-1.57422 -2.03515,-1.57422 z m 20.3125,0 0,6.30079 0.68359,0 0,-5.19336 2.28711,4.52734 0.43164,0 2.29687,-4.52734 0.01,5.19336 0.66602,0 0,-6.30079 -0.88282,0 -2.29687,4.53711 -2.30469,-4.53711 z m 8.28906,0 0,6.30079 0.7207,0 0,-1.64649 1.22461,-1.3418 2.32227,2.98633 0.88086,0 -2.68165,-3.5625 2.49415,-2.73633 -0.85547,0 -3.38477,3.62696 0,-3.62696 z m 7.87695,0 -2.26172,4.05079 0,0.59375 3.02539,0 0,1.65625 0.67578,0 0,-1.65625 0.95313,0 0,-0.69336 -0.95313,0 0,-1.66602 -0.67578,0 0,1.66602 -2.25,0 2.19727,-3.95118 z m 11.30274,0 0,6.30079 2.51953,0 c 1.855,0 3.26787,-1.36135 3.26757,-3.15235 0,-1.791 -1.40323,-3.14844 -3.24023,-3.14844 z m 81.91601,0 0,6.30079 0.7207,0 0,-1.98829 1.64649,0 c 1.557,10e-6 2.45898,-0.80226 2.45898,-2.19726 0,-1.342 -0.90098,-2.1152 -2.45898,-2.11524 z m -25.02148,0.002 0,0.69336 2.25,0 0,3.69922 c 0,0.783 -0.38513,1.19726 -1.07813,1.19726 -0.486,0 -0.98095,-0.25151 -1.37695,-0.72851 l -0.36133,0.57421 c 0.441,0.56602 1.04505,0.9004 1.74805,0.9004 1.125,0 1.79883,-0.70274 1.79883,-1.92774 l 0,-4.4082 z m -108.11328,0.45703 0,1.25 -0.68555,0 0,0.56836 0.68555,0 0,2.70898 c 0,0.938 0.51403,1.35157 1.20703,1.35157 0.378,-0.01 0.73731,-0.13433 1.07031,-0.36133 l -0.19727,-0.56641 c -0.261,0.162 -0.51481,0.24219 -0.75781,0.24219 -0.405,0 -0.62891,-0.21502 -0.62891,-0.79102 l 0,-2.58398 1.50196,0 0,-0.57617 -1.50196,0.008 0,-1.25 z m 4.1582,0.23437 1.89844,0 c 0.847,0 1.34179,0.35905 1.34179,0.99805 0,0.658 -0.49479,1.02731 -1.34179,1.02735 l -1.89844,0 z m 47.7793,0 1.81054,0 c 1.413,0 2.5303,1.0528 2.5293,2.4668 0,1.404 -1.09891,2.45703 -2.50391,2.45703 l -1.83593,0 z m 81.91796,0 1.61915,0 c 1.134,0 1.79101,0.48546 1.79101,1.43946 0,0.982 -0.65703,1.48633 -1.79101,1.48633 l -1.61915,0 z m -137.42773,0.83594 c -0.811,0 -1.32355,0.23463 -1.93555,0.64063 l 0.29688,0.51172 c 0.495,-0.342 0.9819,-0.53907 1.5039,-0.53907 0.838,0 1.26954,0.41449 1.26954,1.10742 l 0,0.2793 -1.5586,0 c -1.116,0.007 -1.77344,0.53138 -1.77344,1.35938 0,0.818 0.63033,1.44922 1.61133,1.44922 0.757,0 1.36028,-0.25163 1.73828,-0.76563 l 0,0.72852 0.6836,0 -0.008,-3.13282 c -0.009,-1.018 -0.65812,-1.63867 -1.82812,-1.63867 z m 75.23047,0 c -1.27,0.01 -2.14258,0.94553 -2.14258,2.26953 0,1.35 0.88116,2.29493 2.16016,2.29493 0.801,0 1.41309,-0.35924 1.74609,-0.99024 l 0,0.7207 c 0,0.99 -0.67594,1.6211 -1.71094,1.6211 -0.63,-0.01 -1.12475,-0.21652 -1.59375,-0.60352 l -0.32226,0.53906 c 0.576,0.434 1.19636,0.67555 1.94336,0.68555 1.441,0 2.38672,-0.87276 2.38672,-2.25976 l 0,-4.25196 -0.70118,0 0,0.96289 c -0.342,-0.629 -0.95462,-0.98828 -1.76562,-0.98828 z m 6.5957,0 c -0.863,0.01 -1.50294,0.35127 -1.83594,1.07227 l 0,-1.04492 -0.70312,0 0,4.74414 0.70312,0 0,-2.54688 c 0.081,-0.9 0.65675,-1.51348 1.59375,-1.52148 0.837,0 1.33985,0.49403 1.33985,1.33203 l 0,2.73633 0.70312,0 0,-2.92579 c 0,-1.143 -0.66578,-1.8457 -1.80078,-1.8457 z m 75.8418,0 c -0.811,0 -1.32355,0.23463 -1.93555,0.64063 l 0.29688,0.51172 c 0.496,-0.342 0.9819,-0.53907 1.5039,-0.53907 0.838,0 1.26953,0.41449 1.26953,1.10742 l 0,0.2793 -1.55664,0 c -1.116,0.007 -1.77343,0.53138 -1.77343,1.35938 0,0.818 0.63032,1.44922 1.61132,1.44922 0.757,0 1.35833,-0.25163 1.73633,-0.76563 l 0,0.72852 0.68555,0 -0.01,-3.13282 c -0.01,-1.018 -0.65712,-1.63867 -1.82812,-1.63867 z m -89.32422,0.002 c -0.864,0 -1.64648,0.37715 -1.64648,1.28515 -0.008,1.683 2.64809,1.09919 2.62109,2.24219 -0.009,0.469 -0.45958,0.67773 -1.01758,0.67773 -0.559,0 -1.17117,-0.22647 -1.57617,-0.60547 l -0.26953,0.53125 c 0.45,0.432 1.14336,0.66602 1.81836,0.66602 0.909,0 1.73733,-0.41366 1.73633,-1.34766 0,-1.701 -2.64649,-1.16184 -2.64649,-2.21484 0,-0.442 0.40455,-0.63086 0.93555,-0.63086 0.441,0 0.91811,0.15272 1.28711,0.38672 l 0.27148,-0.55664 c -0.397,-0.272 -0.94667,-0.43363 -1.51367,-0.43359 z m 54.80078,0 c -0.864,0 -1.64648,0.37715 -1.64648,1.28515 -0.009,1.683 2.64809,1.09919 2.62109,2.24219 -0.01,0.469 -0.46153,0.67773 -1.01953,0.67773 -0.558,0 -1.16922,-0.22647 -1.57422,-0.60547 l -0.27148,0.53125 c 0.45,0.432 1.14336,0.66602 1.81836,0.66602 0.91,0 1.73828,-0.41366 1.73828,-1.34766 0,-1.701 -2.64649,-1.16184 -2.64649,-2.21484 0,-0.442 0.40455,-0.63086 0.93555,-0.63086 0.441,0 0.91811,0.15272 1.28711,0.38672 l 0.27148,-0.55664 c -0.397,-0.272 -0.94667,-0.43363 -1.51367,-0.43359 z m 21.88867,0 c -0.802,0.01 -1.38617,0.38707 -1.70117,1.08007 l 0,-1.05468 -0.70312,0 0,4.74414 0.70312,0 0,-2.51953 c 0.081,-0.93701 0.70117,-1.55902 1.70117,-1.54102 z m 8.02735,0 c -0.864,0 -1.64649,0.37715 -1.64649,1.28515 -0.008,1.683 2.64614,1.09919 2.61914,2.24219 -0.009,0.469 -0.45954,0.67773 -1.01758,0.67773 -0.55799,0 -1.16921,-0.22647 -1.57421,-0.60547 l -0.27149,0.53125 c 0.45,0.432 1.14236,0.66602 1.81836,0.66602 0.909,0 1.73633,-0.41366 1.73633,-1.34766 0,-1.701 -2.64453,-1.16184 -2.64453,-2.21484 0,-0.442 0.40484,-0.63086 0.93554,-0.63086 0.44,0 0.91811,0.15272 1.28711,0.38672 l 0.27149,-0.55664 c -0.396,-0.272 -0.94767,-0.43363 -1.51367,-0.43359 z m -158.27149,0.006 c -1.378,0 -2.34961,0.97954 -2.34961,2.39454 0,1.415 0.96138,2.39648 2.35743,2.39648 0.792,0 1.46015,-0.28697 1.91015,-0.79297 l -0.38672,-0.41406 c -0.369,0.389 -0.88375,0.5957 -1.46875,0.5957 -0.918,0 -1.59275,-0.58662 -1.71875,-1.51562 l 3.8711,0 c 0.072,-1.611 -0.68485,-2.67407 -2.21485,-2.66407 z m 20.4375,0 c -1.378,0 -2.34961,0.97954 -2.34961,2.39454 0,1.415 0.96338,2.39648 2.35938,2.39648 0.793,0 1.4582,-0.28697 1.9082,-0.79297 l -0.38672,-0.41406 c -0.369,0.389 -0.88179,0.5957 -1.46679,0.5957 -0.918,0 -1.59275,-0.58662 -1.71875,-1.51562 l 3.87109,0 c 0.072,-1.611 -0.6868,-2.67407 -2.2168,-2.66407 z m 48.43946,0 c -1.378,0 -2.34961,0.97954 -2.34961,2.39454 0,1.415 0.96142,2.39648 2.35742,2.39648 0.792,0 1.4582,-0.28697 1.9082,-0.79297 l -0.38672,-0.41406 c -0.369,0.389 -0.88375,0.5957 -1.46875,0.5957 -0.918,0 -1.59275,-0.58662 -1.71875,-1.51562 l 3.8711,0 c 0.072,-1.611 -0.68289,-2.67407 -2.21289,-2.66407 z m 23.40039,0 c -1.377,0 -2.35157,0.97954 -2.35157,2.39454 0,1.415 0.96338,2.39648 2.35938,2.39648 0.792,0 1.4582,-0.28697 1.9082,-0.79297 l -0.38867,-0.41406 c -0.369,0.389 -0.8808,0.5957 -1.4668,0.5957 -0.918,0 -1.59179,-0.58662 -1.71679,-1.51562 l 3.87109,0 c 0.072,-1.611 -0.68484,-2.67407 -2.21484,-2.66407 z m 40.76953,0 c -1.378,0 -2.34961,0.97954 -2.34961,2.39454 0,1.415 0.96142,2.39648 2.35742,2.39648 0.792,0 1.4572,-0.28697 1.9082,-0.79297 l -0.38672,-0.41406 c -0.369,0.389 -0.88275,0.5957 -1.46875,0.5957 -0.918,0 -1.59379,-0.58662 -1.71679,-1.51562 l 3.87109,0 c 0.071,-1.611 -0.68484,-2.67407 -2.21484,-2.66407 z m -9.58594,0.002 c -1.404,0 -2.4043,0.97276 -2.4043,2.38476 0,1.424 1.0003,2.4043 2.4043,2.4043 1.404,0 2.40234,-0.9813 2.40234,-2.4043 0,-1.412 -0.99834,-2.38476 -2.40234,-2.38476 z m -47.08789,0.0176 0,4.74414 0.69336,0 0,-4.74414 z m 32.98242,0 1.96289,4.70898 -0.19726,0.44141 c -0.189,0.441 -0.49624,0.66601 -0.86524,0.66601 -0.233,0 -0.44901,-0.0746 -0.66601,-0.22656 l -0.29688,0.58398 c 0.288,0.235 0.604,0.35352 1,0.35352 0.63,0 1.12488,-0.37842 1.42188,-1.10742 l 2.17773,-5.41992 -0.7207,0 -1.50391,3.91601 -1.57422,-3.91601 z m 41.66992,0 0,2.92578 c 0,1.145 0.66644,1.8457 1.77344,1.8457 0.856,-0.01 1.48678,-0.35966 1.80078,-1.09766 l 0,1.07032 0.70117,0 0,-4.74414 -0.70117,0 0,2.33203 c 0,1.008 -0.57759,1.71828 -1.55859,1.73828 -0.819,0 -1.3125,-0.49599 -1.3125,-1.33399 l 0,-2.73632 z m -151.02539,0.58593 c 0.926,0 1.53899,0.57638 1.58399,1.48438 l -3.24024,0 c 0.108,-0.9 0.75625,-1.48438 1.65625,-1.48438 z m 20.4375,0 c 0.927,0 1.54094,0.57638 1.58594,1.48438 l -3.24023,0 c 0.108,-0.9 0.75429,-1.48438 1.65429,-1.48438 z m 48.43946,0 c 0.926,0 1.53898,0.57638 1.58398,1.48438 l -3.24219,0 c 0.108,-0.9 0.75821,-1.48438 1.65821,-1.48438 z m 11.70703,0 c 0.945,0 1.62109,0.6936 1.62109,1.6836 0,0.971 -0.67609,1.67382 -1.62109,1.67382 -0.954,0 -1.61991,-0.70282 -1.62891,-1.67382 0.009,-0.983 0.67491,-1.6836 1.62891,-1.6836 z m 11.6914,0 c 0.928,0 1.53899,0.57638 1.58399,1.48438 l -3.24024,0 c 0.107,-0.9 0.75625,-1.48438 1.65625,-1.48438 z m 40.76953,0 c 0.927,0 1.53999,0.57638 1.58399,1.48438 l -3.24024,0 c 0.107,-0.9 0.75625,-1.48438 1.65625,-1.48438 z m -107.24218,0.0176 c 0.999,0 1.70898,0.7482 1.70898,1.7832 0,1.026 -0.70998,1.76368 -1.70898,1.76368 -1.009,0 -1.72071,-0.73868 -1.72071,-1.76368 0,-1.035 0.71171,-1.7832 1.72071,-1.7832 z m 71.83593,0 c 0.999,0 1.71094,0.7482 1.71094,1.7832 0,1.026 -0.71194,1.76368 -1.71094,1.76368 -1.009,0 -1.71875,-0.73868 -1.71875,-1.76368 0,-1.035 0.70975,-1.7832 1.71875,-1.7832 z m 9.08204,0 c 0.991,0 1.6924,0.74767 1.6914,1.76367 0,1.028 -0.7014,1.76563 -1.6914,1.76563 -1,0 -1.70313,-0.73063 -1.70313,-1.76563 0,-1.026 0.70313,-1.76367 1.70313,-1.76367 z m 16.74023,0.0176 c 0.99,0 1.70117,0.72086 1.70117,1.75586 0,1.045 -0.71117,1.76367 -1.70117,1.76367 -0.99,0 -1.70316,-0.71867 -1.70312,-1.76367 0,-1.035 0.71312,-1.75586 1.70312,-1.75586 z m -110.51953,1.22461 1.89844,0 c 1.027,0 1.62109,0.40384 1.62109,1.08984 0,0.721 -0.59509,1.125 -1.62109,1.125 l -1.89844,0 z m -8.06445,0.69336 1.47656,0 0,0.5664 c -0.18,0.658 -0.79275,1.0625 -1.59375,1.0625 -0.666,0 -1.08789,-0.34228 -1.08789,-0.86328 0,-0.523 0.41308,-0.76662 1.20508,-0.76562 z m 157.66796,0 1.47657,0 0,0.5664 c -0.18,0.658 -0.7908,1.0625 -1.5918,1.0625 -0.667,0 -1.08984,-0.34228 -1.08984,-0.86328 0,-0.523 0.41307,-0.76662 1.20507,-0.76562 z"
     id="rect4335"
     inkscape:connector-curvature="0"
     sodipodi:nodetypes="cccscsccsscccccccccccccccccccccssccsscccccccccccssccssccccccsccsccscssccsscccccscsccscsccsscssccscccssccccsccsccsccccccccccccsccsccccsccccsscsccsscccsccsccsccccccccccccscsccsscccssssssscccccscsccscsccsscsccccccccccccccccccccccccccccccccccccccccccsccssccsssssscccssccccsscscssssssssccccccccccccccccccccccccccccscccccsccccscsccscccccccccccccccccccccccccccccccccccccccccccccccccccccccccccccccccccccccsssssscccsscccssccssscccsccccccccscscccscccscscccccccccscccccccccccccccccccccccccccccsccccccccccccccccccccccccscccccccccccccccccccccccccscscscscsccccccsccccccccccsscccccssscccccccssscccccccccscscccssssssccsscccccccsscccccccccccccccsccssccccccccccccccccccccccccccccccccccccccccccccccscscccccsscccccssccsscccccccscccsscccccccssccccscscccsssccsccssccssccccscsscsccccsccccccccccccsccscsccssccssccccscccsccscssccccccsccsssscccccccccccccccsccssssccccssccsccccssccsccccssccsccccssccsccccssccscccsssssccccccccsccscccccccsccccccscsccsccssccssccsssscssccssccsssssssssssscsssssscscssscccccssccccssc" /><path
     style="fill:none"
     inkscape:connector-curvature="0"
     id="path5"
     d="m 376.836,630.228 c -0.285,0 -0.498,0.07 -0.711,0.213 -0.143,0.143 -0.215,0.428 -0.215,0.713 0,0.285 0.072,0.57 0.215,0.711 0.143,0.145 0.428,0.285 0.711,0.285 0.283,0 0.5,-0.07 0.713,-0.285 0.143,-0.141 0.213,-0.426 0.213,-0.711 0,-0.285 -0.07,-0.498 -0.213,-0.643 -0.143,-0.143 -0.358,-0.283 -0.713,-0.283 z" /><path
     style="fill:none"
     inkscape:connector-curvature="0"
     id="path7"
     d="m 376.197,621.61 c -0.145,0.07 -0.215,0.283 -0.215,0.643 l 0,0.068 0.285,6.27 c 0,0.143 0.07,0.283 0.143,0.426 0.07,0.143 0.213,0.215 0.428,0.215 0.143,0 0.285,-0.072 0.426,-0.215 0.072,-0.07 0.145,-0.213 0.145,-0.426 l 0.285,-6.27 0,-0.068 c 0,-0.285 -0.072,-0.5 -0.215,-0.643 -0.143,-0.143 -0.355,-0.215 -0.641,-0.215 -0.286,0 -0.498,0.073 -0.641,0.215 z" /><path
     style="fill:none"
     inkscape:connector-curvature="0"
     id="path9"
     d="m 377.832,615.628 c -0.213,-0.283 -0.568,-0.498 -0.924,-0.498 -0.428,0 -0.783,0.215 -0.926,0.568 l -10.684,18.09 c -0.213,0.355 -0.213,0.713 0,1.068 0.213,0.355 0.57,0.57 0.926,0.57 l 21.223,0 c 0.357,0 0.713,-0.145 0.926,-0.498 0.213,-0.357 0.213,-0.713 0,-1.07 l -10.541,-18.23 z m -9.756,17.662 8.834,-14.955 8.688,14.955 -17.522,0 z" /><path
     style="fill:none"
     inkscape:connector-curvature="0"
     id="path11"
     d="m 346.166,615.628 c -0.213,-0.283 -0.57,-0.498 -0.926,-0.498 -0.426,0 -0.783,0.215 -0.924,0.568 l -10.684,18.09 c -0.215,0.355 -0.215,0.713 0,1.068 0.213,0.355 0.57,0.57 0.924,0.57 l 21.225,0 c 0.355,0 0.713,-0.145 0.926,-0.498 0.213,-0.357 0.213,-0.713 0,-1.07 l -10.541,-18.23 z m -9.756,17.662 8.832,-14.955 8.688,14.955 -17.52,0 z" /><path
     style="fill:none"
     inkscape:connector-curvature="0"
     id="path13"
     d="m 345.615,625.292 c 0.047,-0.08 0.092,-0.152 0.123,-0.197 l 0.174,-0.271 -0.799,-0.58 -0.121,0.242 c -0.035,0.053 -0.18,0.266 -0.326,0.539 -0.102,0.191 -0.18,0.365 -0.236,0.527 -0.084,0.229 -0.125,0.43 -0.125,0.623 0.002,0.072 0.006,0.145 0.021,0.221 0.043,0.199 0.133,0.375 0.215,0.521 0.053,0.092 0.109,0.184 0.166,0.275 0.076,0.125 0.152,0.25 0.217,0.375 0.111,0.215 0.164,0.395 0.164,0.551 0,0.045 -0.004,0.088 -0.012,0.135 -0.066,0.33 -0.295,0.631 -0.426,0.779 -0.09,0.105 -0.178,0.188 -0.252,0.25 -0.027,0.027 -0.051,0.045 -0.078,0.068 l -0.203,0.135 0.58,0.781 0.189,-0.141 c 0.057,-0.041 0.26,-0.203 0.486,-0.463 0.344,-0.395 0.561,-0.807 0.645,-1.229 0.021,-0.109 0.031,-0.215 0.031,-0.316 -0.002,-0.484 -0.201,-0.887 -0.416,-1.248 l -0.115,-0.189 c -0.051,-0.082 -0.1,-0.16 -0.141,-0.232 -0.084,-0.15 -0.105,-0.225 -0.107,-0.225 l -0.006,-0.057 c 0,-0.053 0.018,-0.154 0.066,-0.291 0.081,-0.224 0.214,-0.46 0.286,-0.583 z" /><rect
     style="fill:none"
     id="rect15"
     height="1.027"
     width="9.8009996"
     y="631.16302"
     x="340.26999" /><path
     style="fill:none"
     inkscape:connector-curvature="0"
     id="path17"
     d="m 346.67,629.03 c -0.092,0.105 -0.18,0.189 -0.252,0.25 -0.027,0.029 -0.051,0.047 -0.066,0.062 l -0.227,0.129 0.598,0.795 0.188,-0.145 c 0.094,-0.072 0.279,-0.229 0.482,-0.461 0.35,-0.4 0.561,-0.803 0.645,-1.227 0.02,-0.109 0.029,-0.215 0.029,-0.318 -0.002,-0.48 -0.201,-0.885 -0.416,-1.248 l -0.109,-0.18 c -0.055,-0.086 -0.104,-0.166 -0.145,-0.24 -0.084,-0.154 -0.105,-0.227 -0.107,-0.227 l -0.006,-0.057 c 0,-0.049 0.018,-0.152 0.068,-0.293 0.059,-0.162 0.158,-0.369 0.281,-0.58 0.049,-0.082 0.092,-0.15 0.125,-0.197 l 0.17,-0.273 -0.773,-0.543 -0.133,0.193 c -0.02,0.027 -0.174,0.252 -0.332,0.551 -0.102,0.189 -0.182,0.361 -0.24,0.527 -0.082,0.229 -0.123,0.432 -0.125,0.619 0.002,0.076 0.006,0.148 0.023,0.223 0.041,0.201 0.131,0.379 0.215,0.523 0.053,0.094 0.107,0.188 0.166,0.279 0.074,0.123 0.15,0.246 0.215,0.373 0.111,0.215 0.164,0.395 0.164,0.549 0,0.047 -0.006,0.088 -0.014,0.137 -0.063,0.328 -0.293,0.631 -0.424,0.779 z" /><path
     style="fill:none"
     inkscape:connector-curvature="0"
     id="path19"
     d="m 342.533,629.032 c -0.092,0.105 -0.182,0.189 -0.25,0.248 -0.029,0.029 -0.055,0.049 -0.088,0.076 l -0.189,0.137 0.576,0.773 0.186,-0.143 c 0.074,-0.059 0.271,-0.217 0.484,-0.461 0.346,-0.396 0.562,-0.809 0.645,-1.229 0.021,-0.105 0.031,-0.213 0.031,-0.316 -0.002,-0.482 -0.201,-0.887 -0.416,-1.25 l -0.113,-0.184 c -0.051,-0.084 -0.1,-0.164 -0.143,-0.238 -0.084,-0.148 -0.105,-0.223 -0.107,-0.223 l -0.004,-0.057 c 0,-0.053 0.016,-0.156 0.066,-0.293 0.08,-0.223 0.213,-0.459 0.283,-0.58 0.051,-0.084 0.096,-0.154 0.125,-0.199 l 0.172,-0.275 -0.768,-0.537 -0.135,0.182 c 0,0 -0.166,0.232 -0.34,0.559 -0.1,0.188 -0.178,0.359 -0.238,0.529 -0.082,0.227 -0.123,0.428 -0.123,0.617 0,0.078 0.006,0.152 0.021,0.227 0.041,0.197 0.133,0.375 0.215,0.521 0.053,0.094 0.109,0.186 0.166,0.279 0.076,0.123 0.152,0.246 0.217,0.371 0.111,0.221 0.164,0.395 0.164,0.551 0,0.047 -0.004,0.09 -0.014,0.137 -0.061,0.329 -0.292,0.63 -0.423,0.778 z" /><path
     style="fill:none"
     inkscape:connector-curvature="0"
     id="path21"
     d="m 372.082,88.095 c -1.535,0.012 -2.411,0.756 -2.411,1.919 0,1.127 0.863,1.979 2.243,1.979 0.923,0 1.654,-0.275 2.11,-0.839 l 0,0.779 1.355,0 -0.013,-4.186 c -0.012,-1.403 -0.935,-2.243 -2.578,-2.243 -1.211,0 -1.859,0.276 -2.746,0.804 l 0.563,0.96 c 0.636,-0.433 1.271,-0.648 1.883,-0.648 1.008,0 1.523,0.48 1.523,1.284 l 0,0.191 -1.929,0 z m 1.931,1.594 c -0.072,0.696 -0.827,1.212 -1.812,1.212 -0.768,0 -1.234,-0.372 -1.234,-0.947 0,-0.612 0.419,-0.852 1.318,-0.852 l 1.728,0 0,0.587 z" /><path
     style="fill:none"
     inkscape:connector-curvature="0"
     id="path23"
     d="m 363.61,88.79 c 0,-1.127 0.684,-1.979 1.823,-1.99 0.959,0 1.535,0.587 1.535,1.547 l 0,3.586 1.379,0 0,-3.97 c 0,-1.523 -0.888,-2.459 -2.375,-2.459 -1.092,0 -1.907,0.396 -2.362,1.296 l 0,-3.767 -1.38,0 0,8.899 1.38,0 0,-3.142 z" /><polygon
     style="fill:none"
     id="polygon25"
     points="292.628,91.933 294.055,91.933 296.361,85.609 296.34,85.552 294.979,85.552 293.348,90.565 291.729,85.552 290.301,85.552 288.694,90.565 287.039,85.552 285.624,85.552 287.975,91.933 289.39,91.933 291.009,87.207 " /><path
     style="fill:none"
     inkscape:connector-curvature="0"
     id="path27"
     d="m 353.049,91.98 c 1.104,0 2.016,-0.396 2.639,-1.079 l -0.731,-0.779 c -0.468,0.479 -1.104,0.743 -1.799,0.743 -1.008,0 -1.763,-0.611 -1.979,-1.595 l 4.821,0 c 0.168,-2.303 -0.744,-3.767 -2.986,-3.767 -1.896,0.013 -3.227,1.319 -3.227,3.25 0,1.92 1.295,3.227 3.262,3.227 z m -0.024,-5.373 c 1.043,0 1.727,0.624 1.775,1.655 l -3.646,0 c 0.157,-1.019 0.864,-1.655 1.871,-1.655 z" /><path
     style="fill:none"
     inkscape:connector-curvature="0"
     id="path29"
     d="m 379.846,91.98 c 1.211,0 2.135,-0.432 2.71,-1.188 l -0.768,-0.768 c -0.432,0.504 -1.079,0.768 -1.883,0.768 -1.104,0 -1.896,-0.827 -1.896,-2.039 0,-1.211 0.792,-2.038 1.896,-2.038 0.768,-0.013 1.379,0.264 1.823,0.72 l 0.755,-0.888 c -0.587,-0.672 -1.487,-1.044 -2.638,-1.044 -1.896,0 -3.215,1.319 -3.215,3.25 10e-4,1.92 1.32,3.227 3.216,3.227 z" /><path
     style="fill:none"
     inkscape:connector-curvature="0"
     id="path31"
     d="m 393.501,91.98 c 1.104,0 2.015,-0.396 2.639,-1.079 l -0.731,-0.779 c -0.469,0.479 -1.104,0.743 -1.799,0.743 -1.008,0 -1.764,-0.611 -1.979,-1.595 l 4.821,0 c 0.168,-2.303 -0.744,-3.767 -2.986,-3.767 -1.895,0.013 -3.227,1.319 -3.227,3.25 -10e-4,1.92 1.295,3.227 3.262,3.227 z m -0.024,-5.373 c 1.044,0 1.728,0.624 1.775,1.655 l -3.646,0 c 0.156,-1.019 0.864,-1.655 1.871,-1.655 z" /><polygon
     style="fill:none"
     id="polygon33"
     points="388.388,91.933 390.02,91.933 387.477,88.022 389.84,85.552 388.256,85.552 385.438,88.406 385.438,83.033 384.059,83.033 384.059,91.933 385.438,91.933 385.438,90.146 386.518,89.006 " /><path
     style="fill:none"
     inkscape:connector-curvature="0"
     id="path35"
     d="m 399.273,88.599 c 0.108,-1.092 0.924,-1.848 2.207,-1.775 l 0,-1.319 c -1.008,0 -1.775,0.456 -2.207,1.319 l 0,-1.271 -1.379,0 0,6.381 1.379,0 0,-3.335 z" /><path
     style="fill:none"
     inkscape:connector-curvature="0"
     id="path37"
     d="m 318.814,92.041 c 0.432,0 0.756,-0.336 0.756,-0.804 0,-0.456 -0.324,-0.78 -0.756,-0.78 -0.432,0 -0.755,0.324 -0.755,0.78 10e-4,0.468 0.324,0.804 0.755,0.804 z" /><polygon
     style="fill:none"
     id="polygon39"
     points="312.44,87.207 314.06,91.933 315.486,91.933 317.813,85.552 316.41,85.552 314.779,90.565 313.16,85.552 311.732,85.552 310.126,90.565 308.471,85.552 307.098,85.552 307.076,85.609 309.406,91.933 310.821,91.933 " /><path
     style="fill:none"
     inkscape:connector-curvature="0"
     id="path41"
     d="m 345.826,90.134 c 0,1.307 0.828,1.858 1.787,1.858 0.54,0 1.067,-0.168 1.571,-0.468 l -0.348,-1.055 c -0.372,0.18 -0.672,0.275 -0.96,0.275 -0.432,0 -0.684,-0.204 -0.684,-0.863 l 0,-3.059 1.883,0 0,-1.031 -1.883,0 0,-1.751 -1.367,0 0,1.751 -0.899,0 0,1.031 0.899,0 0,3.312 z" /><polygon
     style="fill:none"
     id="polygon43"
     points="301.725,87.207 303.344,91.933 304.771,91.933 307.076,85.609 307.056,85.552 305.694,85.552 304.063,90.565 302.444,85.552 301.018,85.552 299.41,90.565 297.755,85.552 296.382,85.552 296.361,85.609 298.69,91.933 300.105,91.933 " /><path
     style="fill:none"
     inkscape:connector-curvature="0"
     id="path45"
     d="m 322.51,88.778 c 0,-1.115 0.672,-1.955 1.775,-1.991 0.936,0 1.499,0.588 1.499,1.56 l 0,3.586 1.379,0 0,-3.154 c 0,-1.115 0.66,-1.955 1.751,-1.991 0.936,0 1.512,0.588 1.512,1.56 l 0,3.586 1.379,0 0,-3.97 c 0,-1.523 -0.875,-2.459 -2.339,-2.459 -1.163,0 -2.015,0.468 -2.423,1.535 -0.299,-0.972 -1.079,-1.535 -2.219,-1.535 -1.055,0 -1.871,0.384 -2.314,1.283 l 0,-1.235 -1.367,0 0,6.381 1.367,0 0,-3.156 z" /><path
     style="fill:none"
     inkscape:connector-curvature="0"
     id="path47"
     d="m 340.942,90.134 c 0,1.307 0.828,1.858 1.787,1.858 0.54,0 1.067,-0.168 1.571,-0.468 l -0.348,-1.055 c -0.372,0.18 -0.672,0.275 -0.959,0.275 -0.433,0 -0.684,-0.204 -0.684,-0.863 l 0,-3.059 1.883,0 0,-1.031 -1.883,0 0,-1.751 -1.368,0 0,1.751 -0.899,0 0,1.031 0.899,0 0,3.312 z" /><path
     style="fill:none"
     inkscape:connector-curvature="0"
     id="path49"
     d="m 335.542,88.095 c -1.535,0.012 -2.411,0.756 -2.411,1.919 0,1.127 0.863,1.979 2.243,1.979 0.923,0 1.655,-0.275 2.11,-0.839 l 0,0.779 1.355,0 -0.012,-4.186 c -0.012,-1.403 -0.936,-2.243 -2.578,-2.243 -1.212,0 -1.859,0.276 -2.747,0.804 l 0.563,0.96 c 0.636,-0.433 1.271,-0.648 1.883,-0.648 1.008,0 1.523,0.48 1.523,1.284 l 0,0.191 -1.929,0 z m 1.931,1.594 c -0.072,0.696 -0.827,1.212 -1.811,1.212 -0.768,0 -1.235,-0.372 -1.235,-0.947 0,-0.612 0.419,-0.852 1.319,-0.852 l 1.727,0 0,0.587 z" /><path
     style="fill:none"
     inkscape:connector-curvature="0"
     id="path51"
     d="m 358.822,88.599 c 0.107,-1.092 0.924,-1.848 2.207,-1.775 l 0,-1.319 c -1.008,0 -1.775,0.456 -2.207,1.319 l 0,-1.271 -1.379,0 0,6.381 1.379,0 0,-3.335 z" /><path
     style="fill:none"
     inkscape:connector-curvature="0"
     id="path53"
     d="m 413.492,91.98 c 1.212,0 2.135,-0.432 2.711,-1.188 l -0.768,-0.768 c -0.432,0.504 -1.079,0.768 -1.883,0.768 -1.104,0 -1.895,-0.827 -1.895,-2.039 0,-1.211 0.791,-2.038 1.895,-2.038 0.768,-0.013 1.379,0.264 1.822,0.72 l 0.756,-0.888 c -0.588,-0.672 -1.486,-1.044 -2.639,-1.044 -1.895,0 -3.214,1.319 -3.214,3.25 0.001,1.92 1.321,3.227 3.215,3.227 z" /><path
     style="fill:none"
     inkscape:connector-curvature="0"
     id="path55"
     d="m 426.262,88.778 c 0,-1.115 0.671,-1.955 1.774,-1.991 0.936,0 1.499,0.588 1.499,1.56 l 0,3.586 1.379,0 0,-3.154 c 0,-1.115 0.66,-1.955 1.752,-1.991 0.936,0 1.511,0.588 1.511,1.56 l 0,3.586 1.38,0 0,-3.97 c 0,-1.523 -0.876,-2.459 -2.34,-2.459 -1.163,0 -2.015,0.468 -2.422,1.535 -0.3,-0.972 -1.08,-1.535 -2.219,-1.535 -1.056,0 -1.871,0.384 -2.314,1.283 l 0,-1.235 -1.367,0 0,6.381 1.367,0 0,-3.156 z" /><path
     style="fill:none"
     inkscape:connector-curvature="0"
     id="path57"
     d="m 404.481,90.901 c -0.695,0 -1.583,-0.3 -2.135,-0.792 l -0.491,0.983 c 0.635,0.576 1.631,0.888 2.566,0.888 1.283,0 2.446,-0.588 2.446,-1.895 0.012,-2.315 -3.382,-1.68 -3.382,-2.854 0,-0.456 0.396,-0.636 0.936,-0.636 0.563,0 1.271,0.216 1.834,0.563 l 0.504,-1.02 c -0.575,-0.407 -1.427,-0.647 -2.23,-0.647 -1.223,0 -2.351,0.552 -2.351,1.847 -0.012,2.303 3.347,1.571 3.347,2.879 0,0.48 -0.456,0.684 -1.044,0.684 z" /><path
     style="fill:none"
     inkscape:connector-curvature="0"
     id="path59"
     d="m 408.55,92.041 c 0.432,0 0.756,-0.336 0.756,-0.804 0,-0.456 -0.324,-0.78 -0.756,-0.78 -0.432,0 -0.755,0.324 -0.755,0.78 0,0.468 0.323,0.804 0.755,0.804 z" /><path
     style="fill:none"
     inkscape:connector-curvature="0"
     id="path61"
     d="m 420.129,91.98 c 1.967,0 3.322,-1.319 3.322,-3.238 0,-1.931 -1.355,-3.238 -3.322,-3.238 -1.979,0 -3.335,1.308 -3.335,3.238 0,1.919 1.355,3.238 3.335,3.238 z m 0,-5.289 c 1.139,0 1.942,0.84 1.942,2.062 0,1.235 -0.804,2.075 -1.942,2.075 -1.152,0 -1.955,-0.84 -1.955,-2.075 0,-1.222 0.803,-2.062 1.955,-2.062 z" /><path
     style="fill:none"
     inkscape:connector-curvature="0"
     id="path63"
     d="m 62.502,648.506 597,0 0,-543.145 -597,0 0,543.145 z m 3,-540.145 591,0 0,537.145 -591,0 0,-537.145 z" /><path
     style="fill:none"
     inkscape:connector-curvature="0"
     id="path65"
     d="m 436.123,370.933 c -0.844,0 -1.641,0.338 -2.242,0.95 l -0.127,0.13 -8.357,0 c -0.955,0 -1.777,0.647 -2.002,1.576 l -4.676,13.428 -4.275,-35.314 c -0.127,-0.983 -0.914,-1.701 -1.961,-1.785 l -0.004,0 c -1.01,-0.047 -1.879,0.633 -2.088,1.626 l -8.48,30.037 -4.436,-0.052 5.611,-31.915 -23.514,0 -3.344,0 -20.162,0 0.836,-4.756 -15.76,0 -0.838,4.756 -20.18,0 -3.344,0 -23.51,0 -10.531,59.396 15.758,0 2.176,-11.953 7.768,0 3.342,0 20.172,0 3.344,0 9.074,0 3.344,0 20.172,0 3.344,0 23.514,0 2.012,-11.436 c 2.043,-0.006 5.729,-0.014 6.426,-0.014 l 0.008,0 c 0.928,-0.049 1.707,-0.715 1.898,-1.623 l 7.221,-23.887 3.131,35.505 c 0.133,0.989 0.953,1.723 1.998,1.785 l 0.045,0 c 0.957,0 1.777,-0.648 2,-1.575 l 7.535,-19.687 6.738,0 0.127,0.134 c 0.596,0.617 1.391,0.956 2.24,0.956 1.734,0 3.143,-1.407 3.143,-3.139 -0.003,-1.733 -1.414,-3.143 -3.146,-3.143 z m -128.184,21.482 -11.102,0 -2.176,11.953 -6.445,0 8.893,-50.114 17.539,0 -6.709,38.161 z m 23.534,0 -17.529,0 6.715,-38.161 6.447,0 -5.58,31.707 4.637,0 5.58,-31.707 6.445,0 -6.715,38.161 z m 12.416,0 -6.447,0 7.562,-42.917 6.447,0 -7.562,42.917 z m 18.013,-31.705 -1.654,9.397 11.082,0 -3.926,22.308 -17.533,0 1.926,-11.211 6.498,0 -0.838,4.757 4.637,0 1.654,-9.4 -11.135,0 3.977,-22.308 17.535,0 -1.926,11.213 -6.455,0 0.783,-4.756 -4.625,0 z m 30.969,20.607 -11.018,0 -0.896,4.643 11.098,0 0,0.001 -1.135,6.454 -17.529,0 6.715,-38.161 17.529,0 -4.764,27.063 z m 43.252,-5.948 c -0.711,0 -1.289,-0.579 -1.289,-1.292 0,-0.713 0.58,-1.292 1.289,-1.292 0.715,0 1.293,0.579 1.293,1.292 0,0.713 -0.58,1.292 -1.293,1.292 z" /><polygon
     style="fill:none"
     id="polygon67"
     points="307.074,360.71 302.414,360.71 297.971,385.961 302.629,385.961 " /><polygon
     style="fill:none"
     id="polygon69"
     points="390.047,360.71 385.416,360.71 382.926,374.863 387.617,374.863 " /><polygon
     style="fill:#ffffff"
     id="polygon133"
     points="296.361,85.609 296.382,85.552 296.34,85.552 " /><polygon
     style="fill:#ffffff"
     id="polygon135"
     points="307.076,85.609 307.098,85.552 307.056,85.552 " /></svg>