<?xml version="1.0" encoding="utf-8"?>
<!-- Generator: Adobe Illustrator 16.0.0, SVG Export Plug-In . SVG Version: 6.00 Build 0)  -->
<!DOCTYPE svg PUBLIC "-//W3C//DTD SVG 1.1//EN" "http://www.w3.org/Graphics/SVG/1.1/DTD/svg11.dtd">
<svg version="1.1" id="Layer_1" xmlns="http://www.w3.org/2000/svg" xmlns:xlink="http://www.w3.org/1999/xlink" x="0px" y="0px"
	 width="720px" height="705.6px" viewBox="0 0 720 705.6" enable-background="new 0 0 720 705.6" xml:space="preserve">
<g>
	<path fill="none" d="M376.836,630.228c-0.285,0-0.498,0.07-0.711,0.213c-0.143,0.143-0.215,0.428-0.215,0.713
		s0.072,0.57,0.215,0.711c0.143,0.145,0.428,0.285,0.711,0.285s0.5-0.07,0.713-0.285c0.143-0.141,0.213-0.426,0.213-0.711
		s-0.07-0.498-0.213-0.643C377.406,630.368,377.191,630.228,376.836,630.228z"/>
	<path fill="none" d="M376.197,621.61c-0.145,0.07-0.215,0.283-0.215,0.643v0.068l0.285,6.27c0,0.143,0.07,0.283,0.143,0.426
		c0.07,0.143,0.213,0.215,0.428,0.215c0.143,0,0.285-0.072,0.426-0.215c0.072-0.07,0.145-0.213,0.145-0.426l0.285-6.27v-0.068
		c0-0.285-0.072-0.5-0.215-0.643s-0.355-0.215-0.641-0.215S376.34,621.468,376.197,621.61z"/>
	<path fill="none" d="M377.832,615.628c-0.213-0.283-0.568-0.498-0.924-0.498c-0.428,0-0.783,0.215-0.926,0.568l-10.684,18.09
		c-0.213,0.355-0.213,0.713,0,1.068s0.57,0.57,0.926,0.57h21.223c0.357,0,0.713-0.145,0.926-0.498c0.213-0.357,0.213-0.713,0-1.07
		L377.832,615.628z M368.076,633.29l8.834-14.955l8.688,14.955H368.076z"/>
	<path fill="none" d="M346.166,615.628c-0.213-0.283-0.57-0.498-0.926-0.498c-0.426,0-0.783,0.215-0.924,0.568l-10.684,18.09
		c-0.215,0.355-0.215,0.713,0,1.068c0.213,0.355,0.57,0.57,0.924,0.57h21.225c0.355,0,0.713-0.145,0.926-0.498
		c0.213-0.357,0.213-0.713,0-1.07L346.166,615.628z M336.41,633.29l8.832-14.955l8.688,14.955H336.41z"/>
	<path fill="none" d="M345.615,625.292c0.047-0.08,0.092-0.152,0.123-0.197l0.174-0.271l-0.799-0.58l-0.121,0.242
		c-0.035,0.053-0.18,0.266-0.326,0.539c-0.102,0.191-0.18,0.365-0.236,0.527c-0.084,0.229-0.125,0.43-0.125,0.623
		c0.002,0.072,0.006,0.145,0.021,0.221c0.043,0.199,0.133,0.375,0.215,0.521c0.053,0.092,0.109,0.184,0.166,0.275
		c0.076,0.125,0.152,0.25,0.217,0.375c0.111,0.215,0.164,0.395,0.164,0.551c0,0.045-0.004,0.088-0.012,0.135
		c-0.066,0.33-0.295,0.631-0.426,0.779c-0.09,0.105-0.178,0.188-0.252,0.25c-0.027,0.027-0.051,0.045-0.078,0.068l-0.203,0.135
		l0.58,0.781l0.189-0.141c0.057-0.041,0.26-0.203,0.486-0.463c0.344-0.395,0.561-0.807,0.645-1.229
		c0.021-0.109,0.031-0.215,0.031-0.316c-0.002-0.484-0.201-0.887-0.416-1.248l-0.115-0.189c-0.051-0.082-0.1-0.16-0.141-0.232
		c-0.084-0.15-0.105-0.225-0.107-0.225l-0.006-0.057c0-0.053,0.018-0.154,0.066-0.291
		C345.41,625.651,345.543,625.415,345.615,625.292z"/>
	<rect x="340.27" y="631.163" fill="none" width="9.801" height="1.027"/>
	<path fill="none" d="M346.67,629.03c-0.092,0.105-0.18,0.189-0.252,0.25c-0.027,0.029-0.051,0.047-0.066,0.062l-0.227,0.129
		l0.598,0.795l0.188-0.145c0.094-0.072,0.279-0.229,0.482-0.461c0.35-0.4,0.561-0.803,0.645-1.227
		c0.02-0.109,0.029-0.215,0.029-0.318c-0.002-0.48-0.201-0.885-0.416-1.248l-0.109-0.18c-0.055-0.086-0.104-0.166-0.145-0.24
		c-0.084-0.154-0.105-0.227-0.107-0.227l-0.006-0.057c0-0.049,0.018-0.152,0.068-0.293c0.059-0.162,0.158-0.369,0.281-0.58
		c0.049-0.082,0.092-0.15,0.125-0.197l0.17-0.273l-0.773-0.543l-0.133,0.193c-0.02,0.027-0.174,0.252-0.332,0.551
		c-0.102,0.189-0.182,0.361-0.24,0.527c-0.082,0.229-0.123,0.432-0.125,0.619c0.002,0.076,0.006,0.148,0.023,0.223
		c0.041,0.201,0.131,0.379,0.215,0.523c0.053,0.094,0.107,0.188,0.166,0.279c0.074,0.123,0.15,0.246,0.215,0.373
		c0.111,0.215,0.164,0.395,0.164,0.549c0,0.047-0.006,0.088-0.014,0.137C347.031,628.579,346.801,628.882,346.67,629.03z"/>
	<path fill="none" d="M342.533,629.032c-0.092,0.105-0.182,0.189-0.25,0.248c-0.029,0.029-0.055,0.049-0.088,0.076l-0.189,0.137
		l0.576,0.773l0.186-0.143c0.074-0.059,0.271-0.217,0.484-0.461c0.346-0.396,0.562-0.809,0.645-1.229
		c0.021-0.105,0.031-0.213,0.031-0.316c-0.002-0.482-0.201-0.887-0.416-1.25l-0.113-0.184c-0.051-0.084-0.1-0.164-0.143-0.238
		c-0.084-0.148-0.105-0.223-0.107-0.223l-0.004-0.057c0-0.053,0.016-0.156,0.066-0.293c0.08-0.223,0.213-0.459,0.283-0.58
		c0.051-0.084,0.096-0.154,0.125-0.199l0.172-0.275l-0.768-0.537l-0.135,0.182c0,0-0.166,0.232-0.34,0.559
		c-0.1,0.188-0.178,0.359-0.238,0.529c-0.082,0.227-0.123,0.428-0.123,0.617c0,0.078,0.006,0.152,0.021,0.227
		c0.041,0.197,0.133,0.375,0.215,0.521c0.053,0.094,0.109,0.186,0.166,0.279c0.076,0.123,0.152,0.246,0.217,0.371
		c0.111,0.221,0.164,0.395,0.164,0.551c0,0.047-0.004,0.09-0.014,0.137C342.895,628.583,342.664,628.884,342.533,629.032z"/>
	<path fill="none" d="M372.082,88.095c-1.535,0.012-2.411,0.756-2.411,1.919c0,1.127,0.863,1.979,2.243,1.979
		c0.923,0,1.654-0.275,2.11-0.839v0.779h1.355l-0.013-4.186c-0.012-1.403-0.935-2.243-2.578-2.243c-1.211,0-1.859,0.276-2.746,0.804
		l0.563,0.96c0.636-0.433,1.271-0.648,1.883-0.648c1.008,0,1.523,0.48,1.523,1.284v0.191H372.082z M374.013,89.689
		c-0.072,0.696-0.827,1.212-1.812,1.212c-0.768,0-1.234-0.372-1.234-0.947c0-0.612,0.419-0.852,1.318-0.852h1.728V89.689z"/>
	<path fill="none" d="M363.61,88.79c0-1.127,0.684-1.979,1.823-1.99c0.959,0,1.535,0.587,1.535,1.547v3.586h1.379v-3.97
		c0-1.523-0.888-2.459-2.375-2.459c-1.092,0-1.907,0.396-2.362,1.296v-3.767h-1.38v8.899h1.38V88.79z"/>
	<polygon fill="none" points="289.39,91.933 291.009,87.207 292.628,91.933 294.055,91.933 296.361,85.609 296.34,85.552 
		294.979,85.552 293.348,90.565 291.729,85.552 290.301,85.552 288.694,90.565 287.039,85.552 285.624,85.552 287.975,91.933 	"/>
	<path fill="none" d="M353.049,91.98c1.104,0,2.016-0.396,2.639-1.079l-0.731-0.779c-0.468,0.479-1.104,0.743-1.799,0.743
		c-1.008,0-1.763-0.611-1.979-1.595H356c0.168-2.303-0.744-3.767-2.986-3.767c-1.896,0.013-3.227,1.319-3.227,3.25
		C349.787,90.673,351.082,91.98,353.049,91.98z M353.025,86.607c1.043,0,1.727,0.624,1.775,1.655h-3.646
		C351.311,87.243,352.018,86.607,353.025,86.607z"/>
	<path fill="none" d="M379.846,91.98c1.211,0,2.135-0.432,2.71-1.188l-0.768-0.768c-0.432,0.504-1.079,0.768-1.883,0.768
		c-1.104,0-1.896-0.827-1.896-2.039c0-1.211,0.792-2.038,1.896-2.038c0.768-0.013,1.379,0.264,1.823,0.72l0.755-0.888
		c-0.587-0.672-1.487-1.044-2.638-1.044c-1.896,0-3.215,1.319-3.215,3.25C376.631,90.673,377.95,91.98,379.846,91.98z"/>
	<path fill="none" d="M393.501,91.98c1.104,0,2.015-0.396,2.639-1.079l-0.731-0.779c-0.469,0.479-1.104,0.743-1.799,0.743
		c-1.008,0-1.764-0.611-1.979-1.595h4.821c0.168-2.303-0.744-3.767-2.986-3.767c-1.895,0.013-3.227,1.319-3.227,3.25
		C390.238,90.673,391.534,91.98,393.501,91.98z M393.477,86.607c1.044,0,1.728,0.624,1.775,1.655h-3.646
		C391.762,87.243,392.47,86.607,393.477,86.607z"/>
	<polygon fill="none" points="385.438,90.146 386.518,89.006 388.388,91.933 390.02,91.933 387.477,88.022 389.84,85.552 
		388.256,85.552 385.438,88.406 385.438,83.033 384.059,83.033 384.059,91.933 385.438,91.933 	"/>
	<path fill="none" d="M399.273,88.599c0.108-1.092,0.924-1.848,2.207-1.775v-1.319c-1.008,0-1.775,0.456-2.207,1.319v-1.271h-1.379
		v6.381h1.379V88.599z"/>
	<path fill="none" d="M318.814,92.041c0.432,0,0.756-0.336,0.756-0.804c0-0.456-0.324-0.78-0.756-0.78s-0.755,0.324-0.755,0.78
		C318.06,91.705,318.383,92.041,318.814,92.041z"/>
	<polygon fill="none" points="309.406,91.933 310.821,91.933 312.44,87.207 314.06,91.933 315.486,91.933 317.813,85.552 
		316.41,85.552 314.779,90.565 313.16,85.552 311.732,85.552 310.126,90.565 308.471,85.552 307.098,85.552 307.076,85.609 	"/>
	<path fill="none" d="M345.826,90.134c0,1.307,0.828,1.858,1.787,1.858c0.54,0,1.067-0.168,1.571-0.468l-0.348-1.055
		c-0.372,0.18-0.672,0.275-0.96,0.275c-0.432,0-0.684-0.204-0.684-0.863v-3.059h1.883v-1.031h-1.883v-1.751h-1.367v1.751h-0.899
		v1.031h0.899V90.134z"/>
	<polygon fill="none" points="298.69,91.933 300.105,91.933 301.725,87.207 303.344,91.933 304.771,91.933 307.076,85.609 
		307.056,85.552 305.694,85.552 304.063,90.565 302.444,85.552 301.018,85.552 299.41,90.565 297.755,85.552 296.382,85.552 
		296.361,85.609 	"/>
	<path fill="none" d="M322.51,88.778c0-1.115,0.672-1.955,1.775-1.991c0.936,0,1.499,0.588,1.499,1.56v3.586h1.379v-3.154
		c0-1.115,0.66-1.955,1.751-1.991c0.936,0,1.512,0.588,1.512,1.56v3.586h1.379v-3.97c0-1.523-0.875-2.459-2.339-2.459
		c-1.163,0-2.015,0.468-2.423,1.535c-0.299-0.972-1.079-1.535-2.219-1.535c-1.055,0-1.871,0.384-2.314,1.283v-1.235h-1.367v6.381
		h1.367V88.778z"/>
	<path fill="none" d="M340.942,90.134c0,1.307,0.828,1.858,1.787,1.858c0.54,0,1.067-0.168,1.571-0.468l-0.348-1.055
		c-0.372,0.18-0.672,0.275-0.959,0.275c-0.433,0-0.684-0.204-0.684-0.863v-3.059h1.883v-1.031h-1.883v-1.751h-1.368v1.751h-0.899
		v1.031h0.899V90.134z"/>
	<path fill="none" d="M335.542,88.095c-1.535,0.012-2.411,0.756-2.411,1.919c0,1.127,0.863,1.979,2.243,1.979
		c0.923,0,1.655-0.275,2.11-0.839v0.779h1.355l-0.012-4.186c-0.012-1.403-0.936-2.243-2.578-2.243c-1.212,0-1.859,0.276-2.747,0.804
		l0.563,0.96c0.636-0.433,1.271-0.648,1.883-0.648c1.008,0,1.523,0.48,1.523,1.284v0.191H335.542z M337.473,89.689
		c-0.072,0.696-0.827,1.212-1.811,1.212c-0.768,0-1.235-0.372-1.235-0.947c0-0.612,0.419-0.852,1.319-0.852h1.727V89.689z"/>
	<path fill="none" d="M358.822,88.599c0.107-1.092,0.924-1.848,2.207-1.775v-1.319c-1.008,0-1.775,0.456-2.207,1.319v-1.271h-1.379
		v6.381h1.379V88.599z"/>
	<path fill="none" d="M413.492,91.98c1.212,0,2.135-0.432,2.711-1.188l-0.768-0.768c-0.432,0.504-1.079,0.768-1.883,0.768
		c-1.104,0-1.895-0.827-1.895-2.039c0-1.211,0.791-2.038,1.895-2.038c0.768-0.013,1.379,0.264,1.822,0.72l0.756-0.888
		c-0.588-0.672-1.486-1.044-2.639-1.044c-1.895,0-3.214,1.319-3.214,3.25C410.278,90.673,411.598,91.98,413.492,91.98z"/>
	<path fill="none" d="M426.262,88.778c0-1.115,0.671-1.955,1.774-1.991c0.936,0,1.499,0.588,1.499,1.56v3.586h1.379v-3.154
		c0-1.115,0.66-1.955,1.752-1.991c0.936,0,1.511,0.588,1.511,1.56v3.586h1.38v-3.97c0-1.523-0.876-2.459-2.34-2.459
		c-1.163,0-2.015,0.468-2.422,1.535c-0.3-0.972-1.08-1.535-2.219-1.535c-1.056,0-1.871,0.384-2.314,1.283v-1.235h-1.367v6.381h1.367
		V88.778z"/>
	<path fill="none" d="M404.481,90.901c-0.695,0-1.583-0.3-2.135-0.792l-0.491,0.983c0.635,0.576,1.631,0.888,2.566,0.888
		c1.283,0,2.446-0.588,2.446-1.895c0.012-2.315-3.382-1.68-3.382-2.854c0-0.456,0.396-0.636,0.936-0.636
		c0.563,0,1.271,0.216,1.834,0.563l0.504-1.02c-0.575-0.407-1.427-0.647-2.23-0.647c-1.223,0-2.351,0.552-2.351,1.847
		c-0.012,2.303,3.347,1.571,3.347,2.879C405.525,90.697,405.069,90.901,404.481,90.901z"/>
	<path fill="none" d="M408.55,92.041c0.432,0,0.756-0.336,0.756-0.804c0-0.456-0.324-0.78-0.756-0.78s-0.755,0.324-0.755,0.78
		C407.795,91.705,408.118,92.041,408.55,92.041z"/>
	<path fill="none" d="M420.129,91.98c1.967,0,3.322-1.319,3.322-3.238c0-1.931-1.355-3.238-3.322-3.238
		c-1.979,0-3.335,1.308-3.335,3.238C416.794,90.661,418.149,91.98,420.129,91.98z M420.129,86.691c1.139,0,1.942,0.84,1.942,2.062
		c0,1.235-0.804,2.075-1.942,2.075c-1.152,0-1.955-0.84-1.955-2.075C418.174,87.531,418.977,86.691,420.129,86.691z"/>
	<path fill="none" d="M62.502,648.506h597V105.361h-597V648.506z M65.502,108.361h591v537.145h-591V108.361z"/>
	<path fill="none" d="M436.123,370.933c-0.844,0-1.641,0.338-2.242,0.95l-0.127,0.13h-8.357c-0.955,0-1.777,0.647-2.002,1.576
		l-4.676,13.428l-4.275-35.314c-0.127-0.983-0.914-1.701-1.961-1.785h-0.004c-1.01-0.047-1.879,0.633-2.088,1.626l-8.48,30.037
		l-4.436-0.052l5.611-31.915h-23.514h-3.344h-20.162l0.836-4.756h-15.76l-0.838,4.756h-20.18h-3.344H293.27l-10.531,59.396h15.758
		l2.176-11.953h7.768h3.342h20.172h3.344h9.074h3.344h20.172h3.344h23.514l2.012-11.436c2.043-0.006,5.729-0.014,6.426-0.014h0.008
		c0.928-0.049,1.707-0.715,1.898-1.623l7.221-23.887l3.131,35.505c0.133,0.989,0.953,1.723,1.998,1.785h0.045
		c0.957,0,1.777-0.648,2-1.575l7.535-19.687h6.738l0.127,0.134c0.596,0.617,1.391,0.956,2.24,0.956c1.734,0,3.143-1.407,3.143-3.139
		C439.266,372.343,437.855,370.933,436.123,370.933z M307.939,392.415h-11.102l-2.176,11.953h-6.445l8.893-50.114h17.539
		L307.939,392.415z M331.473,392.415h-17.529l6.715-38.161h6.447l-5.58,31.707h4.637l5.58-31.707h6.445L331.473,392.415z
		 M343.889,392.415h-6.447l7.562-42.917h6.447L343.889,392.415z M361.902,360.71l-1.654,9.397h11.082l-3.926,22.308h-17.533
		l1.926-11.211h6.498l-0.838,4.757h4.637l1.654-9.4h-11.135l3.977-22.308h17.535l-1.926,11.213h-6.455l0.783-4.756H361.902z
		 M392.871,381.317h-11.018l-0.896,4.643h11.098v0.001l-1.135,6.454h-17.529l6.715-38.161h17.529L392.871,381.317z M436.123,375.369
		c-0.711,0-1.289-0.579-1.289-1.292s0.58-1.292,1.289-1.292c0.715,0,1.293,0.579,1.293,1.292S436.836,375.369,436.123,375.369z"/>
	<polygon fill="none" points="297.971,385.961 302.629,385.961 307.074,360.71 302.414,360.71 	"/>
	<polygon fill="none" points="382.926,374.863 387.617,374.863 390.047,360.71 385.416,360.71 	"/>
	<path fill="#4D4D4D" d="M297.109,354.254l-8.893,50.114h6.445l2.176-11.953h11.102l6.709-38.161H297.109z M302.629,385.961h-4.658
		l4.443-25.251h4.66L302.629,385.961z"/>
	<polygon fill="#4D4D4D" points="345.004,349.498 337.441,392.415 343.889,392.415 351.451,349.498 	"/>
	<polygon fill="#4D4D4D" points="331.742,354.254 326.162,385.961 321.525,385.961 327.105,354.254 320.658,354.254 
		313.943,392.415 331.473,392.415 338.188,354.254 	"/>
	<polygon fill="#4D4D4D" points="372.199,365.466 374.125,354.253 356.59,354.253 352.613,376.561 363.748,376.561 362.094,385.961 
		357.457,385.961 358.295,381.204 351.797,381.204 349.871,392.415 367.404,392.415 371.33,370.107 360.248,370.107 361.902,360.71 
		366.527,360.71 365.744,365.466 	"/>
	<path fill="#4D4D4D" d="M436.123,372.785c-0.709,0-1.289,0.579-1.289,1.292s0.578,1.292,1.289,1.292
		c0.713,0,1.293-0.579,1.293-1.292S436.838,372.785,436.123,372.785z"/>
	<path fill="#4D4D4D" d="M370.967,89.954c0,0.575,0.467,0.947,1.234,0.947c0.984,0,1.739-0.516,1.812-1.212v-0.587h-1.728
		C371.386,89.103,370.967,89.342,370.967,89.954z"/>
	<path fill="#4D4D4D" d="M353.025,86.607c-1.008,0-1.715,0.636-1.871,1.655h3.646C354.752,87.231,354.068,86.607,353.025,86.607z"/>
	<path fill="#4D4D4D" d="M420.129,90.829c1.139,0,1.942-0.84,1.942-2.075c0-1.223-0.804-2.062-1.942-2.062
		c-1.152,0-1.955,0.84-1.955,2.062C418.174,89.989,418.977,90.829,420.129,90.829z"/>
	<path fill="#4D4D4D" d="M393.477,86.607c-1.007,0-1.715,0.636-1.871,1.655h3.646C395.204,87.231,394.521,86.607,393.477,86.607z"/>
	<path fill="#4D4D4D" d="M334.427,89.954c0,0.575,0.468,0.947,1.235,0.947c0.983,0,1.738-0.516,1.811-1.212v-0.587h-1.727
		C334.846,89.103,334.427,89.342,334.427,89.954z"/>
	<path fill="#4D4D4D" d="M298.067,661.918h-1.899v2.215h1.899c1.026,0,1.621-0.404,1.621-1.125
		C299.688,662.322,299.094,661.918,298.067,661.918z"/>
	<path fill="#4D4D4D" d="M303.665,660.658c-0.9,0-1.548,0.584-1.656,1.484h3.241C305.205,661.234,304.592,660.658,303.665,660.658z"
		/>
	<path fill="#4D4D4D" d="M309.029,660.676c-1.009,0-1.72,0.748-1.72,1.783c0,1.025,0.711,1.764,1.72,1.764
		c0.999,0,1.71-0.738,1.71-1.764C310.739,661.424,310.028,660.676,309.029,660.676z"/>
	<path fill="#4D4D4D" d="M286.898,663.377c0,0.521,0.423,0.863,1.089,0.863c0.801,0,1.413-0.404,1.593-1.062v-0.566h-1.476
		C287.312,662.611,286.898,662.854,286.898,663.377z"/>
	<path fill="#4D4D4D" d="M299.409,660.207c0-0.639-0.495-0.998-1.342-0.998h-1.899v2.025h1.899
		C298.914,661.234,299.409,660.865,299.409,660.207z"/>
	<path fill="#4D4D4D" d="M283.227,660.658c-0.9,0-1.549,0.584-1.657,1.484h3.241C284.766,661.234,284.153,660.658,283.227,660.658z"
		/>
	<path fill="#4D4D4D" d="M352.103,660.658c-0.9,0-1.549,0.584-1.657,1.484h3.241C353.642,661.234,353.029,660.658,352.103,660.658z"
		/>
	<path fill="#4D4D4D" d="M345.758,659.209h-1.81v4.924h1.836c1.405,0,2.503-1.053,2.503-2.457
		C348.288,660.262,347.171,659.209,345.758,659.209z"/>
	<path fill="#4D4D4D" d="M416.271,660.658c-0.9,0-1.549,0.584-1.656,1.484h3.24C417.811,661.234,417.198,660.658,416.271,660.658z"
		/>
	<path fill="#4D4D4D" d="M389.947,660.676c-1,0-1.702,0.738-1.702,1.764c0,1.035,0.702,1.766,1.702,1.766
		c0.99,0,1.692-0.738,1.692-1.766C391.64,661.424,390.938,660.676,389.947,660.676z"/>
	<path fill="#4D4D4D" d="M406.687,660.693c-0.99,0-1.702,0.721-1.702,1.756c0,1.045,0.712,1.764,1.702,1.764
		s1.701-0.719,1.701-1.764C408.388,661.414,407.677,660.693,406.687,660.693z"/>
	<path fill="#4D4D4D" d="M380.866,660.676c-1.009,0-1.72,0.748-1.72,1.783c0,1.025,0.711,1.764,1.72,1.764
		c0.999,0,1.71-0.738,1.71-1.764C382.576,661.424,381.865,660.676,380.866,660.676z"/>
	<path fill="#4D4D4D" d="M444.566,663.377c0,0.521,0.423,0.863,1.09,0.863c0.801,0,1.413-0.404,1.593-1.062v-0.566h-1.477
		C444.98,662.611,444.566,662.854,444.566,663.377z"/>
	<path fill="#4D4D4D" d="M708.568,40.221V2.248l-2.834-2.835h-76.516l-2.834,2.835v35.139l-2.834,2.834H11.432L0.096,51.557v643.294
		l11.336,11.336h697.137l11.336-11.336V51.557L708.568,40.221z M424.895,85.552h1.367v1.235c0.443-0.899,1.259-1.283,2.314-1.283
		c1.139,0,1.919,0.563,2.219,1.535c0.407-1.067,1.259-1.535,2.422-1.535c1.464,0,2.34,0.936,2.34,2.459v3.97h-1.38v-3.586
		c0-0.972-0.575-1.56-1.511-1.56c-1.092,0.036-1.752,0.876-1.752,1.991v3.154h-1.379v-3.586c0-0.972-0.563-1.56-1.499-1.56
		c-1.104,0.036-1.774,0.876-1.774,1.991v3.154h-1.367V85.552z M420.129,85.504c1.967,0,3.322,1.308,3.322,3.238
		c0,1.919-1.355,3.238-3.322,3.238c-1.979,0-3.335-1.319-3.335-3.238C416.794,86.812,418.149,85.504,420.129,85.504z
		 M413.492,85.504c1.152,0,2.051,0.372,2.639,1.044l-0.756,0.888c-0.443-0.456-1.055-0.732-1.822-0.72
		c-1.104,0-1.895,0.827-1.895,2.038c0,1.212,0.791,2.039,1.895,2.039c0.804,0,1.451-0.264,1.883-0.768l0.768,0.768
		c-0.576,0.756-1.499,1.188-2.711,1.188c-1.895,0-3.214-1.308-3.214-3.227C410.278,86.823,411.598,85.504,413.492,85.504z
		 M408.55,90.457c0.432,0,0.756,0.324,0.756,0.78c0,0.468-0.324,0.804-0.756,0.804s-0.755-0.336-0.755-0.804
		C407.795,90.781,408.118,90.457,408.55,90.457z M402.179,87.339c0-1.295,1.128-1.847,2.351-1.847c0.804,0,1.655,0.24,2.23,0.647
		l-0.504,1.02c-0.562-0.348-1.271-0.563-1.834-0.563c-0.54,0-0.936,0.18-0.936,0.636c0,1.175,3.394,0.539,3.382,2.854
		c0,1.307-1.163,1.895-2.446,1.895c-0.936,0-1.932-0.312-2.566-0.888l0.491-0.983c0.552,0.492,1.439,0.792,2.135,0.792
		c0.588,0,1.044-0.204,1.044-0.684C405.525,88.91,402.167,89.642,402.179,87.339z M397.895,85.552h1.379v1.271
		c0.432-0.863,1.199-1.319,2.207-1.319v1.319c-1.283-0.072-2.099,0.684-2.207,1.775v3.334h-1.379V85.552z M393.465,85.504
		c2.242,0,3.154,1.464,2.986,3.767h-4.821c0.216,0.983,0.972,1.595,1.979,1.595c0.695,0,1.33-0.264,1.799-0.743l0.731,0.779
		c-0.624,0.684-1.535,1.079-2.639,1.079c-1.967,0-3.263-1.308-3.263-3.227C390.238,86.823,391.57,85.517,393.465,85.504z
		 M384.059,83.033h1.379v5.373l2.818-2.854h1.584l-2.363,2.471l2.543,3.91h-1.632l-1.87-2.927l-1.08,1.14v1.787h-1.379V83.033z
		 M379.846,85.504c1.15,0,2.051,0.372,2.638,1.044l-0.755,0.888c-0.444-0.456-1.056-0.732-1.823-0.72
		c-1.104,0-1.896,0.827-1.896,2.038c0,1.212,0.792,2.039,1.896,2.039c0.804,0,1.451-0.264,1.883-0.768l0.768,0.768
		c-0.575,0.756-1.499,1.188-2.71,1.188c-1.896,0-3.215-1.308-3.215-3.227C376.631,86.823,377.95,85.504,379.846,85.504z
		 M372.489,86.619c-0.611,0-1.247,0.216-1.883,0.648l-0.563-0.96c0.887-0.527,1.535-0.804,2.746-0.804
		c1.644,0,2.566,0.84,2.578,2.243l0.013,4.186h-1.355v-0.779c-0.456,0.563-1.188,0.839-2.11,0.839c-1.38,0-2.243-0.852-2.243-1.979
		c0-1.163,0.876-1.907,2.411-1.919h1.931v-0.191C374.013,87.1,373.497,86.619,372.489,86.619z M362.23,83.033h1.38V86.8
		c0.455-0.899,1.271-1.296,2.362-1.296c1.487,0,2.375,0.936,2.375,2.459v3.97h-1.379v-3.586c0-0.96-0.576-1.547-1.535-1.547
		c-1.14,0.012-1.823,0.863-1.823,1.99v3.143h-1.38V83.033z M357.443,85.552h1.379v1.271c0.432-0.863,1.199-1.319,2.207-1.319v1.319
		c-1.283-0.072-2.1,0.684-2.207,1.775v3.334h-1.379V85.552z M353.014,85.504c2.242,0,3.154,1.464,2.986,3.767h-4.822
		c0.217,0.983,0.972,1.595,1.979,1.595c0.695,0,1.331-0.264,1.799-0.743l0.731,0.779c-0.623,0.684-1.535,1.079-2.639,1.079
		c-1.967,0-3.262-1.308-3.262-3.227C349.787,86.823,351.118,85.517,353.014,85.504z M344.927,85.792h0.899v-1.751h1.367v1.751h1.883
		v1.031h-1.883v3.059c0,0.659,0.252,0.863,0.684,0.863c0.288,0,0.588-0.096,0.96-0.275l0.348,1.055
		c-0.504,0.3-1.031,0.468-1.571,0.468c-0.959,0-1.787-0.552-1.787-1.858v-3.311h-0.899V85.792z M340.043,85.792h0.899v-1.751h1.368
		v1.751h1.883v1.031h-1.883v3.059c0,0.659,0.251,0.863,0.684,0.863c0.287,0,0.587-0.096,0.959-0.275l0.348,1.055
		c-0.504,0.3-1.031,0.468-1.571,0.468c-0.959,0-1.787-0.552-1.787-1.858v-3.311h-0.899V85.792z M335.949,86.619
		c-0.611,0-1.247,0.216-1.883,0.648l-0.563-0.96c0.888-0.527,1.535-0.804,2.747-0.804c1.643,0,2.566,0.84,2.578,2.243l0.012,4.186
		h-1.355v-0.779c-0.455,0.563-1.188,0.839-2.11,0.839c-1.38,0-2.243-0.852-2.243-1.979c0-1.163,0.876-1.907,2.411-1.919h1.931
		v-0.191C337.473,87.1,336.957,86.619,335.949,86.619z M321.143,85.552h1.367v1.235c0.443-0.899,1.26-1.283,2.314-1.283
		c1.14,0,1.92,0.563,2.219,1.535c0.408-1.067,1.26-1.535,2.423-1.535c1.464,0,2.339,0.936,2.339,2.459v3.97h-1.379v-3.586
		c0-0.972-0.576-1.56-1.512-1.56c-1.091,0.036-1.751,0.876-1.751,1.991v3.154h-1.379v-3.586c0-0.972-0.563-1.56-1.499-1.56
		c-1.104,0.036-1.775,0.876-1.775,1.991v3.154h-1.367V85.552z M318.814,90.457c0.432,0,0.756,0.324,0.756,0.78
		c0,0.468-0.324,0.804-0.756,0.804s-0.755-0.336-0.755-0.804C318.06,90.781,318.383,90.457,318.814,90.457z M287.039,85.552
		l1.655,5.014l1.606-5.014h1.428l1.619,5.014l1.631-5.014h1.361h0.042h1.373l1.655,5.014l1.607-5.014h1.427l1.619,5.014l1.631-5.014
		h1.361h0.042h1.373l1.655,5.014l1.606-5.014h1.428l1.619,5.014l1.631-5.014h1.403l-2.327,6.381h-1.427l-1.619-4.726l-1.619,4.726
		h-1.415l-2.33-6.324l-2.305,6.324h-1.428l-1.619-4.726l-1.619,4.726h-1.415l-2.329-6.324l-2.307,6.324h-1.427l-1.619-4.726
		l-1.619,4.726h-1.415l-2.351-6.381H287.039z M279.546,664.816h-0.72v-2.771h-3.799v2.771h-0.721v-6.301h0.721v2.844h3.799v-2.844
		h0.72V664.816z M283.289,664.232c0.585,0,1.099-0.207,1.468-0.596l0.387,0.414c-0.45,0.506-1.117,0.793-1.909,0.793
		c-1.396,0-2.358-0.98-2.358-2.395s0.972-2.395,2.35-2.395c1.53-0.01,2.286,1.053,2.214,2.664h-3.871
		C281.696,663.646,282.371,664.232,283.289,664.232z M289.59,664.816v-0.729c-0.378,0.514-0.981,0.766-1.738,0.766
		c-0.981,0-1.611-0.631-1.611-1.449c0-0.828,0.657-1.352,1.773-1.359h1.558v-0.279c0-0.693-0.432-1.107-1.27-1.107
		c-0.522,0-1.008,0.197-1.503,0.539l-0.297-0.512c0.612-0.406,1.125-0.641,1.936-0.641c1.17,0,1.818,0.621,1.827,1.639l0.009,3.133
		H289.59z M293.216,664.854c-0.693,0-1.206-0.414-1.206-1.352v-2.709h-0.685v-0.568h0.685v-1.25h0.693v1.25l1.503-0.008v0.576
		h-1.503v2.584c0,0.576,0.225,0.791,0.63,0.791c0.243,0,0.495-0.08,0.756-0.242l0.198,0.566
		C293.954,664.719,293.594,664.844,293.216,664.854z M298.148,664.816h-2.701v-6.301h2.656c1.27,0,2.035,0.584,2.035,1.574
		c0,0.738-0.423,1.27-1.162,1.424c0.909,0.135,1.44,0.729,1.44,1.592C300.417,664.178,299.571,664.816,298.148,664.816z
		 M303.728,664.232c0.585,0,1.098-0.207,1.467-0.596l0.387,0.414c-0.45,0.506-1.116,0.793-1.909,0.793
		c-1.396,0-2.358-0.98-2.358-2.395s0.972-2.395,2.35-2.395c1.53-0.01,2.287,1.053,2.215,2.664h-3.871
		C302.135,663.646,302.81,664.232,303.728,664.232z M311.442,664.816h-0.703v-1.018c-0.351,0.666-0.999,1.055-1.845,1.055
		c-1.35,0-2.287-1-2.287-2.414c0-1.422,0.937-2.402,2.277-2.402c0.847,0,1.504,0.387,1.854,1.062v-2.963h0.703V664.816z
		 M322.134,664.816h-0.666l-0.009-5.193l-2.296,4.527h-0.432l-2.287-4.527v5.193h-0.684v-6.301h0.891l2.305,4.537l2.296-4.537h0.882
		V664.816z M328.316,664.816l-2.322-2.988l-1.225,1.342v1.646h-0.72v-6.301h0.72v3.627l3.385-3.627h0.855l-2.494,2.736l2.683,3.564
		H328.316z M334.319,663.16h-0.954v1.656h-0.676v-1.656h-3.024v-0.594l2.26-4.051h0.711l-2.197,3.951h2.25v-1.666h0.676v1.666h0.954
		V663.16z M339.341,664.816h-4.331v-0.594l2.359-2.566c0.531-0.531,0.864-1.115,0.864-1.521c0-0.611-0.468-0.98-1.26-0.98
		c-0.576,0-1.215,0.297-1.72,0.783l-0.315-0.576c0.612-0.549,1.377-0.873,2.125-0.873c1.161,0,1.918,0.604,1.918,1.549
		c0,0.604-0.45,1.332-1.117,2.043l-1.936,2.053h3.412V664.816z M345.749,664.816h-2.521v-6.301h2.547
		c1.837,0,3.241,1.359,3.241,3.15S347.604,664.816,345.749,664.816z M352.165,664.232c0.585,0,1.099-0.207,1.468-0.596l0.387,0.414
		c-0.45,0.506-1.117,0.793-1.909,0.793c-1.396,0-2.358-0.98-2.358-2.395s0.972-2.395,2.35-2.395c1.53-0.01,2.286,1.053,2.214,2.664
		h-3.871C350.572,663.646,351.247,664.232,352.165,664.232z M356.71,664.844c-0.675,0-1.368-0.234-1.818-0.666l0.27-0.531
		c0.405,0.379,1.017,0.604,1.576,0.604c0.558,0,1.008-0.207,1.017-0.676c0.027-1.143-2.628-0.559-2.62-2.242
		c0-0.908,0.783-1.287,1.647-1.287c0.567,0,1.116,0.162,1.513,0.434l-0.271,0.557c-0.369-0.234-0.846-0.387-1.287-0.387
		c-0.531,0-0.937,0.189-0.937,0.631c0,1.053,2.647,0.514,2.647,2.215C358.448,664.43,357.619,664.844,356.71,664.844z
		 M360.292,664.816h-0.693v-4.744h0.693V664.816z M359.94,659.199c-0.261,0-0.459-0.207-0.459-0.486s0.198-0.486,0.459-0.486
		c0.262,0,0.459,0.207,0.459,0.486S360.202,659.199,359.94,659.199z M366.134,664.322c0,1.387-0.945,2.26-2.386,2.26
		c-0.747-0.01-1.368-0.252-1.944-0.686l0.323-0.539c0.469,0.387,0.964,0.594,1.594,0.604c1.035,0,1.711-0.631,1.711-1.621v-0.721
		c-0.333,0.631-0.945,0.99-1.746,0.99c-1.279,0-2.161-0.945-2.161-2.295c0-1.324,0.873-2.26,2.143-2.27
		c0.811,0,1.423,0.361,1.765,0.99v-0.963h0.702V664.322z M372.064,664.816h-0.702v-2.736c0-0.838-0.504-1.332-1.341-1.332
		c-0.937,0.008-1.513,0.621-1.594,1.521v2.547h-0.702v-4.744h0.702v1.045c0.333-0.721,0.973-1.062,1.836-1.072
		c1.135,0,1.801,0.703,1.801,1.846V664.816z M375.564,664.232c0.586,0,1.099-0.207,1.468-0.596l0.388,0.414
		c-0.45,0.506-1.117,0.793-1.909,0.793c-1.396,0-2.358-0.98-2.358-2.395s0.973-2.395,2.35-2.395c1.53-0.01,2.287,1.053,2.215,2.664
		h-3.871C373.972,663.646,374.646,664.232,375.564,664.232z M383.279,664.816h-0.703v-1.018c-0.351,0.666-0.999,1.055-1.846,1.055
		c-1.35,0-2.286-1-2.286-2.414c0-1.422,0.937-2.402,2.277-2.402c0.847,0,1.504,0.387,1.854,1.062v-2.963h0.703V664.816z
		 M390.091,664.844c-0.847,0-1.494-0.387-1.846-1.045v1.018h-0.702v-6.68h0.702v2.963c0.352-0.668,0.999-1.055,1.827-1.055
		c1.342,0,2.278,0.99,2.278,2.414C392.351,663.863,391.432,664.844,390.091,664.844z M394.941,665.492
		c-0.297,0.729-0.792,1.107-1.422,1.107c-0.396,0-0.712-0.117-1-0.352l0.297-0.584c0.217,0.152,0.433,0.225,0.666,0.225
		c0.369,0,0.676-0.225,0.865-0.666l0.197-0.441l-1.962-4.709h0.738l1.575,3.916l1.504-3.916h0.72L394.941,665.492z M403.104,662.926
		c0,1.225-0.675,1.928-1.8,1.928c-0.703,0-1.306-0.334-1.747-0.9l0.36-0.576c0.396,0.477,0.891,0.729,1.377,0.729
		c0.693,0,1.08-0.414,1.08-1.197v-3.699h-2.25v-0.693h2.979V662.926z M406.687,664.844c-1.404,0-2.403-0.98-2.403-2.404
		c0-1.412,0.999-2.385,2.403-2.385s2.403,0.973,2.403,2.385C409.09,663.863,408.091,664.844,406.687,664.844z M411.51,664.844
		c-0.675,0-1.368-0.234-1.818-0.666l0.271-0.531c0.405,0.379,1.017,0.604,1.575,0.604s1.008-0.207,1.018-0.676
		c0.027-1.143-2.629-0.559-2.62-2.242c0-0.908,0.783-1.287,1.647-1.287c0.567,0,1.116,0.162,1.513,0.434l-0.271,0.557
		c-0.369-0.234-0.846-0.387-1.287-0.387c-0.531,0-0.937,0.189-0.937,0.631c0,1.053,2.647,0.514,2.647,2.215
		C413.248,664.43,412.42,664.844,411.51,664.844z M416.334,664.232c0.586,0,1.099-0.207,1.468-0.596l0.388,0.414
		c-0.451,0.506-1.117,0.793-1.909,0.793c-1.396,0-2.358-0.98-2.358-2.395s0.972-2.395,2.35-2.395c1.53-0.01,2.286,1.053,2.215,2.664
		h-3.871C414.74,663.646,415.416,664.232,416.334,664.232z M422.059,659.002c-0.216-0.154-0.477-0.244-0.721-0.244
		c-0.459,0-0.837,0.297-0.837,0.846v0.613h1.359v0.576h-1.359v4.023h-0.693v-4.023h-0.612v-0.576h0.612v-0.521
		c0-1.037,0.729-1.594,1.521-1.594c0.36,0.008,0.729,0.117,1.018,0.332L422.059,659.002z M427.512,662.828h-1.646v1.988h-0.721
		v-6.301h2.367c1.558,0,2.458,0.773,2.458,2.115C429.97,662.025,429.069,662.828,427.512,662.828z M433.471,660.756
		c-1-0.018-1.621,0.604-1.702,1.541v2.52h-0.702v-4.744h0.702v1.053c0.315-0.693,0.9-1.07,1.702-1.08V660.756z M438.528,664.816
		h-0.702v-1.07c-0.314,0.738-0.945,1.088-1.801,1.098c-1.107,0-1.773-0.701-1.773-1.846v-2.926h0.703v2.736
		c0,0.838,0.494,1.334,1.313,1.334c0.981-0.02,1.558-0.73,1.558-1.738v-2.332h0.702V664.816z M441.426,664.844
		c-0.676,0-1.368-0.234-1.818-0.666l0.27-0.531c0.405,0.379,1.018,0.604,1.576,0.604c0.558,0,1.008-0.207,1.017-0.676
		c0.027-1.143-2.628-0.559-2.62-2.242c0-0.908,0.784-1.287,1.648-1.287c0.566,0,1.116,0.162,1.512,0.434l-0.27,0.557
		c-0.369-0.234-0.847-0.387-1.287-0.387c-0.531,0-0.937,0.189-0.937,0.631c0,1.053,2.646,0.514,2.646,2.215
		C443.163,664.43,442.335,664.844,441.426,664.844z M447.258,664.816v-0.729c-0.378,0.514-0.98,0.766-1.737,0.766
		c-0.981,0-1.611-0.631-1.611-1.449c0-0.828,0.657-1.352,1.773-1.359h1.558v-0.279c0-0.693-0.432-1.107-1.27-1.107
		c-0.522,0-1.008,0.197-1.504,0.539l-0.297-0.512c0.612-0.406,1.125-0.641,1.936-0.641c1.171,0,1.818,0.621,1.828,1.639l0.009,3.133
		H447.258z M659.502,648.506h-597V105.361h597V648.506z"/>
	<path fill="#4D4D4D" d="M363.811,660.658c-0.954,0-1.62,0.701-1.629,1.684c0.009,0.971,0.675,1.674,1.629,1.674
		c0.945,0,1.621-0.703,1.621-1.674C365.432,661.352,364.756,660.658,363.811,660.658z"/>
	<path fill="#4D4D4D" d="M427.485,659.209h-1.62v2.926h1.62c1.134,0,1.791-0.504,1.791-1.486
		C429.276,659.695,428.619,659.209,427.485,659.209z"/>
	<path fill="#4D4D4D" d="M375.502,660.658c-0.9,0-1.549,0.584-1.656,1.484h3.24C377.041,661.234,376.43,660.658,375.502,660.658z"/>
	<path fill="#4D4D4D" d="M656.502,108.361h-591v537.145h591V108.361z M356.707,634.929c-0.213,0.354-0.57,0.498-0.926,0.498h-21.225
		c-0.354,0-0.711-0.215-0.924-0.57c-0.215-0.355-0.215-0.713,0-1.068l10.684-18.09c0.141-0.354,0.498-0.568,0.924-0.568
		c0.355,0,0.713,0.215,0.926,0.498l10.541,18.23C356.92,634.216,356.92,634.571,356.707,634.929z M388.373,634.929
		c-0.213,0.354-0.568,0.498-0.926,0.498h-21.223c-0.355,0-0.713-0.215-0.926-0.57s-0.213-0.713,0-1.068l10.684-18.09
		c0.143-0.354,0.498-0.568,0.926-0.568c0.355,0,0.711,0.215,0.924,0.498l10.541,18.23
		C388.586,634.216,388.586,634.571,388.373,634.929z M436.123,377.216c-0.85,0-1.645-0.339-2.24-0.956l-0.127-0.134h-6.738
		l-7.535,19.687c-0.223,0.927-1.043,1.575-2,1.575h-0.045c-1.045-0.062-1.865-0.796-1.998-1.785l-3.131-35.505l-7.221,23.887
		c-0.191,0.908-0.971,1.574-1.898,1.623h-0.008c-0.697,0-4.383,0.008-6.426,0.014l-2.012,11.436H371.23h-3.344h-20.172h-3.344
		h-9.074h-3.344h-20.172h-3.342h-7.768l-2.176,11.953h-15.758l10.531-59.396h23.512h3.344h20.18l0.838-4.756h15.76l-0.836,4.756
		h20.162h3.344h23.514l-5.611,31.915l4.436,0.052l8.48-30.037c0.209-0.993,1.078-1.673,2.088-1.626h0.004
		c1.047,0.084,1.834,0.802,1.961,1.785l4.275,35.314l4.676-13.428c0.225-0.929,1.047-1.576,2.002-1.576h8.357l0.127-0.13
		c0.602-0.612,1.398-0.95,2.242-0.95c1.732,0,3.143,1.41,3.143,3.145C439.266,375.809,437.857,377.216,436.123,377.216z"/>
	<path fill="#4D4D4D" d="M336.41,633.29h17.52l-8.688-14.955L336.41,633.29z M342.807,627.567c-0.064-0.125-0.141-0.248-0.217-0.371
		c-0.057-0.094-0.113-0.186-0.166-0.279c-0.082-0.146-0.174-0.324-0.215-0.521c-0.016-0.074-0.021-0.148-0.021-0.227
		c0-0.189,0.041-0.391,0.123-0.617c0.061-0.17,0.139-0.342,0.238-0.529c0.174-0.326,0.34-0.559,0.34-0.559l0.135-0.182l0.768,0.537
		l-0.172,0.275c-0.029,0.045-0.074,0.115-0.125,0.199c-0.07,0.121-0.203,0.357-0.283,0.58c-0.051,0.137-0.066,0.24-0.066,0.293
		l0.004,0.057c0.002,0,0.023,0.074,0.107,0.223c0.043,0.074,0.092,0.154,0.143,0.238l0.113,0.184
		c0.215,0.363,0.414,0.768,0.416,1.25c0,0.104-0.01,0.211-0.031,0.316c-0.082,0.42-0.299,0.832-0.645,1.229
		c-0.213,0.244-0.41,0.402-0.484,0.461l-0.186,0.143l-0.576-0.773l0.189-0.137c0.033-0.027,0.059-0.047,0.088-0.076
		c0.068-0.059,0.158-0.143,0.25-0.248c0.131-0.148,0.361-0.449,0.424-0.777c0.01-0.047,0.014-0.09,0.014-0.137
		C342.971,627.962,342.918,627.788,342.807,627.567z M350.07,632.19h-9.801v-1.027h9.801V632.19z M346.943,627.567
		c-0.064-0.127-0.141-0.25-0.215-0.373c-0.059-0.092-0.113-0.186-0.166-0.279c-0.084-0.145-0.174-0.322-0.215-0.523
		c-0.018-0.074-0.021-0.146-0.023-0.223c0.002-0.188,0.043-0.391,0.125-0.619c0.059-0.166,0.139-0.338,0.24-0.527
		c0.158-0.299,0.312-0.523,0.332-0.551l0.133-0.193l0.773,0.543l-0.17,0.273c-0.033,0.047-0.076,0.115-0.125,0.197
		c-0.123,0.211-0.223,0.418-0.281,0.58c-0.051,0.141-0.068,0.244-0.068,0.293l0.006,0.057c0.002,0,0.023,0.072,0.107,0.227
		c0.041,0.074,0.09,0.154,0.145,0.24l0.109,0.18c0.215,0.363,0.414,0.768,0.416,1.248c0,0.104-0.01,0.209-0.029,0.318
		c-0.084,0.424-0.295,0.826-0.645,1.227c-0.203,0.232-0.389,0.389-0.482,0.461l-0.188,0.145l-0.598-0.795l0.227-0.129
		c0.016-0.016,0.039-0.033,0.066-0.062c0.072-0.061,0.16-0.145,0.252-0.25c0.131-0.148,0.361-0.451,0.424-0.777
		c0.008-0.049,0.014-0.09,0.014-0.137C347.107,627.962,347.055,627.782,346.943,627.567z M345.27,626.224
		c0.002,0,0.023,0.074,0.107,0.225c0.041,0.072,0.09,0.15,0.141,0.232l0.115,0.189c0.215,0.361,0.414,0.764,0.416,1.248
		c0,0.102-0.01,0.207-0.031,0.316c-0.084,0.422-0.301,0.834-0.645,1.229c-0.227,0.26-0.43,0.422-0.486,0.463l-0.189,0.141
		l-0.58-0.781l0.203-0.135c0.027-0.023,0.051-0.041,0.078-0.068c0.074-0.062,0.162-0.145,0.252-0.25
		c0.131-0.148,0.359-0.449,0.426-0.779c0.008-0.047,0.012-0.09,0.012-0.135c0-0.156-0.053-0.336-0.164-0.551
		c-0.064-0.125-0.141-0.25-0.217-0.375c-0.057-0.092-0.113-0.184-0.166-0.275c-0.082-0.146-0.172-0.322-0.215-0.521
		c-0.016-0.076-0.02-0.148-0.021-0.221c0-0.193,0.041-0.395,0.125-0.623c0.057-0.162,0.135-0.336,0.236-0.527
		c0.146-0.273,0.291-0.486,0.326-0.539l0.121-0.242l0.799,0.58l-0.174,0.271c-0.031,0.045-0.076,0.117-0.123,0.197
		c-0.072,0.123-0.205,0.359-0.285,0.584c-0.049,0.137-0.066,0.238-0.066,0.291L345.27,626.224z"/>
	<path fill="#4D4D4D" d="M368.076,633.29h17.521l-8.688-14.955L368.076,633.29z M377.549,631.864
		c-0.213,0.215-0.43,0.285-0.713,0.285s-0.568-0.141-0.711-0.285c-0.143-0.141-0.215-0.426-0.215-0.711s0.072-0.57,0.215-0.713
		c0.213-0.143,0.426-0.213,0.711-0.213c0.355,0,0.57,0.141,0.713,0.283c0.143,0.145,0.213,0.357,0.213,0.643
		S377.691,631.724,377.549,631.864z M377.693,622.253v0.068l-0.285,6.27c0,0.213-0.072,0.355-0.145,0.426
		c-0.141,0.143-0.283,0.215-0.426,0.215c-0.215,0-0.357-0.072-0.428-0.215c-0.072-0.143-0.143-0.283-0.143-0.426l-0.285-6.27v-0.068
		c0-0.036,0-0.054,0-0.054s0,0.018,0,0.054c0-0.359,0.07-0.572,0.215-0.643c0.143-0.143,0.355-0.215,0.641-0.215
		s0.498,0.072,0.641,0.215S377.693,621.968,377.693,622.253z"/>
	<path fill="#4D4D4D" d="M380.105,354.254l-6.715,38.161h17.529l1.135-6.454v-0.001h-11.098l0.896-4.643h11.018l4.764-27.063
		H380.105z M387.617,374.863h-4.691l2.49-14.153h4.631L387.617,374.863z"/>
	<polygon fill="#FFFFFF" points="296.382,85.552 296.34,85.552 296.361,85.609 	"/>
	<polygon fill="#FFFFFF" points="307.098,85.552 307.056,85.552 307.076,85.609 	"/>
</g>
</svg>
