<?xml version="1.0" encoding="utf-8"?>
<!-- Generator: Adobe Illustrator 16.0.0, SVG Export Plug-In . SVG Version: 6.00 Build 0)  -->
<!DOCTYPE svg PUBLIC "-//W3C//DTD SVG 1.1//EN" "http://www.w3.org/Graphics/SVG/1.1/DTD/svg11.dtd">
<svg version="1.1" id="Layer_1" xmlns="http://www.w3.org/2000/svg" xmlns:xlink="http://www.w3.org/1999/xlink" x="0px" y="0px"
	 width="720.002px" height="666.145px" viewBox="-5267.501 1238.5 720.002 666.145"
	 enable-background="new -5267.501 1238.5 720.002 666.145" xml:space="preserve">
<rect x="-5271.128" y="1235.143" fill="#414042" width="727.256" height="672.857"/>
<g>
	<path fill="#FFFFFF" d="M-4561.087,1251.962h2.358c0.297,0,0.666,0.293,0.666,0.82c0,0.521-0.358,0.789-0.666,0.789h-4.147v1.383
		h4.535c0.922,0,1.875-0.582,1.875-2.172s-0.938-2.201-1.875-2.201h-2.367c-0.292,0-0.673-0.283-0.673-0.814
		c0-0.588,0.395-0.795,0.673-0.795h4.021v-1.383h-4.407c-1.063,0-1.891,0.789-1.891,2.205
		C-4562.984,1251.167-4562.133,1251.962-4561.087,1251.962"/>
	<path fill="#FFFFFF" d="M-4566.622,1248.966h0.839c0.504,0,0.773,0.26,0.773,0.754v1.174h1.602v-1.508
		c0-0.754-0.503-1.805-1.984-1.805h-1.229h-0.515h-1.082v7.373h1.597L-4566.622,1248.966L-4566.622,1248.966z"/>
	<path fill="#FFFFFF" d="M-4571.622,1254.955h2.655v-1.389h-2.51c-1.021,0-1.535-0.73-1.704-1.605h4.214v-1.387h-4.214
		c0.176-0.879,0.715-1.609,1.704-1.609h2.503v-1.383h-2.53c-2.699,0-3.45,2.07-3.45,3.717
		C-4574.954,1252.923-4574.203,1254.955-4571.622,1254.955"/>
	<path fill="#FFFFFF" d="M-4579.864,1251.742h2.216c0.506,0,0.771,0.264,0.771,0.752v2.461h1.607v-2.793
		c0-0.754-0.503-1.803-1.981-1.803h-0.718l3.215-2.777h-2.072l-3.038,2.604v-5.168h-1.602v9.938h1.602V1251.742z"/>
	<path fill="#FFFFFF" d="M-4584.658,1254.955h2.659v-1.389h-2.517c-1.283,0-1.763-1.15-1.77-2.297
		c-0.005-1.145,0.533-2.305,1.77-2.305h2.505v-1.383h-2.53c-2.697,0-3.445,2.07-3.445,3.717
		C-4587.986,1252.923-4587.238,1254.955-4584.658,1254.955"/>
	<path fill="#FFFFFF" d="M-4592.727,1250.361c-1.832,0-2.624,1.076-2.624,2.303c0,1.215,0.858,2.291,2.647,2.291h2.579h0.205h1.395
		v-4.984c0-1.238-0.531-2.389-2.347-2.389h-4.17v1.385h3.972c0.53,0,0.945,0.42,0.945,0.965v0.432h-2.602V1250.361z
		 M-4590.124,1253.572h-2.636c-0.522,0-0.896-0.471-0.896-0.916c0-0.438,0.367-0.912,0.852-0.912h2.68V1253.572z"/>
	<polygon fill="#FFFFFF" points="-4602.732,1250.568 -4597.603,1250.568 -4597.603,1254.955 -4595.997,1254.955 -4595.997,1245.017 
		-4597.603,1245.017 -4597.603,1249.187 -4602.732,1249.187 -4602.732,1245.017 -4604.331,1245.017 -4604.331,1254.955 
		-4602.732,1254.955 	"/>
	<path fill="#FFFFFF" d="M-4608.393,1249.394h0.813c0.457,0,0.574,0.312,0.574,0.523v0.977h2.137v-1.512
		c0-0.75-0.815-1.801-2.06-1.801h-1.465h-1.271h-0.974v7.373h2.245L-4608.393,1249.394L-4608.393,1249.394z"/>
	<path fill="#FFFFFF" d="M-4614.445,1254.955h3.062v-1.816h-3.048c-0.573,0-0.956-0.414-1.146-0.963h4.194v-1.812h-4.192
		c0.195-0.555,0.575-0.971,1.145-0.971h3.041v-1.811h-3.068c-2.617,0-3.443,2.072-3.443,3.719
		C-4617.902,1252.884-4617.088,1254.955-4614.445,1254.955"/>
	<path fill="#FFFFFF" d="M-4626.983,1252.767c0,1.039,0.812,2.188,2.201,2.188h1.854v-1.811h-1.171
		c-0.438,0-0.649-0.188-0.649-0.701v-3.16h2.783v3.484c0,1.039,0.815,2.188,2.202,2.188h1.86v-1.811h-1.178
		c-0.431,0-0.646-0.188-0.646-0.701v-3.16h1.712v-1.703h-1.712v-2.562h-2.238v2.562h-2.783v-2.562h-2.235v2.562h-1.176v1.703h1.176
		L-4626.983,1252.767L-4626.983,1252.767z"/>
	<path fill="#FFFFFF" d="M-4633.25,1250.361c-1.828,0-2.552,1.119-2.552,2.35c0,1.219,0.788,2.244,2.579,2.244h2.604h0.367h1.769
		v-4.98c0-1.242-0.826-2.393-2.481-2.393h-4.353v1.701h3.723c0.536,0,0.976,0.424,0.976,0.973v0.105H-4633.25z M-4630.619,1253.144
		h-2.443c-0.364,0-0.548-0.287-0.548-0.555s0.184-0.523,0.504-0.523h2.487V1253.144z"/>
	<polygon fill="#FFFFFF" points="-4645.38,1248.839 -4643.286,1254.955 -4642.885,1254.955 -4641.121,1254.955 -4640.722,1254.955 
		-4638.633,1248.839 -4638.633,1254.955 -4636.397,1254.955 -4636.397,1245.017 -4638.633,1245.017 -4639.536,1245.017 
		-4642.008,1252.339 -4644.473,1245.017 -4645.38,1245.017 -4647.613,1245.017 -4647.613,1254.955 -4645.38,1254.955 	"/>
</g>
<g>
	<g>
		<path fill="#FFFFFF" d="M-4925.426,1885.703c-0.004,0.006-0.161,0.229-0.322,0.531c-0.081,0.15-0.161,0.318-0.225,0.498
			c-0.062,0.174-0.109,0.355-0.11,0.537c0,0.061,0.005,0.117,0.018,0.178c0.034,0.164,0.109,0.312,0.19,0.457
			c0.124,0.221,0.272,0.438,0.387,0.66c0.114,0.221,0.19,0.439,0.189,0.654c0,0.062-0.005,0.117-0.017,0.18
			c-0.065,0.338-0.276,0.658-0.478,0.889c-0.1,0.115-0.197,0.205-0.267,0.268c-0.036,0.031-0.064,0.057-0.083,0.07l-0.022,0.018
			l-0.005,0.004l0.294,0.398c0.009-0.008,0.22-0.164,0.454-0.434c0.235-0.27,0.499-0.648,0.591-1.121
			c0.019-0.092,0.026-0.184,0.026-0.271c-0.001-0.443-0.198-0.816-0.382-1.129c-0.094-0.156-0.187-0.301-0.258-0.428
			c-0.073-0.127-0.121-0.24-0.137-0.318l-0.006-0.074c-0.001-0.094,0.028-0.229,0.081-0.371c0.077-0.217,0.201-0.447,0.303-0.623
			c0.052-0.086,0.097-0.158,0.132-0.209l0.039-0.059l0.013-0.021L-4925.426,1885.703z"/>
		<path fill="#FFFFFF" d="M-4925.92,1891.369l-0.577-0.773l0.189-0.137c0.034-0.027,0.059-0.047,0.089-0.076
			c0.068-0.059,0.158-0.143,0.25-0.248c0.131-0.148,0.361-0.449,0.424-0.777c0.009-0.047,0.013-0.09,0.013-0.137
			c0-0.156-0.052-0.33-0.164-0.551c-0.064-0.125-0.14-0.248-0.216-0.371c-0.057-0.094-0.114-0.186-0.166-0.279
			c-0.083-0.146-0.174-0.324-0.216-0.521c-0.015-0.074-0.022-0.148-0.022-0.227c0.001-0.189,0.042-0.391,0.124-0.617
			c0.061-0.17,0.139-0.342,0.239-0.529c0.173-0.326,0.339-0.559,0.34-0.559l0.135-0.182l0.766,0.537l-0.171,0.275
			c-0.03,0.045-0.074,0.115-0.125,0.199c-0.071,0.121-0.203,0.357-0.284,0.58c-0.05,0.137-0.066,0.24-0.066,0.293l0.005,0.057l0,0
			c0.002,0,0.023,0.074,0.107,0.223c0.042,0.074,0.091,0.154,0.143,0.238l0.113,0.184c0.214,0.363,0.413,0.768,0.415,1.25
			c0,0.104-0.009,0.211-0.031,0.316c-0.082,0.42-0.299,0.832-0.644,1.229c-0.214,0.244-0.41,0.402-0.484,0.461L-4925.92,1891.369z
			 M-4925.856,1890.681l0.018,0.025c0.07-0.064,0.154-0.148,0.24-0.248c0.294-0.338,0.471-0.668,0.538-1.012
			c0.015-0.078,0.021-0.154,0.021-0.229c-0.001-0.391-0.182-0.727-0.349-1.012l-0.109-0.178c-0.055-0.09-0.107-0.174-0.151-0.252
			c-0.087-0.154-0.142-0.283-0.162-0.387l-0.01-0.102c-0.002-0.141,0.032-0.303,0.093-0.473c0.088-0.244,0.224-0.492,0.321-0.66
			c0.024-0.039,0.046-0.076,0.067-0.109l-0.024-0.018c-0.052,0.086-0.116,0.193-0.18,0.312c-0.088,0.164-0.159,0.32-0.212,0.469
			c-0.064,0.176-0.095,0.326-0.096,0.461c0,0.045,0.004,0.086,0.012,0.129c0.029,0.135,0.097,0.268,0.166,0.389
			c0.05,0.09,0.104,0.178,0.158,0.266c0.082,0.135,0.163,0.268,0.232,0.402c0.148,0.287,0.216,0.529,0.215,0.764
			c0,0.072-0.006,0.143-0.02,0.221c-0.085,0.439-0.37,0.814-0.532,1C-4925.704,1890.537-4925.788,1890.619-4925.856,1890.681z"/>
	</g>
	<g>
		<path fill="#FFFFFF" d="M-4923.31,1885.703c-0.002,0.006-0.161,0.229-0.322,0.531c-0.08,0.15-0.162,0.318-0.224,0.498
			c-0.062,0.174-0.11,0.355-0.111,0.537c0.001,0.061,0.005,0.117,0.018,0.178c0.035,0.164,0.109,0.312,0.19,0.457
			c0.124,0.221,0.273,0.438,0.387,0.66c0.114,0.221,0.19,0.439,0.189,0.654c0,0.062-0.005,0.117-0.017,0.18
			c-0.065,0.338-0.276,0.658-0.478,0.889c-0.099,0.115-0.196,0.205-0.267,0.268c-0.035,0.031-0.063,0.057-0.083,0.07l-0.021,0.018
			l-0.005,0.004l0.293,0.398c0.009-0.008,0.22-0.164,0.454-0.434s0.498-0.648,0.592-1.119c0.018-0.094,0.025-0.186,0.025-0.271
			c-0.002-0.443-0.198-0.818-0.382-1.131c-0.093-0.156-0.186-0.299-0.258-0.426c-0.072-0.129-0.121-0.24-0.137-0.318l-0.006-0.076
			c0-0.092,0.029-0.229,0.081-0.371c0.078-0.215,0.201-0.447,0.303-0.621c0.051-0.086,0.098-0.162,0.131-0.211l0.039-0.059
			l0.013-0.02L-4923.31,1885.703z"/>
		<path fill="#FFFFFF" d="M-4923.806,1891.369l-0.58-0.781l0.204-0.135c0.027-0.023,0.05-0.041,0.078-0.068
			c0.073-0.062,0.161-0.145,0.251-0.25c0.132-0.148,0.361-0.449,0.426-0.779c0.008-0.047,0.012-0.09,0.012-0.135
			c0-0.156-0.053-0.336-0.164-0.551c-0.064-0.125-0.141-0.25-0.217-0.375c-0.057-0.092-0.113-0.184-0.166-0.275
			c-0.082-0.146-0.172-0.322-0.214-0.521c-0.016-0.076-0.021-0.148-0.023-0.221c0.001-0.193,0.042-0.395,0.125-0.623
			c0.057-0.162,0.135-0.336,0.238-0.527c0.146-0.273,0.29-0.486,0.326-0.539l0.121-0.242l0.798,0.58l-0.174,0.271
			c-0.031,0.045-0.075,0.117-0.123,0.197c-0.072,0.123-0.205,0.359-0.285,0.584c-0.049,0.137-0.067,0.238-0.066,0.291l0.006,0.057
			l0,0c0.001,0,0.023,0.074,0.108,0.225c0.041,0.072,0.089,0.15,0.14,0.232l0.115,0.189c0.214,0.361,0.413,0.764,0.415,1.248
			c0,0.102-0.009,0.207-0.03,0.316c-0.084,0.422-0.301,0.834-0.645,1.229c-0.226,0.26-0.43,0.422-0.487,0.463L-4923.806,1891.369z
			 M-4923.738,1890.681l0.018,0.025c0.069-0.064,0.151-0.146,0.239-0.248c0.29-0.332,0.472-0.672,0.539-1.012
			c0.015-0.076,0.021-0.152,0.021-0.229c-0.002-0.391-0.182-0.727-0.35-1.012l-0.111-0.182c-0.054-0.088-0.105-0.172-0.149-0.248
			c-0.087-0.154-0.142-0.285-0.163-0.387l-0.01-0.102c-0.002-0.182,0.057-0.371,0.094-0.473c0.088-0.244,0.223-0.492,0.321-0.66
			c0.022-0.039,0.045-0.076,0.066-0.109l-0.024-0.018c-0.054,0.09-0.117,0.193-0.18,0.312c-0.092,0.172-0.161,0.324-0.21,0.465
			c-0.065,0.182-0.097,0.332-0.098,0.465c0.001,0.037,0.003,0.082,0.013,0.129c0.029,0.137,0.096,0.268,0.165,0.389
			c0.05,0.088,0.103,0.174,0.157,0.262c0.083,0.137,0.166,0.271,0.235,0.406c0.147,0.285,0.215,0.527,0.215,0.764
			c0,0.072-0.006,0.145-0.021,0.221c-0.085,0.439-0.37,0.814-0.532,1C-4923.587,1890.537-4923.669,1890.619-4923.738,1890.681z"/>
	</g>
	<g>
		<path fill="#FFFFFF" d="M-4921.29,1885.703c-0.004,0.006-0.162,0.229-0.322,0.531c-0.081,0.15-0.162,0.318-0.224,0.498
			c-0.063,0.174-0.11,0.355-0.111,0.537c0.001,0.061,0.005,0.117,0.017,0.178c0.035,0.164,0.108,0.312,0.191,0.457
			c0.123,0.221,0.272,0.438,0.386,0.66c0.114,0.221,0.19,0.439,0.189,0.654c0,0.062-0.004,0.117-0.016,0.18
			c-0.064,0.338-0.276,0.658-0.478,0.889c-0.101,0.115-0.197,0.205-0.268,0.268c-0.035,0.031-0.063,0.057-0.083,0.07l-0.021,0.018
			l-0.006,0.004l0.295,0.398c0.008-0.008,0.22-0.164,0.455-0.434c0.233-0.27,0.498-0.648,0.591-1.119
			c0.017-0.094,0.025-0.186,0.025-0.271c-0.001-0.445-0.198-0.818-0.382-1.131c-0.094-0.156-0.186-0.299-0.258-0.426
			c-0.072-0.129-0.121-0.24-0.137-0.318l-0.006-0.076c-0.001-0.092,0.029-0.229,0.082-0.371c0.076-0.215,0.199-0.447,0.301-0.621
			c0.052-0.086,0.098-0.162,0.131-0.211l0.039-0.059l0.013-0.02L-4921.29,1885.703z"/>
		<path fill="#FFFFFF" d="M-4921.781,1891.369l-0.597-0.795l0.227-0.129c0.015-0.016,0.039-0.033,0.067-0.062
			c0.071-0.061,0.16-0.145,0.252-0.25c0.131-0.148,0.36-0.451,0.423-0.777c0.009-0.049,0.013-0.09,0.013-0.137
			c0.001-0.154-0.052-0.334-0.163-0.549c-0.064-0.127-0.141-0.25-0.216-0.373c-0.057-0.092-0.113-0.186-0.166-0.279
			c-0.083-0.145-0.173-0.322-0.215-0.523c-0.016-0.074-0.021-0.146-0.022-0.223c0.001-0.188,0.042-0.391,0.125-0.619
			c0.058-0.166,0.137-0.338,0.239-0.527c0.158-0.299,0.314-0.523,0.333-0.551l0.133-0.193l0.774,0.543l-0.171,0.273
			c-0.032,0.047-0.075,0.115-0.124,0.197c-0.124,0.211-0.224,0.418-0.282,0.58c-0.051,0.141-0.069,0.244-0.068,0.293l0.005,0.057
			l0,0c0.002,0,0.024,0.072,0.108,0.227c0.042,0.074,0.091,0.154,0.145,0.24l0.109,0.18c0.215,0.363,0.415,0.768,0.416,1.248
			c0,0.104-0.009,0.209-0.03,0.318c-0.084,0.424-0.294,0.826-0.644,1.227c-0.202,0.232-0.389,0.389-0.482,0.461L-4921.781,1891.369z
			 M-4921.72,1890.681l0.018,0.025c0.071-0.064,0.154-0.15,0.24-0.248c0.294-0.338,0.471-0.67,0.539-1.012
			c0.014-0.076,0.021-0.152,0.021-0.229c-0.001-0.389-0.181-0.727-0.35-1.012l-0.106-0.174c-0.056-0.09-0.109-0.176-0.154-0.256
			c-0.087-0.156-0.142-0.285-0.162-0.387l-0.01-0.102c-0.002-0.184,0.059-0.373,0.094-0.473c0.086-0.242,0.222-0.492,0.32-0.66
			c0.023-0.039,0.046-0.076,0.066-0.109l-0.023-0.018c-0.053,0.086-0.116,0.193-0.18,0.312c-0.091,0.168-0.159,0.32-0.21,0.467
			c-0.064,0.18-0.096,0.33-0.097,0.461c0,0.043,0.003,0.086,0.013,0.131c0.028,0.137,0.096,0.268,0.165,0.389
			c0.05,0.09,0.104,0.178,0.158,0.266c0.082,0.135,0.163,0.27,0.232,0.402c0.148,0.285,0.216,0.529,0.215,0.764
			c0,0.072-0.006,0.145-0.021,0.221c-0.083,0.438-0.368,0.812-0.531,1C-4921.569,1890.537-4921.652,1890.619-4921.72,1890.681z"/>
	</g>
	<g>
		<rect x="-4927.984" y="1892.515" fill="#FFFFFF" width="9.302" height="0.527"/>
		<path fill="#FFFFFF" d="M-4918.432,1893.292h-9.802v-1.027h9.802V1893.292z M-4927.734,1892.792l8.802-0.027L-4927.734,1892.792z"
			/>
	</g>
	<g>
		<g>
			<path fill="#FFFFFF" d="M-4892.521,1883.355v0.068l0.286,6.27l0,0c0,0.143,0.071,0.283,0.142,0.426
				c0.072,0.143,0.213,0.215,0.428,0.215c0.143,0,0.285-0.072,0.427-0.215c0.071-0.07,0.143-0.213,0.143-0.426l0,0l0.285-6.27
				v-0.068l0,0l0,0l0,0c0-0.285-0.071-0.5-0.214-0.643c-0.142-0.143-0.356-0.215-0.641-0.215s-0.498,0.072-0.641,0.215
				C-4892.45,1882.783-4892.521,1882.996-4892.521,1883.355C-4892.521,1883.283-4892.521,1883.283-4892.521,1883.355
				L-4892.521,1883.355L-4892.521,1883.355z"/>
		</g>
		<g>
			<path fill="#FFFFFF" d="M-4890.955,1891.613c-0.142-0.143-0.356-0.283-0.712-0.283c-0.285,0-0.498,0.07-0.712,0.213
				c-0.143,0.143-0.214,0.428-0.214,0.713s0.072,0.57,0.214,0.711c0.143,0.145,0.428,0.285,0.712,0.285s0.499-0.07,0.712-0.285
				c0.143-0.141,0.214-0.426,0.214-0.711S-4890.812,1891.757-4890.955,1891.613z"/>
		</g>
	</g>
	<g>
		<path fill="#FFFFFF" d="M-4881.056,1896.529h-21.223c-0.356,0-0.712-0.215-0.925-0.57c-0.214-0.355-0.214-0.713,0-1.068
			l10.683-18.09c0.143-0.354,0.499-0.568,0.925-0.568l0,0c0.356,0,0.712,0.215,0.925,0.498l10.541,18.23
			c0.213,0.357,0.213,0.713,0,1.07C-4880.342,1896.384-4880.699,1896.529-4881.056,1896.529z M-4900.426,1894.392h17.521
			l-8.688-14.955L-4900.426,1894.392z"/>
	</g>
	<g>
		<g>
			<path fill="#FFFFFF" d="M-4912.722,1896.529h-21.223c-0.355,0-0.712-0.215-0.925-0.57c-0.215-0.355-0.215-0.713,0-1.068
				l10.683-18.09c0.142-0.354,0.498-0.568,0.925-0.568l0,0c0.356,0,0.712,0.215,0.926,0.498l10.54,18.23
				c0.214,0.357,0.214,0.713,0,1.07C-4912.009,1896.384-4912.365,1896.529-4912.722,1896.529z M-4932.093,1894.392h17.52
				l-8.688-14.955L-4932.093,1894.392z"/>
		</g>
	</g>
</g>
<text transform="matrix(1 0 0 1 -5050.3564 1867.9351)" fill="#FFFFFF" font-family="'Montserrat-Light'" font-size="13.992">CAUTION: HEATED BED.  DO NOT TOUCH!</text>
<g>
	<text transform="matrix(1 0 0 1 -5257.3672 1273.2622)" fill="#FFFFFF" font-family="'Montserrat-SemiBold'" font-size="8.162">200</text>
	<text transform="matrix(1 0 0 1 -5257.3672 1341.5952)" fill="#FFFFFF" font-family="'Montserrat-UltraLight'" font-size="6.996">175</text>
	<g>
		<g>
			<g>
				<g>
					
						<rect x="-5261.701" y="1687.668" fill="none" stroke="#A7A9AC" stroke-width="3" stroke-miterlimit="10" width="141.732" height="141.732"/>
					
						<rect x="-5120.034" y="1687.668" fill="none" stroke="#A7A9AC" stroke-width="3" stroke-miterlimit="10" width="141.732" height="141.732"/>
					
						<rect x="-4978.366" y="1687.668" fill="none" stroke="#A7A9AC" stroke-width="3" stroke-miterlimit="10" width="141.732" height="141.732"/>
					
						<rect x="-4836.699" y="1687.668" fill="none" stroke="#A7A9AC" stroke-width="3" stroke-miterlimit="10" width="141.732" height="141.732"/>
					
						<rect x="-4695.032" y="1687.668" fill="none" stroke="#A7A9AC" stroke-width="3" stroke-miterlimit="10" width="141.732" height="141.732"/>
				</g>
				
					<rect x="-5261.701" y="1545.86" fill="none" stroke="#A7A9AC" stroke-width="3" stroke-miterlimit="10" width="141.732" height="141.732"/>
				
					<rect x="-5120.034" y="1545.86" fill="none" stroke="#A7A9AC" stroke-width="3" stroke-miterlimit="10" width="141.732" height="141.732"/>
				
					<rect x="-4978.366" y="1545.86" fill="none" stroke="#A7A9AC" stroke-width="3" stroke-miterlimit="10" width="141.732" height="141.732"/>
				
					<rect x="-4836.699" y="1545.86" fill="none" stroke="#A7A9AC" stroke-width="3" stroke-miterlimit="10" width="141.732" height="141.732"/>
				
					<rect x="-4695.032" y="1545.86" fill="none" stroke="#A7A9AC" stroke-width="3" stroke-miterlimit="10" width="141.732" height="141.732"/>
				
					<rect x="-5261.701" y="1404.194" fill="none" stroke="#A7A9AC" stroke-width="3" stroke-miterlimit="10" width="141.732" height="141.73"/>
				
					<rect x="-5120.034" y="1404.194" fill="none" stroke="#A7A9AC" stroke-width="3" stroke-miterlimit="10" width="141.732" height="141.73"/>
				
					<rect x="-4978.366" y="1404.194" fill="none" stroke="#A7A9AC" stroke-width="3" stroke-miterlimit="10" width="141.732" height="141.73"/>
				
					<rect x="-4836.699" y="1404.194" fill="none" stroke="#A7A9AC" stroke-width="3" stroke-miterlimit="10" width="141.732" height="141.73"/>
				
					<rect x="-4695.032" y="1404.194" fill="none" stroke="#A7A9AC" stroke-width="3" stroke-miterlimit="10" width="141.732" height="141.73"/>
				
					<rect x="-5261.701" y="1262.525" fill="none" stroke="#A7A9AC" stroke-width="3" stroke-miterlimit="10" width="141.732" height="141.733"/>
				
					<rect x="-5120.034" y="1262.525" fill="none" stroke="#A7A9AC" stroke-width="3" stroke-miterlimit="10" width="141.732" height="141.733"/>
				
					<rect x="-4978.366" y="1262.525" fill="none" stroke="#A7A9AC" stroke-width="3" stroke-miterlimit="10" width="141.732" height="141.733"/>
				
					<rect x="-4836.699" y="1262.525" fill="none" stroke="#A7A9AC" stroke-width="3" stroke-miterlimit="10" width="141.732" height="141.733"/>
				
					<rect x="-4695.032" y="1262.525" fill="none" stroke="#A7A9AC" stroke-width="3" stroke-miterlimit="10" width="141.732" height="141.733"/>
			</g>
			
				<rect x="-5261.701" y="1262.525" fill="none" stroke="#A7A9AC" stroke-width="0.25" stroke-miterlimit="10" width="70.866" height="566.976"/>
			
				<rect x="-5261.701" y="1262.525" fill="none" stroke="#A7A9AC" stroke-width="0.25" stroke-miterlimit="10" width="708.564" height="70.867"/>
			
				<rect x="-5261.701" y="1403.86" fill="none" stroke="#A7A9AC" stroke-width="0.25" stroke-miterlimit="10" width="708.564" height="70.865"/>
			
				<rect x="-5261.701" y="1545.192" fill="none" stroke="#A7A9AC" stroke-width="0.25" stroke-miterlimit="10" width="708.564" height="70.867"/>
			
				<rect x="-5261.701" y="1686.526" fill="none" stroke="#A7A9AC" stroke-width="0.25" stroke-miterlimit="10" width="708.564" height="70.865"/>
			
				<rect x="-4624.165" y="1262.525" fill="none" stroke="#A7A9AC" stroke-width="0.25" stroke-miterlimit="10" width="70.866" height="566.976"/>
			
				<rect x="-4765.833" y="1262.525" fill="none" stroke="#A7A9AC" stroke-width="0.25" stroke-miterlimit="10" width="70.866" height="566.976"/>
			
				<rect x="-4907.5" y="1262.525" fill="none" stroke="#A7A9AC" stroke-width="0.25" stroke-miterlimit="10" width="70.867" height="566.976"/>
			
				<rect x="-5049.167" y="1262.525" fill="none" stroke="#A7A9AC" stroke-width="0.25" stroke-miterlimit="10" width="70.866" height="566.976"/>
			<polygon fill="#414042" points="-5016.5,1580 -4998.5,1487 -4997.5,1484 -4917,1486 -4913.5,1473.5 -4895.5,1475 -4894,1485.5 
				-4814.5,1484.5 -4827,1559.5 -4989.5,1559 -4994.5,1577.5 			"/>
			<path fill="#414042" d="M-4750.078,1500.075c-3.109,0-6.201,0.646-9.027,1.887h-9.502l-2.504-20.686
				c-1.162-8.963-7.847-15.906-16.617-17.576l0.159-0.898h-82.202l1.463-8.314h-62.093l-1.463,8.314h-82.209l-24.443,137.854h62.03
				l3.803-20.895h164.542l3.565-20.271c0.396-0.062,0.789-0.139,1.18-0.225l0.25,2.832l0.053,0.389
				c1.313,9.734,9.442,17.229,19.392,17.826l0.558,0.027h0.478c9.025,0,16.884-5.742,19.619-14.309l8.215-21.463
				c1.556,0.334,3.152,0.508,4.754,0.508c12.407,0,22.501-10.094,22.501-22.496
				C-4727.577,1510.168-4737.67,1500.075-4750.078,1500.075z"/>
			<g>
				<path fill="#FFFFFF" d="M-4751.171,1517.083c-1.474,0-2.866,0.59-3.918,1.66l-0.224,0.227h-14.611
					c-1.668,0-3.108,1.133-3.5,2.756l-8.175,23.475l-7.471-61.736c-0.223-1.721-1.601-2.975-3.429-3.121h-0.007
					c-1.767-0.082-3.284,1.105-3.652,2.842l-14.825,52.512l-7.755-0.09l9.812-55.795h-41.108h-5.845h-35.248l1.463-8.314h-27.555
					l-1.463,8.314h-35.279h-5.845h-41.104l-18.411,103.838h27.55l3.803-20.896h13.577h5.844h35.264h5.845h15.864h5.846h35.264h5.845
					h41.108l3.516-19.992c3.573-0.01,10.014-0.023,11.234-0.023h0.014c1.621-0.086,2.985-1.25,3.319-2.838l12.624-41.76l5.473,62.07
					c0.233,1.73,1.668,3.012,3.492,3.121h0.081c1.671,0,3.107-1.133,3.495-2.754l13.174-34.416h11.779l0.223,0.234
					c1.039,1.078,2.431,1.672,3.917,1.672c3.029,0,5.493-2.461,5.493-5.488C-4745.679,1519.547-4748.143,1517.083-4751.171,1517.083
					z M-4975.265,1554.637h-19.407l-3.803,20.896h-11.268l15.545-87.609h30.664L-4975.265,1554.637z M-4934.124,1554.637h-30.645
					l11.741-66.713h11.27l-9.754,55.43h8.106l9.754-55.43h11.269L-4934.124,1554.637z M-4912.416,1554.637h-11.271l13.22-75.027
					h11.272L-4912.416,1554.637z M-4880.926,1499.209l-2.892,16.43h19.375l-6.863,38.998h-30.651l3.365-19.6h11.359l-1.462,8.316
					h8.104l2.892-16.434h-19.465l6.953-38.998h30.654l-3.366,19.602h-11.284l1.37-8.314H-4880.926L-4880.926,1499.209z
					 M-4828.212,1543.354l-1.985,11.283h-30.645l11.74-66.713h30.645l-8.327,47.312h-19.262l-1.566,8.115h19.4V1543.354z
					 M-4751.169,1524.838c-1.244,0-2.256-1.014-2.256-2.26s1.013-2.258,2.256-2.258c1.247,0,2.26,1.012,2.26,2.258
					S-4749.923,1524.838-4751.169,1524.838z"/>
				<polygon fill="#FFFFFF" points="-4992.693,1543.354 -4984.548,1543.354 -4976.777,1499.209 -4984.924,1499.209 				"/>
				<polygon fill="#FFFFFF" points="-4831.721,1499.209 -4839.817,1499.209 -4844.171,1523.954 -4835.97,1523.954 				"/>
			</g>
		</g>
		<text transform="matrix(1 0 0 1 -5125.3823 1840.9312)" fill="#FFFFFF" font-family="'Montserrat-SemiBold'" font-size="8.162">50</text>
		<text transform="matrix(1 0 0 1 -5261.7012 1840.9312)" fill="#FFFFFF" font-family="'Montserrat-SemiBold'" font-size="8.162">0</text>
		<text transform="matrix(1 0 0 1 -5257.3672 1699.2642)" fill="#FFFFFF" font-family="'Montserrat-SemiBold'" font-size="8.162">50</text>
		<text transform="matrix(1 0 0 1 -5257.3672 1556.5972)" fill="#FFFFFF" font-family="'Montserrat-SemiBold'" font-size="8.162">100</text>
		<text transform="matrix(1 0 0 1 -5257.3672 1414.9292)" fill="#FFFFFF" font-family="'Montserrat-SemiBold'" font-size="8.162">150</text>
		<text transform="matrix(1 0 0 1 -5194.7007 1841.5972)" fill="#FFFFFF" font-family="'Montserrat-UltraLight'" font-size="6.996">25</text>
		<text transform="matrix(1 0 0 1 -5257.3672 1766.0972)" fill="#FFFFFF" font-family="'Montserrat-UltraLight'" font-size="6.996">25</text>
		<text transform="matrix(1 0 0 1 -5257.3672 1624.5962)" fill="#FFFFFF" font-family="'Montserrat-UltraLight'" font-size="6.996">75</text>
		<text transform="matrix(1 0 0 1 -5257.3672 1483.0962)" fill="#FFFFFF" font-family="'Montserrat-UltraLight'" font-size="6.996">125</text>
		<text transform="matrix(1 0 0 1 -5053.0327 1841.5972)" fill="#FFFFFF" font-family="'Montserrat-UltraLight'" font-size="6.996">75</text>
		<text transform="matrix(1 0 0 1 -4912.3662 1841.5972)" fill="#FFFFFF" font-family="'Montserrat-UltraLight'" font-size="6.996">125</text>
		<text transform="matrix(1 0 0 1 -4770.7002 1841.5972)" fill="#FFFFFF" font-family="'Montserrat-UltraLight'" font-size="6.996">175</text>
		<text transform="matrix(1 0 0 1 -4630.0332 1841.5972)" fill="#FFFFFF" font-family="'Montserrat-UltraLight'" font-size="6.996">225</text>
		<text transform="matrix(1 0 0 1 -4985.8823 1840.9312)" fill="#FFFFFF" font-family="'Montserrat-SemiBold'" font-size="8.162">100</text>
		<text transform="matrix(1 0 0 1 -4843.3818 1840.9312)" fill="#FFFFFF" font-family="'Montserrat-SemiBold'" font-size="8.162">150</text>
		<text transform="matrix(1 0 0 1 -4702.8813 1840.9312)" fill="#FFFFFF" font-family="'Montserrat-SemiBold'" font-size="8.162">200</text>
		<text transform="matrix(1 0 0 1 -4568.2344 1840.9312)" fill="#FFFFFF" font-family="'Montserrat-SemiBold'" font-size="8.162">250</text>
	</g>
</g>
<text transform="matrix(1 0 0 1 -4677.7407 1252.3911)" fill="#BCBEC0" font-family="'Montserrat-Light'" font-size="5.83">pulse by</text>
</svg>
