<svg xmlns="http://www.w3.org/2000/svg" version="1.1" xmlns:xlink="http://www.w3.org/1999/xlink" stroke-linecap="round" stroke-linejoin="round" stroke-width="0" fill-rule="evenodd" width="10in" height="9.8189in" viewBox="433.04 380.67 10000 9818.9" id="Heatbed-MK24"><defs><rect x="-3.935" y="-3.935" width="7.87" height="7.87" id="Heatbed-MK24_pad-17"/></defs><g transform="translate(0,10580.24) scale(1,-1)" fill="currentColor" stroke="currentColor"><path d="M 433.04 538.15 590.52 380.67 10275.56 380.67 10433.04 538.15 10433.04 9475.16 10275.56 9632.64 1771.62 9632.64 1732.25 9672.01 1732.25 10160.2 1692.88 10199.57 629.89 10199.57 590.52 10160.2 590.52 9632.64 433.04 9475.16 433.04 538.15 M 1259.81 774.37 1259.85 777.27 1259.95 780.17 1260.13 783.06 1260.38 785.95 1260.7 788.83 1261.09 791.7 1261.55 794.56 1262.08 797.41 1262.68 800.25 1263.35 803.07 1264.09 805.87 1264.9 808.66 1265.77 811.42 1266.71 814.16 1267.72 816.88 1268.8 819.57 1269.94 822.23 1271.15 824.87 1272.42 827.47 1273.76 830.05 1275.15 832.59 1276.61 835.09 1278.13 837.56 1279.72 839.99 1281.36 842.38 1283.05 844.73 1284.81 847.04 1286.62 849.3 1288.49 851.52 1290.41 853.69 1292.38 855.81 1294.4 857.89 1296.48 859.91 1298.6 861.88 1300.77 863.8 1302.99 865.67 1305.25 867.48 1307.56 869.24 1309.91 870.93 1312.3 872.57 1314.73 874.16 1317.2 875.68 1319.7 877.14 1322.24 878.53 1324.82 879.87 1327.42 881.14 1330.06 882.35 1332.72 883.49 1335.41 884.57 1338.13 885.58 1340.87 886.52 1343.63 887.39 1346.42 888.2 1349.22 888.94 1352.04 889.61 1354.88 890.21 1357.73 890.74 1360.59 891.2 1363.46 891.59 1366.34 891.91 1369.23 892.16 1372.12 892.34 1375.02 892.44 1377.92 892.48 1380.82 892.44 1383.72 892.34 1386.61 892.16 1389.5 891.91 1392.38 891.59 1395.25 891.2 1398.11 890.74 1400.96 890.21 1403.8 889.61 1406.62 888.94 1409.42 888.2 1412.21 887.39 1414.97 886.52 1417.71 885.58 1420.43 884.57 1423.12 883.49 1425.78 882.35 1428.42 881.14 1431.02 879.87 1433.6 878.53 1436.14 877.14 1438.64 875.68 1441.11 874.16 1443.54 872.57 1445.93 870.93 1448.28 869.24 1450.59 867.48 1452.85 865.67 1455.07 863.8 1457.24 861.88 1459.36 859.91 1461.44 857.89 1463.46 855.81 1465.43 853.69 1467.35 851.52 1469.22 849.3 1471.03 847.04 1472.79 844.73 1474.48 842.38 1476.12 839.99 1477.71 837.56 1479.23 835.09 1480.69 832.59 1482.08 830.05 1483.42 827.47 1484.69 824.87 1485.9 822.23 1487.04 819.57 1488.12 816.88 1489.13 814.16 1490.07 811.42 1490.94 808.66 1491.75 805.87 1492.49 803.07 1493.16 800.25 1493.76 797.41 1494.29 794.56 1494.75 791.7 1495.14 788.83 1495.46 785.95 1495.71 783.06 1495.89 780.17 1495.99 777.27 1496.03 774.37 1495.99 771.47 1495.89 768.57 1495.71 765.68 1495.46 762.79 1495.14 759.91 1494.75 757.04 1494.29 754.18 1493.76 751.33 1493.16 748.49 1492.49 745.67 1491.75 742.87 1490.94 740.08 1490.07 737.32 1489.13 734.58 1488.12 731.86 1487.04 729.17 1485.9 726.51 1484.69 723.87 1483.42 721.27 1482.08 718.69 1480.69 716.15 1479.23 713.65 1477.71 711.18 1476.12 708.75 1474.48 706.36 1472.79 704.01 1471.03 701.7 1469.22 699.44 1467.35 697.22 1465.43 695.05 1463.46 692.93 1461.44 690.85 1459.36 688.83 1457.24 686.86 1455.07 684.94 1452.85 683.07 1450.59 681.26 1448.28 679.5 1445.93 677.81 1443.54 676.17 1441.11 674.58 1438.64 673.06 1436.14 671.6 1433.6 670.21 1431.02 668.87 1428.42 667.6 1425.78 666.39 1423.12 665.25 1420.43 664.17 1417.71 663.16 1414.97 662.22 1412.21 661.35 1409.42 660.54 1406.62 659.8 1403.8 659.13 1400.96 658.53 1398.11 658 1395.25 657.54 1392.38 657.15 1389.5 656.83 1386.61 656.58 1383.72 656.4 1380.82 656.3 1377.92 656.26 1375.02 656.3 1372.12 656.4 1369.23 656.58 1366.34 656.83 1363.46 657.15 1360.59 657.54 1357.73 658 1354.88 658.53 1352.04 659.13 1349.22 659.8 1346.42 660.54 1343.63 661.35 1340.87 662.22 1338.13 663.16 1335.41 664.17 1332.72 665.25 1330.06 666.39 1327.42 667.6 1324.82 668.87 1322.24 670.21 1319.7 671.6 1317.2 673.06 1314.73 674.58 1312.3 676.17 1309.91 677.81 1307.56 679.5 1305.25 681.26 1302.99 683.07 1300.77 684.94 1298.6 686.86 1296.48 688.83 1294.4 690.85 1292.38 692.93 1290.41 695.05 1288.49 697.22 1286.62 699.44 1284.81 701.7 1283.05 704.01 1281.36 706.36 1279.72 708.75 1278.13 711.18 1276.61 713.65 1275.15 716.15 1273.76 718.69 1272.42 721.27 1271.15 723.87 1269.94 726.51 1268.8 729.17 1267.72 731.86 1266.71 734.58 1265.77 737.32 1264.9 740.08 1264.09 742.87 1263.35 745.67 1262.68 748.49 1262.08 751.33 1261.55 754.18 1261.09 757.04 1260.7 759.91 1260.38 762.79 1260.13 765.68 1259.95 768.57 1259.85 771.47 1259.81 774.37 M 1314.93 774.37 1314.95 775.95 1315.01 777.53 1315.11 779.11 1315.25 780.69 1315.43 782.26 1315.64 783.83 1315.9 785.39 1316.2 786.95 1316.53 788.5 1316.91 790.03 1317.32 791.56 1317.77 793.08 1318.26 794.59 1318.79 796.08 1319.35 797.56 1319.95 799.02 1320.59 800.47 1321.27 801.9 1321.98 803.32 1322.72 804.72 1323.5 806.09 1324.32 807.45 1325.16 808.79 1326.05 810.1 1326.96 811.39 1327.91 812.66 1328.88 813.91 1329.89 815.13 1330.93 816.32 1332 817.49 1333.1 818.63 1334.23 819.74 1335.38 820.83 1336.56 821.88 1337.77 822.9 1339 823.9 1340.26 824.86 1341.54 825.79 1342.84 826.69 1344.17 827.55 1345.52 828.39 1346.88 829.18 1348.27 829.95 1349.68 830.67 1351.1 831.37 1352.54 832.02 1354 832.64 1355.47 833.22 1356.96 833.77 1358.46 834.28 1359.97 834.75 1361.49 835.18 1363.02 835.57 1364.57 835.93 1366.12 836.24 1367.68 836.52 1369.24 836.76 1370.81 836.96 1372.39 837.12 1373.96 837.24 1375.55 837.32 1377.13 837.36 1378.71 837.36 1380.29 837.32 1381.88 837.24 1383.45 837.12 1385.03 836.96 1386.6 836.76 1388.16 836.52 1389.72 836.24 1391.27 835.93 1392.82 835.57 1394.35 835.18 1395.87 834.75 1397.38 834.28 1398.88 833.77 1400.37 833.22 1401.84 832.64 1403.3 832.02 1404.74 831.37 1406.16 830.67 1407.57 829.95 1408.96 829.18 1410.32 828.39 1411.67 827.55 1413 826.69 1414.3 825.79 1415.58 824.86 1416.84 823.9 1418.07 822.9 1419.28 821.88 1420.46 820.83 1421.61 819.74 1422.74 818.63 1423.84 817.49 1424.91 816.32 1425.95 815.13 1426.96 813.91 1427.93 812.66 1428.88 811.39 1429.79 810.1 1430.68 808.79 1431.52 807.45 1432.34 806.09 1433.12 804.72 1433.86 803.32 1434.57 801.9 1435.25 800.47 1435.89 799.02 1436.49 797.56 1437.05 796.08 1437.58 794.59 1438.07 793.08 1438.52 791.56 1438.93 790.03 1439.31 788.5 1439.64 786.95 1439.94 785.39 1440.2 783.83 1440.41 782.26 1440.59 780.69 1440.73 779.11 1440.83 777.53 1440.89 775.95 1440.91 774.37 1440.89 772.79 1440.83 771.21 1440.73 769.63 1440.59 768.05 1440.41 766.48 1440.2 764.91 1439.94 763.35 1439.64 761.79 1439.31 760.24 1438.93 758.71 1438.52 757.18 1438.07 755.66 1437.58 754.15 1437.05 752.66 1436.49 751.18 1435.89 749.72 1435.25 748.27 1434.57 746.84 1433.86 745.42 1433.12 744.02 1432.34 742.65 1431.52 741.29 1430.68 739.95 1429.79 738.64 1428.88 737.35 1427.93 736.08 1426.96 734.83 1425.95 733.61 1424.91 732.42 1423.84 731.25 1422.74 730.11 1421.61 729 1420.46 727.91 1419.28 726.86 1418.07 725.84 1416.84 724.84 1415.58 723.88 1414.3 722.95 1413 722.05 1411.67 721.19 1410.32 720.35 1408.96 719.56 1407.57 718.79 1406.16 718.07 1404.74 717.37 1403.3 716.72 1401.84 716.1 1400.37 715.52 1398.88 714.97 1397.38 714.46 1395.87 713.99 1394.35 713.56 1392.82 713.17 1391.27 712.81 1389.72 712.5 1388.16 712.22 1386.6 711.98 1385.03 711.78 1383.45 711.62 1381.88 711.5 1380.29 711.42 1378.71 711.38 1377.13 711.38 1375.55 711.42 1373.96 711.5 1372.39 711.62 1370.81 711.78 1369.24 711.98 1367.68 712.22 1366.12 712.5 1364.57 712.81 1363.02 713.17 1361.49 713.56 1359.97 713.99 1358.46 714.46 1356.96 714.97 1355.47 715.52 1354 716.1 1352.54 716.72 1351.1 717.37 1349.68 718.07 1348.27 718.79 1346.88 719.56 1345.52 720.35 1344.17 721.19 1342.84 722.05 1341.54 722.95 1340.26 723.88 1339 724.84 1337.77 725.84 1336.56 726.86 1335.38 727.91 1334.23 729 1333.1 730.11 1332 731.25 1330.93 732.42 1329.89 733.61 1328.88 734.83 1327.91 736.08 1326.96 737.35 1326.05 738.64 1325.16 739.95 1324.32 741.29 1323.5 742.65 1322.72 744.02 1321.98 745.42 1321.27 746.84 1320.59 748.27 1319.95 749.72 1319.35 751.18 1318.79 752.66 1318.26 754.15 1317.77 755.66 1317.32 757.18 1316.91 758.71 1316.53 760.24 1316.2 761.79 1315.9 763.35 1315.64 764.91 1315.43 766.48 1315.25 768.05 1315.11 769.63 1315.01 771.21 1314.95 772.79 1314.93 774.37 M 5373.98 4061.77 5374.02 4064.67 5374.12 4067.57 5374.3 4070.46 5374.55 4073.35 5374.87 4076.23 5375.26 4079.1 5375.72 4081.96 5376.25 4084.81 5376.85 4087.65 5377.52 4090.47 5378.26 4093.27 5379.07 4096.06 5379.94 4098.82 5380.88 4101.56 5381.89 4104.28 5382.97 4106.97 5384.11 4109.63 5385.32 4112.27 5386.59 4114.87 5387.93 4117.45 5389.32 4119.99 5390.78 4122.49 5392.3 4124.96 5393.89 4127.39 5395.53 4129.78 5397.22 4132.13 5398.98 4134.44 5400.79 4136.7 5402.66 4138.92 5404.58 4141.09 5406.55 4143.21 5408.57 4145.29 5410.65 4147.31 5412.77 4149.28 5414.94 4151.2 5417.16 4153.07 5419.42 4154.88 5421.73 4156.64 5424.08 4158.33 5426.47 4159.97 5428.9 4161.56 5431.37 4163.08 5433.87 4164.54 5436.41 4165.93 5438.99 4167.27 5441.59 4168.54 5444.23 4169.75 5446.89 4170.89 5449.58 4171.97 5452.3 4172.98 5455.04 4173.92 5457.8 4174.79 5460.59 4175.6 5463.39 4176.34 5466.21 4177.01 5469.05 4177.61 5471.9 4178.14 5474.76 4178.6 5477.63 4178.99 5480.51 4179.31 5483.4 4179.56 5486.29 4179.74 5489.19 4179.84 5492.09 4179.88 5494.99 4179.84 5497.89 4179.74 5500.78 4179.56 5503.67 4179.31 5506.55 4178.99 5509.42 4178.6 5512.28 4178.14 5515.13 4177.61 5517.97 4177.01 5520.79 4176.34 5523.59 4175.6 5526.38 4174.79 5529.14 4173.92 5531.88 4172.98 5534.6 4171.97 5537.29 4170.89 5539.95 4169.75 5542.59 4168.54 5545.19 4167.27 5547.77 4165.93 5550.31 4164.54 5552.81 4163.08 5555.28 4161.56 5557.71 4159.97 5560.1 4158.33 5562.45 4156.64 5564.76 4154.88 5567.02 4153.07 5569.24 4151.2 5571.41 4149.28 5573.53 4147.31 5575.61 4145.29 5577.63 4143.21 5579.6 4141.09 5581.52 4138.92 5583.39 4136.7 5585.2 4134.44 5586.96 4132.13 5588.65 4129.78 5590.29 4127.39 5591.88 4124.96 5593.4 4122.49 5594.86 4119.99 5596.25 4117.45 5597.59 4114.87 5598.86 4112.27 5600.07 4109.63 5601.21 4106.97 5602.29 4104.28 5603.3 4101.56 5604.24 4098.82 5605.11 4096.06 5605.92 4093.27 5606.66 4090.47 5607.33 4087.65 5607.93 4084.81 5608.46 4081.96 5608.92 4079.1 5609.31 4076.23 5609.63 4073.35 5609.88 4070.46 5610.06 4067.57 5610.16 4064.67 5610.2 4061.77 5610.16 4058.87 5610.06 4055.97 5609.88 4053.08 5609.63 4050.19 5609.31 4047.31 5608.92 4044.44 5608.46 4041.58 5607.93 4038.73 5607.33 4035.89 5606.66 4033.07 5605.92 4030.27 5605.11 4027.48 5604.24 4024.72 5603.3 4021.98 5602.29 4019.26 5601.21 4016.57 5600.07 4013.91 5598.86 4011.27 5597.59 4008.67 5596.25 4006.09 5594.86 4003.55 5593.4 4001.05 5591.88 3998.58 5590.29 3996.15 5588.65 3993.76 5586.96 3991.41 5585.2 3989.1 5583.39 3986.84 5581.52 3984.62 5579.6 3982.45 5577.63 3980.33 5575.61 3978.25 5573.53 3976.23 5571.41 3974.26 5569.24 3972.34 5567.02 3970.47 5564.76 3968.66 5562.45 3966.9 5560.1 3965.21 5557.71 3963.57 5555.28 3961.98 5552.81 3960.46 5550.31 3959 5547.77 3957.61 5545.19 3956.27 5542.59 3955 5539.95 3953.79 5537.29 3952.65 5534.6 3951.57 5531.88 3950.56 5529.14 3949.62 5526.38 3948.75 5523.59 3947.94 5520.79 3947.2 5517.97 3946.53 5515.13 3945.93 5512.28 3945.4 5509.42 3944.94 5506.55 3944.55 5503.67 3944.23 5500.78 3943.98 5497.89 3943.8 5494.99 3943.7 5492.09 3943.66 5489.19 3943.7 5486.29 3943.8 5483.4 3943.98 5480.51 3944.23 5477.63 3944.55 5474.76 3944.94 5471.9 3945.4 5469.05 3945.93 5466.21 3946.53 5463.39 3947.2 5460.59 3947.94 5457.8 3948.75 5455.04 3949.62 5452.3 3950.56 5449.58 3951.57 5446.89 3952.65 5444.23 3953.79 5441.59 3955 5438.99 3956.27 5436.41 3957.61 5433.87 3959 5431.37 3960.46 5428.9 3961.98 5426.47 3963.57 5424.08 3965.21 5421.73 3966.9 5419.42 3968.66 5417.16 3970.47 5414.94 3972.34 5412.77 3974.26 5410.65 3976.23 5408.57 3978.25 5406.55 3980.33 5404.58 3982.45 5402.66 3984.62 5400.79 3986.84 5398.98 3989.1 5397.22 3991.41 5395.53 3993.76 5393.89 3996.15 5392.3 3998.58 5390.78 4001.05 5389.32 4003.55 5387.93 4006.09 5386.59 4008.67 5385.32 4011.27 5384.11 4013.91 5382.97 4016.57 5381.89 4019.26 5380.88 4021.98 5379.94 4024.72 5379.07 4027.48 5378.26 4030.27 5377.52 4033.07 5376.85 4035.89 5376.25 4038.73 5375.72 4041.58 5375.26 4044.44 5374.87 4047.31 5374.55 4050.19 5374.3 4053.08 5374.12 4055.97 5374.02 4058.87 5373.98 4061.77 M 5373.98 5675.94 5374.02 5678.84 5374.12 5681.74 5374.3 5684.63 5374.55 5687.52 5374.87 5690.4 5375.26 5693.27 5375.72 5696.13 5376.25 5698.98 5376.85 5701.82 5377.52 5704.64 5378.26 5707.44 5379.07 5710.23 5379.94 5712.99 5380.88 5715.73 5381.89 5718.45 5382.97 5721.14 5384.11 5723.8 5385.32 5726.44 5386.59 5729.04 5387.93 5731.62 5389.32 5734.16 5390.78 5736.66 5392.3 5739.13 5393.89 5741.56 5395.53 5743.95 5397.22 5746.3 5398.98 5748.61 5400.79 5750.87 5402.66 5753.09 5404.58 5755.26 5406.55 5757.38 5408.57 5759.46 5410.65 5761.48 5412.77 5763.45 5414.94 5765.37 5417.16 5767.24 5419.42 5769.05 5421.73 5770.81 5424.08 5772.5 5426.47 5774.14 5428.9 5775.73 5431.37 5777.25 5433.87 5778.71 5436.41 5780.1 5438.99 5781.44 5441.59 5782.71 5444.23 5783.92 5446.89 5785.06 5449.58 5786.14 5452.3 5787.15 5455.04 5788.09 5457.8 5788.96 5460.59 5789.77 5463.39 5790.51 5466.21 5791.18 5469.05 5791.78 5471.9 5792.31 5474.76 5792.77 5477.63 5793.16 5480.51 5793.48 5483.4 5793.73 5486.29 5793.91 5489.19 5794.01 5492.09 5794.05 5494.99 5794.01 5497.89 5793.91 5500.78 5793.73 5503.67 5793.48 5506.55 5793.16 5509.42 5792.77 5512.28 5792.31 5515.13 5791.78 5517.97 5791.18 5520.79 5790.51 5523.59 5789.77 5526.38 5788.96 5529.14 5788.09 5531.88 5787.15 5534.6 5786.14 5537.29 5785.06 5539.95 5783.92 5542.59 5782.71 5545.19 5781.44 5547.77 5780.1 5550.31 5778.71 5552.81 5777.25 5555.28 5775.73 5557.71 5774.14 5560.1 5772.5 5562.45 5770.81 5564.76 5769.05 5567.02 5767.24 5569.24 5765.37 5571.41 5763.45 5573.53 5761.48 5575.61 5759.46 5577.63 5757.38 5579.6 5755.26 5581.52 5753.09 5583.39 5750.87 5585.2 5748.61 5586.96 5746.3 5588.65 5743.95 5590.29 5741.56 5591.88 5739.13 5593.4 5736.66 5594.86 5734.16 5596.25 5731.62 5597.59 5729.04 5598.86 5726.44 5600.07 5723.8 5601.21 5721.14 5602.29 5718.45 5603.3 5715.73 5604.24 5712.99 5605.11 5710.23 5605.92 5707.44 5606.66 5704.64 5607.33 5701.82 5607.93 5698.98 5608.46 5696.13 5608.92 5693.27 5609.31 5690.4 5609.63 5687.52 5609.88 5684.63 5610.06 5681.74 5610.16 5678.84 5610.2 5675.94 5610.16 5673.04 5610.06 5670.14 5609.88 5667.25 5609.63 5664.36 5609.31 5661.48 5608.92 5658.61 5608.46 5655.75 5607.93 5652.9 5607.33 5650.06 5606.66 5647.24 5605.92 5644.44 5605.11 5641.65 5604.24 5638.89 5603.3 5636.15 5602.29 5633.43 5601.21 5630.74 5600.07 5628.08 5598.86 5625.44 5597.59 5622.84 5596.25 5620.26 5594.86 5617.72 5593.4 5615.22 5591.88 5612.75 5590.29 5610.32 5588.65 5607.93 5586.96 5605.58 5585.2 5603.27 5583.39 5601.01 5581.52 5598.79 5579.6 5596.62 5577.63 5594.5 5575.61 5592.42 5573.53 5590.4 5571.41 5588.43 5569.24 5586.51 5567.02 5584.64 5564.76 5582.83 5562.45 5581.07 5560.1 5579.38 5557.71 5577.74 5555.28 5576.15 5552.81 5574.63 5550.31 5573.17 5547.77 5571.78 5545.19 5570.44 5542.59 5569.17 5539.95 5567.96 5537.29 5566.82 5534.6 5565.74 5531.88 5564.73 5529.14 5563.79 5526.38 5562.92 5523.59 5562.11 5520.79 5561.37 5517.97 5560.7 5515.13 5560.1 5512.28 5559.57 5509.42 5559.11 5506.55 5558.72 5503.67 5558.4 5500.78 5558.15 5497.89 5557.97 5494.99 5557.87 5492.09 5557.83 5489.19 5557.87 5486.29 5557.97 5483.4 5558.15 5480.51 5558.4 5477.63 5558.72 5474.76 5559.11 5471.9 5559.57 5469.05 5560.1 5466.21 5560.7 5463.39 5561.37 5460.59 5562.11 5457.8 5562.92 5455.04 5563.79 5452.3 5564.73 5449.58 5565.74 5446.89 5566.82 5444.23 5567.96 5441.59 5569.17 5438.99 5570.44 5436.41 5571.78 5433.87 5573.17 5431.37 5574.63 5428.9 5576.15 5426.47 5577.74 5424.08 5579.38 5421.73 5581.07 5419.42 5582.83 5417.16 5584.64 5414.94 5586.51 5412.77 5588.43 5410.65 5590.4 5408.57 5592.42 5406.55 5594.5 5404.58 5596.62 5402.66 5598.79 5400.79 5601.01 5398.98 5603.27 5397.22 5605.58 5395.53 5607.93 5393.89 5610.32 5392.3 5612.75 5390.78 5615.22 5389.32 5617.72 5387.93 5620.26 5386.59 5622.84 5385.32 5625.44 5384.11 5628.08 5382.97 5630.74 5381.89 5633.43 5380.88 5636.15 5379.94 5638.89 5379.07 5641.65 5378.26 5644.44 5377.52 5647.24 5376.85 5650.06 5376.25 5652.9 5375.72 5655.75 5375.26 5658.61 5374.87 5661.48 5374.55 5664.36 5374.3 5667.25 5374.12 5670.14 5374.02 5673.04 5373.98 5675.94 M 1259.81 9002.72 1259.85 9005.62 1259.95 9008.52 1260.13 9011.41 1260.38 9014.3 1260.7 9017.18 1261.09 9020.05 1261.55 9022.91 1262.08 9025.76 1262.68 9028.6 1263.35 9031.42 1264.09 9034.22 1264.9 9037.01 1265.77 9039.77 1266.71 9042.51 1267.72 9045.23 1268.8 9047.92 1269.94 9050.58 1271.15 9053.22 1272.42 9055.82 1273.76 9058.4 1275.15 9060.94 1276.61 9063.44 1278.13 9065.91 1279.72 9068.34 1281.36 9070.73 1283.05 9073.08 1284.81 9075.39 1286.62 9077.65 1288.49 9079.87 1290.41 9082.04 1292.38 9084.16 1294.4 9086.24 1296.48 9088.26 1298.6 9090.23 1300.77 9092.15 1302.99 9094.02 1305.25 9095.83 1307.56 9097.59 1309.91 9099.28 1312.3 9100.92 1314.73 9102.51 1317.2 9104.03 1319.7 9105.49 1322.24 9106.88 1324.82 9108.22 1327.42 9109.49 1330.06 9110.7 1332.72 9111.84 1335.41 9112.92 1338.13 9113.93 1340.87 9114.87 1343.63 9115.74 1346.42 9116.55 1349.22 9117.29 1352.04 9117.96 1354.88 9118.56 1357.73 9119.09 1360.59 9119.55 1363.46 9119.94 1366.34 9120.26 1369.23 9120.51 1372.12 9120.69 1375.02 9120.79 1377.92 9120.83 1380.82 9120.79 1383.72 9120.69 1386.61 9120.51 1389.5 9120.26 1392.38 9119.94 1395.25 9119.55 1398.11 9119.09 1400.96 9118.56 1403.8 9117.96 1406.62 9117.29 1409.42 9116.55 1412.21 9115.74 1414.97 9114.87 1417.71 9113.93 1420.43 9112.92 1423.12 9111.84 1425.78 9110.7 1428.42 9109.49 1431.02 9108.22 1433.6 9106.88 1436.14 9105.49 1438.64 9104.03 1441.11 9102.51 1443.54 9100.92 1445.93 9099.28 1448.28 9097.59 1450.59 9095.83 1452.85 9094.02 1455.07 9092.15 1457.24 9090.23 1459.36 9088.26 1461.44 9086.24 1463.46 9084.16 1465.43 9082.04 1467.35 9079.87 1469.22 9077.65 1471.03 9075.39 1472.79 9073.08 1474.48 9070.73 1476.12 9068.34 1477.71 9065.91 1479.23 9063.44 1480.69 9060.94 1482.08 9058.4 1483.42 9055.82 1484.69 9053.22 1485.9 9050.58 1487.04 9047.92 1488.12 9045.23 1489.13 9042.51 1490.07 9039.77 1490.94 9037.01 1491.75 9034.22 1492.49 9031.42 1493.16 9028.6 1493.76 9025.76 1494.29 9022.91 1494.75 9020.05 1495.14 9017.18 1495.46 9014.3 1495.71 9011.41 1495.89 9008.52 1495.99 9005.62 1496.03 9002.72 1495.99 8999.82 1495.89 8996.92 1495.71 8994.03 1495.46 8991.14 1495.14 8988.26 1494.75 8985.39 1494.29 8982.53 1493.76 8979.68 1493.16 8976.84 1492.49 8974.02 1491.75 8971.22 1490.94 8968.43 1490.07 8965.67 1489.13 8962.93 1488.12 8960.21 1487.04 8957.52 1485.9 8954.86 1484.69 8952.22 1483.42 8949.62 1482.08 8947.04 1480.69 8944.5 1479.23 8942 1477.71 8939.53 1476.12 8937.1 1474.48 8934.71 1472.79 8932.36 1471.03 8930.05 1469.22 8927.79 1467.35 8925.57 1465.43 8923.4 1463.46 8921.28 1461.44 8919.2 1459.36 8917.18 1457.24 8915.21 1455.07 8913.29 1452.85 8911.42 1450.59 8909.61 1448.28 8907.85 1445.93 8906.16 1443.54 8904.52 1441.11 8902.93 1438.64 8901.41 1436.14 8899.95 1433.6 8898.56 1431.02 8897.22 1428.42 8895.95 1425.78 8894.74 1423.12 8893.6 1420.43 8892.52 1417.71 8891.51 1414.97 8890.57 1412.21 8889.7 1409.42 8888.89 1406.62 8888.15 1403.8 8887.48 1400.96 8886.88 1398.11 8886.35 1395.25 8885.89 1392.38 8885.5 1389.5 8885.18 1386.61 8884.93 1383.72 8884.75 1380.82 8884.65 1377.92 8884.61 1375.02 8884.65 1372.12 8884.75 1369.23 8884.93 1366.34 8885.18 1363.46 8885.5 1360.59 8885.89 1357.73 8886.35 1354.88 8886.88 1352.04 8887.48 1349.22 8888.15 1346.42 8888.89 1343.63 8889.7 1340.87 8890.57 1338.13 8891.51 1335.41 8892.52 1332.72 8893.6 1330.06 8894.74 1327.42 8895.95 1324.82 8897.22 1322.24 8898.56 1319.7 8899.95 1317.2 8901.41 1314.73 8902.93 1312.3 8904.52 1309.91 8906.16 1307.56 8907.85 1305.25 8909.61 1302.99 8911.42 1300.77 8913.29 1298.6 8915.21 1296.48 8917.18 1294.4 8919.2 1292.38 8921.28 1290.41 8923.4 1288.49 8925.57 1286.62 8927.79 1284.81 8930.05 1283.05 8932.36 1281.36 8934.71 1279.72 8937.1 1278.13 8939.53 1276.61 8942 1275.15 8944.5 1273.76 8947.04 1272.42 8949.62 1271.15 8952.22 1269.94 8954.86 1268.8 8957.52 1267.72 8960.21 1266.71 8962.93 1265.77 8965.67 1264.9 8968.43 1264.09 8971.22 1263.35 8974.02 1262.68 8976.84 1262.08 8979.68 1261.55 8982.53 1261.09 8985.39 1260.7 8988.26 1260.38 8991.14 1260.13 8994.03 1259.95 8996.92 1259.85 8999.82 1259.81 9002.72 M 1314.93 9002.72 1314.95 9004.3 1315.01 9005.88 1315.11 9007.46 1315.25 9009.04 1315.43 9010.61 1315.64 9012.18 1315.9 9013.74 1316.2 9015.3 1316.53 9016.85 1316.91 9018.38 1317.32 9019.91 1317.77 9021.43 1318.26 9022.94 1318.79 9024.43 1319.35 9025.91 1319.95 9027.37 1320.59 9028.82 1321.27 9030.25 1321.98 9031.67 1322.72 9033.07 1323.5 9034.44 1324.32 9035.8 1325.16 9037.14 1326.05 9038.45 1326.96 9039.74 1327.91 9041.01 1328.88 9042.26 1329.89 9043.48 1330.93 9044.67 1332 9045.84 1333.1 9046.98 1334.23 9048.09 1335.38 9049.18 1336.56 9050.23 1337.77 9051.25 1339 9052.25 1340.26 9053.21 1341.54 9054.14 1342.84 9055.04 1344.17 9055.9 1345.52 9056.74 1346.88 9057.53 1348.27 9058.3 1349.68 9059.02 1351.1 9059.72 1352.54 9060.37 1354 9060.99 1355.47 9061.57 1356.96 9062.12 1358.46 9062.63 1359.97 9063.1 1361.49 9063.53 1363.02 9063.92 1364.57 9064.28 1366.12 9064.59 1367.68 9064.87 1369.24 9065.11 1370.81 9065.31 1372.39 9065.47 1373.96 9065.59 1375.55 9065.67 1377.13 9065.71 1378.71 9065.71 1380.29 9065.67 1381.88 9065.59 1383.45 9065.47 1385.03 9065.31 1386.6 9065.11 1388.16 9064.87 1389.72 9064.59 1391.27 9064.28 1392.82 9063.92 1394.35 9063.53 1395.87 9063.1 1397.38 9062.63 1398.88 9062.12 1400.37 9061.57 1401.84 9060.99 1403.3 9060.37 1404.74 9059.72 1406.16 9059.02 1407.57 9058.3 1408.96 9057.53 1410.32 9056.74 1411.67 9055.9 1413 9055.04 1414.3 9054.14 1415.58 9053.21 1416.84 9052.25 1418.07 9051.25 1419.28 9050.23 1420.46 9049.18 1421.61 9048.09 1422.74 9046.98 1423.84 9045.84 1424.91 9044.67 1425.95 9043.48 1426.96 9042.26 1427.93 9041.01 1428.88 9039.74 1429.79 9038.45 1430.68 9037.14 1431.52 9035.8 1432.34 9034.44 1433.12 9033.07 1433.86 9031.67 1434.57 9030.25 1435.25 9028.82 1435.89 9027.37 1436.49 9025.91 1437.05 9024.43 1437.58 9022.94 1438.07 9021.43 1438.52 9019.91 1438.93 9018.38 1439.31 9016.85 1439.64 9015.3 1439.94 9013.74 1440.2 9012.18 1440.41 9010.61 1440.59 9009.04 1440.73 9007.46 1440.83 9005.88 1440.89 9004.3 1440.91 9002.72 1440.89 9001.14 1440.83 8999.56 1440.73 8997.98 1440.59 8996.4 1440.41 8994.83 1440.2 8993.26 1439.94 8991.7 1439.64 8990.14 1439.31 8988.59 1438.93 8987.06 1438.52 8985.53 1438.07 8984.01 1437.58 8982.5 1437.05 8981.01 1436.49 8979.53 1435.89 8978.07 1435.25 8976.62 1434.57 8975.19 1433.86 8973.77 1433.12 8972.37 1432.34 8971 1431.52 8969.64 1430.68 8968.3 1429.79 8966.99 1428.88 8965.7 1427.93 8964.43 1426.96 8963.18 1425.95 8961.96 1424.91 8960.77 1423.84 8959.6 1422.74 8958.46 1421.61 8957.35 1420.46 8956.26 1419.28 8955.21 1418.07 8954.19 1416.84 8953.19 1415.58 8952.23 1414.3 8951.3 1413 8950.4 1411.67 8949.54 1410.32 8948.7 1408.96 8947.91 1407.57 8947.14 1406.16 8946.42 1404.74 8945.72 1403.3 8945.07 1401.84 8944.45 1400.37 8943.87 1398.88 8943.32 1397.38 8942.81 1395.87 8942.34 1394.35 8941.91 1392.82 8941.52 1391.27 8941.16 1389.72 8940.85 1388.16 8940.57 1386.6 8940.33 1385.03 8940.13 1383.45 8939.97 1381.88 8939.85 1380.29 8939.77 1378.71 8939.73 1377.13 8939.73 1375.55 8939.77 1373.96 8939.85 1372.39 8939.97 1370.81 8940.13 1369.24 8940.33 1367.68 8940.57 1366.12 8940.85 1364.57 8941.16 1363.02 8941.52 1361.49 8941.91 1359.97 8942.34 1358.46 8942.81 1356.96 8943.32 1355.47 8943.87 1354 8944.45 1352.54 8945.07 1351.1 8945.72 1349.68 8946.42 1348.27 8947.14 1346.88 8947.91 1345.52 8948.7 1344.17 8949.54 1342.84 8950.4 1341.54 8951.3 1340.26 8952.23 1339 8953.19 1337.77 8954.19 1336.56 8955.21 1335.38 8956.26 1334.23 8957.35 1333.1 8958.46 1332 8959.6 1330.93 8960.77 1329.89 8961.96 1328.88 8963.18 1327.91 8964.43 1326.96 8965.7 1326.05 8966.99 1325.16 8968.3 1324.32 8969.64 1323.5 8971 1322.72 8972.37 1321.98 8973.77 1321.27 8975.19 1320.59 8976.62 1319.95 8978.07 1319.35 8979.53 1318.79 8981.01 1318.26 8982.5 1317.77 8984.01 1317.32 8985.53 1316.91 8987.06 1316.53 8988.59 1316.2 8990.14 1315.9 8991.7 1315.64 8993.26 1315.43 8994.83 1315.25 8996.4 1315.11 8997.98 1315.01 8999.56 1314.95 9001.14 1314.93 9002.72 M 1098.39 9908.23 1098.41 9909.81 1098.47 9911.39 1098.57 9912.97 1098.71 9914.55 1098.89 9916.12 1099.1 9917.69 1099.36 9919.25 1099.66 9920.81 1099.99 9922.36 1100.37 9923.89 1100.78 9925.42 1101.23 9926.94 1101.72 9928.45 1102.25 9929.94 1102.81 9931.42 1103.41 9932.88 1104.05 9934.33 1104.73 9935.76 1105.44 9937.18 1106.18 9938.58 1106.96 9939.95 1107.78 9941.31 1108.62 9942.65 1109.51 9943.96 1110.42 9945.25 1111.37 9946.52 1112.34 9947.77 1113.35 9948.99 1114.39 9950.18 1115.46 9951.35 1116.56 9952.49 1117.69 9953.6 1118.84 9954.69 1120.02 9955.74 1121.23 9956.76 1122.46 9957.76 1123.72 9958.72 1125 9959.65 1126.3 9960.55 1127.63 9961.41 1128.98 9962.25 1130.34 9963.04 1131.73 9963.81 1133.14 9964.53 1134.56 9965.23 1136 9965.88 1137.46 9966.5 1138.93 9967.08 1140.42 9967.63 1141.92 9968.14 1143.43 9968.61 1144.95 9969.04 1146.48 9969.43 1148.03 9969.79 1149.58 9970.1 1151.14 9970.38 1152.7 9970.62 1154.27 9970.82 1155.85 9970.98 1157.42 9971.1 1159.01 9971.18 1160.59 9971.22 1162.17 9971.22 1163.75 9971.18 1165.34 9971.1 1166.91 9970.98 1168.49 9970.82 1170.06 9970.62 1171.62 9970.38 1173.18 9970.1 1174.73 9969.79 1176.28 9969.43 1177.81 9969.04 1179.33 9968.61 1180.84 9968.14 1182.34 9967.63 1183.83 9967.08 1185.3 9966.5 1186.76 9965.88 1188.2 9965.23 1189.62 9964.53 1191.03 9963.81 1192.42 9963.04 1193.78 9962.25 1195.13 9961.41 1196.46 9960.55 1197.76 9959.65 1199.04 9958.72 1200.3 9957.76 1201.53 9956.76 1202.74 9955.74 1203.92 9954.69 1205.07 9953.6 1206.2 9952.49 1207.3 9951.35 1208.37 9950.18 1209.41 9948.99 1210.42 9947.77 1211.39 9946.52 1212.34 9945.25 1213.25 9943.96 1214.14 9942.65 1214.98 9941.31 1215.8 9939.95 1216.58 9938.58 1217.32 9937.18 1218.03 9935.76 1218.71 9934.33 1219.35 9932.88 1219.95 9931.42 1220.51 9929.94 1221.04 9928.45 1221.53 9926.94 1221.98 9925.42 1222.39 9923.89 1222.77 9922.36 1223.1 9920.81 1223.4 9919.25 1223.66 9917.69 1223.87 9916.12 1224.05 9914.55 1224.19 9912.97 1224.29 9911.39 1224.35 9909.81 1224.37 9908.23 1224.35 9906.65 1224.29 9905.07 1224.19 9903.49 1224.05 9901.91 1223.87 9900.34 1223.66 9898.77 1223.4 9897.21 1223.1 9895.65 1222.77 9894.1 1222.39 9892.57 1221.98 9891.04 1221.53 9889.52 1221.04 9888.01 1220.51 9886.52 1219.95 9885.04 1219.35 9883.58 1218.71 9882.13 1218.03 9880.7 1217.32 9879.28 1216.58 9877.88 1215.8 9876.51 1214.98 9875.15 1214.14 9873.81 1213.25 9872.5 1212.34 9871.21 1211.39 9869.94 1210.42 9868.69 1209.41 9867.47 1208.37 9866.28 1207.3 9865.11 1206.2 9863.97 1205.07 9862.86 1203.92 9861.77 1202.74 9860.72 1201.53 9859.7 1200.3 9858.7 1199.04 9857.74 1197.76 9856.81 1196.46 9855.91 1195.13 9855.05 1193.78 9854.21 1192.42 9853.42 1191.03 9852.65 1189.62 9851.93 1188.2 9851.23 1186.76 9850.58 1185.3 9849.96 1183.83 9849.38 1182.34 9848.83 1180.84 9848.32 1179.33 9847.85 1177.81 9847.42 1176.28 9847.03 1174.73 9846.67 1173.18 9846.36 1171.62 9846.08 1170.06 9845.84 1168.49 9845.64 1166.91 9845.48 1165.34 9845.36 1163.75 9845.28 1162.17 9845.24 1160.59 9845.24 1159.01 9845.28 1157.42 9845.36 1155.85 9845.48 1154.27 9845.64 1152.7 9845.84 1151.14 9846.08 1149.58 9846.36 1148.03 9846.67 1146.48 9847.03 1144.95 9847.42 1143.43 9847.85 1141.92 9848.32 1140.42 9848.83 1138.93 9849.38 1137.46 9849.96 1136 9850.58 1134.56 9851.23 1133.14 9851.93 1131.73 9852.65 1130.34 9853.42 1128.98 9854.21 1127.63 9855.05 1126.3 9855.91 1125 9856.81 1123.72 9857.74 1122.46 9858.7 1121.23 9859.7 1120.02 9860.72 1118.84 9861.77 1117.69 9862.86 1116.56 9863.97 1115.46 9865.11 1114.39 9866.28 1113.35 9867.47 1112.34 9868.69 1111.37 9869.94 1110.42 9871.21 1109.51 9872.5 1108.62 9873.81 1107.78 9875.15 1106.96 9876.51 1106.18 9877.88 1105.44 9879.28 1104.73 9880.7 1104.05 9882.13 1103.41 9883.58 1102.81 9885.04 1102.25 9886.52 1101.72 9888.01 1101.23 9889.52 1100.78 9891.04 1100.37 9892.57 1099.99 9894.1 1099.66 9895.65 1099.36 9897.21 1099.1 9898.77 1098.89 9900.34 1098.71 9901.91 1098.57 9903.49 1098.47 9905.07 1098.41 9906.65 1098.39 9908.23 M 9488.16 9002.72 9488.2 9005.62 9488.3 9008.52 9488.48 9011.41 9488.73 9014.3 9489.05 9017.18 9489.44 9020.05 9489.9 9022.91 9490.43 9025.76 9491.03 9028.6 9491.7 9031.42 9492.44 9034.22 9493.25 9037.01 9494.12 9039.77 9495.06 9042.51 9496.07 9045.23 9497.15 9047.92 9498.29 9050.58 9499.5 9053.22 9500.77 9055.82 9502.11 9058.4 9503.5 9060.94 9504.96 9063.44 9506.48 9065.91 9508.07 9068.34 9509.71 9070.73 9511.4 9073.08 9513.16 9075.39 9514.97 9077.65 9516.84 9079.87 9518.76 9082.04 9520.73 9084.16 9522.75 9086.24 9524.83 9088.26 9526.95 9090.23 9529.12 9092.15 9531.34 9094.02 9533.6 9095.83 9535.91 9097.59 9538.26 9099.28 9540.65 9100.92 9543.08 9102.51 9545.55 9104.03 9548.05 9105.49 9550.59 9106.88 9553.17 9108.22 9555.77 9109.49 9558.41 9110.7 9561.07 9111.84 9563.76 9112.92 9566.48 9113.93 9569.22 9114.87 9571.98 9115.74 9574.77 9116.55 9577.57 9117.29 9580.39 9117.96 9583.23 9118.56 9586.08 9119.09 9588.94 9119.55 9591.81 9119.94 9594.69 9120.26 9597.58 9120.51 9600.47 9120.69 9603.37 9120.79 9606.27 9120.83 9609.17 9120.79 9612.07 9120.69 9614.96 9120.51 9617.85 9120.26 9620.73 9119.94 9623.6 9119.55 9626.46 9119.09 9629.31 9118.56 9632.15 9117.96 9634.97 9117.29 9637.77 9116.55 9640.56 9115.74 9643.32 9114.87 9646.06 9113.93 9648.78 9112.92 9651.47 9111.84 9654.13 9110.7 9656.77 9109.49 9659.37 9108.22 9661.95 9106.88 9664.49 9105.49 9666.99 9104.03 9669.46 9102.51 9671.89 9100.92 9674.28 9099.28 9676.63 9097.59 9678.94 9095.83 9681.2 9094.02 9683.42 9092.15 9685.59 9090.23 9687.71 9088.26 9689.79 9086.24 9691.81 9084.16 9693.78 9082.04 9695.7 9079.87 9697.57 9077.65 9699.38 9075.39 9701.14 9073.08 9702.83 9070.73 9704.47 9068.34 9706.06 9065.91 9707.58 9063.44 9709.04 9060.94 9710.43 9058.4 9711.77 9055.82 9713.04 9053.22 9714.25 9050.58 9715.39 9047.92 9716.47 9045.23 9717.48 9042.51 9718.42 9039.77 9719.29 9037.01 9720.1 9034.22 9720.84 9031.42 9721.51 9028.6 9722.11 9025.76 9722.64 9022.91 9723.1 9020.05 9723.49 9017.18 9723.81 9014.3 9724.06 9011.41 9724.24 9008.52 9724.34 9005.62 9724.38 9002.72 9724.34 8999.82 9724.24 8996.92 9724.06 8994.03 9723.81 8991.14 9723.49 8988.26 9723.1 8985.39 9722.64 8982.53 9722.11 8979.68 9721.51 8976.84 9720.84 8974.02 9720.1 8971.22 9719.29 8968.43 9718.42 8965.67 9717.48 8962.93 9716.47 8960.21 9715.39 8957.52 9714.25 8954.86 9713.04 8952.22 9711.77 8949.62 9710.43 8947.04 9709.04 8944.5 9707.58 8942 9706.06 8939.53 9704.47 8937.1 9702.83 8934.71 9701.14 8932.36 9699.38 8930.05 9697.57 8927.79 9695.7 8925.57 9693.78 8923.4 9691.81 8921.28 9689.79 8919.2 9687.71 8917.18 9685.59 8915.21 9683.42 8913.29 9681.2 8911.42 9678.94 8909.61 9676.63 8907.85 9674.28 8906.16 9671.89 8904.52 9669.46 8902.93 9666.99 8901.41 9664.49 8899.95 9661.95 8898.56 9659.37 8897.22 9656.77 8895.95 9654.13 8894.74 9651.47 8893.6 9648.78 8892.52 9646.06 8891.51 9643.32 8890.57 9640.56 8889.7 9637.77 8888.89 9634.97 8888.15 9632.15 8887.48 9629.31 8886.88 9626.46 8886.35 9623.6 8885.89 9620.73 8885.5 9617.85 8885.18 9614.96 8884.93 9612.07 8884.75 9609.17 8884.65 9606.27 8884.61 9603.37 8884.65 9600.47 8884.75 9597.58 8884.93 9594.69 8885.18 9591.81 8885.5 9588.94 8885.89 9586.08 8886.35 9583.23 8886.88 9580.39 8887.48 9577.57 8888.15 9574.77 8888.89 9571.98 8889.7 9569.22 8890.57 9566.48 8891.51 9563.76 8892.52 9561.07 8893.6 9558.41 8894.74 9555.77 8895.95 9553.17 8897.22 9550.59 8898.56 9548.05 8899.95 9545.55 8901.41 9543.08 8902.93 9540.65 8904.52 9538.26 8906.16 9535.91 8907.85 9533.6 8909.61 9531.34 8911.42 9529.12 8913.29 9526.95 8915.21 9524.83 8917.18 9522.75 8919.2 9520.73 8921.28 9518.76 8923.4 9516.84 8925.57 9514.97 8927.79 9513.16 8930.05 9511.4 8932.36 9509.71 8934.71 9508.07 8937.1 9506.48 8939.53 9504.96 8942 9503.5 8944.5 9502.11 8947.04 9500.77 8949.62 9499.5 8952.22 9498.29 8954.86 9497.15 8957.52 9496.07 8960.21 9495.06 8962.93 9494.12 8965.67 9493.25 8968.43 9492.44 8971.22 9491.7 8974.02 9491.03 8976.84 9490.43 8979.68 9489.9 8982.53 9489.44 8985.39 9489.05 8988.26 9488.73 8991.14 9488.48 8994.03 9488.3 8996.92 9488.2 8999.82 9488.16 9002.72 M 9543.28 9002.72 9543.3 9004.3 9543.36 9005.88 9543.46 9007.46 9543.6 9009.04 9543.78 9010.61 9543.99 9012.18 9544.25 9013.74 9544.55 9015.3 9544.88 9016.85 9545.26 9018.38 9545.67 9019.91 9546.12 9021.43 9546.61 9022.94 9547.14 9024.43 9547.7 9025.91 9548.3 9027.37 9548.94 9028.82 9549.62 9030.25 9550.33 9031.67 9551.07 9033.07 9551.85 9034.44 9552.67 9035.8 9553.51 9037.14 9554.4 9038.45 9555.31 9039.74 9556.26 9041.01 9557.23 9042.26 9558.24 9043.48 9559.28 9044.67 9560.35 9045.84 9561.45 9046.98 9562.58 9048.09 9563.73 9049.18 9564.91 9050.23 9566.12 9051.25 9567.35 9052.25 9568.61 9053.21 9569.89 9054.14 9571.19 9055.04 9572.52 9055.9 9573.87 9056.74 9575.23 9057.53 9576.62 9058.3 9578.03 9059.02 9579.45 9059.72 9580.89 9060.37 9582.35 9060.99 9583.82 9061.57 9585.31 9062.12 9586.81 9062.63 9588.32 9063.1 9589.84 9063.53 9591.37 9063.92 9592.92 9064.28 9594.47 9064.59 9596.03 9064.87 9597.59 9065.11 9599.16 9065.31 9600.74 9065.47 9602.31 9065.59 9603.9 9065.67 9605.48 9065.71 9607.06 9065.71 9608.64 9065.67 9610.23 9065.59 9611.8 9065.47 9613.38 9065.31 9614.95 9065.11 9616.51 9064.87 9618.07 9064.59 9619.62 9064.28 9621.17 9063.92 9622.7 9063.53 9624.22 9063.1 9625.73 9062.63 9627.23 9062.12 9628.72 9061.57 9630.19 9060.99 9631.65 9060.37 9633.09 9059.72 9634.51 9059.02 9635.92 9058.3 9637.31 9057.53 9638.67 9056.74 9640.02 9055.9 9641.35 9055.04 9642.65 9054.14 9643.93 9053.21 9645.19 9052.25 9646.42 9051.25 9647.63 9050.23 9648.81 9049.18 9649.96 9048.09 9651.09 9046.98 9652.19 9045.84 9653.26 9044.67 9654.3 9043.48 9655.31 9042.26 9656.28 9041.01 9657.23 9039.74 9658.14 9038.45 9659.03 9037.14 9659.87 9035.8 9660.69 9034.44 9661.47 9033.07 9662.21 9031.67 9662.92 9030.25 9663.6 9028.82 9664.24 9027.37 9664.84 9025.91 9665.4 9024.43 9665.93 9022.94 9666.42 9021.43 9666.87 9019.91 9667.28 9018.38 9667.66 9016.85 9667.99 9015.3 9668.29 9013.74 9668.55 9012.18 9668.76 9010.61 9668.94 9009.04 9669.08 9007.46 9669.18 9005.88 9669.24 9004.3 9669.26 9002.72 9669.24 9001.14 9669.18 8999.56 9669.08 8997.98 9668.94 8996.4 9668.76 8994.83 9668.55 8993.26 9668.29 8991.7 9667.99 8990.14 9667.66 8988.59 9667.28 8987.06 9666.87 8985.53 9666.42 8984.01 9665.93 8982.5 9665.4 8981.01 9664.84 8979.53 9664.24 8978.07 9663.6 8976.62 9662.92 8975.19 9662.21 8973.77 9661.47 8972.37 9660.69 8971 9659.87 8969.64 9659.03 8968.3 9658.14 8966.99 9657.23 8965.7 9656.28 8964.43 9655.31 8963.18 9654.3 8961.96 9653.26 8960.77 9652.19 8959.6 9651.09 8958.46 9649.96 8957.35 9648.81 8956.26 9647.63 8955.21 9646.42 8954.19 9645.19 8953.19 9643.93 8952.23 9642.65 8951.3 9641.35 8950.4 9640.02 8949.54 9638.67 8948.7 9637.31 8947.91 9635.92 8947.14 9634.51 8946.42 9633.09 8945.72 9631.65 8945.07 9630.19 8944.45 9628.72 8943.87 9627.23 8943.32 9625.73 8942.81 9624.22 8942.34 9622.7 8941.91 9621.17 8941.52 9619.62 8941.16 9618.07 8940.85 9616.51 8940.57 9614.95 8940.33 9613.38 8940.13 9611.8 8939.97 9610.23 8939.85 9608.64 8939.77 9607.06 8939.73 9605.48 8939.73 9603.9 8939.77 9602.31 8939.85 9600.74 8939.97 9599.16 8940.13 9597.59 8940.33 9596.03 8940.57 9594.47 8940.85 9592.92 8941.16 9591.37 8941.52 9589.84 8941.91 9588.32 8942.34 9586.81 8942.81 9585.31 8943.32 9583.82 8943.87 9582.35 8944.45 9580.89 8945.07 9579.45 8945.72 9578.03 8946.42 9576.62 8947.14 9575.23 8947.91 9573.87 8948.7 9572.52 8949.54 9571.19 8950.4 9569.89 8951.3 9568.61 8952.23 9567.35 8953.19 9566.12 8954.19 9564.91 8955.21 9563.73 8956.26 9562.58 8957.35 9561.45 8958.46 9560.35 8959.6 9559.28 8960.77 9558.24 8961.96 9557.23 8963.18 9556.26 8964.43 9555.31 8965.7 9554.4 8966.99 9553.51 8968.3 9552.67 8969.64 9551.85 8971 9551.07 8972.37 9550.33 8973.77 9549.62 8975.19 9548.94 8976.62 9548.3 8978.07 9547.7 8979.53 9547.14 8981.01 9546.61 8982.5 9546.12 8984.01 9545.67 8985.53 9545.26 8987.06 9544.88 8988.59 9544.55 8990.14 9544.25 8991.7 9543.99 8993.26 9543.78 8994.83 9543.6 8996.4 9543.46 8997.98 9543.36 8999.56 9543.3 9001.14 9543.28 9002.72 M 9488.16 774.37 9488.2 777.27 9488.3 780.17 9488.48 783.06 9488.73 785.95 9489.05 788.83 9489.44 791.7 9489.9 794.56 9490.43 797.41 9491.03 800.25 9491.7 803.07 9492.44 805.87 9493.25 808.66 9494.12 811.42 9495.06 814.16 9496.07 816.88 9497.15 819.57 9498.29 822.23 9499.5 824.87 9500.77 827.47 9502.11 830.05 9503.5 832.59 9504.96 835.09 9506.48 837.56 9508.07 839.99 9509.71 842.38 9511.4 844.73 9513.16 847.04 9514.97 849.3 9516.84 851.52 9518.76 853.69 9520.73 855.81 9522.75 857.89 9524.83 859.91 9526.95 861.88 9529.12 863.8 9531.34 865.67 9533.6 867.48 9535.91 869.24 9538.26 870.93 9540.65 872.57 9543.08 874.16 9545.55 875.68 9548.05 877.14 9550.59 878.53 9553.17 879.87 9555.77 881.14 9558.41 882.35 9561.07 883.49 9563.76 884.57 9566.48 885.58 9569.22 886.52 9571.98 887.39 9574.77 888.2 9577.57 888.94 9580.39 889.61 9583.23 890.21 9586.08 890.74 9588.94 891.2 9591.81 891.59 9594.69 891.91 9597.58 892.16 9600.47 892.34 9603.37 892.44 9606.27 892.48 9609.17 892.44 9612.07 892.34 9614.96 892.16 9617.85 891.91 9620.73 891.59 9623.6 891.2 9626.46 890.74 9629.31 890.21 9632.15 889.61 9634.97 888.94 9637.77 888.2 9640.56 887.39 9643.32 886.52 9646.06 885.58 9648.78 884.57 9651.47 883.49 9654.13 882.35 9656.77 881.14 9659.37 879.87 9661.95 878.53 9664.49 877.14 9666.99 875.68 9669.46 874.16 9671.89 872.57 9674.28 870.93 9676.63 869.24 9678.94 867.48 9681.2 865.67 9683.42 863.8 9685.59 861.88 9687.71 859.91 9689.79 857.89 9691.81 855.81 9693.78 853.69 9695.7 851.52 9697.57 849.3 9699.38 847.04 9701.14 844.73 9702.83 842.38 9704.47 839.99 9706.06 837.56 9707.58 835.09 9709.04 832.59 9710.43 830.05 9711.77 827.47 9713.04 824.87 9714.25 822.23 9715.39 819.57 9716.47 816.88 9717.48 814.16 9718.42 811.42 9719.29 808.66 9720.1 805.87 9720.84 803.07 9721.51 800.25 9722.11 797.41 9722.64 794.56 9723.1 791.7 9723.49 788.83 9723.81 785.95 9724.06 783.06 9724.24 780.17 9724.34 777.27 9724.38 774.37 9724.34 771.47 9724.24 768.57 9724.06 765.68 9723.81 762.79 9723.49 759.91 9723.1 757.04 9722.64 754.18 9722.11 751.33 9721.51 748.49 9720.84 745.67 9720.1 742.87 9719.29 740.08 9718.42 737.32 9717.48 734.58 9716.47 731.86 9715.39 729.17 9714.25 726.51 9713.04 723.87 9711.77 721.27 9710.43 718.69 9709.04 716.15 9707.58 713.65 9706.06 711.18 9704.47 708.75 9702.83 706.36 9701.14 704.01 9699.38 701.7 9697.57 699.44 9695.7 697.22 9693.78 695.05 9691.81 692.93 9689.79 690.85 9687.71 688.83 9685.59 686.86 9683.42 684.94 9681.2 683.07 9678.94 681.26 9676.63 679.5 9674.28 677.81 9671.89 676.17 9669.46 674.58 9666.99 673.06 9664.49 671.6 9661.95 670.21 9659.37 668.87 9656.77 667.6 9654.13 666.39 9651.47 665.25 9648.78 664.17 9646.06 663.16 9643.32 662.22 9640.56 661.35 9637.77 660.54 9634.97 659.8 9632.15 659.13 9629.31 658.53 9626.46 658 9623.6 657.54 9620.73 657.15 9617.85 656.83 9614.96 656.58 9612.07 656.4 9609.17 656.3 9606.27 656.26 9603.37 656.3 9600.47 656.4 9597.58 656.58 9594.69 656.83 9591.81 657.15 9588.94 657.54 9586.08 658 9583.23 658.53 9580.39 659.13 9577.57 659.8 9574.77 660.54 9571.98 661.35 9569.22 662.22 9566.48 663.16 9563.76 664.17 9561.07 665.25 9558.41 666.39 9555.77 667.6 9553.17 668.87 9550.59 670.21 9548.05 671.6 9545.55 673.06 9543.08 674.58 9540.65 676.17 9538.26 677.81 9535.91 679.5 9533.6 681.26 9531.34 683.07 9529.12 684.94 9526.95 686.86 9524.83 688.83 9522.75 690.85 9520.73 692.93 9518.76 695.05 9516.84 697.22 9514.97 699.44 9513.16 701.7 9511.4 704.01 9509.71 706.36 9508.07 708.75 9506.48 711.18 9504.96 713.65 9503.5 716.15 9502.11 718.69 9500.77 721.27 9499.5 723.87 9498.29 726.51 9497.15 729.17 9496.07 731.86 9495.06 734.58 9494.12 737.32 9493.25 740.08 9492.44 742.87 9491.7 745.67 9491.03 748.49 9490.43 751.33 9489.9 754.18 9489.44 757.04 9489.05 759.91 9488.73 762.79 9488.48 765.68 9488.3 768.57 9488.2 771.47 9488.16 774.37 M 9543.28 774.37 9543.3 775.95 9543.36 777.53 9543.46 779.11 9543.6 780.69 9543.78 782.26 9543.99 783.83 9544.25 785.39 9544.55 786.95 9544.88 788.5 9545.26 790.03 9545.67 791.56 9546.12 793.08 9546.61 794.59 9547.14 796.08 9547.7 797.56 9548.3 799.02 9548.94 800.47 9549.62 801.9 9550.33 803.32 9551.07 804.72 9551.85 806.09 9552.67 807.45 9553.51 808.79 9554.4 810.1 9555.31 811.39 9556.26 812.66 9557.23 813.91 9558.24 815.13 9559.28 816.32 9560.35 817.49 9561.45 818.63 9562.58 819.74 9563.73 820.83 9564.91 821.88 9566.12 822.9 9567.35 823.9 9568.61 824.86 9569.89 825.79 9571.19 826.69 9572.52 827.55 9573.87 828.39 9575.23 829.18 9576.62 829.95 9578.03 830.67 9579.45 831.37 9580.89 832.02 9582.35 832.64 9583.82 833.22 9585.31 833.77 9586.81 834.28 9588.32 834.75 9589.84 835.18 9591.37 835.57 9592.92 835.93 9594.47 836.24 9596.03 836.52 9597.59 836.76 9599.16 836.96 9600.74 837.12 9602.31 837.24 9603.9 837.32 9605.48 837.36 9607.06 837.36 9608.64 837.32 9610.23 837.24 9611.8 837.12 9613.38 836.96 9614.95 836.76 9616.51 836.52 9618.07 836.24 9619.62 835.93 9621.17 835.57 9622.7 835.18 9624.22 834.75 9625.73 834.28 9627.23 833.77 9628.72 833.22 9630.19 832.64 9631.65 832.02 9633.09 831.37 9634.51 830.67 9635.92 829.95 9637.31 829.18 9638.67 828.39 9640.02 827.55 9641.35 826.69 9642.65 825.79 9643.93 824.86 9645.19 823.9 9646.42 822.9 9647.63 821.88 9648.81 820.83 9649.96 819.74 9651.09 818.63 9652.19 817.49 9653.26 816.32 9654.3 815.13 9655.31 813.91 9656.28 812.66 9657.23 811.39 9658.14 810.1 9659.03 808.79 9659.87 807.45 9660.69 806.09 9661.47 804.72 9662.21 803.32 9662.92 801.9 9663.6 800.47 9664.24 799.02 9664.84 797.56 9665.4 796.08 9665.93 794.59 9666.42 793.08 9666.87 791.56 9667.28 790.03 9667.66 788.5 9667.99 786.95 9668.29 785.39 9668.55 783.83 9668.76 782.26 9668.94 780.69 9669.08 779.11 9669.18 777.53 9669.24 775.95 9669.26 774.37 9669.24 772.79 9669.18 771.21 9669.08 769.63 9668.94 768.05 9668.76 766.48 9668.55 764.91 9668.29 763.35 9667.99 761.79 9667.66 760.24 9667.28 758.71 9666.87 757.18 9666.42 755.66 9665.93 754.15 9665.4 752.66 9664.84 751.18 9664.24 749.72 9663.6 748.27 9662.92 746.84 9662.21 745.42 9661.47 744.02 9660.69 742.65 9659.87 741.29 9659.03 739.95 9658.14 738.64 9657.23 737.35 9656.28 736.08 9655.31 734.83 9654.3 733.61 9653.26 732.42 9652.19 731.25 9651.09 730.11 9649.96 729 9648.81 727.91 9647.63 726.86 9646.42 725.84 9645.19 724.84 9643.93 723.88 9642.65 722.95 9641.35 722.05 9640.02 721.19 9638.67 720.35 9637.31 719.56 9635.92 718.79 9634.51 718.07 9633.09 717.37 9631.65 716.72 9630.19 716.1 9628.72 715.52 9627.23 714.97 9625.73 714.46 9624.22 713.99 9622.7 713.56 9621.17 713.17 9619.62 712.81 9618.07 712.5 9616.51 712.22 9614.95 711.98 9613.38 711.78 9611.8 711.62 9610.23 711.5 9608.64 711.42 9607.06 711.38 9605.48 711.38 9603.9 711.42 9602.31 711.5 9600.74 711.62 9599.16 711.78 9597.59 711.98 9596.03 712.22 9594.47 712.5 9592.92 712.81 9591.37 713.17 9589.84 713.56 9588.32 713.99 9586.81 714.46 9585.31 714.97 9583.82 715.52 9582.35 716.1 9580.89 716.72 9579.45 717.37 9578.03 718.07 9576.62 718.79 9575.23 719.56 9573.87 720.35 9572.52 721.19 9571.19 722.05 9569.89 722.95 9568.61 723.88 9567.35 724.84 9566.12 725.84 9564.91 726.86 9563.73 727.91 9562.58 729 9561.45 730.11 9560.35 731.25 9559.28 732.42 9558.24 733.61 9557.23 734.83 9556.26 736.08 9555.31 737.35 9554.4 738.64 9553.51 739.95 9552.67 741.29 9551.85 742.65 9551.07 744.02 9550.33 745.42 9549.62 746.84 9548.94 748.27 9548.3 749.72 9547.7 751.18 9547.14 752.66 9546.61 754.15 9546.12 755.66 9545.67 757.18 9545.26 758.71 9544.88 760.24 9544.55 761.79 9544.25 763.35 9543.99 764.91 9543.78 766.48 9543.6 768.05 9543.46 769.63 9543.36 771.21 9543.3 772.79 9543.28 774.37" fill="none" stroke-width="0"/><path d="M 1576.84 9589.26 1587.51 9599.94 M 1576.84 9589.26 1555.49 9589.26 1544.81 9599.94 1544.81 9642.64 1555.49 9653.31 1576.84 9653.31 1587.51 9642.64 M 1523.06 9642.64 1512.38 9653.31 1491.03 9653.31 1480.36 9642.64 1480.36 9599.94 1491.03 9589.26 1512.38 9589.26 1523.06 9599.94 M 1458.6 9610.61 1458.6 9653.31 M 1458.6 9610.61 1437.25 9589.26 1415.9 9610.61 1415.9 9653.31 M 898.54 9642.64 898.54 9599.94 887.86 9589.26 855.83 9589.26 855.83 9653.31 887.86 9653.31 898.54 9642.64 M 834.08 9653.31 834.08 9589.26 791.38 9653.31 791.38 9589.26 M 769.63 9599.94 769.63 9621.29 748.28 9621.29 M 769.63 9642.64 758.95 9653.31 737.6 9653.31 726.92 9642.64 726.92 9599.94 737.6 9589.26 758.95 9589.26 769.63 9599.94" fill="none" stroke-width="6"/><path d="M 825.59 1152.99 825.59 1131.19 M 825.59 1087.57 825.59 1000.34 M 803.78 1000.34 847.4 1000.34 M 890.79 1000.34 890.79 1087.57 956.21 1087.57 978.01 1065.76 978.01 1000.34 M 1043.1 1022.15 1064.91 1000.34 M 1043.1 1022.15 1043.1 1109.38 M 1021.29 1087.57 1064.91 1087.57 M 1238.8 1022.15 1260.61 1043.96 1326.03 1043.96 M 1326.03 1065.76 1326.03 1000.34 1260.61 1000.34 1238.8 1022.15 M 1260.61 1087.57 1304.22 1087.57 1326.03 1065.76 M 1369.3 1043.96 1412.92 1087.57 1434.73 1087.57 M 1478.06 1065.76 1478.06 1022.15 1499.87 1000.34 1543.48 1000.34 M 1565.29 1043.96 1478.06 1043.96 M 1478.06 1065.76 1499.87 1087.57 1543.48 1087.57 1565.29 1065.76 1565.29 1043.96 M 1608.56 1022.15 1630.37 1043.96 1695.79 1043.96 M 1695.79 1065.76 1695.79 1000.34 1630.37 1000.34 1608.56 1022.15 M 1630.37 1087.57 1673.99 1087.57 1695.79 1065.76 M 1369.3 1087.57 1369.3 1000.34 M 825.59 1087.57 803.78 1087.57 M 760.45 1087.57 738.64 1087.57 695.03 1043.96 M 695.03 1087.57 695.03 1000.34 M 629.94 1043.96 564.52 1043.96 M 564.52 1000.34 564.52 1131.19 629.94 1131.19 651.75 1109.38 651.75 1065.76 629.94 1043.96" fill="none" stroke-width="11"/><path d="M 656.5 705.89 702.54 705.89 725.56 682.87 633.48 590.79 656.5 567.77 702.54 567.77 725.56 590.79 725.56 682.87 M 794.62 659.85 794.62 636.83 817.64 636.83 817.64 659.85 794.62 659.85 M 794.62 590.79 794.62 567.77 817.64 567.77 817.64 590.79 794.62 590.79 M 817.64 567.77 771.6 521.73 M 863.68 590.79 863.68 682.87 886.7 705.89 932.73 705.89 955.75 682.87 863.68 590.79 886.7 567.77 932.73 567.77 955.75 590.79 955.75 682.87 M 1001.79 705.89 1047.83 705.89 1047.83 567.77 1001.79 567.77 M 633.48 590.79 633.48 682.87 656.5 705.89 M 587.44 705.89 541.4 705.89 541.4 567.77 587.44 567.77 M 2368.17 590.79 2391.19 567.77 2437.23 567.77 2460.25 590.79 2460.25 636.83 2437.23 659.85 2414.21 659.85 2368.17 636.83 2368.17 705.89 2460.25 705.89 M 2506.29 682.87 2529.31 705.89 2575.35 705.89 2598.37 682.87 2506.29 590.79 2529.31 567.77 2575.35 567.77 2598.37 590.79 2598.37 682.87 M 2506.29 682.87 2506.29 590.79 M 4265.81 567.77 4357.89 567.77 M 4311.85 567.77 4311.85 705.89 4265.81 659.85 M 4403.93 682.87 4403.93 590.79 4496.01 682.87 4496.01 590.79 4472.99 567.77 4426.95 567.77 4403.93 590.79 M 4403.93 682.87 4426.95 705.89 4472.99 705.89 4496.01 682.87 M 4542.05 682.87 4542.05 590.79 4634.12 682.87 4634.12 590.79 4611.1 567.77 4565.07 567.77 4542.05 590.79 M 4542.05 682.87 4565.07 705.89 4611.1 705.89 4634.12 682.87 M 6242.19 659.85 6288.23 705.89 6288.23 567.77 M 6242.19 567.77 6334.27 567.77 M 6380.31 590.79 6403.33 567.77 6449.36 567.77 6472.38 590.79 6472.38 636.83 6449.36 659.85 6426.34 659.85 6380.31 636.83 6380.31 705.89 6472.38 705.89 M 6518.42 682.87 6541.44 705.89 6587.48 705.89 6610.5 682.87 6518.42 590.79 6541.44 567.77 6587.48 567.77 6610.5 590.79 6610.5 682.87 M 6518.42 682.87 6518.42 590.79 M 8202.82 567.77 8294.9 659.85 8294.9 682.87 8271.88 705.89 8225.84 705.89 8202.82 682.87 M 8202.82 567.77 8294.9 567.77 M 8340.94 590.79 8340.94 682.87 8363.96 705.89 8409.99 705.89 8433.01 682.87 8340.94 590.79 8363.96 567.77 8409.99 567.77 8433.01 590.79 8433.01 682.87 M 8479.05 682.87 8502.07 705.89 8548.11 705.89 8571.13 682.87 8479.05 590.79 8502.07 567.77 8548.11 567.77 8571.13 590.79 8571.13 682.87 M 8479.05 682.87 8479.05 590.79 M 9990.22 567.77 10082.3 659.85 10082.3 682.87 10059.28 705.89 10013.24 705.89 9990.22 682.87 M 9990.22 567.77 10082.3 567.77 M 10128.34 590.79 10151.36 567.77 10197.4 567.77 10220.42 590.79 10220.42 636.83 10197.4 659.85 10174.38 659.85 10128.34 636.83 10128.34 705.89 10220.42 705.89 M 10266.46 682.87 10289.47 705.89 10335.51 705.89 10358.53 682.87 10266.46 590.79 10289.47 567.77 10335.51 567.77 10358.53 590.79 10358.53 682.87 M 10266.46 682.87 10266.46 590.79 M 933.34 4716.78 910.32 4693.76 864.28 4693.76 841.26 4716.78 M 841.26 4762.81 887.3 4785.83 910.32 4785.83 933.34 4762.81 933.34 4716.78 M 841.26 4762.81 841.26 4831.87 933.34 4831.87 M 795.22 4808.85 703.14 4716.78 726.16 4693.76 772.2 4693.76 795.22 4716.78 795.22 4808.85 772.2 4831.87 726.16 4831.87 703.14 4808.85 703.14 4716.78 M 657.1 4693.76 565.02 4693.76 M 611.06 4693.76 611.06 4831.87 565.02 4785.83 M 565.02 6662.26 657.1 6662.26 M 611.06 6662.26 611.06 6800.38 565.02 6754.34 M 703.14 6731.32 703.14 6800.38 795.22 6800.38 M 841.26 6800.38 841.26 6731.32 887.3 6754.34 910.32 6754.34 933.34 6731.32 933.34 6685.28 910.32 6662.26 864.28 6662.26 841.26 6685.28 M 795.22 6685.28 772.2 6662.26 726.16 6662.26 703.14 6685.28 M 703.14 6731.32 749.18 6754.34 772.2 6754.34 795.22 6731.32 795.22 6685.28 M 841.26 6800.38 933.34 6800.38 M 910.32 8630.76 864.28 8630.76 841.26 8653.78 M 795.22 8653.78 795.22 8745.86 703.14 8653.78 726.16 8630.76 772.2 8630.76 795.22 8653.78 M 841.26 8699.82 887.3 8722.84 910.32 8722.84 933.34 8699.82 933.34 8653.78 910.32 8630.76 M 841.26 8699.82 841.26 8768.88 933.34 8768.88 M 795.22 8745.86 772.2 8768.88 726.16 8768.88 703.14 8745.86 703.14 8653.78 M 657.1 8630.76 565.02 8630.76 657.1 8722.84 657.1 8745.86 634.08 8768.88 588.04 8768.88 565.02 8745.86 M 565.02 9079.58 657.1 9171.66 657.1 9194.68 634.08 9217.7 588.04 9217.7 565.02 9194.68 M 565.02 9079.58 657.1 9079.58 M 703.14 9079.58 795.22 9079.58 M 749.18 9079.58 749.18 9217.7 703.14 9171.66 M 841.26 9194.68 841.26 9102.6 933.34 9194.68 933.34 9102.6 910.32 9079.58 864.28 9079.58 841.26 9102.6 M 841.26 9194.68 864.28 9217.7 910.32 9217.7 933.34 9194.68 M 795.22 2863.37 703.14 2863.37 703.14 2794.31 749.18 2817.33 772.2 2817.33 795.22 2794.31 795.22 2748.27 772.2 2725.25 726.16 2725.25 703.14 2748.27 M 657.1 2748.27 634.08 2725.25 588.04 2725.25 565.02 2748.27 M 565.02 2794.31 611.06 2817.33 634.08 2817.33 657.1 2794.31 657.1 2748.27 M 565.02 2794.31 565.02 2863.37 657.1 2863.37" fill="none" stroke-width="12"/><path d="M 2091.13 9245.44 2187.54 9245.44 M 2139.34 9245.44 2139.34 9390.04 2091.13 9341.84 M 2236.14 9365.94 2260.24 9390.04 2308.44 9390.04 2332.54 9365.94 2332.54 9341.84 2236.14 9245.44 2332.54 9245.44 M 2381.15 9293.64 2429.35 9245.44 2477.55 9293.64 2477.55 9390.04 M 2381.15 9390.04 2381.15 9293.64 M 6416.87 9317.74 6513.28 9317.74 M 6561.88 9317.74 6561.88 9269.54 6585.98 9245.44 6634.18 9245.44 M 6658.28 9293.64 6561.88 9293.64 M 6561.88 9317.74 6585.98 9341.84 6634.18 9341.84 6658.28 9317.74 6658.28 9293.64 M 6706.88 9269.54 6730.98 9293.64 6803.29 9293.64 M 6803.29 9317.74 6803.29 9245.44 6730.98 9245.44 6706.88 9269.54 M 6730.98 9341.84 6779.19 9341.84 6803.29 9317.74 M 6851.89 9341.84 6900.09 9341.84 M 6875.99 9365.94 6875.99 9269.54 6900.09 9245.44 M 6948.56 9245.44 6948.56 9390.04 7020.86 9390.04 7044.96 9365.94 7044.96 9341.84 7020.86 9317.74 6948.56 9317.74 M 7020.86 9317.74 7044.96 9293.64 7044.96 9269.54 7020.86 9245.44 6948.56 9245.44 M 7093.57 9269.54 7093.57 9317.74 7117.67 9341.84 7165.87 9341.84 7189.97 9317.74 7189.97 9293.64 7093.57 9293.64 M 7093.57 9269.54 7117.67 9245.44 7165.87 9245.44 M 7238.57 9269.54 7238.57 9317.74 7262.67 9341.84 7334.97 9341.84 M 7334.97 9390.04 7334.97 9245.44 7262.67 9245.44 7238.57 9269.54 M 7528.58 9245.44 7528.58 9390.04 7576.78 9341.84 7624.99 9390.04 7624.99 9245.44 M 7673.59 9245.44 7673.59 9390.04 M 7697.69 9317.74 7769.99 9245.44 M 7818.6 9317.74 7915 9317.74 M 7963.6 9365.94 7987.7 9390.04 8035.9 9390.04 8060 9365.94 8060 9341.84 7963.6 9245.44 8060 9245.44 M 7890.9 9245.44 7890.9 9390.04 7818.6 9317.74 M 7769.99 9390.04 7673.59 9293.64 M 8253.61 9341.84 8325.91 9341.84 8350.02 9317.74 8350.02 9269.54 8325.91 9245.44 8253.61 9245.44 8253.61 9390.04 M 8398.62 9341.84 8398.62 9269.54 8422.72 9245.44 8495.02 9245.44 M 8495.02 9221.34 8470.92 9197.24 8446.82 9197.24 M 8495.02 9221.34 8495.02 9341.84 M 8688.63 9390.04 8688.63 9245.44 M 8688.63 9293.64 8760.93 9293.64 8785.03 9317.74 8785.03 9365.94 8760.93 9390.04 8688.63 9390.04 M 8833.64 9390.04 8833.64 9245.44 M 8833.64 9293.64 8905.94 9293.64 8930.04 9317.74 8930.04 9365.94 8905.94 9390.04 8833.64 9390.04 M 8881.84 9293.64 8930.04 9245.44 M 8978.64 9269.54 8978.64 9390.04 M 9075.04 9390.04 9075.04 9269.54 9050.94 9245.44 9002.74 9245.44 8978.64 9269.54 M 9123.65 9269.54 9147.75 9245.44 9195.95 9245.44 9220.05 9269.54 9220.05 9293.64 9195.95 9317.74 9147.75 9317.74 9123.65 9341.84 9123.65 9365.94 9147.75 9390.04 9195.95 9390.04 9220.05 9365.94 M 9268.65 9341.84 9268.65 9245.44 M 9268.65 9317.74 9365.06 9317.74 M 9365.06 9341.84 9365.06 9245.44 M 9413.66 9269.54 9437.76 9245.44 9485.96 9245.44 9510.06 9269.54 9510.06 9293.64 9485.96 9317.74 9461.86 9317.74 M 9485.96 9317.74 9510.06 9341.84 9510.06 9365.94 9485.96 9390.04 9437.76 9390.04 9413.66 9365.94 M 9365.06 9341.84 9316.85 9390.04 9268.65 9341.84 M 9558.66 9390.04 9558.66 9245.44 9630.97 9245.44 9655.07 9269.54 9655.07 9365.94 9630.97 9390.04 9558.66 9390.04 M 9703.67 9269.54 9727.77 9269.54 9727.77 9245.44 9703.67 9245.44 9703.67 9269.54 M 9776.17 9269.54 9800.27 9245.44 9848.48 9245.44 9872.58 9269.54 M 9921.18 9269.54 9921.18 9365.94 9945.28 9390.04 9993.48 9390.04 10017.58 9365.94 10017.58 9269.54 9993.48 9245.44 9945.28 9245.44 9921.18 9269.54 M 9872.58 9365.94 9848.48 9390.04 9800.27 9390.04 9776.17 9365.94 9776.17 9269.54 M 10066.18 9245.44 10066.18 9390.04 10114.39 9341.84 10162.59 9390.04 10162.59 9245.44 M 6513.28 9245.44 6513.28 9390.04 M 6416.87 9390.04 6416.87 9245.44" fill="none" stroke-width="13"/><path d="M 6417.29 9018.46 6417.29 947.6 10354.3 947.6 10354.3 750.75 9748 750.75 M 9464.53 750.75 8385.79 750.75 8385.79 986.97 8385.79 994.84 8385.79 9018.46 9464.53 9018.46 M 9740.12 9018.46 10354.3 9018.46 10354.3 8821.61 10078.71 8821.61 M 10354.3 8821.61 10354.3 6853.11 511.78 6853.11 511.78 8821.61 9685.01 8821.61 M 8385.79 9018.46 6417.29 9018.46 4448.79 9018.46 4448.79 750.75 6417.29 750.75 6417.29 947.6 2086.58 947.6 M 1692.88 947.6 511.78 947.6 511.78 4884.61 10354.3 4884.61 10354.3 2916.1 503.9 2916.1 M 511.78 947.6 511.78 750.75 1236.19 750.75 M 1519.65 750.75 4448.79 750.75 M 6417.29 750.75 8385.79 750.75 M 10354.3 947.6 10354.3 2916.1 M 10354.3 4884.61 10354.3 6853.11 M 4448.79 9018.46 2480.28 9018.46 1519.65 9018.46 M 1236.19 9018.46 511.78 9018.46 511.78 8821.61 M 2480.28 9018.46 2480.28 758.62 M 511.78 4884.61 511.78 6853.11" fill="none" stroke-width="16"/><path d="M 1740.12 1026.34 1740.16 1022.87 1740.28 1019.4 1740.48 1015.93 1740.76 1012.47 1741.13 1009.02 1741.57 1005.57 1742.09 1002.14 1742.69 998.72 1743.37 995.31 1744.13 991.93 1744.97 988.56 1745.89 985.21 1746.88 981.88 1747.95 978.58 1749.1 975.3 M 1889.73 876.73 1893.2 876.77 1896.67 876.89 1900.14 877.09 1903.6 877.37 1907.05 877.74 1910.5 878.18 1913.93 878.7 1917.35 879.3 1920.76 879.98 1924.14 880.74 1927.51 881.58 1930.86 882.5 1934.19 883.49 1937.49 884.56 1940.77 885.71 M 1889.73 876.73 1886.26 876.77 1882.79 876.89 1879.32 877.09 1875.86 877.37 1872.41 877.74 1868.96 878.18 1865.53 878.7 1862.11 879.3 1858.7 879.98 1855.32 880.74 1851.95 881.58 1848.6 882.5 1845.27 883.49 1841.97 884.56 1838.69 885.71 M 1740.12 1026.34 1740.16 1029.81 1740.28 1033.28 1740.48 1036.75 1740.76 1040.21 1741.13 1043.66 1741.57 1047.11 1742.09 1050.54 1742.69 1053.96 1743.37 1057.37 1744.13 1060.75 1744.97 1064.12 1745.89 1067.47 1746.88 1070.8 1747.95 1074.1 1749.1 1077.38 M 1889.73 1175.95 1893.2 1175.91 1896.67 1175.79 1900.14 1175.59 1903.6 1175.31 1907.05 1174.94 1910.5 1174.5 1913.93 1173.98 1917.35 1173.38 1920.76 1172.7 1924.14 1171.94 1927.51 1171.1 1930.86 1170.18 1934.19 1169.19 1937.49 1168.12 1940.77 1166.97 M 2039.34 1026.34 2039.3 1022.87 2039.18 1019.4 2038.98 1015.93 2038.7 1012.47 2038.33 1009.02 2037.89 1005.57 2037.37 1002.14 2036.77 998.72 2036.09 995.31 2035.33 991.93 2034.49 988.56 2033.57 985.21 2032.58 981.88 2031.51 978.58 2030.36 975.3 M 2039.34 1026.34 2039.3 1029.81 2039.18 1033.28 2038.98 1036.75 2038.7 1040.21 2038.33 1043.66 2037.89 1047.11 2037.37 1050.54 2036.77 1053.96 2036.09 1057.37 2035.33 1060.75 2034.49 1064.12 2033.57 1067.47 2032.58 1070.8 2031.51 1074.1 2030.36 1077.38 M 1889.73 1175.95 1886.26 1175.91 1882.79 1175.79 1879.32 1175.59 1875.86 1175.31 1872.41 1174.94 1868.96 1174.5 1865.53 1173.98 1862.11 1173.38 1858.7 1172.7 1855.32 1171.94 1851.95 1171.1 1848.6 1170.18 1845.27 1169.19 1841.97 1168.12 1838.69 1166.97 M 1803.86 1148.85 1801.04 1146.83 1798.27 1144.74 1795.55 1142.58 1792.87 1140.37 1790.25 1138.09 1787.69 1135.75 1785.17 1133.35 1782.72 1130.9 1780.32 1128.38 1777.98 1125.82 1775.7 1123.2 1773.49 1120.52 1771.33 1117.8 1769.24 1115.03 1767.22 1112.21 M 1767.22 940.47 1769.24 937.65 1771.33 934.88 1773.49 932.16 1775.7 929.48 1777.98 926.86 1780.32 924.3 1782.72 921.78 1785.17 919.33 1787.69 916.93 1790.25 914.59 1792.87 912.31 1795.55 910.1 1798.27 907.94 1801.04 905.85 1803.86 903.83 M 1975.6 903.83 1978.42 905.85 1981.19 907.94 1983.91 910.1 1986.59 912.31 1989.21 914.59 1991.77 916.93 1994.29 919.33 1996.74 921.78 1999.14 924.3 2001.48 926.86 2003.76 929.48 2005.97 932.16 2008.13 934.88 2010.22 937.65 2012.24 940.47 M 2012.24 1112.21 2010.22 1115.03 2008.13 1117.8 2005.97 1120.52 2003.76 1123.2 2001.48 1125.82 1999.14 1128.38 1996.74 1130.9 1994.29 1133.35 1991.77 1135.75 1989.21 1138.09 1986.59 1140.37 1983.91 1142.58 1981.19 1144.74 1978.42 1146.83 1975.6 1148.85 M 9881.86 8593.26 9885.33 8593.3 9888.8 8593.42 9892.27 8593.62 9895.73 8593.9 9899.18 8594.27 9902.63 8594.71 9906.06 8595.23 9909.48 8595.83 9912.89 8596.51 9916.27 8597.27 9919.64 8598.11 9922.99 8599.03 9926.32 8600.02 9929.62 8601.09 9932.9 8602.24 M 9881.86 8593.26 9878.39 8593.3 9874.92 8593.42 9871.45 8593.62 9867.99 8593.9 9864.54 8594.27 9861.09 8594.71 9857.66 8595.23 9854.24 8595.83 9850.83 8596.51 9847.45 8597.27 9844.08 8598.11 9840.73 8599.03 9837.4 8600.02 9834.1 8601.09 9830.82 8602.24 M 9732.25 8742.87 9732.29 8746.34 9732.41 8749.81 9732.61 8753.28 9732.89 8756.74 9733.26 8760.19 9733.7 8763.64 9734.22 8767.07 9734.82 8770.49 9735.5 8773.9 9736.26 8777.28 9737.1 8780.65 9738.02 8784 9739.01 8787.33 9740.08 8790.63 9741.23 8793.91 M 9732.25 8742.87 9732.29 8739.4 9732.41 8735.93 9732.61 8732.46 9732.89 8729 9733.26 8725.55 9733.7 8722.1 9734.22 8718.67 9734.82 8715.25 9735.5 8711.84 9736.26 8708.46 9737.1 8705.09 9738.02 8701.74 9739.01 8698.41 9740.08 8695.11 9741.23 8691.83 M 9759.35 8657 9761.37 8654.18 9763.46 8651.41 9765.62 8648.69 9767.83 8646.01 9770.11 8643.39 9772.45 8640.83 9774.85 8638.31 9777.3 8635.86 9779.82 8633.46 9782.38 8631.12 9785 8628.84 9787.68 8626.63 9790.4 8624.47 9793.17 8622.38 9795.99 8620.36 M 9967.73 8620.36 9970.55 8622.38 9973.32 8624.47 9976.04 8626.63 9978.72 8628.84 9981.34 8631.12 9983.9 8633.46 9986.42 8635.86 9988.87 8638.31 9991.27 8640.83 9993.61 8643.39 9995.89 8646.01 9998.1 8648.69 10000.26 8651.41 10002.35 8654.18 10004.37 8657 M 10031.47 8742.87 10031.43 8746.34 10031.31 8749.81 10031.11 8753.28 10030.83 8756.74 10030.46 8760.19 10030.02 8763.64 10029.5 8767.07 10028.9 8770.49 10028.22 8773.9 10027.46 8777.28 10026.62 8780.65 10025.7 8784 10024.71 8787.33 10023.64 8790.63 10022.49 8793.91 M 10031.47 8742.87 10031.43 8739.4 10031.31 8735.93 10031.11 8732.46 10030.83 8729 10030.46 8725.55 10030.02 8722.1 10029.5 8718.67 10028.9 8715.25 10028.22 8711.84 10027.46 8708.46 10026.62 8705.09 10025.7 8701.74 10024.71 8698.41 10023.64 8695.11 10022.49 8691.83 M 9881.86 8892.48 9878.39 8892.44 9874.92 8892.32 9871.45 8892.12 9867.99 8891.84 9864.54 8891.47 9861.09 8891.03 9857.66 8890.51 9854.24 8889.91 9850.83 8889.23 9847.45 8888.47 9844.08 8887.63 9840.73 8886.71 9837.4 8885.72 9834.1 8884.65 9830.82 8883.5 M 9881.86 8892.48 9885.33 8892.44 9888.8 8892.32 9892.27 8892.12 9895.73 8891.84 9899.18 8891.47 9902.63 8891.03 9906.06 8890.51 9909.48 8889.91 9912.89 8889.23 9916.27 8888.47 9919.64 8887.63 9922.99 8886.71 9926.32 8885.72 9929.62 8884.65 9932.9 8883.5 M 9795.99 8865.38 9793.17 8863.36 9790.4 8861.27 9787.68 8859.11 9785 8856.9 9782.38 8854.62 9779.82 8852.28 9777.3 8849.88 9774.85 8847.43 9772.45 8844.91 9770.11 8842.35 9767.83 8839.73 9765.62 8837.05 9763.46 8834.33 9761.37 8831.56 9759.35 8828.74 M 9967.73 8865.38 9970.55 8863.36 9973.32 8861.27 9976.04 8859.11 9978.72 8856.9 9981.34 8854.62 9983.9 8852.28 9986.42 8849.88 9988.87 8847.43 9991.27 8844.91 9993.61 8842.35 9995.89 8839.73 9998.1 8837.05 10000.26 8834.33 10002.35 8831.56 10004.37 8828.74" fill="none" stroke-width="11.81"/><use xlink:href="#Heatbed-MK24_pad-17" x="1157.45" y="9704.29"/><path d="M 1111.38 9654.29 1073.88 9654.29 1073.88 9754.29 1111.38 9754.29 M 1073.88 9754.29 1061.38 9754.29 1061.38 9654.29 1073.88 9654.29 M 1026.74 9658.23 976.74 9658.23 M 1026.74 9658.23 1026.74 9708.23 M 1211.38 9754.29 1261.38 9754.29 1261.38 9654.29 1211.38 9654.29 M 1296.03 9658.23 1296.03 9708.23 M 1296.03 9658.23 1346.03 9658.23 M 1646.03 9658.23 1696.03 9658.23 1696.03 9708.23 M 1696.03 10108.23 1696.03 10158.23 1646.03 10158.23 M 1346.03 10158.23 1296.03 10158.23 1296.03 10108.23 M 1261.38 10155.08 1211.38 10155.08 M 1261.38 10155.08 1261.38 10055.08 1211.38 10055.08 M 1111.38 10055.08 1061.38 10055.08 1061.38 10155.08 1111.38 10155.08 M 1026.74 10158.23 1026.74 10108.23 M 1026.74 10158.23 976.74 10158.23 M 676.74 10158.23 626.74 10158.23 626.74 10108.23 M 626.74 9708.23 626.74 9658.23 676.74 9658.23" fill="none" stroke-width="5"/><path d="M 1029.23 9652.33 1029.23 9606.29 1059.92 9606.29 M 1075.27 9606.29 1105.96 9606.29 M 1121.31 9606.29 1144.33 9606.29 1152 9613.96 1152 9644.66 1144.33 9652.33 1121.31 9652.33 1121.31 9606.29 M 1128.72 9599.39 1144.06 9599.39 M 1167.34 9606.29 1198.04 9606.29 M 1205.45 9614.74 1197.77 9622.41 1174.75 9622.41 1174.75 9576.37 1197.77 9576.37 1205.45 9584.04 1205.45 9614.74 M 1220.79 9607.06 1236.14 9622.41 1236.14 9576.37 M 1220.79 9576.37 1251.49 9576.37 M 1182.69 9606.29 1182.69 9652.33 1167.34 9636.98 M 1159.41 9622.41 1128.72 9622.41 1128.72 9576.37 1159.41 9576.37 M 1113.37 9576.37 1082.68 9576.37 1082.68 9622.41 M 1075.27 9629.31 1090.61 9629.31 M 1075.27 9652.33 1075.27 9606.29 M 1075.27 9652.33 1105.96 9652.33 M 1079.86 9963.77 1033.82 9963.77 1033.82 9986.79 1041.49 9994.46 1056.84 9994.46 1064.51 9986.79 1064.51 9963.77 M 1064.51 9979.12 1079.86 9994.46 M 1079.86 10009.81 1079.86 10040.5 M 1079.86 10025.16 1033.82 10025.16 1049.16 10009.81 M 1121.31 10007.08 1121.31 10053.12 1144.33 10053.12 1152 10045.44 1152 10030.1 1144.33 10022.43 1121.31 10022.43 M 1136.65 10022.43 1152 10007.08 M 1167.35 10007.08 1198.04 10007.08 M 1182.69 10007.08 1182.69 10053.12 1167.35 10037.77 M 1235.79 10006.51 1281.83 10006.51 M 1281.83 9991.16 1281.83 9960.47 M 1281.83 9975.81 1235.79 9975.81 1251.13 9960.47 M 1266.48 10006.51 1251.13 10029.53 M 1266.48 10006.51 1281.83 10029.53" fill="none" stroke-width="4"/></g></svg>