%TF.GenerationSoftware,KiCad,Pcbnew,5.1.5*%
%TF.CreationDate,2020-05-06T17:45:38-07:00*%
%TF.ProjectId,Heatbed-MK52,48656174-6265-4642-9d4d-4b35322e6b69,rev?*%
%TF.SameCoordinates,Original*%
%TF.FileFunction,Profile,NP*%
%FSLAX46Y46*%
G04 Gerber Fmt 4.6, Leading zero omitted, Abs format (unit mm)*
G04 Created by KiCad (PCBNEW 5.1.5) date 2020-05-06 17:45:38*
%MOMM*%
%LPD*%
G04 APERTURE LIST*
%TA.AperFunction,Profile*%
%ADD10C,0.200000*%
%TD*%
%TA.AperFunction,Profile*%
%ADD11C,0.100000*%
%TD*%
G04 APERTURE END LIST*
D10*
X217000000Y-15000000D02*
X211000000Y-9000000D01*
X37000000Y-15000000D02*
X43000000Y-9000000D01*
X43000000Y-9000000D02*
X211000000Y-9000000D01*
X250000000Y235000000D02*
X254000000Y231000000D01*
X254000000Y10000000D02*
X254000000Y231000000D01*
X229000000Y-15000000D02*
X254000000Y10000000D01*
X0Y10000000D02*
X0Y231000000D01*
X0Y10000000D02*
X25000000Y-15000000D01*
X37000000Y-15000000D02*
X25000000Y-15000000D01*
X229000000Y-15000000D02*
X217000000Y-15000000D01*
D11*
X0Y231000000D02*
X4000000Y235000000D01*
D10*
X185000000Y235000000D02*
X69000000Y235000000D01*
X209000000Y235000000D02*
X250000000Y235000000D01*
D11*
X191000000Y241000000D02*
X203000000Y241000000D01*
X191000000Y241000000D02*
X185000000Y235000000D01*
X203000000Y241000000D02*
X209000000Y235000000D01*
X63000000Y241000000D02*
X69000000Y235000000D01*
X51000000Y241000000D02*
X45000000Y235000000D01*
X51000000Y241000000D02*
X63000000Y241000000D01*
X44000000Y248400000D02*
X44000000Y236000000D01*
X4000000Y248400000D02*
X5000000Y249400000D01*
X5000000Y249400000D02*
X43000000Y249400000D01*
X43000000Y249400000D02*
X44000000Y248400000D01*
X44000000Y236000000D02*
X45000000Y235000000D01*
X4000000Y235000000D02*
X4000000Y248400000D01*
M02*
