%TF.GenerationSoftware,KiCad,Pcbnew,5.1.5*%
%TF.CreationDate,2020-05-06T17:45:38-07:00*%
%TF.ProjectId,Heatbed-MK52,48656174-6265-4642-9d4d-4b35322e6b69,rev?*%
%TF.SameCoordinates,Original*%
%TF.FileFunction,Paste,Bot*%
%TF.FilePolarity,Positive*%
%FSLAX46Y46*%
G04 Gerber Fmt 4.6, Leading zero omitted, Abs format (unit mm)*
G04 Created by KiCad (PCBNEW 5.1.5) date 2020-05-06 17:45:38*
%MOMM*%
%LPD*%
G04 APERTURE LIST*
%ADD10C,0.100000*%
G04 APERTURE END LIST*
D10*
%TO.C,J2*%
G36*
X95923513Y142396389D02*
G01*
X95996318Y142385589D01*
X96067714Y142367705D01*
X96137013Y142342910D01*
X96203548Y142311441D01*
X96266678Y142273602D01*
X96325795Y142229758D01*
X96380330Y142180330D01*
X96429758Y142125795D01*
X96473602Y142066678D01*
X96511441Y142003548D01*
X96542910Y141937013D01*
X96567705Y141867714D01*
X96585589Y141796318D01*
X96596389Y141723513D01*
X96600000Y141650000D01*
X96600000Y137150000D01*
X96596389Y137076487D01*
X96585589Y137003682D01*
X96567705Y136932286D01*
X96542910Y136862987D01*
X96511441Y136796452D01*
X96473602Y136733322D01*
X96429758Y136674205D01*
X96380330Y136619670D01*
X96325795Y136570242D01*
X96266678Y136526398D01*
X96203548Y136488559D01*
X96137013Y136457090D01*
X96067714Y136432295D01*
X95996318Y136414411D01*
X95923513Y136403611D01*
X95850000Y136400000D01*
X94350000Y136400000D01*
X94276487Y136403611D01*
X94203682Y136414411D01*
X94132286Y136432295D01*
X94062987Y136457090D01*
X93996452Y136488559D01*
X93933322Y136526398D01*
X93874205Y136570242D01*
X93819670Y136619670D01*
X93770242Y136674205D01*
X93726398Y136733322D01*
X93688559Y136796452D01*
X93657090Y136862987D01*
X93632295Y136932286D01*
X93614411Y137003682D01*
X93603611Y137076487D01*
X93600000Y137150000D01*
X93600000Y141650000D01*
X93603611Y141723513D01*
X93614411Y141796318D01*
X93632295Y141867714D01*
X93657090Y141937013D01*
X93688559Y142003548D01*
X93726398Y142066678D01*
X93770242Y142125795D01*
X93819670Y142180330D01*
X93874205Y142229758D01*
X93933322Y142273602D01*
X93996452Y142311441D01*
X94062987Y142342910D01*
X94132286Y142367705D01*
X94203682Y142385589D01*
X94276487Y142396389D01*
X94350000Y142400000D01*
X95850000Y142400000D01*
X95923513Y142396389D01*
G37*
G36*
X100923513Y142396389D02*
G01*
X100996318Y142385589D01*
X101067714Y142367705D01*
X101137013Y142342910D01*
X101203548Y142311441D01*
X101266678Y142273602D01*
X101325795Y142229758D01*
X101380330Y142180330D01*
X101429758Y142125795D01*
X101473602Y142066678D01*
X101511441Y142003548D01*
X101542910Y141937013D01*
X101567705Y141867714D01*
X101585589Y141796318D01*
X101596389Y141723513D01*
X101600000Y141650000D01*
X101600000Y137150000D01*
X101596389Y137076487D01*
X101585589Y137003682D01*
X101567705Y136932286D01*
X101542910Y136862987D01*
X101511441Y136796452D01*
X101473602Y136733322D01*
X101429758Y136674205D01*
X101380330Y136619670D01*
X101325795Y136570242D01*
X101266678Y136526398D01*
X101203548Y136488559D01*
X101137013Y136457090D01*
X101067714Y136432295D01*
X100996318Y136414411D01*
X100923513Y136403611D01*
X100850000Y136400000D01*
X99350000Y136400000D01*
X99276487Y136403611D01*
X99203682Y136414411D01*
X99132286Y136432295D01*
X99062987Y136457090D01*
X98996452Y136488559D01*
X98933322Y136526398D01*
X98874205Y136570242D01*
X98819670Y136619670D01*
X98770242Y136674205D01*
X98726398Y136733322D01*
X98688559Y136796452D01*
X98657090Y136862987D01*
X98632295Y136932286D01*
X98614411Y137003682D01*
X98603611Y137076487D01*
X98600000Y137150000D01*
X98600000Y141650000D01*
X98603611Y141723513D01*
X98614411Y141796318D01*
X98632295Y141867714D01*
X98657090Y141937013D01*
X98688559Y142003548D01*
X98726398Y142066678D01*
X98770242Y142125795D01*
X98819670Y142180330D01*
X98874205Y142229758D01*
X98933322Y142273602D01*
X98996452Y142311441D01*
X99062987Y142342910D01*
X99132286Y142367705D01*
X99203682Y142385589D01*
X99276487Y142396389D01*
X99350000Y142400000D01*
X100850000Y142400000D01*
X100923513Y142396389D01*
G37*
%TD*%
M02*
