%TF.GenerationSoftware,KiCad,Pcbnew,5.1.5*%
%TF.CreationDate,2020-05-06T17:45:38-07:00*%
%TF.ProjectId,Heatbed-MK52,48656174-6265-4642-9d4d-4b35322e6b69,rev?*%
%TF.SameCoordinates,Original*%
%TF.FileFunction,Other,User*%
%FSLAX46Y46*%
G04 Gerber Fmt 4.6, Leading zero omitted, Abs format (unit mm)*
G04 Created by KiCad (PCBNEW 5.1.5) date 2020-05-06 17:45:38*
%MOMM*%
%LPD*%
G04 APERTURE LIST*
%ADD10C,0.200000*%
%ADD11C,0.100000*%
%ADD12C,0.050000*%
G04 APERTURE END LIST*
D10*
X128400000Y114400000D02*
X128400000Y115700000D01*
D11*
%TO.C,REF\002A\002A*%
X235250000Y10000000D02*
G75*
G03X235250000Y10000000I-3250000J0D01*
G01*
X130250000Y10000000D02*
G75*
G03X130250000Y10000000I-3250000J0D01*
G01*
X20250000Y10000000D02*
G75*
G03X20250000Y10000000I-3250000J0D01*
G01*
X20250000Y220000000D02*
G75*
G03X20250000Y220000000I-3250000J0D01*
G01*
X130250000Y220000000D02*
G75*
G03X130250000Y220000000I-3250000J0D01*
G01*
X235250000Y220000000D02*
G75*
G03X235250000Y220000000I-3250000J0D01*
G01*
X235250000Y115000000D02*
G75*
G03X235250000Y115000000I-3250000J0D01*
G01*
X130250000Y115000000D02*
G75*
G03X130250000Y115000000I-3250000J0D01*
G01*
X20250000Y115000000D02*
G75*
G03X20250000Y115000000I-3250000J0D01*
G01*
X200000000Y231000000D02*
G75*
G03X200000000Y231000000I-3000000J0D01*
G01*
X60000000Y231000000D02*
G75*
G03X60000000Y231000000I-3000000J0D01*
G01*
X21500000Y242000000D02*
G75*
G03X21500000Y242000000I-3000000J0D01*
G01*
D12*
%TO.C,D1*%
X16600000Y238450000D02*
X20400000Y238450000D01*
X16600000Y236550000D02*
X16600000Y238450000D01*
X20400000Y236550000D02*
X16600000Y236550000D01*
X20400000Y238450000D02*
X20400000Y236550000D01*
%TO.C,R1*%
X20100000Y246500000D02*
X16900000Y246500000D01*
X20100000Y248500000D02*
X16900000Y248500000D01*
X20100000Y246500000D02*
X20100000Y248500000D01*
X16900000Y246500000D02*
X16900000Y248500000D01*
%TO.C,J1*%
X33650000Y239710000D02*
X33650000Y250610000D01*
X33650000Y250610000D02*
X44290000Y250610000D01*
X44290000Y250610000D02*
X44290000Y239710000D01*
X44290000Y239710000D02*
X33650000Y239710000D01*
%TD*%
M02*
