%TF.GenerationSoftware,KiCad,Pcbnew,5.1.5*%
%TF.CreationDate,2020-05-06T17:45:38-07:00*%
%TF.ProjectId,Heatbed-MK52,48656174-6265-4642-9d4d-4b35322e6b69,rev?*%
%TF.SameCoordinates,Original*%
%TF.FileFunction,Copper,L2,Bot*%
%TF.FilePolarity,Positive*%
%FSLAX46Y46*%
G04 Gerber Fmt 4.6, Leading zero omitted, Abs format (unit mm)*
G04 Created by KiCad (PCBNEW 5.1.5) date 2020-05-06 17:45:38*
%MOMM*%
%LPD*%
G04 APERTURE LIST*
%TA.AperFunction,ComponentPad*%
%ADD10C,0.100000*%
%TD*%
%TA.AperFunction,ComponentPad*%
%ADD11O,1.500000X2.020000*%
%TD*%
%TA.AperFunction,SMDPad,CuDef*%
%ADD12C,0.100000*%
%TD*%
%TA.AperFunction,Conductor*%
%ADD13C,0.766000*%
%TD*%
%TA.AperFunction,NonConductor*%
%ADD14C,0.254000*%
%TD*%
G04 APERTURE END LIST*
%TA.AperFunction,ComponentPad*%
D10*
%TO.P,J1,1*%
%TO.N,Net-(J1-Pad1)*%
G36*
X37994504Y242198796D02*
G01*
X38018773Y242195196D01*
X38042571Y242189235D01*
X38065671Y242180970D01*
X38087849Y242170480D01*
X38108893Y242157867D01*
X38128598Y242143253D01*
X38146777Y242126777D01*
X38163253Y242108598D01*
X38177867Y242088893D01*
X38190480Y242067849D01*
X38200970Y242045671D01*
X38209235Y242022571D01*
X38215196Y241998773D01*
X38218796Y241974504D01*
X38220000Y241950000D01*
X38220000Y240430000D01*
X38218796Y240405496D01*
X38215196Y240381227D01*
X38209235Y240357429D01*
X38200970Y240334329D01*
X38190480Y240312151D01*
X38177867Y240291107D01*
X38163253Y240271402D01*
X38146777Y240253223D01*
X38128598Y240236747D01*
X38108893Y240222133D01*
X38087849Y240209520D01*
X38065671Y240199030D01*
X38042571Y240190765D01*
X38018773Y240184804D01*
X37994504Y240181204D01*
X37970000Y240180000D01*
X36970000Y240180000D01*
X36945496Y240181204D01*
X36921227Y240184804D01*
X36897429Y240190765D01*
X36874329Y240199030D01*
X36852151Y240209520D01*
X36831107Y240222133D01*
X36811402Y240236747D01*
X36793223Y240253223D01*
X36776747Y240271402D01*
X36762133Y240291107D01*
X36749520Y240312151D01*
X36739030Y240334329D01*
X36730765Y240357429D01*
X36724804Y240381227D01*
X36721204Y240405496D01*
X36720000Y240430000D01*
X36720000Y241950000D01*
X36721204Y241974504D01*
X36724804Y241998773D01*
X36730765Y242022571D01*
X36739030Y242045671D01*
X36749520Y242067849D01*
X36762133Y242088893D01*
X36776747Y242108598D01*
X36793223Y242126777D01*
X36811402Y242143253D01*
X36831107Y242157867D01*
X36852151Y242170480D01*
X36874329Y242180970D01*
X36897429Y242189235D01*
X36921227Y242195196D01*
X36945496Y242198796D01*
X36970000Y242200000D01*
X37970000Y242200000D01*
X37994504Y242198796D01*
G37*
%TD.AperFunction*%
D11*
%TO.P,J1,2*%
%TO.N,Net-(J1-Pad2)*%
X40470000Y241190000D03*
%TD*%
%TA.AperFunction,SMDPad,CuDef*%
D12*
%TO.P,J2,1*%
%TO.N,Net-(J1-Pad1)*%
G36*
X95923513Y142396389D02*
G01*
X95996318Y142385589D01*
X96067714Y142367705D01*
X96137013Y142342910D01*
X96203548Y142311441D01*
X96266678Y142273602D01*
X96325795Y142229758D01*
X96380330Y142180330D01*
X96429758Y142125795D01*
X96473602Y142066678D01*
X96511441Y142003548D01*
X96542910Y141937013D01*
X96567705Y141867714D01*
X96585589Y141796318D01*
X96596389Y141723513D01*
X96600000Y141650000D01*
X96600000Y137150000D01*
X96596389Y137076487D01*
X96585589Y137003682D01*
X96567705Y136932286D01*
X96542910Y136862987D01*
X96511441Y136796452D01*
X96473602Y136733322D01*
X96429758Y136674205D01*
X96380330Y136619670D01*
X96325795Y136570242D01*
X96266678Y136526398D01*
X96203548Y136488559D01*
X96137013Y136457090D01*
X96067714Y136432295D01*
X95996318Y136414411D01*
X95923513Y136403611D01*
X95850000Y136400000D01*
X94350000Y136400000D01*
X94276487Y136403611D01*
X94203682Y136414411D01*
X94132286Y136432295D01*
X94062987Y136457090D01*
X93996452Y136488559D01*
X93933322Y136526398D01*
X93874205Y136570242D01*
X93819670Y136619670D01*
X93770242Y136674205D01*
X93726398Y136733322D01*
X93688559Y136796452D01*
X93657090Y136862987D01*
X93632295Y136932286D01*
X93614411Y137003682D01*
X93603611Y137076487D01*
X93600000Y137150000D01*
X93600000Y141650000D01*
X93603611Y141723513D01*
X93614411Y141796318D01*
X93632295Y141867714D01*
X93657090Y141937013D01*
X93688559Y142003548D01*
X93726398Y142066678D01*
X93770242Y142125795D01*
X93819670Y142180330D01*
X93874205Y142229758D01*
X93933322Y142273602D01*
X93996452Y142311441D01*
X94062987Y142342910D01*
X94132286Y142367705D01*
X94203682Y142385589D01*
X94276487Y142396389D01*
X94350000Y142400000D01*
X95850000Y142400000D01*
X95923513Y142396389D01*
G37*
%TD.AperFunction*%
%TA.AperFunction,SMDPad,CuDef*%
%TO.P,J2,2*%
%TO.N,Net-(J1-Pad2)*%
G36*
X100923513Y142396389D02*
G01*
X100996318Y142385589D01*
X101067714Y142367705D01*
X101137013Y142342910D01*
X101203548Y142311441D01*
X101266678Y142273602D01*
X101325795Y142229758D01*
X101380330Y142180330D01*
X101429758Y142125795D01*
X101473602Y142066678D01*
X101511441Y142003548D01*
X101542910Y141937013D01*
X101567705Y141867714D01*
X101585589Y141796318D01*
X101596389Y141723513D01*
X101600000Y141650000D01*
X101600000Y137150000D01*
X101596389Y137076487D01*
X101585589Y137003682D01*
X101567705Y136932286D01*
X101542910Y136862987D01*
X101511441Y136796452D01*
X101473602Y136733322D01*
X101429758Y136674205D01*
X101380330Y136619670D01*
X101325795Y136570242D01*
X101266678Y136526398D01*
X101203548Y136488559D01*
X101137013Y136457090D01*
X101067714Y136432295D01*
X100996318Y136414411D01*
X100923513Y136403611D01*
X100850000Y136400000D01*
X99350000Y136400000D01*
X99276487Y136403611D01*
X99203682Y136414411D01*
X99132286Y136432295D01*
X99062987Y136457090D01*
X98996452Y136488559D01*
X98933322Y136526398D01*
X98874205Y136570242D01*
X98819670Y136619670D01*
X98770242Y136674205D01*
X98726398Y136733322D01*
X98688559Y136796452D01*
X98657090Y136862987D01*
X98632295Y136932286D01*
X98614411Y137003682D01*
X98603611Y137076487D01*
X98600000Y137150000D01*
X98600000Y141650000D01*
X98603611Y141723513D01*
X98614411Y141796318D01*
X98632295Y141867714D01*
X98657090Y141937013D01*
X98688559Y142003548D01*
X98726398Y142066678D01*
X98770242Y142125795D01*
X98819670Y142180330D01*
X98874205Y142229758D01*
X98933322Y142273602D01*
X98996452Y142311441D01*
X99062987Y142342910D01*
X99132286Y142367705D01*
X99203682Y142385589D01*
X99276487Y142396389D01*
X99350000Y142400000D01*
X100850000Y142400000D01*
X100923513Y142396389D01*
G37*
%TD.AperFunction*%
%TD*%
D13*
%TO.N,Net-(J1-Pad1)*%
X95100000Y139400000D02*
X95100000Y147470000D01*
X37470000Y205100000D02*
X37470000Y241190000D01*
X95100000Y147470000D02*
X37470000Y205100000D01*
%TO.N,Net-(J1-Pad2)*%
X100100000Y142400000D02*
X99930000Y142570000D01*
X100100000Y139400000D02*
X100100000Y142400000D01*
X99930000Y142570000D02*
X99930000Y148990000D01*
X40470000Y208450000D02*
X40470000Y241190000D01*
X99930000Y148990000D02*
X40470000Y208450000D01*
%TD*%
D14*
G36*
X35960000Y205174170D02*
G01*
X35952695Y205100000D01*
X35960000Y205025830D01*
X35960000Y205025823D01*
X35981849Y204803989D01*
X36068192Y204519353D01*
X36208406Y204257031D01*
X36397103Y204027103D01*
X36454721Y203979817D01*
X93590001Y146844536D01*
X93590000Y143367985D01*
X93304165Y143215202D01*
X93018905Y142981095D01*
X92784798Y142695835D01*
X92610840Y142370384D01*
X92503718Y142017248D01*
X92467547Y141650000D01*
X92467547Y137150000D01*
X92503718Y136782752D01*
X92610840Y136429616D01*
X92784798Y136104165D01*
X93018905Y135818905D01*
X93304165Y135584798D01*
X93629616Y135410840D01*
X93982752Y135303718D01*
X94350000Y135267547D01*
X95850000Y135267547D01*
X96217248Y135303718D01*
X96570384Y135410840D01*
X96895835Y135584798D01*
X97181095Y135818905D01*
X97415202Y136104165D01*
X97589160Y136429616D01*
X97600000Y136465351D01*
X97610840Y136429616D01*
X97784798Y136104165D01*
X98018905Y135818905D01*
X98304165Y135584798D01*
X98629616Y135410840D01*
X98982752Y135303718D01*
X99350000Y135267547D01*
X100850000Y135267547D01*
X101217248Y135303718D01*
X101570384Y135410840D01*
X101895835Y135584798D01*
X102181095Y135818905D01*
X102415202Y136104165D01*
X102589160Y136429616D01*
X102696282Y136782752D01*
X102732453Y137150000D01*
X102732453Y141650000D01*
X102696282Y142017248D01*
X102589160Y142370384D01*
X102415202Y142695835D01*
X102181095Y142981095D01*
X101895835Y143215202D01*
X101570384Y143389160D01*
X101440000Y143428711D01*
X101440000Y148915830D01*
X101447305Y148990001D01*
X101440000Y149064172D01*
X101440000Y149064178D01*
X101418151Y149286012D01*
X101331808Y149570648D01*
X101191594Y149832970D01*
X101002897Y150062897D01*
X100945279Y150110183D01*
X41980000Y209075462D01*
X41980000Y220263662D01*
X124323000Y220263662D01*
X124323000Y219736338D01*
X124425875Y219219148D01*
X124627673Y218731965D01*
X124920638Y218293512D01*
X125293512Y217920638D01*
X125731965Y217627673D01*
X126219148Y217425875D01*
X126736338Y217323000D01*
X127263662Y217323000D01*
X127780852Y217425875D01*
X128268035Y217627673D01*
X128706488Y217920638D01*
X129079362Y218293512D01*
X129372327Y218731965D01*
X129574125Y219219148D01*
X129677000Y219736338D01*
X129677000Y220263662D01*
X229323000Y220263662D01*
X229323000Y219736338D01*
X229425875Y219219148D01*
X229627673Y218731965D01*
X229920638Y218293512D01*
X230293512Y217920638D01*
X230731965Y217627673D01*
X231219148Y217425875D01*
X231736338Y217323000D01*
X232263662Y217323000D01*
X232780852Y217425875D01*
X233268035Y217627673D01*
X233706488Y217920638D01*
X234079362Y218293512D01*
X234372327Y218731965D01*
X234574125Y219219148D01*
X234677000Y219736338D01*
X234677000Y220263662D01*
X234574125Y220780852D01*
X234372327Y221268035D01*
X234079362Y221706488D01*
X233706488Y222079362D01*
X233268035Y222372327D01*
X232780852Y222574125D01*
X232263662Y222677000D01*
X231736338Y222677000D01*
X231219148Y222574125D01*
X230731965Y222372327D01*
X230293512Y222079362D01*
X229920638Y221706488D01*
X229627673Y221268035D01*
X229425875Y220780852D01*
X229323000Y220263662D01*
X129677000Y220263662D01*
X129574125Y220780852D01*
X129372327Y221268035D01*
X129079362Y221706488D01*
X128706488Y222079362D01*
X128268035Y222372327D01*
X127780852Y222574125D01*
X127263662Y222677000D01*
X126736338Y222677000D01*
X126219148Y222574125D01*
X125731965Y222372327D01*
X125293512Y222079362D01*
X124920638Y221706488D01*
X124627673Y221268035D01*
X124425875Y220780852D01*
X124323000Y220263662D01*
X41980000Y220263662D01*
X41980000Y231258737D01*
X54373000Y231258737D01*
X54373000Y230741263D01*
X54473954Y230233732D01*
X54671983Y229755649D01*
X54959476Y229325385D01*
X55325385Y228959476D01*
X55755649Y228671983D01*
X56233732Y228473954D01*
X56741263Y228373000D01*
X57258737Y228373000D01*
X57766268Y228473954D01*
X58244351Y228671983D01*
X58674615Y228959476D01*
X59040524Y229325385D01*
X59328017Y229755649D01*
X59526046Y230233732D01*
X59627000Y230741263D01*
X59627000Y231258737D01*
X194373000Y231258737D01*
X194373000Y230741263D01*
X194473954Y230233732D01*
X194671983Y229755649D01*
X194959476Y229325385D01*
X195325385Y228959476D01*
X195755649Y228671983D01*
X196233732Y228473954D01*
X196741263Y228373000D01*
X197258737Y228373000D01*
X197766268Y228473954D01*
X198244351Y228671983D01*
X198674615Y228959476D01*
X199040524Y229325385D01*
X199328017Y229755649D01*
X199526046Y230233732D01*
X199627000Y230741263D01*
X199627000Y231258737D01*
X199526046Y231766268D01*
X199328017Y232244351D01*
X199040524Y232674615D01*
X198674615Y233040524D01*
X198244351Y233328017D01*
X197766268Y233526046D01*
X197258737Y233627000D01*
X196741263Y233627000D01*
X196233732Y233526046D01*
X195755649Y233328017D01*
X195325385Y233040524D01*
X194959476Y232674615D01*
X194671983Y232244351D01*
X194473954Y231766268D01*
X194373000Y231258737D01*
X59627000Y231258737D01*
X59526046Y231766268D01*
X59328017Y232244351D01*
X59040524Y232674615D01*
X58674615Y233040524D01*
X58244351Y233328017D01*
X57766268Y233526046D01*
X57258737Y233627000D01*
X56741263Y233627000D01*
X56233732Y233526046D01*
X55755649Y233328017D01*
X55325385Y233040524D01*
X54959476Y232674615D01*
X54671983Y232244351D01*
X54473954Y231766268D01*
X54373000Y231258737D01*
X41980000Y231258737D01*
X41980000Y234873000D01*
X43462471Y234873000D01*
X44126866Y234208604D01*
X44163710Y234163710D01*
X44208603Y234126867D01*
X44208614Y234126856D01*
X44342930Y234016626D01*
X44547402Y233907334D01*
X44769268Y233840031D01*
X45000000Y233817306D01*
X45230732Y233840031D01*
X45452598Y233907334D01*
X45657070Y234016626D01*
X45836291Y234163709D01*
X45873151Y234208623D01*
X46537528Y234873000D01*
X67462471Y234873000D01*
X67922487Y234412984D01*
X67974851Y234315017D01*
X68128183Y234128183D01*
X68315017Y233974851D01*
X68528176Y233860916D01*
X68759466Y233790755D01*
X68939732Y233773000D01*
X185060268Y233773000D01*
X185240534Y233790755D01*
X185471824Y233860916D01*
X185684983Y233974851D01*
X185871817Y234128183D01*
X186025149Y234315017D01*
X186077514Y234412986D01*
X186537528Y234873000D01*
X207462471Y234873000D01*
X207922487Y234412984D01*
X207974851Y234315017D01*
X208128183Y234128183D01*
X208315017Y233974851D01*
X208528176Y233860916D01*
X208759466Y233790755D01*
X208939732Y233773000D01*
X249491761Y233773000D01*
X252773001Y230491759D01*
X252773000Y10508240D01*
X233391761Y-8873000D01*
X212608239Y-8873000D01*
X211910239Y-8175000D01*
X211871817Y-8128183D01*
X211684983Y-7974851D01*
X211471824Y-7860916D01*
X211240534Y-7790755D01*
X211060268Y-7773000D01*
X211060260Y-7773000D01*
X211000000Y-7767065D01*
X210939740Y-7773000D01*
X43060259Y-7773000D01*
X42999999Y-7767065D01*
X42939739Y-7773000D01*
X42939732Y-7773000D01*
X42759466Y-7790755D01*
X42528176Y-7860916D01*
X42315017Y-7974851D01*
X42128183Y-8128183D01*
X42089765Y-8174995D01*
X41391760Y-8873000D01*
X20608240Y-8873000D01*
X1471578Y10263662D01*
X14323000Y10263662D01*
X14323000Y9736338D01*
X14425875Y9219148D01*
X14627673Y8731965D01*
X14920638Y8293512D01*
X15293512Y7920638D01*
X15731965Y7627673D01*
X16219148Y7425875D01*
X16736338Y7323000D01*
X17263662Y7323000D01*
X17780852Y7425875D01*
X18268035Y7627673D01*
X18706488Y7920638D01*
X19079362Y8293512D01*
X19372327Y8731965D01*
X19574125Y9219148D01*
X19677000Y9736338D01*
X19677000Y10263662D01*
X124323000Y10263662D01*
X124323000Y9736338D01*
X124425875Y9219148D01*
X124627673Y8731965D01*
X124920638Y8293512D01*
X125293512Y7920638D01*
X125731965Y7627673D01*
X126219148Y7425875D01*
X126736338Y7323000D01*
X127263662Y7323000D01*
X127780852Y7425875D01*
X128268035Y7627673D01*
X128706488Y7920638D01*
X129079362Y8293512D01*
X129372327Y8731965D01*
X129574125Y9219148D01*
X129677000Y9736338D01*
X129677000Y10263662D01*
X229323000Y10263662D01*
X229323000Y9736338D01*
X229425875Y9219148D01*
X229627673Y8731965D01*
X229920638Y8293512D01*
X230293512Y7920638D01*
X230731965Y7627673D01*
X231219148Y7425875D01*
X231736338Y7323000D01*
X232263662Y7323000D01*
X232780852Y7425875D01*
X233268035Y7627673D01*
X233706488Y7920638D01*
X234079362Y8293512D01*
X234372327Y8731965D01*
X234574125Y9219148D01*
X234677000Y9736338D01*
X234677000Y10263662D01*
X234574125Y10780852D01*
X234372327Y11268035D01*
X234079362Y11706488D01*
X233706488Y12079362D01*
X233268035Y12372327D01*
X232780852Y12574125D01*
X232263662Y12677000D01*
X231736338Y12677000D01*
X231219148Y12574125D01*
X230731965Y12372327D01*
X230293512Y12079362D01*
X229920638Y11706488D01*
X229627673Y11268035D01*
X229425875Y10780852D01*
X229323000Y10263662D01*
X129677000Y10263662D01*
X129574125Y10780852D01*
X129372327Y11268035D01*
X129079362Y11706488D01*
X128706488Y12079362D01*
X128268035Y12372327D01*
X127780852Y12574125D01*
X127263662Y12677000D01*
X126736338Y12677000D01*
X126219148Y12574125D01*
X125731965Y12372327D01*
X125293512Y12079362D01*
X124920638Y11706488D01*
X124627673Y11268035D01*
X124425875Y10780852D01*
X124323000Y10263662D01*
X19677000Y10263662D01*
X19574125Y10780852D01*
X19372327Y11268035D01*
X19079362Y11706488D01*
X18706488Y12079362D01*
X18268035Y12372327D01*
X17780852Y12574125D01*
X17263662Y12677000D01*
X16736338Y12677000D01*
X16219148Y12574125D01*
X15731965Y12372327D01*
X15293512Y12079362D01*
X14920638Y11706488D01*
X14627673Y11268035D01*
X14425875Y10780852D01*
X14323000Y10263662D01*
X1471578Y10263662D01*
X1227000Y10508239D01*
X1227000Y115263662D01*
X14323000Y115263662D01*
X14323000Y114736338D01*
X14425875Y114219148D01*
X14627673Y113731965D01*
X14920638Y113293512D01*
X15293512Y112920638D01*
X15731965Y112627673D01*
X16219148Y112425875D01*
X16736338Y112323000D01*
X17263662Y112323000D01*
X17780852Y112425875D01*
X18268035Y112627673D01*
X18706488Y112920638D01*
X19079362Y113293512D01*
X19372327Y113731965D01*
X19574125Y114219148D01*
X19677000Y114736338D01*
X19677000Y115263662D01*
X124323000Y115263662D01*
X124323000Y114736338D01*
X124425875Y114219148D01*
X124627673Y113731965D01*
X124920638Y113293512D01*
X125293512Y112920638D01*
X125731965Y112627673D01*
X126219148Y112425875D01*
X126736338Y112323000D01*
X127263662Y112323000D01*
X127780852Y112425875D01*
X128268035Y112627673D01*
X128706488Y112920638D01*
X129079362Y113293512D01*
X129372327Y113731965D01*
X129574125Y114219148D01*
X129677000Y114736338D01*
X129677000Y115263662D01*
X229323000Y115263662D01*
X229323000Y114736338D01*
X229425875Y114219148D01*
X229627673Y113731965D01*
X229920638Y113293512D01*
X230293512Y112920638D01*
X230731965Y112627673D01*
X231219148Y112425875D01*
X231736338Y112323000D01*
X232263662Y112323000D01*
X232780852Y112425875D01*
X233268035Y112627673D01*
X233706488Y112920638D01*
X234079362Y113293512D01*
X234372327Y113731965D01*
X234574125Y114219148D01*
X234677000Y114736338D01*
X234677000Y115263662D01*
X234574125Y115780852D01*
X234372327Y116268035D01*
X234079362Y116706488D01*
X233706488Y117079362D01*
X233268035Y117372327D01*
X232780852Y117574125D01*
X232263662Y117677000D01*
X231736338Y117677000D01*
X231219148Y117574125D01*
X230731965Y117372327D01*
X230293512Y117079362D01*
X229920638Y116706488D01*
X229627673Y116268035D01*
X229425875Y115780852D01*
X229323000Y115263662D01*
X129677000Y115263662D01*
X129574125Y115780852D01*
X129372327Y116268035D01*
X129079362Y116706488D01*
X128706488Y117079362D01*
X128268035Y117372327D01*
X127780852Y117574125D01*
X127263662Y117677000D01*
X126736338Y117677000D01*
X126219148Y117574125D01*
X125731965Y117372327D01*
X125293512Y117079362D01*
X124920638Y116706488D01*
X124627673Y116268035D01*
X124425875Y115780852D01*
X124323000Y115263662D01*
X19677000Y115263662D01*
X19574125Y115780852D01*
X19372327Y116268035D01*
X19079362Y116706488D01*
X18706488Y117079362D01*
X18268035Y117372327D01*
X17780852Y117574125D01*
X17263662Y117677000D01*
X16736338Y117677000D01*
X16219148Y117574125D01*
X15731965Y117372327D01*
X15293512Y117079362D01*
X14920638Y116706488D01*
X14627673Y116268035D01*
X14425875Y115780852D01*
X14323000Y115263662D01*
X1227000Y115263662D01*
X1227000Y220263662D01*
X14323000Y220263662D01*
X14323000Y219736338D01*
X14425875Y219219148D01*
X14627673Y218731965D01*
X14920638Y218293512D01*
X15293512Y217920638D01*
X15731965Y217627673D01*
X16219148Y217425875D01*
X16736338Y217323000D01*
X17263662Y217323000D01*
X17780852Y217425875D01*
X18268035Y217627673D01*
X18706488Y217920638D01*
X19079362Y218293512D01*
X19372327Y218731965D01*
X19574125Y219219148D01*
X19677000Y219736338D01*
X19677000Y220263662D01*
X19574125Y220780852D01*
X19372327Y221268035D01*
X19079362Y221706488D01*
X18706488Y222079362D01*
X18268035Y222372327D01*
X17780852Y222574125D01*
X17263662Y222677000D01*
X16736338Y222677000D01*
X16219148Y222574125D01*
X15731965Y222372327D01*
X15293512Y222079362D01*
X14920638Y221706488D01*
X14627673Y221268035D01*
X14425875Y220780852D01*
X14323000Y220263662D01*
X1227000Y220263662D01*
X1227000Y230562472D01*
X4791386Y234126857D01*
X4836291Y234163709D01*
X4983374Y234342930D01*
X5092667Y234547403D01*
X5159969Y234769268D01*
X5170186Y234873000D01*
X35960001Y234873000D01*
X35960000Y205174170D01*
G37*
X35960000Y205174170D02*
X35952695Y205100000D01*
X35960000Y205025830D01*
X35960000Y205025823D01*
X35981849Y204803989D01*
X36068192Y204519353D01*
X36208406Y204257031D01*
X36397103Y204027103D01*
X36454721Y203979817D01*
X93590001Y146844536D01*
X93590000Y143367985D01*
X93304165Y143215202D01*
X93018905Y142981095D01*
X92784798Y142695835D01*
X92610840Y142370384D01*
X92503718Y142017248D01*
X92467547Y141650000D01*
X92467547Y137150000D01*
X92503718Y136782752D01*
X92610840Y136429616D01*
X92784798Y136104165D01*
X93018905Y135818905D01*
X93304165Y135584798D01*
X93629616Y135410840D01*
X93982752Y135303718D01*
X94350000Y135267547D01*
X95850000Y135267547D01*
X96217248Y135303718D01*
X96570384Y135410840D01*
X96895835Y135584798D01*
X97181095Y135818905D01*
X97415202Y136104165D01*
X97589160Y136429616D01*
X97600000Y136465351D01*
X97610840Y136429616D01*
X97784798Y136104165D01*
X98018905Y135818905D01*
X98304165Y135584798D01*
X98629616Y135410840D01*
X98982752Y135303718D01*
X99350000Y135267547D01*
X100850000Y135267547D01*
X101217248Y135303718D01*
X101570384Y135410840D01*
X101895835Y135584798D01*
X102181095Y135818905D01*
X102415202Y136104165D01*
X102589160Y136429616D01*
X102696282Y136782752D01*
X102732453Y137150000D01*
X102732453Y141650000D01*
X102696282Y142017248D01*
X102589160Y142370384D01*
X102415202Y142695835D01*
X102181095Y142981095D01*
X101895835Y143215202D01*
X101570384Y143389160D01*
X101440000Y143428711D01*
X101440000Y148915830D01*
X101447305Y148990001D01*
X101440000Y149064172D01*
X101440000Y149064178D01*
X101418151Y149286012D01*
X101331808Y149570648D01*
X101191594Y149832970D01*
X101002897Y150062897D01*
X100945279Y150110183D01*
X41980000Y209075462D01*
X41980000Y220263662D01*
X124323000Y220263662D01*
X124323000Y219736338D01*
X124425875Y219219148D01*
X124627673Y218731965D01*
X124920638Y218293512D01*
X125293512Y217920638D01*
X125731965Y217627673D01*
X126219148Y217425875D01*
X126736338Y217323000D01*
X127263662Y217323000D01*
X127780852Y217425875D01*
X128268035Y217627673D01*
X128706488Y217920638D01*
X129079362Y218293512D01*
X129372327Y218731965D01*
X129574125Y219219148D01*
X129677000Y219736338D01*
X129677000Y220263662D01*
X229323000Y220263662D01*
X229323000Y219736338D01*
X229425875Y219219148D01*
X229627673Y218731965D01*
X229920638Y218293512D01*
X230293512Y217920638D01*
X230731965Y217627673D01*
X231219148Y217425875D01*
X231736338Y217323000D01*
X232263662Y217323000D01*
X232780852Y217425875D01*
X233268035Y217627673D01*
X233706488Y217920638D01*
X234079362Y218293512D01*
X234372327Y218731965D01*
X234574125Y219219148D01*
X234677000Y219736338D01*
X234677000Y220263662D01*
X234574125Y220780852D01*
X234372327Y221268035D01*
X234079362Y221706488D01*
X233706488Y222079362D01*
X233268035Y222372327D01*
X232780852Y222574125D01*
X232263662Y222677000D01*
X231736338Y222677000D01*
X231219148Y222574125D01*
X230731965Y222372327D01*
X230293512Y222079362D01*
X229920638Y221706488D01*
X229627673Y221268035D01*
X229425875Y220780852D01*
X229323000Y220263662D01*
X129677000Y220263662D01*
X129574125Y220780852D01*
X129372327Y221268035D01*
X129079362Y221706488D01*
X128706488Y222079362D01*
X128268035Y222372327D01*
X127780852Y222574125D01*
X127263662Y222677000D01*
X126736338Y222677000D01*
X126219148Y222574125D01*
X125731965Y222372327D01*
X125293512Y222079362D01*
X124920638Y221706488D01*
X124627673Y221268035D01*
X124425875Y220780852D01*
X124323000Y220263662D01*
X41980000Y220263662D01*
X41980000Y231258737D01*
X54373000Y231258737D01*
X54373000Y230741263D01*
X54473954Y230233732D01*
X54671983Y229755649D01*
X54959476Y229325385D01*
X55325385Y228959476D01*
X55755649Y228671983D01*
X56233732Y228473954D01*
X56741263Y228373000D01*
X57258737Y228373000D01*
X57766268Y228473954D01*
X58244351Y228671983D01*
X58674615Y228959476D01*
X59040524Y229325385D01*
X59328017Y229755649D01*
X59526046Y230233732D01*
X59627000Y230741263D01*
X59627000Y231258737D01*
X194373000Y231258737D01*
X194373000Y230741263D01*
X194473954Y230233732D01*
X194671983Y229755649D01*
X194959476Y229325385D01*
X195325385Y228959476D01*
X195755649Y228671983D01*
X196233732Y228473954D01*
X196741263Y228373000D01*
X197258737Y228373000D01*
X197766268Y228473954D01*
X198244351Y228671983D01*
X198674615Y228959476D01*
X199040524Y229325385D01*
X199328017Y229755649D01*
X199526046Y230233732D01*
X199627000Y230741263D01*
X199627000Y231258737D01*
X199526046Y231766268D01*
X199328017Y232244351D01*
X199040524Y232674615D01*
X198674615Y233040524D01*
X198244351Y233328017D01*
X197766268Y233526046D01*
X197258737Y233627000D01*
X196741263Y233627000D01*
X196233732Y233526046D01*
X195755649Y233328017D01*
X195325385Y233040524D01*
X194959476Y232674615D01*
X194671983Y232244351D01*
X194473954Y231766268D01*
X194373000Y231258737D01*
X59627000Y231258737D01*
X59526046Y231766268D01*
X59328017Y232244351D01*
X59040524Y232674615D01*
X58674615Y233040524D01*
X58244351Y233328017D01*
X57766268Y233526046D01*
X57258737Y233627000D01*
X56741263Y233627000D01*
X56233732Y233526046D01*
X55755649Y233328017D01*
X55325385Y233040524D01*
X54959476Y232674615D01*
X54671983Y232244351D01*
X54473954Y231766268D01*
X54373000Y231258737D01*
X41980000Y231258737D01*
X41980000Y234873000D01*
X43462471Y234873000D01*
X44126866Y234208604D01*
X44163710Y234163710D01*
X44208603Y234126867D01*
X44208614Y234126856D01*
X44342930Y234016626D01*
X44547402Y233907334D01*
X44769268Y233840031D01*
X45000000Y233817306D01*
X45230732Y233840031D01*
X45452598Y233907334D01*
X45657070Y234016626D01*
X45836291Y234163709D01*
X45873151Y234208623D01*
X46537528Y234873000D01*
X67462471Y234873000D01*
X67922487Y234412984D01*
X67974851Y234315017D01*
X68128183Y234128183D01*
X68315017Y233974851D01*
X68528176Y233860916D01*
X68759466Y233790755D01*
X68939732Y233773000D01*
X185060268Y233773000D01*
X185240534Y233790755D01*
X185471824Y233860916D01*
X185684983Y233974851D01*
X185871817Y234128183D01*
X186025149Y234315017D01*
X186077514Y234412986D01*
X186537528Y234873000D01*
X207462471Y234873000D01*
X207922487Y234412984D01*
X207974851Y234315017D01*
X208128183Y234128183D01*
X208315017Y233974851D01*
X208528176Y233860916D01*
X208759466Y233790755D01*
X208939732Y233773000D01*
X249491761Y233773000D01*
X252773001Y230491759D01*
X252773000Y10508240D01*
X233391761Y-8873000D01*
X212608239Y-8873000D01*
X211910239Y-8175000D01*
X211871817Y-8128183D01*
X211684983Y-7974851D01*
X211471824Y-7860916D01*
X211240534Y-7790755D01*
X211060268Y-7773000D01*
X211060260Y-7773000D01*
X211000000Y-7767065D01*
X210939740Y-7773000D01*
X43060259Y-7773000D01*
X42999999Y-7767065D01*
X42939739Y-7773000D01*
X42939732Y-7773000D01*
X42759466Y-7790755D01*
X42528176Y-7860916D01*
X42315017Y-7974851D01*
X42128183Y-8128183D01*
X42089765Y-8174995D01*
X41391760Y-8873000D01*
X20608240Y-8873000D01*
X1471578Y10263662D01*
X14323000Y10263662D01*
X14323000Y9736338D01*
X14425875Y9219148D01*
X14627673Y8731965D01*
X14920638Y8293512D01*
X15293512Y7920638D01*
X15731965Y7627673D01*
X16219148Y7425875D01*
X16736338Y7323000D01*
X17263662Y7323000D01*
X17780852Y7425875D01*
X18268035Y7627673D01*
X18706488Y7920638D01*
X19079362Y8293512D01*
X19372327Y8731965D01*
X19574125Y9219148D01*
X19677000Y9736338D01*
X19677000Y10263662D01*
X124323000Y10263662D01*
X124323000Y9736338D01*
X124425875Y9219148D01*
X124627673Y8731965D01*
X124920638Y8293512D01*
X125293512Y7920638D01*
X125731965Y7627673D01*
X126219148Y7425875D01*
X126736338Y7323000D01*
X127263662Y7323000D01*
X127780852Y7425875D01*
X128268035Y7627673D01*
X128706488Y7920638D01*
X129079362Y8293512D01*
X129372327Y8731965D01*
X129574125Y9219148D01*
X129677000Y9736338D01*
X129677000Y10263662D01*
X229323000Y10263662D01*
X229323000Y9736338D01*
X229425875Y9219148D01*
X229627673Y8731965D01*
X229920638Y8293512D01*
X230293512Y7920638D01*
X230731965Y7627673D01*
X231219148Y7425875D01*
X231736338Y7323000D01*
X232263662Y7323000D01*
X232780852Y7425875D01*
X233268035Y7627673D01*
X233706488Y7920638D01*
X234079362Y8293512D01*
X234372327Y8731965D01*
X234574125Y9219148D01*
X234677000Y9736338D01*
X234677000Y10263662D01*
X234574125Y10780852D01*
X234372327Y11268035D01*
X234079362Y11706488D01*
X233706488Y12079362D01*
X233268035Y12372327D01*
X232780852Y12574125D01*
X232263662Y12677000D01*
X231736338Y12677000D01*
X231219148Y12574125D01*
X230731965Y12372327D01*
X230293512Y12079362D01*
X229920638Y11706488D01*
X229627673Y11268035D01*
X229425875Y10780852D01*
X229323000Y10263662D01*
X129677000Y10263662D01*
X129574125Y10780852D01*
X129372327Y11268035D01*
X129079362Y11706488D01*
X128706488Y12079362D01*
X128268035Y12372327D01*
X127780852Y12574125D01*
X127263662Y12677000D01*
X126736338Y12677000D01*
X126219148Y12574125D01*
X125731965Y12372327D01*
X125293512Y12079362D01*
X124920638Y11706488D01*
X124627673Y11268035D01*
X124425875Y10780852D01*
X124323000Y10263662D01*
X19677000Y10263662D01*
X19574125Y10780852D01*
X19372327Y11268035D01*
X19079362Y11706488D01*
X18706488Y12079362D01*
X18268035Y12372327D01*
X17780852Y12574125D01*
X17263662Y12677000D01*
X16736338Y12677000D01*
X16219148Y12574125D01*
X15731965Y12372327D01*
X15293512Y12079362D01*
X14920638Y11706488D01*
X14627673Y11268035D01*
X14425875Y10780852D01*
X14323000Y10263662D01*
X1471578Y10263662D01*
X1227000Y10508239D01*
X1227000Y115263662D01*
X14323000Y115263662D01*
X14323000Y114736338D01*
X14425875Y114219148D01*
X14627673Y113731965D01*
X14920638Y113293512D01*
X15293512Y112920638D01*
X15731965Y112627673D01*
X16219148Y112425875D01*
X16736338Y112323000D01*
X17263662Y112323000D01*
X17780852Y112425875D01*
X18268035Y112627673D01*
X18706488Y112920638D01*
X19079362Y113293512D01*
X19372327Y113731965D01*
X19574125Y114219148D01*
X19677000Y114736338D01*
X19677000Y115263662D01*
X124323000Y115263662D01*
X124323000Y114736338D01*
X124425875Y114219148D01*
X124627673Y113731965D01*
X124920638Y113293512D01*
X125293512Y112920638D01*
X125731965Y112627673D01*
X126219148Y112425875D01*
X126736338Y112323000D01*
X127263662Y112323000D01*
X127780852Y112425875D01*
X128268035Y112627673D01*
X128706488Y112920638D01*
X129079362Y113293512D01*
X129372327Y113731965D01*
X129574125Y114219148D01*
X129677000Y114736338D01*
X129677000Y115263662D01*
X229323000Y115263662D01*
X229323000Y114736338D01*
X229425875Y114219148D01*
X229627673Y113731965D01*
X229920638Y113293512D01*
X230293512Y112920638D01*
X230731965Y112627673D01*
X231219148Y112425875D01*
X231736338Y112323000D01*
X232263662Y112323000D01*
X232780852Y112425875D01*
X233268035Y112627673D01*
X233706488Y112920638D01*
X234079362Y113293512D01*
X234372327Y113731965D01*
X234574125Y114219148D01*
X234677000Y114736338D01*
X234677000Y115263662D01*
X234574125Y115780852D01*
X234372327Y116268035D01*
X234079362Y116706488D01*
X233706488Y117079362D01*
X233268035Y117372327D01*
X232780852Y117574125D01*
X232263662Y117677000D01*
X231736338Y117677000D01*
X231219148Y117574125D01*
X230731965Y117372327D01*
X230293512Y117079362D01*
X229920638Y116706488D01*
X229627673Y116268035D01*
X229425875Y115780852D01*
X229323000Y115263662D01*
X129677000Y115263662D01*
X129574125Y115780852D01*
X129372327Y116268035D01*
X129079362Y116706488D01*
X128706488Y117079362D01*
X128268035Y117372327D01*
X127780852Y117574125D01*
X127263662Y117677000D01*
X126736338Y117677000D01*
X126219148Y117574125D01*
X125731965Y117372327D01*
X125293512Y117079362D01*
X124920638Y116706488D01*
X124627673Y116268035D01*
X124425875Y115780852D01*
X124323000Y115263662D01*
X19677000Y115263662D01*
X19574125Y115780852D01*
X19372327Y116268035D01*
X19079362Y116706488D01*
X18706488Y117079362D01*
X18268035Y117372327D01*
X17780852Y117574125D01*
X17263662Y117677000D01*
X16736338Y117677000D01*
X16219148Y117574125D01*
X15731965Y117372327D01*
X15293512Y117079362D01*
X14920638Y116706488D01*
X14627673Y116268035D01*
X14425875Y115780852D01*
X14323000Y115263662D01*
X1227000Y115263662D01*
X1227000Y220263662D01*
X14323000Y220263662D01*
X14323000Y219736338D01*
X14425875Y219219148D01*
X14627673Y218731965D01*
X14920638Y218293512D01*
X15293512Y217920638D01*
X15731965Y217627673D01*
X16219148Y217425875D01*
X16736338Y217323000D01*
X17263662Y217323000D01*
X17780852Y217425875D01*
X18268035Y217627673D01*
X18706488Y217920638D01*
X19079362Y218293512D01*
X19372327Y218731965D01*
X19574125Y219219148D01*
X19677000Y219736338D01*
X19677000Y220263662D01*
X19574125Y220780852D01*
X19372327Y221268035D01*
X19079362Y221706488D01*
X18706488Y222079362D01*
X18268035Y222372327D01*
X17780852Y222574125D01*
X17263662Y222677000D01*
X16736338Y222677000D01*
X16219148Y222574125D01*
X15731965Y222372327D01*
X15293512Y222079362D01*
X14920638Y221706488D01*
X14627673Y221268035D01*
X14425875Y220780852D01*
X14323000Y220263662D01*
X1227000Y220263662D01*
X1227000Y230562472D01*
X4791386Y234126857D01*
X4836291Y234163709D01*
X4983374Y234342930D01*
X5092667Y234547403D01*
X5159969Y234769268D01*
X5170186Y234873000D01*
X35960001Y234873000D01*
X35960000Y205174170D01*
G36*
X38981849Y208153989D02*
G01*
X39068192Y207869353D01*
X39208406Y207607031D01*
X39397103Y207377103D01*
X39454721Y207329817D01*
X98420001Y148364537D01*
X98420000Y143277117D01*
X98304165Y143215202D01*
X98018905Y142981095D01*
X97784798Y142695835D01*
X97610840Y142370384D01*
X97600000Y142334649D01*
X97589160Y142370384D01*
X97415202Y142695835D01*
X97181095Y142981095D01*
X96895835Y143215202D01*
X96610000Y143367985D01*
X96610000Y147395829D01*
X96617305Y147470000D01*
X96610000Y147544171D01*
X96610000Y147544178D01*
X96588151Y147766012D01*
X96501808Y148050648D01*
X96361594Y148312970D01*
X96220183Y148485280D01*
X96220179Y148485284D01*
X96172897Y148542897D01*
X96115284Y148590179D01*
X38980000Y205725462D01*
X38980000Y208172762D01*
X38981849Y208153989D01*
G37*
X38981849Y208153989D02*
X39068192Y207869353D01*
X39208406Y207607031D01*
X39397103Y207377103D01*
X39454721Y207329817D01*
X98420001Y148364537D01*
X98420000Y143277117D01*
X98304165Y143215202D01*
X98018905Y142981095D01*
X97784798Y142695835D01*
X97610840Y142370384D01*
X97600000Y142334649D01*
X97589160Y142370384D01*
X97415202Y142695835D01*
X97181095Y142981095D01*
X96895835Y143215202D01*
X96610000Y143367985D01*
X96610000Y147395829D01*
X96617305Y147470000D01*
X96610000Y147544171D01*
X96610000Y147544178D01*
X96588151Y147766012D01*
X96501808Y148050648D01*
X96361594Y148312970D01*
X96220183Y148485280D01*
X96220179Y148485284D01*
X96172897Y148542897D01*
X96115284Y148590179D01*
X38980000Y205725462D01*
X38980000Y208172762D01*
X38981849Y208153989D01*
M02*
