%TF.GenerationSoftware,KiCad,Pcbnew,5.1.5*%
%TF.CreationDate,2020-05-06T17:45:38-07:00*%
%TF.ProjectId,Heatbed-MK52,48656174-6265-4642-9d4d-4b35322e6b69,rev?*%
%TF.SameCoordinates,Original*%
%TF.FileFunction,Soldermask,Bot*%
%TF.FilePolarity,Negative*%
%FSLAX46Y46*%
G04 Gerber Fmt 4.6, Leading zero omitted, Abs format (unit mm)*
G04 Created by KiCad (PCBNEW 5.1.5) date 2020-05-06 17:45:38*
%MOMM*%
%LPD*%
G04 APERTURE LIST*
%ADD10C,3.500000*%
%ADD11C,3.400000*%
%ADD12R,8.400000X10.400000*%
%ADD13C,0.100000*%
%ADD14O,1.900000X2.420000*%
G04 APERTURE END LIST*
D10*
%TO.C,REF\002A\002A*%
X232000000Y10000000D03*
%TD*%
%TO.C,REF\002A\002A*%
X127000000Y10000000D03*
%TD*%
%TO.C,REF\002A\002A*%
X17000000Y10000000D03*
%TD*%
%TO.C,REF\002A\002A*%
X17000000Y220000000D03*
%TD*%
%TO.C,REF\002A\002A*%
X127000000Y220000000D03*
%TD*%
%TO.C,REF\002A\002A*%
X232000000Y220000000D03*
%TD*%
%TO.C,REF\002A\002A*%
X232000000Y115000000D03*
%TD*%
%TO.C,REF\002A\002A*%
X127000000Y115000000D03*
%TD*%
%TO.C,REF\002A\002A*%
X17000000Y115000000D03*
%TD*%
D11*
%TO.C,REF\002A\002A*%
X197000000Y231000000D03*
%TD*%
%TO.C,REF\002A\002A*%
X57000000Y231000000D03*
%TD*%
D12*
%TO.C,P1*%
X27000000Y242000000D03*
%TD*%
%TO.C,P2*%
X10000000Y242000000D03*
%TD*%
D10*
%TO.C,REF\002A\002A*%
X18500000Y242000000D03*
%TD*%
D11*
%TO.C,J1*%
X38970000Y245510000D03*
D13*
G36*
X38134372Y242398475D02*
G01*
X38165112Y242393915D01*
X38195257Y242386364D01*
X38224516Y242375895D01*
X38252609Y242362608D01*
X38279264Y242346632D01*
X38304224Y242328120D01*
X38327250Y242307250D01*
X38348120Y242284224D01*
X38366632Y242259264D01*
X38382608Y242232609D01*
X38395895Y242204516D01*
X38406364Y242175257D01*
X38413915Y242145112D01*
X38418475Y242114372D01*
X38420000Y242083333D01*
X38420000Y240296667D01*
X38418475Y240265628D01*
X38413915Y240234888D01*
X38406364Y240204743D01*
X38395895Y240175484D01*
X38382608Y240147391D01*
X38366632Y240120736D01*
X38348120Y240095776D01*
X38327250Y240072750D01*
X38304224Y240051880D01*
X38279264Y240033368D01*
X38252609Y240017392D01*
X38224516Y240004105D01*
X38195257Y239993636D01*
X38165112Y239986085D01*
X38134372Y239981525D01*
X38103333Y239980000D01*
X36836667Y239980000D01*
X36805628Y239981525D01*
X36774888Y239986085D01*
X36744743Y239993636D01*
X36715484Y240004105D01*
X36687391Y240017392D01*
X36660736Y240033368D01*
X36635776Y240051880D01*
X36612750Y240072750D01*
X36591880Y240095776D01*
X36573368Y240120736D01*
X36557392Y240147391D01*
X36544105Y240175484D01*
X36533636Y240204743D01*
X36526085Y240234888D01*
X36521525Y240265628D01*
X36520000Y240296667D01*
X36520000Y242083333D01*
X36521525Y242114372D01*
X36526085Y242145112D01*
X36533636Y242175257D01*
X36544105Y242204516D01*
X36557392Y242232609D01*
X36573368Y242259264D01*
X36591880Y242284224D01*
X36612750Y242307250D01*
X36635776Y242328120D01*
X36660736Y242346632D01*
X36687391Y242362608D01*
X36715484Y242375895D01*
X36744743Y242386364D01*
X36774888Y242393915D01*
X36805628Y242398475D01*
X36836667Y242400000D01*
X38103333Y242400000D01*
X38134372Y242398475D01*
G37*
D14*
X40470000Y241190000D03*
%TD*%
D13*
%TO.C,J2*%
G36*
X96033315Y142595907D02*
G01*
X96115827Y142583667D01*
X96196742Y142563399D01*
X96275281Y142535298D01*
X96350687Y142499633D01*
X96422235Y142456749D01*
X96489234Y142407059D01*
X96551041Y142351041D01*
X96607059Y142289234D01*
X96656749Y142222235D01*
X96699633Y142150687D01*
X96735298Y142075281D01*
X96763399Y141996742D01*
X96783667Y141915827D01*
X96795907Y141833315D01*
X96800000Y141750000D01*
X96800000Y137050000D01*
X96795907Y136966685D01*
X96783667Y136884173D01*
X96763399Y136803258D01*
X96735298Y136724719D01*
X96699633Y136649313D01*
X96656749Y136577765D01*
X96607059Y136510766D01*
X96551041Y136448959D01*
X96489234Y136392941D01*
X96422235Y136343251D01*
X96350687Y136300367D01*
X96275281Y136264702D01*
X96196742Y136236601D01*
X96115827Y136216333D01*
X96033315Y136204093D01*
X95950000Y136200000D01*
X94250000Y136200000D01*
X94166685Y136204093D01*
X94084173Y136216333D01*
X94003258Y136236601D01*
X93924719Y136264702D01*
X93849313Y136300367D01*
X93777765Y136343251D01*
X93710766Y136392941D01*
X93648959Y136448959D01*
X93592941Y136510766D01*
X93543251Y136577765D01*
X93500367Y136649313D01*
X93464702Y136724719D01*
X93436601Y136803258D01*
X93416333Y136884173D01*
X93404093Y136966685D01*
X93400000Y137050000D01*
X93400000Y141750000D01*
X93404093Y141833315D01*
X93416333Y141915827D01*
X93436601Y141996742D01*
X93464702Y142075281D01*
X93500367Y142150687D01*
X93543251Y142222235D01*
X93592941Y142289234D01*
X93648959Y142351041D01*
X93710766Y142407059D01*
X93777765Y142456749D01*
X93849313Y142499633D01*
X93924719Y142535298D01*
X94003258Y142563399D01*
X94084173Y142583667D01*
X94166685Y142595907D01*
X94250000Y142600000D01*
X95950000Y142600000D01*
X96033315Y142595907D01*
G37*
G36*
X101033315Y142595907D02*
G01*
X101115827Y142583667D01*
X101196742Y142563399D01*
X101275281Y142535298D01*
X101350687Y142499633D01*
X101422235Y142456749D01*
X101489234Y142407059D01*
X101551041Y142351041D01*
X101607059Y142289234D01*
X101656749Y142222235D01*
X101699633Y142150687D01*
X101735298Y142075281D01*
X101763399Y141996742D01*
X101783667Y141915827D01*
X101795907Y141833315D01*
X101800000Y141750000D01*
X101800000Y137050000D01*
X101795907Y136966685D01*
X101783667Y136884173D01*
X101763399Y136803258D01*
X101735298Y136724719D01*
X101699633Y136649313D01*
X101656749Y136577765D01*
X101607059Y136510766D01*
X101551041Y136448959D01*
X101489234Y136392941D01*
X101422235Y136343251D01*
X101350687Y136300367D01*
X101275281Y136264702D01*
X101196742Y136236601D01*
X101115827Y136216333D01*
X101033315Y136204093D01*
X100950000Y136200000D01*
X99250000Y136200000D01*
X99166685Y136204093D01*
X99084173Y136216333D01*
X99003258Y136236601D01*
X98924719Y136264702D01*
X98849313Y136300367D01*
X98777765Y136343251D01*
X98710766Y136392941D01*
X98648959Y136448959D01*
X98592941Y136510766D01*
X98543251Y136577765D01*
X98500367Y136649313D01*
X98464702Y136724719D01*
X98436601Y136803258D01*
X98416333Y136884173D01*
X98404093Y136966685D01*
X98400000Y137050000D01*
X98400000Y141750000D01*
X98404093Y141833315D01*
X98416333Y141915827D01*
X98436601Y141996742D01*
X98464702Y142075281D01*
X98500367Y142150687D01*
X98543251Y142222235D01*
X98592941Y142289234D01*
X98648959Y142351041D01*
X98710766Y142407059D01*
X98777765Y142456749D01*
X98849313Y142499633D01*
X98924719Y142535298D01*
X99003258Y142563399D01*
X99084173Y142583667D01*
X99166685Y142595907D01*
X99250000Y142600000D01*
X100950000Y142600000D01*
X101033315Y142595907D01*
G37*
%TD*%
M02*
