G75*
%MOIN*%
%OFA0B0*%
%FSLAX25Y25*%
%IPPOS*%
%LPD*%
%AMOC8*
5,1,8,0,0,1.08239X$1,22.5*
%
%ADD10C,0.00000*%
%ADD11C,0.13398*%
%ADD12C,0.24422*%
%ADD13C,0.01600*%
D10*
X0003934Y0014445D02*
X0019682Y-0001303D01*
X0988186Y-0001303D01*
X1003934Y0014445D01*
X1003934Y0908146D01*
X0988186Y0923894D01*
X0137792Y0923894D01*
X0133855Y0927831D01*
X0133855Y0976650D01*
X0129918Y0980587D01*
X0023619Y0980587D01*
X0019682Y0976650D01*
X0019682Y0923894D01*
X0003934Y0908146D01*
X0003934Y0014445D01*
X0086611Y0038067D02*
X0086615Y0038357D01*
X0086625Y0038647D01*
X0086643Y0038936D01*
X0086668Y0039225D01*
X0086700Y0039513D01*
X0086739Y0039800D01*
X0086785Y0040086D01*
X0086838Y0040371D01*
X0086898Y0040655D01*
X0086965Y0040937D01*
X0087039Y0041217D01*
X0087120Y0041496D01*
X0087207Y0041772D01*
X0087301Y0042046D01*
X0087402Y0042318D01*
X0087510Y0042587D01*
X0087624Y0042853D01*
X0087745Y0043117D01*
X0087872Y0043377D01*
X0088006Y0043635D01*
X0088145Y0043889D01*
X0088291Y0044139D01*
X0088443Y0044386D01*
X0088602Y0044629D01*
X0088766Y0044868D01*
X0088935Y0045103D01*
X0089111Y0045334D01*
X0089292Y0045560D01*
X0089479Y0045782D01*
X0089671Y0045999D01*
X0089868Y0046211D01*
X0090070Y0046419D01*
X0090278Y0046621D01*
X0090490Y0046818D01*
X0090707Y0047010D01*
X0090929Y0047197D01*
X0091155Y0047378D01*
X0091386Y0047554D01*
X0091621Y0047723D01*
X0091860Y0047887D01*
X0092103Y0048046D01*
X0092350Y0048198D01*
X0092600Y0048344D01*
X0092854Y0048483D01*
X0093112Y0048617D01*
X0093372Y0048744D01*
X0093636Y0048865D01*
X0093902Y0048979D01*
X0094171Y0049087D01*
X0094443Y0049188D01*
X0094717Y0049282D01*
X0094993Y0049369D01*
X0095272Y0049450D01*
X0095552Y0049524D01*
X0095834Y0049591D01*
X0096118Y0049651D01*
X0096403Y0049704D01*
X0096689Y0049750D01*
X0096976Y0049789D01*
X0097264Y0049821D01*
X0097553Y0049846D01*
X0097842Y0049864D01*
X0098132Y0049874D01*
X0098422Y0049878D01*
X0098712Y0049874D01*
X0099002Y0049864D01*
X0099291Y0049846D01*
X0099580Y0049821D01*
X0099868Y0049789D01*
X0100155Y0049750D01*
X0100441Y0049704D01*
X0100726Y0049651D01*
X0101010Y0049591D01*
X0101292Y0049524D01*
X0101572Y0049450D01*
X0101851Y0049369D01*
X0102127Y0049282D01*
X0102401Y0049188D01*
X0102673Y0049087D01*
X0102942Y0048979D01*
X0103208Y0048865D01*
X0103472Y0048744D01*
X0103732Y0048617D01*
X0103990Y0048483D01*
X0104244Y0048344D01*
X0104494Y0048198D01*
X0104741Y0048046D01*
X0104984Y0047887D01*
X0105223Y0047723D01*
X0105458Y0047554D01*
X0105689Y0047378D01*
X0105915Y0047197D01*
X0106137Y0047010D01*
X0106354Y0046818D01*
X0106566Y0046621D01*
X0106774Y0046419D01*
X0106976Y0046211D01*
X0107173Y0045999D01*
X0107365Y0045782D01*
X0107552Y0045560D01*
X0107733Y0045334D01*
X0107909Y0045103D01*
X0108078Y0044868D01*
X0108242Y0044629D01*
X0108401Y0044386D01*
X0108553Y0044139D01*
X0108699Y0043889D01*
X0108838Y0043635D01*
X0108972Y0043377D01*
X0109099Y0043117D01*
X0109220Y0042853D01*
X0109334Y0042587D01*
X0109442Y0042318D01*
X0109543Y0042046D01*
X0109637Y0041772D01*
X0109724Y0041496D01*
X0109805Y0041217D01*
X0109879Y0040937D01*
X0109946Y0040655D01*
X0110006Y0040371D01*
X0110059Y0040086D01*
X0110105Y0039800D01*
X0110144Y0039513D01*
X0110176Y0039225D01*
X0110201Y0038936D01*
X0110219Y0038647D01*
X0110229Y0038357D01*
X0110233Y0038067D01*
X0110229Y0037777D01*
X0110219Y0037487D01*
X0110201Y0037198D01*
X0110176Y0036909D01*
X0110144Y0036621D01*
X0110105Y0036334D01*
X0110059Y0036048D01*
X0110006Y0035763D01*
X0109946Y0035479D01*
X0109879Y0035197D01*
X0109805Y0034917D01*
X0109724Y0034638D01*
X0109637Y0034362D01*
X0109543Y0034088D01*
X0109442Y0033816D01*
X0109334Y0033547D01*
X0109220Y0033281D01*
X0109099Y0033017D01*
X0108972Y0032757D01*
X0108838Y0032499D01*
X0108699Y0032245D01*
X0108553Y0031995D01*
X0108401Y0031748D01*
X0108242Y0031505D01*
X0108078Y0031266D01*
X0107909Y0031031D01*
X0107733Y0030800D01*
X0107552Y0030574D01*
X0107365Y0030352D01*
X0107173Y0030135D01*
X0106976Y0029923D01*
X0106774Y0029715D01*
X0106566Y0029513D01*
X0106354Y0029316D01*
X0106137Y0029124D01*
X0105915Y0028937D01*
X0105689Y0028756D01*
X0105458Y0028580D01*
X0105223Y0028411D01*
X0104984Y0028247D01*
X0104741Y0028088D01*
X0104494Y0027936D01*
X0104244Y0027790D01*
X0103990Y0027651D01*
X0103732Y0027517D01*
X0103472Y0027390D01*
X0103208Y0027269D01*
X0102942Y0027155D01*
X0102673Y0027047D01*
X0102401Y0026946D01*
X0102127Y0026852D01*
X0101851Y0026765D01*
X0101572Y0026684D01*
X0101292Y0026610D01*
X0101010Y0026543D01*
X0100726Y0026483D01*
X0100441Y0026430D01*
X0100155Y0026384D01*
X0099868Y0026345D01*
X0099580Y0026313D01*
X0099291Y0026288D01*
X0099002Y0026270D01*
X0098712Y0026260D01*
X0098422Y0026256D01*
X0098132Y0026260D01*
X0097842Y0026270D01*
X0097553Y0026288D01*
X0097264Y0026313D01*
X0096976Y0026345D01*
X0096689Y0026384D01*
X0096403Y0026430D01*
X0096118Y0026483D01*
X0095834Y0026543D01*
X0095552Y0026610D01*
X0095272Y0026684D01*
X0094993Y0026765D01*
X0094717Y0026852D01*
X0094443Y0026946D01*
X0094171Y0027047D01*
X0093902Y0027155D01*
X0093636Y0027269D01*
X0093372Y0027390D01*
X0093112Y0027517D01*
X0092854Y0027651D01*
X0092600Y0027790D01*
X0092350Y0027936D01*
X0092103Y0028088D01*
X0091860Y0028247D01*
X0091621Y0028411D01*
X0091386Y0028580D01*
X0091155Y0028756D01*
X0090929Y0028937D01*
X0090707Y0029124D01*
X0090490Y0029316D01*
X0090278Y0029513D01*
X0090070Y0029715D01*
X0089868Y0029923D01*
X0089671Y0030135D01*
X0089479Y0030352D01*
X0089292Y0030574D01*
X0089111Y0030800D01*
X0088935Y0031031D01*
X0088766Y0031266D01*
X0088602Y0031505D01*
X0088443Y0031748D01*
X0088291Y0031995D01*
X0088145Y0032245D01*
X0088006Y0032499D01*
X0087872Y0032757D01*
X0087745Y0033017D01*
X0087624Y0033281D01*
X0087510Y0033547D01*
X0087402Y0033816D01*
X0087301Y0034088D01*
X0087207Y0034362D01*
X0087120Y0034638D01*
X0087039Y0034917D01*
X0086965Y0035197D01*
X0086898Y0035479D01*
X0086838Y0035763D01*
X0086785Y0036048D01*
X0086739Y0036334D01*
X0086700Y0036621D01*
X0086668Y0036909D01*
X0086643Y0037198D01*
X0086625Y0037487D01*
X0086615Y0037777D01*
X0086611Y0038067D01*
X0092123Y0038067D02*
X0092125Y0038225D01*
X0092131Y0038383D01*
X0092141Y0038541D01*
X0092155Y0038699D01*
X0092173Y0038856D01*
X0092194Y0039013D01*
X0092220Y0039169D01*
X0092250Y0039325D01*
X0092283Y0039480D01*
X0092321Y0039633D01*
X0092362Y0039786D01*
X0092407Y0039938D01*
X0092456Y0040089D01*
X0092509Y0040238D01*
X0092565Y0040386D01*
X0092625Y0040532D01*
X0092689Y0040677D01*
X0092757Y0040820D01*
X0092828Y0040962D01*
X0092902Y0041102D01*
X0092980Y0041239D01*
X0093062Y0041375D01*
X0093146Y0041509D01*
X0093235Y0041640D01*
X0093326Y0041769D01*
X0093421Y0041896D01*
X0093518Y0042021D01*
X0093619Y0042143D01*
X0093723Y0042262D01*
X0093830Y0042379D01*
X0093940Y0042493D01*
X0094053Y0042604D01*
X0094168Y0042713D01*
X0094286Y0042818D01*
X0094407Y0042920D01*
X0094530Y0043020D01*
X0094656Y0043116D01*
X0094784Y0043209D01*
X0094914Y0043299D01*
X0095047Y0043385D01*
X0095182Y0043469D01*
X0095318Y0043548D01*
X0095457Y0043625D01*
X0095598Y0043697D01*
X0095740Y0043767D01*
X0095884Y0043832D01*
X0096030Y0043894D01*
X0096177Y0043952D01*
X0096326Y0044007D01*
X0096476Y0044058D01*
X0096627Y0044105D01*
X0096779Y0044148D01*
X0096932Y0044187D01*
X0097087Y0044223D01*
X0097242Y0044254D01*
X0097398Y0044282D01*
X0097554Y0044306D01*
X0097711Y0044326D01*
X0097869Y0044342D01*
X0098026Y0044354D01*
X0098185Y0044362D01*
X0098343Y0044366D01*
X0098501Y0044366D01*
X0098659Y0044362D01*
X0098818Y0044354D01*
X0098975Y0044342D01*
X0099133Y0044326D01*
X0099290Y0044306D01*
X0099446Y0044282D01*
X0099602Y0044254D01*
X0099757Y0044223D01*
X0099912Y0044187D01*
X0100065Y0044148D01*
X0100217Y0044105D01*
X0100368Y0044058D01*
X0100518Y0044007D01*
X0100667Y0043952D01*
X0100814Y0043894D01*
X0100960Y0043832D01*
X0101104Y0043767D01*
X0101246Y0043697D01*
X0101387Y0043625D01*
X0101526Y0043548D01*
X0101662Y0043469D01*
X0101797Y0043385D01*
X0101930Y0043299D01*
X0102060Y0043209D01*
X0102188Y0043116D01*
X0102314Y0043020D01*
X0102437Y0042920D01*
X0102558Y0042818D01*
X0102676Y0042713D01*
X0102791Y0042604D01*
X0102904Y0042493D01*
X0103014Y0042379D01*
X0103121Y0042262D01*
X0103225Y0042143D01*
X0103326Y0042021D01*
X0103423Y0041896D01*
X0103518Y0041769D01*
X0103609Y0041640D01*
X0103698Y0041509D01*
X0103782Y0041375D01*
X0103864Y0041239D01*
X0103942Y0041102D01*
X0104016Y0040962D01*
X0104087Y0040820D01*
X0104155Y0040677D01*
X0104219Y0040532D01*
X0104279Y0040386D01*
X0104335Y0040238D01*
X0104388Y0040089D01*
X0104437Y0039938D01*
X0104482Y0039786D01*
X0104523Y0039633D01*
X0104561Y0039480D01*
X0104594Y0039325D01*
X0104624Y0039169D01*
X0104650Y0039013D01*
X0104671Y0038856D01*
X0104689Y0038699D01*
X0104703Y0038541D01*
X0104713Y0038383D01*
X0104719Y0038225D01*
X0104721Y0038067D01*
X0104719Y0037909D01*
X0104713Y0037751D01*
X0104703Y0037593D01*
X0104689Y0037435D01*
X0104671Y0037278D01*
X0104650Y0037121D01*
X0104624Y0036965D01*
X0104594Y0036809D01*
X0104561Y0036654D01*
X0104523Y0036501D01*
X0104482Y0036348D01*
X0104437Y0036196D01*
X0104388Y0036045D01*
X0104335Y0035896D01*
X0104279Y0035748D01*
X0104219Y0035602D01*
X0104155Y0035457D01*
X0104087Y0035314D01*
X0104016Y0035172D01*
X0103942Y0035032D01*
X0103864Y0034895D01*
X0103782Y0034759D01*
X0103698Y0034625D01*
X0103609Y0034494D01*
X0103518Y0034365D01*
X0103423Y0034238D01*
X0103326Y0034113D01*
X0103225Y0033991D01*
X0103121Y0033872D01*
X0103014Y0033755D01*
X0102904Y0033641D01*
X0102791Y0033530D01*
X0102676Y0033421D01*
X0102558Y0033316D01*
X0102437Y0033214D01*
X0102314Y0033114D01*
X0102188Y0033018D01*
X0102060Y0032925D01*
X0101930Y0032835D01*
X0101797Y0032749D01*
X0101662Y0032665D01*
X0101526Y0032586D01*
X0101387Y0032509D01*
X0101246Y0032437D01*
X0101104Y0032367D01*
X0100960Y0032302D01*
X0100814Y0032240D01*
X0100667Y0032182D01*
X0100518Y0032127D01*
X0100368Y0032076D01*
X0100217Y0032029D01*
X0100065Y0031986D01*
X0099912Y0031947D01*
X0099757Y0031911D01*
X0099602Y0031880D01*
X0099446Y0031852D01*
X0099290Y0031828D01*
X0099133Y0031808D01*
X0098975Y0031792D01*
X0098818Y0031780D01*
X0098659Y0031772D01*
X0098501Y0031768D01*
X0098343Y0031768D01*
X0098185Y0031772D01*
X0098026Y0031780D01*
X0097869Y0031792D01*
X0097711Y0031808D01*
X0097554Y0031828D01*
X0097398Y0031852D01*
X0097242Y0031880D01*
X0097087Y0031911D01*
X0096932Y0031947D01*
X0096779Y0031986D01*
X0096627Y0032029D01*
X0096476Y0032076D01*
X0096326Y0032127D01*
X0096177Y0032182D01*
X0096030Y0032240D01*
X0095884Y0032302D01*
X0095740Y0032367D01*
X0095598Y0032437D01*
X0095457Y0032509D01*
X0095318Y0032586D01*
X0095182Y0032665D01*
X0095047Y0032749D01*
X0094914Y0032835D01*
X0094784Y0032925D01*
X0094656Y0033018D01*
X0094530Y0033114D01*
X0094407Y0033214D01*
X0094286Y0033316D01*
X0094168Y0033421D01*
X0094053Y0033530D01*
X0093940Y0033641D01*
X0093830Y0033755D01*
X0093723Y0033872D01*
X0093619Y0033991D01*
X0093518Y0034113D01*
X0093421Y0034238D01*
X0093326Y0034365D01*
X0093235Y0034494D01*
X0093146Y0034625D01*
X0093062Y0034759D01*
X0092980Y0034895D01*
X0092902Y0035032D01*
X0092828Y0035172D01*
X0092757Y0035314D01*
X0092689Y0035457D01*
X0092625Y0035602D01*
X0092565Y0035748D01*
X0092509Y0035896D01*
X0092456Y0036045D01*
X0092407Y0036196D01*
X0092362Y0036348D01*
X0092321Y0036501D01*
X0092283Y0036654D01*
X0092250Y0036809D01*
X0092220Y0036965D01*
X0092194Y0037121D01*
X0092173Y0037278D01*
X0092155Y0037435D01*
X0092141Y0037593D01*
X0092131Y0037751D01*
X0092125Y0037909D01*
X0092123Y0038067D01*
X0498028Y0366807D02*
X0498032Y0367097D01*
X0498042Y0367387D01*
X0498060Y0367676D01*
X0498085Y0367965D01*
X0498117Y0368253D01*
X0498156Y0368540D01*
X0498202Y0368826D01*
X0498255Y0369111D01*
X0498315Y0369395D01*
X0498382Y0369677D01*
X0498456Y0369957D01*
X0498537Y0370236D01*
X0498624Y0370512D01*
X0498718Y0370786D01*
X0498819Y0371058D01*
X0498927Y0371327D01*
X0499041Y0371593D01*
X0499162Y0371857D01*
X0499289Y0372117D01*
X0499423Y0372375D01*
X0499562Y0372629D01*
X0499708Y0372879D01*
X0499860Y0373126D01*
X0500019Y0373369D01*
X0500183Y0373608D01*
X0500352Y0373843D01*
X0500528Y0374074D01*
X0500709Y0374300D01*
X0500896Y0374522D01*
X0501088Y0374739D01*
X0501285Y0374951D01*
X0501487Y0375159D01*
X0501695Y0375361D01*
X0501907Y0375558D01*
X0502124Y0375750D01*
X0502346Y0375937D01*
X0502572Y0376118D01*
X0502803Y0376294D01*
X0503038Y0376463D01*
X0503277Y0376627D01*
X0503520Y0376786D01*
X0503767Y0376938D01*
X0504017Y0377084D01*
X0504271Y0377223D01*
X0504529Y0377357D01*
X0504789Y0377484D01*
X0505053Y0377605D01*
X0505319Y0377719D01*
X0505588Y0377827D01*
X0505860Y0377928D01*
X0506134Y0378022D01*
X0506410Y0378109D01*
X0506689Y0378190D01*
X0506969Y0378264D01*
X0507251Y0378331D01*
X0507535Y0378391D01*
X0507820Y0378444D01*
X0508106Y0378490D01*
X0508393Y0378529D01*
X0508681Y0378561D01*
X0508970Y0378586D01*
X0509259Y0378604D01*
X0509549Y0378614D01*
X0509839Y0378618D01*
X0510129Y0378614D01*
X0510419Y0378604D01*
X0510708Y0378586D01*
X0510997Y0378561D01*
X0511285Y0378529D01*
X0511572Y0378490D01*
X0511858Y0378444D01*
X0512143Y0378391D01*
X0512427Y0378331D01*
X0512709Y0378264D01*
X0512989Y0378190D01*
X0513268Y0378109D01*
X0513544Y0378022D01*
X0513818Y0377928D01*
X0514090Y0377827D01*
X0514359Y0377719D01*
X0514625Y0377605D01*
X0514889Y0377484D01*
X0515149Y0377357D01*
X0515407Y0377223D01*
X0515661Y0377084D01*
X0515911Y0376938D01*
X0516158Y0376786D01*
X0516401Y0376627D01*
X0516640Y0376463D01*
X0516875Y0376294D01*
X0517106Y0376118D01*
X0517332Y0375937D01*
X0517554Y0375750D01*
X0517771Y0375558D01*
X0517983Y0375361D01*
X0518191Y0375159D01*
X0518393Y0374951D01*
X0518590Y0374739D01*
X0518782Y0374522D01*
X0518969Y0374300D01*
X0519150Y0374074D01*
X0519326Y0373843D01*
X0519495Y0373608D01*
X0519659Y0373369D01*
X0519818Y0373126D01*
X0519970Y0372879D01*
X0520116Y0372629D01*
X0520255Y0372375D01*
X0520389Y0372117D01*
X0520516Y0371857D01*
X0520637Y0371593D01*
X0520751Y0371327D01*
X0520859Y0371058D01*
X0520960Y0370786D01*
X0521054Y0370512D01*
X0521141Y0370236D01*
X0521222Y0369957D01*
X0521296Y0369677D01*
X0521363Y0369395D01*
X0521423Y0369111D01*
X0521476Y0368826D01*
X0521522Y0368540D01*
X0521561Y0368253D01*
X0521593Y0367965D01*
X0521618Y0367676D01*
X0521636Y0367387D01*
X0521646Y0367097D01*
X0521650Y0366807D01*
X0521646Y0366517D01*
X0521636Y0366227D01*
X0521618Y0365938D01*
X0521593Y0365649D01*
X0521561Y0365361D01*
X0521522Y0365074D01*
X0521476Y0364788D01*
X0521423Y0364503D01*
X0521363Y0364219D01*
X0521296Y0363937D01*
X0521222Y0363657D01*
X0521141Y0363378D01*
X0521054Y0363102D01*
X0520960Y0362828D01*
X0520859Y0362556D01*
X0520751Y0362287D01*
X0520637Y0362021D01*
X0520516Y0361757D01*
X0520389Y0361497D01*
X0520255Y0361239D01*
X0520116Y0360985D01*
X0519970Y0360735D01*
X0519818Y0360488D01*
X0519659Y0360245D01*
X0519495Y0360006D01*
X0519326Y0359771D01*
X0519150Y0359540D01*
X0518969Y0359314D01*
X0518782Y0359092D01*
X0518590Y0358875D01*
X0518393Y0358663D01*
X0518191Y0358455D01*
X0517983Y0358253D01*
X0517771Y0358056D01*
X0517554Y0357864D01*
X0517332Y0357677D01*
X0517106Y0357496D01*
X0516875Y0357320D01*
X0516640Y0357151D01*
X0516401Y0356987D01*
X0516158Y0356828D01*
X0515911Y0356676D01*
X0515661Y0356530D01*
X0515407Y0356391D01*
X0515149Y0356257D01*
X0514889Y0356130D01*
X0514625Y0356009D01*
X0514359Y0355895D01*
X0514090Y0355787D01*
X0513818Y0355686D01*
X0513544Y0355592D01*
X0513268Y0355505D01*
X0512989Y0355424D01*
X0512709Y0355350D01*
X0512427Y0355283D01*
X0512143Y0355223D01*
X0511858Y0355170D01*
X0511572Y0355124D01*
X0511285Y0355085D01*
X0510997Y0355053D01*
X0510708Y0355028D01*
X0510419Y0355010D01*
X0510129Y0355000D01*
X0509839Y0354996D01*
X0509549Y0355000D01*
X0509259Y0355010D01*
X0508970Y0355028D01*
X0508681Y0355053D01*
X0508393Y0355085D01*
X0508106Y0355124D01*
X0507820Y0355170D01*
X0507535Y0355223D01*
X0507251Y0355283D01*
X0506969Y0355350D01*
X0506689Y0355424D01*
X0506410Y0355505D01*
X0506134Y0355592D01*
X0505860Y0355686D01*
X0505588Y0355787D01*
X0505319Y0355895D01*
X0505053Y0356009D01*
X0504789Y0356130D01*
X0504529Y0356257D01*
X0504271Y0356391D01*
X0504017Y0356530D01*
X0503767Y0356676D01*
X0503520Y0356828D01*
X0503277Y0356987D01*
X0503038Y0357151D01*
X0502803Y0357320D01*
X0502572Y0357496D01*
X0502346Y0357677D01*
X0502124Y0357864D01*
X0501907Y0358056D01*
X0501695Y0358253D01*
X0501487Y0358455D01*
X0501285Y0358663D01*
X0501088Y0358875D01*
X0500896Y0359092D01*
X0500709Y0359314D01*
X0500528Y0359540D01*
X0500352Y0359771D01*
X0500183Y0360006D01*
X0500019Y0360245D01*
X0499860Y0360488D01*
X0499708Y0360735D01*
X0499562Y0360985D01*
X0499423Y0361239D01*
X0499289Y0361497D01*
X0499162Y0361757D01*
X0499041Y0362021D01*
X0498927Y0362287D01*
X0498819Y0362556D01*
X0498718Y0362828D01*
X0498624Y0363102D01*
X0498537Y0363378D01*
X0498456Y0363657D01*
X0498382Y0363937D01*
X0498315Y0364219D01*
X0498255Y0364503D01*
X0498202Y0364788D01*
X0498156Y0365074D01*
X0498117Y0365361D01*
X0498085Y0365649D01*
X0498060Y0365938D01*
X0498042Y0366227D01*
X0498032Y0366517D01*
X0498028Y0366807D01*
X0498028Y0528224D02*
X0498032Y0528514D01*
X0498042Y0528804D01*
X0498060Y0529093D01*
X0498085Y0529382D01*
X0498117Y0529670D01*
X0498156Y0529957D01*
X0498202Y0530243D01*
X0498255Y0530528D01*
X0498315Y0530812D01*
X0498382Y0531094D01*
X0498456Y0531374D01*
X0498537Y0531653D01*
X0498624Y0531929D01*
X0498718Y0532203D01*
X0498819Y0532475D01*
X0498927Y0532744D01*
X0499041Y0533010D01*
X0499162Y0533274D01*
X0499289Y0533534D01*
X0499423Y0533792D01*
X0499562Y0534046D01*
X0499708Y0534296D01*
X0499860Y0534543D01*
X0500019Y0534786D01*
X0500183Y0535025D01*
X0500352Y0535260D01*
X0500528Y0535491D01*
X0500709Y0535717D01*
X0500896Y0535939D01*
X0501088Y0536156D01*
X0501285Y0536368D01*
X0501487Y0536576D01*
X0501695Y0536778D01*
X0501907Y0536975D01*
X0502124Y0537167D01*
X0502346Y0537354D01*
X0502572Y0537535D01*
X0502803Y0537711D01*
X0503038Y0537880D01*
X0503277Y0538044D01*
X0503520Y0538203D01*
X0503767Y0538355D01*
X0504017Y0538501D01*
X0504271Y0538640D01*
X0504529Y0538774D01*
X0504789Y0538901D01*
X0505053Y0539022D01*
X0505319Y0539136D01*
X0505588Y0539244D01*
X0505860Y0539345D01*
X0506134Y0539439D01*
X0506410Y0539526D01*
X0506689Y0539607D01*
X0506969Y0539681D01*
X0507251Y0539748D01*
X0507535Y0539808D01*
X0507820Y0539861D01*
X0508106Y0539907D01*
X0508393Y0539946D01*
X0508681Y0539978D01*
X0508970Y0540003D01*
X0509259Y0540021D01*
X0509549Y0540031D01*
X0509839Y0540035D01*
X0510129Y0540031D01*
X0510419Y0540021D01*
X0510708Y0540003D01*
X0510997Y0539978D01*
X0511285Y0539946D01*
X0511572Y0539907D01*
X0511858Y0539861D01*
X0512143Y0539808D01*
X0512427Y0539748D01*
X0512709Y0539681D01*
X0512989Y0539607D01*
X0513268Y0539526D01*
X0513544Y0539439D01*
X0513818Y0539345D01*
X0514090Y0539244D01*
X0514359Y0539136D01*
X0514625Y0539022D01*
X0514889Y0538901D01*
X0515149Y0538774D01*
X0515407Y0538640D01*
X0515661Y0538501D01*
X0515911Y0538355D01*
X0516158Y0538203D01*
X0516401Y0538044D01*
X0516640Y0537880D01*
X0516875Y0537711D01*
X0517106Y0537535D01*
X0517332Y0537354D01*
X0517554Y0537167D01*
X0517771Y0536975D01*
X0517983Y0536778D01*
X0518191Y0536576D01*
X0518393Y0536368D01*
X0518590Y0536156D01*
X0518782Y0535939D01*
X0518969Y0535717D01*
X0519150Y0535491D01*
X0519326Y0535260D01*
X0519495Y0535025D01*
X0519659Y0534786D01*
X0519818Y0534543D01*
X0519970Y0534296D01*
X0520116Y0534046D01*
X0520255Y0533792D01*
X0520389Y0533534D01*
X0520516Y0533274D01*
X0520637Y0533010D01*
X0520751Y0532744D01*
X0520859Y0532475D01*
X0520960Y0532203D01*
X0521054Y0531929D01*
X0521141Y0531653D01*
X0521222Y0531374D01*
X0521296Y0531094D01*
X0521363Y0530812D01*
X0521423Y0530528D01*
X0521476Y0530243D01*
X0521522Y0529957D01*
X0521561Y0529670D01*
X0521593Y0529382D01*
X0521618Y0529093D01*
X0521636Y0528804D01*
X0521646Y0528514D01*
X0521650Y0528224D01*
X0521646Y0527934D01*
X0521636Y0527644D01*
X0521618Y0527355D01*
X0521593Y0527066D01*
X0521561Y0526778D01*
X0521522Y0526491D01*
X0521476Y0526205D01*
X0521423Y0525920D01*
X0521363Y0525636D01*
X0521296Y0525354D01*
X0521222Y0525074D01*
X0521141Y0524795D01*
X0521054Y0524519D01*
X0520960Y0524245D01*
X0520859Y0523973D01*
X0520751Y0523704D01*
X0520637Y0523438D01*
X0520516Y0523174D01*
X0520389Y0522914D01*
X0520255Y0522656D01*
X0520116Y0522402D01*
X0519970Y0522152D01*
X0519818Y0521905D01*
X0519659Y0521662D01*
X0519495Y0521423D01*
X0519326Y0521188D01*
X0519150Y0520957D01*
X0518969Y0520731D01*
X0518782Y0520509D01*
X0518590Y0520292D01*
X0518393Y0520080D01*
X0518191Y0519872D01*
X0517983Y0519670D01*
X0517771Y0519473D01*
X0517554Y0519281D01*
X0517332Y0519094D01*
X0517106Y0518913D01*
X0516875Y0518737D01*
X0516640Y0518568D01*
X0516401Y0518404D01*
X0516158Y0518245D01*
X0515911Y0518093D01*
X0515661Y0517947D01*
X0515407Y0517808D01*
X0515149Y0517674D01*
X0514889Y0517547D01*
X0514625Y0517426D01*
X0514359Y0517312D01*
X0514090Y0517204D01*
X0513818Y0517103D01*
X0513544Y0517009D01*
X0513268Y0516922D01*
X0512989Y0516841D01*
X0512709Y0516767D01*
X0512427Y0516700D01*
X0512143Y0516640D01*
X0511858Y0516587D01*
X0511572Y0516541D01*
X0511285Y0516502D01*
X0510997Y0516470D01*
X0510708Y0516445D01*
X0510419Y0516427D01*
X0510129Y0516417D01*
X0509839Y0516413D01*
X0509549Y0516417D01*
X0509259Y0516427D01*
X0508970Y0516445D01*
X0508681Y0516470D01*
X0508393Y0516502D01*
X0508106Y0516541D01*
X0507820Y0516587D01*
X0507535Y0516640D01*
X0507251Y0516700D01*
X0506969Y0516767D01*
X0506689Y0516841D01*
X0506410Y0516922D01*
X0506134Y0517009D01*
X0505860Y0517103D01*
X0505588Y0517204D01*
X0505319Y0517312D01*
X0505053Y0517426D01*
X0504789Y0517547D01*
X0504529Y0517674D01*
X0504271Y0517808D01*
X0504017Y0517947D01*
X0503767Y0518093D01*
X0503520Y0518245D01*
X0503277Y0518404D01*
X0503038Y0518568D01*
X0502803Y0518737D01*
X0502572Y0518913D01*
X0502346Y0519094D01*
X0502124Y0519281D01*
X0501907Y0519473D01*
X0501695Y0519670D01*
X0501487Y0519872D01*
X0501285Y0520080D01*
X0501088Y0520292D01*
X0500896Y0520509D01*
X0500709Y0520731D01*
X0500528Y0520957D01*
X0500352Y0521188D01*
X0500183Y0521423D01*
X0500019Y0521662D01*
X0499860Y0521905D01*
X0499708Y0522152D01*
X0499562Y0522402D01*
X0499423Y0522656D01*
X0499289Y0522914D01*
X0499162Y0523174D01*
X0499041Y0523438D01*
X0498927Y0523704D01*
X0498819Y0523973D01*
X0498718Y0524245D01*
X0498624Y0524519D01*
X0498537Y0524795D01*
X0498456Y0525074D01*
X0498382Y0525354D01*
X0498315Y0525636D01*
X0498255Y0525920D01*
X0498202Y0526205D01*
X0498156Y0526491D01*
X0498117Y0526778D01*
X0498085Y0527066D01*
X0498060Y0527355D01*
X0498042Y0527644D01*
X0498032Y0527934D01*
X0498028Y0528224D01*
X0086611Y0860902D02*
X0086615Y0861192D01*
X0086625Y0861482D01*
X0086643Y0861771D01*
X0086668Y0862060D01*
X0086700Y0862348D01*
X0086739Y0862635D01*
X0086785Y0862921D01*
X0086838Y0863206D01*
X0086898Y0863490D01*
X0086965Y0863772D01*
X0087039Y0864052D01*
X0087120Y0864331D01*
X0087207Y0864607D01*
X0087301Y0864881D01*
X0087402Y0865153D01*
X0087510Y0865422D01*
X0087624Y0865688D01*
X0087745Y0865952D01*
X0087872Y0866212D01*
X0088006Y0866470D01*
X0088145Y0866724D01*
X0088291Y0866974D01*
X0088443Y0867221D01*
X0088602Y0867464D01*
X0088766Y0867703D01*
X0088935Y0867938D01*
X0089111Y0868169D01*
X0089292Y0868395D01*
X0089479Y0868617D01*
X0089671Y0868834D01*
X0089868Y0869046D01*
X0090070Y0869254D01*
X0090278Y0869456D01*
X0090490Y0869653D01*
X0090707Y0869845D01*
X0090929Y0870032D01*
X0091155Y0870213D01*
X0091386Y0870389D01*
X0091621Y0870558D01*
X0091860Y0870722D01*
X0092103Y0870881D01*
X0092350Y0871033D01*
X0092600Y0871179D01*
X0092854Y0871318D01*
X0093112Y0871452D01*
X0093372Y0871579D01*
X0093636Y0871700D01*
X0093902Y0871814D01*
X0094171Y0871922D01*
X0094443Y0872023D01*
X0094717Y0872117D01*
X0094993Y0872204D01*
X0095272Y0872285D01*
X0095552Y0872359D01*
X0095834Y0872426D01*
X0096118Y0872486D01*
X0096403Y0872539D01*
X0096689Y0872585D01*
X0096976Y0872624D01*
X0097264Y0872656D01*
X0097553Y0872681D01*
X0097842Y0872699D01*
X0098132Y0872709D01*
X0098422Y0872713D01*
X0098712Y0872709D01*
X0099002Y0872699D01*
X0099291Y0872681D01*
X0099580Y0872656D01*
X0099868Y0872624D01*
X0100155Y0872585D01*
X0100441Y0872539D01*
X0100726Y0872486D01*
X0101010Y0872426D01*
X0101292Y0872359D01*
X0101572Y0872285D01*
X0101851Y0872204D01*
X0102127Y0872117D01*
X0102401Y0872023D01*
X0102673Y0871922D01*
X0102942Y0871814D01*
X0103208Y0871700D01*
X0103472Y0871579D01*
X0103732Y0871452D01*
X0103990Y0871318D01*
X0104244Y0871179D01*
X0104494Y0871033D01*
X0104741Y0870881D01*
X0104984Y0870722D01*
X0105223Y0870558D01*
X0105458Y0870389D01*
X0105689Y0870213D01*
X0105915Y0870032D01*
X0106137Y0869845D01*
X0106354Y0869653D01*
X0106566Y0869456D01*
X0106774Y0869254D01*
X0106976Y0869046D01*
X0107173Y0868834D01*
X0107365Y0868617D01*
X0107552Y0868395D01*
X0107733Y0868169D01*
X0107909Y0867938D01*
X0108078Y0867703D01*
X0108242Y0867464D01*
X0108401Y0867221D01*
X0108553Y0866974D01*
X0108699Y0866724D01*
X0108838Y0866470D01*
X0108972Y0866212D01*
X0109099Y0865952D01*
X0109220Y0865688D01*
X0109334Y0865422D01*
X0109442Y0865153D01*
X0109543Y0864881D01*
X0109637Y0864607D01*
X0109724Y0864331D01*
X0109805Y0864052D01*
X0109879Y0863772D01*
X0109946Y0863490D01*
X0110006Y0863206D01*
X0110059Y0862921D01*
X0110105Y0862635D01*
X0110144Y0862348D01*
X0110176Y0862060D01*
X0110201Y0861771D01*
X0110219Y0861482D01*
X0110229Y0861192D01*
X0110233Y0860902D01*
X0110229Y0860612D01*
X0110219Y0860322D01*
X0110201Y0860033D01*
X0110176Y0859744D01*
X0110144Y0859456D01*
X0110105Y0859169D01*
X0110059Y0858883D01*
X0110006Y0858598D01*
X0109946Y0858314D01*
X0109879Y0858032D01*
X0109805Y0857752D01*
X0109724Y0857473D01*
X0109637Y0857197D01*
X0109543Y0856923D01*
X0109442Y0856651D01*
X0109334Y0856382D01*
X0109220Y0856116D01*
X0109099Y0855852D01*
X0108972Y0855592D01*
X0108838Y0855334D01*
X0108699Y0855080D01*
X0108553Y0854830D01*
X0108401Y0854583D01*
X0108242Y0854340D01*
X0108078Y0854101D01*
X0107909Y0853866D01*
X0107733Y0853635D01*
X0107552Y0853409D01*
X0107365Y0853187D01*
X0107173Y0852970D01*
X0106976Y0852758D01*
X0106774Y0852550D01*
X0106566Y0852348D01*
X0106354Y0852151D01*
X0106137Y0851959D01*
X0105915Y0851772D01*
X0105689Y0851591D01*
X0105458Y0851415D01*
X0105223Y0851246D01*
X0104984Y0851082D01*
X0104741Y0850923D01*
X0104494Y0850771D01*
X0104244Y0850625D01*
X0103990Y0850486D01*
X0103732Y0850352D01*
X0103472Y0850225D01*
X0103208Y0850104D01*
X0102942Y0849990D01*
X0102673Y0849882D01*
X0102401Y0849781D01*
X0102127Y0849687D01*
X0101851Y0849600D01*
X0101572Y0849519D01*
X0101292Y0849445D01*
X0101010Y0849378D01*
X0100726Y0849318D01*
X0100441Y0849265D01*
X0100155Y0849219D01*
X0099868Y0849180D01*
X0099580Y0849148D01*
X0099291Y0849123D01*
X0099002Y0849105D01*
X0098712Y0849095D01*
X0098422Y0849091D01*
X0098132Y0849095D01*
X0097842Y0849105D01*
X0097553Y0849123D01*
X0097264Y0849148D01*
X0096976Y0849180D01*
X0096689Y0849219D01*
X0096403Y0849265D01*
X0096118Y0849318D01*
X0095834Y0849378D01*
X0095552Y0849445D01*
X0095272Y0849519D01*
X0094993Y0849600D01*
X0094717Y0849687D01*
X0094443Y0849781D01*
X0094171Y0849882D01*
X0093902Y0849990D01*
X0093636Y0850104D01*
X0093372Y0850225D01*
X0093112Y0850352D01*
X0092854Y0850486D01*
X0092600Y0850625D01*
X0092350Y0850771D01*
X0092103Y0850923D01*
X0091860Y0851082D01*
X0091621Y0851246D01*
X0091386Y0851415D01*
X0091155Y0851591D01*
X0090929Y0851772D01*
X0090707Y0851959D01*
X0090490Y0852151D01*
X0090278Y0852348D01*
X0090070Y0852550D01*
X0089868Y0852758D01*
X0089671Y0852970D01*
X0089479Y0853187D01*
X0089292Y0853409D01*
X0089111Y0853635D01*
X0088935Y0853866D01*
X0088766Y0854101D01*
X0088602Y0854340D01*
X0088443Y0854583D01*
X0088291Y0854830D01*
X0088145Y0855080D01*
X0088006Y0855334D01*
X0087872Y0855592D01*
X0087745Y0855852D01*
X0087624Y0856116D01*
X0087510Y0856382D01*
X0087402Y0856651D01*
X0087301Y0856923D01*
X0087207Y0857197D01*
X0087120Y0857473D01*
X0087039Y0857752D01*
X0086965Y0858032D01*
X0086898Y0858314D01*
X0086838Y0858598D01*
X0086785Y0858883D01*
X0086739Y0859169D01*
X0086700Y0859456D01*
X0086668Y0859744D01*
X0086643Y0860033D01*
X0086625Y0860322D01*
X0086615Y0860612D01*
X0086611Y0860902D01*
X0092123Y0860902D02*
X0092125Y0861060D01*
X0092131Y0861218D01*
X0092141Y0861376D01*
X0092155Y0861534D01*
X0092173Y0861691D01*
X0092194Y0861848D01*
X0092220Y0862004D01*
X0092250Y0862160D01*
X0092283Y0862315D01*
X0092321Y0862468D01*
X0092362Y0862621D01*
X0092407Y0862773D01*
X0092456Y0862924D01*
X0092509Y0863073D01*
X0092565Y0863221D01*
X0092625Y0863367D01*
X0092689Y0863512D01*
X0092757Y0863655D01*
X0092828Y0863797D01*
X0092902Y0863937D01*
X0092980Y0864074D01*
X0093062Y0864210D01*
X0093146Y0864344D01*
X0093235Y0864475D01*
X0093326Y0864604D01*
X0093421Y0864731D01*
X0093518Y0864856D01*
X0093619Y0864978D01*
X0093723Y0865097D01*
X0093830Y0865214D01*
X0093940Y0865328D01*
X0094053Y0865439D01*
X0094168Y0865548D01*
X0094286Y0865653D01*
X0094407Y0865755D01*
X0094530Y0865855D01*
X0094656Y0865951D01*
X0094784Y0866044D01*
X0094914Y0866134D01*
X0095047Y0866220D01*
X0095182Y0866304D01*
X0095318Y0866383D01*
X0095457Y0866460D01*
X0095598Y0866532D01*
X0095740Y0866602D01*
X0095884Y0866667D01*
X0096030Y0866729D01*
X0096177Y0866787D01*
X0096326Y0866842D01*
X0096476Y0866893D01*
X0096627Y0866940D01*
X0096779Y0866983D01*
X0096932Y0867022D01*
X0097087Y0867058D01*
X0097242Y0867089D01*
X0097398Y0867117D01*
X0097554Y0867141D01*
X0097711Y0867161D01*
X0097869Y0867177D01*
X0098026Y0867189D01*
X0098185Y0867197D01*
X0098343Y0867201D01*
X0098501Y0867201D01*
X0098659Y0867197D01*
X0098818Y0867189D01*
X0098975Y0867177D01*
X0099133Y0867161D01*
X0099290Y0867141D01*
X0099446Y0867117D01*
X0099602Y0867089D01*
X0099757Y0867058D01*
X0099912Y0867022D01*
X0100065Y0866983D01*
X0100217Y0866940D01*
X0100368Y0866893D01*
X0100518Y0866842D01*
X0100667Y0866787D01*
X0100814Y0866729D01*
X0100960Y0866667D01*
X0101104Y0866602D01*
X0101246Y0866532D01*
X0101387Y0866460D01*
X0101526Y0866383D01*
X0101662Y0866304D01*
X0101797Y0866220D01*
X0101930Y0866134D01*
X0102060Y0866044D01*
X0102188Y0865951D01*
X0102314Y0865855D01*
X0102437Y0865755D01*
X0102558Y0865653D01*
X0102676Y0865548D01*
X0102791Y0865439D01*
X0102904Y0865328D01*
X0103014Y0865214D01*
X0103121Y0865097D01*
X0103225Y0864978D01*
X0103326Y0864856D01*
X0103423Y0864731D01*
X0103518Y0864604D01*
X0103609Y0864475D01*
X0103698Y0864344D01*
X0103782Y0864210D01*
X0103864Y0864074D01*
X0103942Y0863937D01*
X0104016Y0863797D01*
X0104087Y0863655D01*
X0104155Y0863512D01*
X0104219Y0863367D01*
X0104279Y0863221D01*
X0104335Y0863073D01*
X0104388Y0862924D01*
X0104437Y0862773D01*
X0104482Y0862621D01*
X0104523Y0862468D01*
X0104561Y0862315D01*
X0104594Y0862160D01*
X0104624Y0862004D01*
X0104650Y0861848D01*
X0104671Y0861691D01*
X0104689Y0861534D01*
X0104703Y0861376D01*
X0104713Y0861218D01*
X0104719Y0861060D01*
X0104721Y0860902D01*
X0104719Y0860744D01*
X0104713Y0860586D01*
X0104703Y0860428D01*
X0104689Y0860270D01*
X0104671Y0860113D01*
X0104650Y0859956D01*
X0104624Y0859800D01*
X0104594Y0859644D01*
X0104561Y0859489D01*
X0104523Y0859336D01*
X0104482Y0859183D01*
X0104437Y0859031D01*
X0104388Y0858880D01*
X0104335Y0858731D01*
X0104279Y0858583D01*
X0104219Y0858437D01*
X0104155Y0858292D01*
X0104087Y0858149D01*
X0104016Y0858007D01*
X0103942Y0857867D01*
X0103864Y0857730D01*
X0103782Y0857594D01*
X0103698Y0857460D01*
X0103609Y0857329D01*
X0103518Y0857200D01*
X0103423Y0857073D01*
X0103326Y0856948D01*
X0103225Y0856826D01*
X0103121Y0856707D01*
X0103014Y0856590D01*
X0102904Y0856476D01*
X0102791Y0856365D01*
X0102676Y0856256D01*
X0102558Y0856151D01*
X0102437Y0856049D01*
X0102314Y0855949D01*
X0102188Y0855853D01*
X0102060Y0855760D01*
X0101930Y0855670D01*
X0101797Y0855584D01*
X0101662Y0855500D01*
X0101526Y0855421D01*
X0101387Y0855344D01*
X0101246Y0855272D01*
X0101104Y0855202D01*
X0100960Y0855137D01*
X0100814Y0855075D01*
X0100667Y0855017D01*
X0100518Y0854962D01*
X0100368Y0854911D01*
X0100217Y0854864D01*
X0100065Y0854821D01*
X0099912Y0854782D01*
X0099757Y0854746D01*
X0099602Y0854715D01*
X0099446Y0854687D01*
X0099290Y0854663D01*
X0099133Y0854643D01*
X0098975Y0854627D01*
X0098818Y0854615D01*
X0098659Y0854607D01*
X0098501Y0854603D01*
X0098343Y0854603D01*
X0098185Y0854607D01*
X0098026Y0854615D01*
X0097869Y0854627D01*
X0097711Y0854643D01*
X0097554Y0854663D01*
X0097398Y0854687D01*
X0097242Y0854715D01*
X0097087Y0854746D01*
X0096932Y0854782D01*
X0096779Y0854821D01*
X0096627Y0854864D01*
X0096476Y0854911D01*
X0096326Y0854962D01*
X0096177Y0855017D01*
X0096030Y0855075D01*
X0095884Y0855137D01*
X0095740Y0855202D01*
X0095598Y0855272D01*
X0095457Y0855344D01*
X0095318Y0855421D01*
X0095182Y0855500D01*
X0095047Y0855584D01*
X0094914Y0855670D01*
X0094784Y0855760D01*
X0094656Y0855853D01*
X0094530Y0855949D01*
X0094407Y0856049D01*
X0094286Y0856151D01*
X0094168Y0856256D01*
X0094053Y0856365D01*
X0093940Y0856476D01*
X0093830Y0856590D01*
X0093723Y0856707D01*
X0093619Y0856826D01*
X0093518Y0856948D01*
X0093421Y0857073D01*
X0093326Y0857200D01*
X0093235Y0857329D01*
X0093146Y0857460D01*
X0093062Y0857594D01*
X0092980Y0857730D01*
X0092902Y0857867D01*
X0092828Y0858007D01*
X0092757Y0858149D01*
X0092689Y0858292D01*
X0092625Y0858437D01*
X0092565Y0858583D01*
X0092509Y0858731D01*
X0092456Y0858880D01*
X0092407Y0859031D01*
X0092362Y0859183D01*
X0092321Y0859336D01*
X0092283Y0859489D01*
X0092250Y0859644D01*
X0092220Y0859800D01*
X0092194Y0859956D01*
X0092173Y0860113D01*
X0092155Y0860270D01*
X0092141Y0860428D01*
X0092131Y0860586D01*
X0092125Y0860744D01*
X0092123Y0860902D01*
X0070469Y0951453D02*
X0070471Y0951611D01*
X0070477Y0951769D01*
X0070487Y0951927D01*
X0070501Y0952085D01*
X0070519Y0952242D01*
X0070540Y0952399D01*
X0070566Y0952555D01*
X0070596Y0952711D01*
X0070629Y0952866D01*
X0070667Y0953019D01*
X0070708Y0953172D01*
X0070753Y0953324D01*
X0070802Y0953475D01*
X0070855Y0953624D01*
X0070911Y0953772D01*
X0070971Y0953918D01*
X0071035Y0954063D01*
X0071103Y0954206D01*
X0071174Y0954348D01*
X0071248Y0954488D01*
X0071326Y0954625D01*
X0071408Y0954761D01*
X0071492Y0954895D01*
X0071581Y0955026D01*
X0071672Y0955155D01*
X0071767Y0955282D01*
X0071864Y0955407D01*
X0071965Y0955529D01*
X0072069Y0955648D01*
X0072176Y0955765D01*
X0072286Y0955879D01*
X0072399Y0955990D01*
X0072514Y0956099D01*
X0072632Y0956204D01*
X0072753Y0956306D01*
X0072876Y0956406D01*
X0073002Y0956502D01*
X0073130Y0956595D01*
X0073260Y0956685D01*
X0073393Y0956771D01*
X0073528Y0956855D01*
X0073664Y0956934D01*
X0073803Y0957011D01*
X0073944Y0957083D01*
X0074086Y0957153D01*
X0074230Y0957218D01*
X0074376Y0957280D01*
X0074523Y0957338D01*
X0074672Y0957393D01*
X0074822Y0957444D01*
X0074973Y0957491D01*
X0075125Y0957534D01*
X0075278Y0957573D01*
X0075433Y0957609D01*
X0075588Y0957640D01*
X0075744Y0957668D01*
X0075900Y0957692D01*
X0076057Y0957712D01*
X0076215Y0957728D01*
X0076372Y0957740D01*
X0076531Y0957748D01*
X0076689Y0957752D01*
X0076847Y0957752D01*
X0077005Y0957748D01*
X0077164Y0957740D01*
X0077321Y0957728D01*
X0077479Y0957712D01*
X0077636Y0957692D01*
X0077792Y0957668D01*
X0077948Y0957640D01*
X0078103Y0957609D01*
X0078258Y0957573D01*
X0078411Y0957534D01*
X0078563Y0957491D01*
X0078714Y0957444D01*
X0078864Y0957393D01*
X0079013Y0957338D01*
X0079160Y0957280D01*
X0079306Y0957218D01*
X0079450Y0957153D01*
X0079592Y0957083D01*
X0079733Y0957011D01*
X0079872Y0956934D01*
X0080008Y0956855D01*
X0080143Y0956771D01*
X0080276Y0956685D01*
X0080406Y0956595D01*
X0080534Y0956502D01*
X0080660Y0956406D01*
X0080783Y0956306D01*
X0080904Y0956204D01*
X0081022Y0956099D01*
X0081137Y0955990D01*
X0081250Y0955879D01*
X0081360Y0955765D01*
X0081467Y0955648D01*
X0081571Y0955529D01*
X0081672Y0955407D01*
X0081769Y0955282D01*
X0081864Y0955155D01*
X0081955Y0955026D01*
X0082044Y0954895D01*
X0082128Y0954761D01*
X0082210Y0954625D01*
X0082288Y0954488D01*
X0082362Y0954348D01*
X0082433Y0954206D01*
X0082501Y0954063D01*
X0082565Y0953918D01*
X0082625Y0953772D01*
X0082681Y0953624D01*
X0082734Y0953475D01*
X0082783Y0953324D01*
X0082828Y0953172D01*
X0082869Y0953019D01*
X0082907Y0952866D01*
X0082940Y0952711D01*
X0082970Y0952555D01*
X0082996Y0952399D01*
X0083017Y0952242D01*
X0083035Y0952085D01*
X0083049Y0951927D01*
X0083059Y0951769D01*
X0083065Y0951611D01*
X0083067Y0951453D01*
X0083065Y0951295D01*
X0083059Y0951137D01*
X0083049Y0950979D01*
X0083035Y0950821D01*
X0083017Y0950664D01*
X0082996Y0950507D01*
X0082970Y0950351D01*
X0082940Y0950195D01*
X0082907Y0950040D01*
X0082869Y0949887D01*
X0082828Y0949734D01*
X0082783Y0949582D01*
X0082734Y0949431D01*
X0082681Y0949282D01*
X0082625Y0949134D01*
X0082565Y0948988D01*
X0082501Y0948843D01*
X0082433Y0948700D01*
X0082362Y0948558D01*
X0082288Y0948418D01*
X0082210Y0948281D01*
X0082128Y0948145D01*
X0082044Y0948011D01*
X0081955Y0947880D01*
X0081864Y0947751D01*
X0081769Y0947624D01*
X0081672Y0947499D01*
X0081571Y0947377D01*
X0081467Y0947258D01*
X0081360Y0947141D01*
X0081250Y0947027D01*
X0081137Y0946916D01*
X0081022Y0946807D01*
X0080904Y0946702D01*
X0080783Y0946600D01*
X0080660Y0946500D01*
X0080534Y0946404D01*
X0080406Y0946311D01*
X0080276Y0946221D01*
X0080143Y0946135D01*
X0080008Y0946051D01*
X0079872Y0945972D01*
X0079733Y0945895D01*
X0079592Y0945823D01*
X0079450Y0945753D01*
X0079306Y0945688D01*
X0079160Y0945626D01*
X0079013Y0945568D01*
X0078864Y0945513D01*
X0078714Y0945462D01*
X0078563Y0945415D01*
X0078411Y0945372D01*
X0078258Y0945333D01*
X0078103Y0945297D01*
X0077948Y0945266D01*
X0077792Y0945238D01*
X0077636Y0945214D01*
X0077479Y0945194D01*
X0077321Y0945178D01*
X0077164Y0945166D01*
X0077005Y0945158D01*
X0076847Y0945154D01*
X0076689Y0945154D01*
X0076531Y0945158D01*
X0076372Y0945166D01*
X0076215Y0945178D01*
X0076057Y0945194D01*
X0075900Y0945214D01*
X0075744Y0945238D01*
X0075588Y0945266D01*
X0075433Y0945297D01*
X0075278Y0945333D01*
X0075125Y0945372D01*
X0074973Y0945415D01*
X0074822Y0945462D01*
X0074672Y0945513D01*
X0074523Y0945568D01*
X0074376Y0945626D01*
X0074230Y0945688D01*
X0074086Y0945753D01*
X0073944Y0945823D01*
X0073803Y0945895D01*
X0073664Y0945972D01*
X0073528Y0946051D01*
X0073393Y0946135D01*
X0073260Y0946221D01*
X0073130Y0946311D01*
X0073002Y0946404D01*
X0072876Y0946500D01*
X0072753Y0946600D01*
X0072632Y0946702D01*
X0072514Y0946807D01*
X0072399Y0946916D01*
X0072286Y0947027D01*
X0072176Y0947141D01*
X0072069Y0947258D01*
X0071965Y0947377D01*
X0071864Y0947499D01*
X0071767Y0947624D01*
X0071672Y0947751D01*
X0071581Y0947880D01*
X0071492Y0948011D01*
X0071408Y0948145D01*
X0071326Y0948281D01*
X0071248Y0948418D01*
X0071174Y0948558D01*
X0071103Y0948700D01*
X0071035Y0948843D01*
X0070971Y0948988D01*
X0070911Y0949134D01*
X0070855Y0949282D01*
X0070802Y0949431D01*
X0070753Y0949582D01*
X0070708Y0949734D01*
X0070667Y0949887D01*
X0070629Y0950040D01*
X0070596Y0950195D01*
X0070566Y0950351D01*
X0070540Y0950507D01*
X0070519Y0950664D01*
X0070501Y0950821D01*
X0070487Y0950979D01*
X0070477Y0951137D01*
X0070471Y0951295D01*
X0070469Y0951453D01*
X0909446Y0860902D02*
X0909450Y0861192D01*
X0909460Y0861482D01*
X0909478Y0861771D01*
X0909503Y0862060D01*
X0909535Y0862348D01*
X0909574Y0862635D01*
X0909620Y0862921D01*
X0909673Y0863206D01*
X0909733Y0863490D01*
X0909800Y0863772D01*
X0909874Y0864052D01*
X0909955Y0864331D01*
X0910042Y0864607D01*
X0910136Y0864881D01*
X0910237Y0865153D01*
X0910345Y0865422D01*
X0910459Y0865688D01*
X0910580Y0865952D01*
X0910707Y0866212D01*
X0910841Y0866470D01*
X0910980Y0866724D01*
X0911126Y0866974D01*
X0911278Y0867221D01*
X0911437Y0867464D01*
X0911601Y0867703D01*
X0911770Y0867938D01*
X0911946Y0868169D01*
X0912127Y0868395D01*
X0912314Y0868617D01*
X0912506Y0868834D01*
X0912703Y0869046D01*
X0912905Y0869254D01*
X0913113Y0869456D01*
X0913325Y0869653D01*
X0913542Y0869845D01*
X0913764Y0870032D01*
X0913990Y0870213D01*
X0914221Y0870389D01*
X0914456Y0870558D01*
X0914695Y0870722D01*
X0914938Y0870881D01*
X0915185Y0871033D01*
X0915435Y0871179D01*
X0915689Y0871318D01*
X0915947Y0871452D01*
X0916207Y0871579D01*
X0916471Y0871700D01*
X0916737Y0871814D01*
X0917006Y0871922D01*
X0917278Y0872023D01*
X0917552Y0872117D01*
X0917828Y0872204D01*
X0918107Y0872285D01*
X0918387Y0872359D01*
X0918669Y0872426D01*
X0918953Y0872486D01*
X0919238Y0872539D01*
X0919524Y0872585D01*
X0919811Y0872624D01*
X0920099Y0872656D01*
X0920388Y0872681D01*
X0920677Y0872699D01*
X0920967Y0872709D01*
X0921257Y0872713D01*
X0921547Y0872709D01*
X0921837Y0872699D01*
X0922126Y0872681D01*
X0922415Y0872656D01*
X0922703Y0872624D01*
X0922990Y0872585D01*
X0923276Y0872539D01*
X0923561Y0872486D01*
X0923845Y0872426D01*
X0924127Y0872359D01*
X0924407Y0872285D01*
X0924686Y0872204D01*
X0924962Y0872117D01*
X0925236Y0872023D01*
X0925508Y0871922D01*
X0925777Y0871814D01*
X0926043Y0871700D01*
X0926307Y0871579D01*
X0926567Y0871452D01*
X0926825Y0871318D01*
X0927079Y0871179D01*
X0927329Y0871033D01*
X0927576Y0870881D01*
X0927819Y0870722D01*
X0928058Y0870558D01*
X0928293Y0870389D01*
X0928524Y0870213D01*
X0928750Y0870032D01*
X0928972Y0869845D01*
X0929189Y0869653D01*
X0929401Y0869456D01*
X0929609Y0869254D01*
X0929811Y0869046D01*
X0930008Y0868834D01*
X0930200Y0868617D01*
X0930387Y0868395D01*
X0930568Y0868169D01*
X0930744Y0867938D01*
X0930913Y0867703D01*
X0931077Y0867464D01*
X0931236Y0867221D01*
X0931388Y0866974D01*
X0931534Y0866724D01*
X0931673Y0866470D01*
X0931807Y0866212D01*
X0931934Y0865952D01*
X0932055Y0865688D01*
X0932169Y0865422D01*
X0932277Y0865153D01*
X0932378Y0864881D01*
X0932472Y0864607D01*
X0932559Y0864331D01*
X0932640Y0864052D01*
X0932714Y0863772D01*
X0932781Y0863490D01*
X0932841Y0863206D01*
X0932894Y0862921D01*
X0932940Y0862635D01*
X0932979Y0862348D01*
X0933011Y0862060D01*
X0933036Y0861771D01*
X0933054Y0861482D01*
X0933064Y0861192D01*
X0933068Y0860902D01*
X0933064Y0860612D01*
X0933054Y0860322D01*
X0933036Y0860033D01*
X0933011Y0859744D01*
X0932979Y0859456D01*
X0932940Y0859169D01*
X0932894Y0858883D01*
X0932841Y0858598D01*
X0932781Y0858314D01*
X0932714Y0858032D01*
X0932640Y0857752D01*
X0932559Y0857473D01*
X0932472Y0857197D01*
X0932378Y0856923D01*
X0932277Y0856651D01*
X0932169Y0856382D01*
X0932055Y0856116D01*
X0931934Y0855852D01*
X0931807Y0855592D01*
X0931673Y0855334D01*
X0931534Y0855080D01*
X0931388Y0854830D01*
X0931236Y0854583D01*
X0931077Y0854340D01*
X0930913Y0854101D01*
X0930744Y0853866D01*
X0930568Y0853635D01*
X0930387Y0853409D01*
X0930200Y0853187D01*
X0930008Y0852970D01*
X0929811Y0852758D01*
X0929609Y0852550D01*
X0929401Y0852348D01*
X0929189Y0852151D01*
X0928972Y0851959D01*
X0928750Y0851772D01*
X0928524Y0851591D01*
X0928293Y0851415D01*
X0928058Y0851246D01*
X0927819Y0851082D01*
X0927576Y0850923D01*
X0927329Y0850771D01*
X0927079Y0850625D01*
X0926825Y0850486D01*
X0926567Y0850352D01*
X0926307Y0850225D01*
X0926043Y0850104D01*
X0925777Y0849990D01*
X0925508Y0849882D01*
X0925236Y0849781D01*
X0924962Y0849687D01*
X0924686Y0849600D01*
X0924407Y0849519D01*
X0924127Y0849445D01*
X0923845Y0849378D01*
X0923561Y0849318D01*
X0923276Y0849265D01*
X0922990Y0849219D01*
X0922703Y0849180D01*
X0922415Y0849148D01*
X0922126Y0849123D01*
X0921837Y0849105D01*
X0921547Y0849095D01*
X0921257Y0849091D01*
X0920967Y0849095D01*
X0920677Y0849105D01*
X0920388Y0849123D01*
X0920099Y0849148D01*
X0919811Y0849180D01*
X0919524Y0849219D01*
X0919238Y0849265D01*
X0918953Y0849318D01*
X0918669Y0849378D01*
X0918387Y0849445D01*
X0918107Y0849519D01*
X0917828Y0849600D01*
X0917552Y0849687D01*
X0917278Y0849781D01*
X0917006Y0849882D01*
X0916737Y0849990D01*
X0916471Y0850104D01*
X0916207Y0850225D01*
X0915947Y0850352D01*
X0915689Y0850486D01*
X0915435Y0850625D01*
X0915185Y0850771D01*
X0914938Y0850923D01*
X0914695Y0851082D01*
X0914456Y0851246D01*
X0914221Y0851415D01*
X0913990Y0851591D01*
X0913764Y0851772D01*
X0913542Y0851959D01*
X0913325Y0852151D01*
X0913113Y0852348D01*
X0912905Y0852550D01*
X0912703Y0852758D01*
X0912506Y0852970D01*
X0912314Y0853187D01*
X0912127Y0853409D01*
X0911946Y0853635D01*
X0911770Y0853866D01*
X0911601Y0854101D01*
X0911437Y0854340D01*
X0911278Y0854583D01*
X0911126Y0854830D01*
X0910980Y0855080D01*
X0910841Y0855334D01*
X0910707Y0855592D01*
X0910580Y0855852D01*
X0910459Y0856116D01*
X0910345Y0856382D01*
X0910237Y0856651D01*
X0910136Y0856923D01*
X0910042Y0857197D01*
X0909955Y0857473D01*
X0909874Y0857752D01*
X0909800Y0858032D01*
X0909733Y0858314D01*
X0909673Y0858598D01*
X0909620Y0858883D01*
X0909574Y0859169D01*
X0909535Y0859456D01*
X0909503Y0859744D01*
X0909478Y0860033D01*
X0909460Y0860322D01*
X0909450Y0860612D01*
X0909446Y0860902D01*
X0914958Y0860902D02*
X0914960Y0861060D01*
X0914966Y0861218D01*
X0914976Y0861376D01*
X0914990Y0861534D01*
X0915008Y0861691D01*
X0915029Y0861848D01*
X0915055Y0862004D01*
X0915085Y0862160D01*
X0915118Y0862315D01*
X0915156Y0862468D01*
X0915197Y0862621D01*
X0915242Y0862773D01*
X0915291Y0862924D01*
X0915344Y0863073D01*
X0915400Y0863221D01*
X0915460Y0863367D01*
X0915524Y0863512D01*
X0915592Y0863655D01*
X0915663Y0863797D01*
X0915737Y0863937D01*
X0915815Y0864074D01*
X0915897Y0864210D01*
X0915981Y0864344D01*
X0916070Y0864475D01*
X0916161Y0864604D01*
X0916256Y0864731D01*
X0916353Y0864856D01*
X0916454Y0864978D01*
X0916558Y0865097D01*
X0916665Y0865214D01*
X0916775Y0865328D01*
X0916888Y0865439D01*
X0917003Y0865548D01*
X0917121Y0865653D01*
X0917242Y0865755D01*
X0917365Y0865855D01*
X0917491Y0865951D01*
X0917619Y0866044D01*
X0917749Y0866134D01*
X0917882Y0866220D01*
X0918017Y0866304D01*
X0918153Y0866383D01*
X0918292Y0866460D01*
X0918433Y0866532D01*
X0918575Y0866602D01*
X0918719Y0866667D01*
X0918865Y0866729D01*
X0919012Y0866787D01*
X0919161Y0866842D01*
X0919311Y0866893D01*
X0919462Y0866940D01*
X0919614Y0866983D01*
X0919767Y0867022D01*
X0919922Y0867058D01*
X0920077Y0867089D01*
X0920233Y0867117D01*
X0920389Y0867141D01*
X0920546Y0867161D01*
X0920704Y0867177D01*
X0920861Y0867189D01*
X0921020Y0867197D01*
X0921178Y0867201D01*
X0921336Y0867201D01*
X0921494Y0867197D01*
X0921653Y0867189D01*
X0921810Y0867177D01*
X0921968Y0867161D01*
X0922125Y0867141D01*
X0922281Y0867117D01*
X0922437Y0867089D01*
X0922592Y0867058D01*
X0922747Y0867022D01*
X0922900Y0866983D01*
X0923052Y0866940D01*
X0923203Y0866893D01*
X0923353Y0866842D01*
X0923502Y0866787D01*
X0923649Y0866729D01*
X0923795Y0866667D01*
X0923939Y0866602D01*
X0924081Y0866532D01*
X0924222Y0866460D01*
X0924361Y0866383D01*
X0924497Y0866304D01*
X0924632Y0866220D01*
X0924765Y0866134D01*
X0924895Y0866044D01*
X0925023Y0865951D01*
X0925149Y0865855D01*
X0925272Y0865755D01*
X0925393Y0865653D01*
X0925511Y0865548D01*
X0925626Y0865439D01*
X0925739Y0865328D01*
X0925849Y0865214D01*
X0925956Y0865097D01*
X0926060Y0864978D01*
X0926161Y0864856D01*
X0926258Y0864731D01*
X0926353Y0864604D01*
X0926444Y0864475D01*
X0926533Y0864344D01*
X0926617Y0864210D01*
X0926699Y0864074D01*
X0926777Y0863937D01*
X0926851Y0863797D01*
X0926922Y0863655D01*
X0926990Y0863512D01*
X0927054Y0863367D01*
X0927114Y0863221D01*
X0927170Y0863073D01*
X0927223Y0862924D01*
X0927272Y0862773D01*
X0927317Y0862621D01*
X0927358Y0862468D01*
X0927396Y0862315D01*
X0927429Y0862160D01*
X0927459Y0862004D01*
X0927485Y0861848D01*
X0927506Y0861691D01*
X0927524Y0861534D01*
X0927538Y0861376D01*
X0927548Y0861218D01*
X0927554Y0861060D01*
X0927556Y0860902D01*
X0927554Y0860744D01*
X0927548Y0860586D01*
X0927538Y0860428D01*
X0927524Y0860270D01*
X0927506Y0860113D01*
X0927485Y0859956D01*
X0927459Y0859800D01*
X0927429Y0859644D01*
X0927396Y0859489D01*
X0927358Y0859336D01*
X0927317Y0859183D01*
X0927272Y0859031D01*
X0927223Y0858880D01*
X0927170Y0858731D01*
X0927114Y0858583D01*
X0927054Y0858437D01*
X0926990Y0858292D01*
X0926922Y0858149D01*
X0926851Y0858007D01*
X0926777Y0857867D01*
X0926699Y0857730D01*
X0926617Y0857594D01*
X0926533Y0857460D01*
X0926444Y0857329D01*
X0926353Y0857200D01*
X0926258Y0857073D01*
X0926161Y0856948D01*
X0926060Y0856826D01*
X0925956Y0856707D01*
X0925849Y0856590D01*
X0925739Y0856476D01*
X0925626Y0856365D01*
X0925511Y0856256D01*
X0925393Y0856151D01*
X0925272Y0856049D01*
X0925149Y0855949D01*
X0925023Y0855853D01*
X0924895Y0855760D01*
X0924765Y0855670D01*
X0924632Y0855584D01*
X0924497Y0855500D01*
X0924361Y0855421D01*
X0924222Y0855344D01*
X0924081Y0855272D01*
X0923939Y0855202D01*
X0923795Y0855137D01*
X0923649Y0855075D01*
X0923502Y0855017D01*
X0923353Y0854962D01*
X0923203Y0854911D01*
X0923052Y0854864D01*
X0922900Y0854821D01*
X0922747Y0854782D01*
X0922592Y0854746D01*
X0922437Y0854715D01*
X0922281Y0854687D01*
X0922125Y0854663D01*
X0921968Y0854643D01*
X0921810Y0854627D01*
X0921653Y0854615D01*
X0921494Y0854607D01*
X0921336Y0854603D01*
X0921178Y0854603D01*
X0921020Y0854607D01*
X0920861Y0854615D01*
X0920704Y0854627D01*
X0920546Y0854643D01*
X0920389Y0854663D01*
X0920233Y0854687D01*
X0920077Y0854715D01*
X0919922Y0854746D01*
X0919767Y0854782D01*
X0919614Y0854821D01*
X0919462Y0854864D01*
X0919311Y0854911D01*
X0919161Y0854962D01*
X0919012Y0855017D01*
X0918865Y0855075D01*
X0918719Y0855137D01*
X0918575Y0855202D01*
X0918433Y0855272D01*
X0918292Y0855344D01*
X0918153Y0855421D01*
X0918017Y0855500D01*
X0917882Y0855584D01*
X0917749Y0855670D01*
X0917619Y0855760D01*
X0917491Y0855853D01*
X0917365Y0855949D01*
X0917242Y0856049D01*
X0917121Y0856151D01*
X0917003Y0856256D01*
X0916888Y0856365D01*
X0916775Y0856476D01*
X0916665Y0856590D01*
X0916558Y0856707D01*
X0916454Y0856826D01*
X0916353Y0856948D01*
X0916256Y0857073D01*
X0916161Y0857200D01*
X0916070Y0857329D01*
X0915981Y0857460D01*
X0915897Y0857594D01*
X0915815Y0857730D01*
X0915737Y0857867D01*
X0915663Y0858007D01*
X0915592Y0858149D01*
X0915524Y0858292D01*
X0915460Y0858437D01*
X0915400Y0858583D01*
X0915344Y0858731D01*
X0915291Y0858880D01*
X0915242Y0859031D01*
X0915197Y0859183D01*
X0915156Y0859336D01*
X0915118Y0859489D01*
X0915085Y0859644D01*
X0915055Y0859800D01*
X0915029Y0859956D01*
X0915008Y0860113D01*
X0914990Y0860270D01*
X0914976Y0860428D01*
X0914966Y0860586D01*
X0914960Y0860744D01*
X0914958Y0860902D01*
X0909446Y0038067D02*
X0909450Y0038357D01*
X0909460Y0038647D01*
X0909478Y0038936D01*
X0909503Y0039225D01*
X0909535Y0039513D01*
X0909574Y0039800D01*
X0909620Y0040086D01*
X0909673Y0040371D01*
X0909733Y0040655D01*
X0909800Y0040937D01*
X0909874Y0041217D01*
X0909955Y0041496D01*
X0910042Y0041772D01*
X0910136Y0042046D01*
X0910237Y0042318D01*
X0910345Y0042587D01*
X0910459Y0042853D01*
X0910580Y0043117D01*
X0910707Y0043377D01*
X0910841Y0043635D01*
X0910980Y0043889D01*
X0911126Y0044139D01*
X0911278Y0044386D01*
X0911437Y0044629D01*
X0911601Y0044868D01*
X0911770Y0045103D01*
X0911946Y0045334D01*
X0912127Y0045560D01*
X0912314Y0045782D01*
X0912506Y0045999D01*
X0912703Y0046211D01*
X0912905Y0046419D01*
X0913113Y0046621D01*
X0913325Y0046818D01*
X0913542Y0047010D01*
X0913764Y0047197D01*
X0913990Y0047378D01*
X0914221Y0047554D01*
X0914456Y0047723D01*
X0914695Y0047887D01*
X0914938Y0048046D01*
X0915185Y0048198D01*
X0915435Y0048344D01*
X0915689Y0048483D01*
X0915947Y0048617D01*
X0916207Y0048744D01*
X0916471Y0048865D01*
X0916737Y0048979D01*
X0917006Y0049087D01*
X0917278Y0049188D01*
X0917552Y0049282D01*
X0917828Y0049369D01*
X0918107Y0049450D01*
X0918387Y0049524D01*
X0918669Y0049591D01*
X0918953Y0049651D01*
X0919238Y0049704D01*
X0919524Y0049750D01*
X0919811Y0049789D01*
X0920099Y0049821D01*
X0920388Y0049846D01*
X0920677Y0049864D01*
X0920967Y0049874D01*
X0921257Y0049878D01*
X0921547Y0049874D01*
X0921837Y0049864D01*
X0922126Y0049846D01*
X0922415Y0049821D01*
X0922703Y0049789D01*
X0922990Y0049750D01*
X0923276Y0049704D01*
X0923561Y0049651D01*
X0923845Y0049591D01*
X0924127Y0049524D01*
X0924407Y0049450D01*
X0924686Y0049369D01*
X0924962Y0049282D01*
X0925236Y0049188D01*
X0925508Y0049087D01*
X0925777Y0048979D01*
X0926043Y0048865D01*
X0926307Y0048744D01*
X0926567Y0048617D01*
X0926825Y0048483D01*
X0927079Y0048344D01*
X0927329Y0048198D01*
X0927576Y0048046D01*
X0927819Y0047887D01*
X0928058Y0047723D01*
X0928293Y0047554D01*
X0928524Y0047378D01*
X0928750Y0047197D01*
X0928972Y0047010D01*
X0929189Y0046818D01*
X0929401Y0046621D01*
X0929609Y0046419D01*
X0929811Y0046211D01*
X0930008Y0045999D01*
X0930200Y0045782D01*
X0930387Y0045560D01*
X0930568Y0045334D01*
X0930744Y0045103D01*
X0930913Y0044868D01*
X0931077Y0044629D01*
X0931236Y0044386D01*
X0931388Y0044139D01*
X0931534Y0043889D01*
X0931673Y0043635D01*
X0931807Y0043377D01*
X0931934Y0043117D01*
X0932055Y0042853D01*
X0932169Y0042587D01*
X0932277Y0042318D01*
X0932378Y0042046D01*
X0932472Y0041772D01*
X0932559Y0041496D01*
X0932640Y0041217D01*
X0932714Y0040937D01*
X0932781Y0040655D01*
X0932841Y0040371D01*
X0932894Y0040086D01*
X0932940Y0039800D01*
X0932979Y0039513D01*
X0933011Y0039225D01*
X0933036Y0038936D01*
X0933054Y0038647D01*
X0933064Y0038357D01*
X0933068Y0038067D01*
X0933064Y0037777D01*
X0933054Y0037487D01*
X0933036Y0037198D01*
X0933011Y0036909D01*
X0932979Y0036621D01*
X0932940Y0036334D01*
X0932894Y0036048D01*
X0932841Y0035763D01*
X0932781Y0035479D01*
X0932714Y0035197D01*
X0932640Y0034917D01*
X0932559Y0034638D01*
X0932472Y0034362D01*
X0932378Y0034088D01*
X0932277Y0033816D01*
X0932169Y0033547D01*
X0932055Y0033281D01*
X0931934Y0033017D01*
X0931807Y0032757D01*
X0931673Y0032499D01*
X0931534Y0032245D01*
X0931388Y0031995D01*
X0931236Y0031748D01*
X0931077Y0031505D01*
X0930913Y0031266D01*
X0930744Y0031031D01*
X0930568Y0030800D01*
X0930387Y0030574D01*
X0930200Y0030352D01*
X0930008Y0030135D01*
X0929811Y0029923D01*
X0929609Y0029715D01*
X0929401Y0029513D01*
X0929189Y0029316D01*
X0928972Y0029124D01*
X0928750Y0028937D01*
X0928524Y0028756D01*
X0928293Y0028580D01*
X0928058Y0028411D01*
X0927819Y0028247D01*
X0927576Y0028088D01*
X0927329Y0027936D01*
X0927079Y0027790D01*
X0926825Y0027651D01*
X0926567Y0027517D01*
X0926307Y0027390D01*
X0926043Y0027269D01*
X0925777Y0027155D01*
X0925508Y0027047D01*
X0925236Y0026946D01*
X0924962Y0026852D01*
X0924686Y0026765D01*
X0924407Y0026684D01*
X0924127Y0026610D01*
X0923845Y0026543D01*
X0923561Y0026483D01*
X0923276Y0026430D01*
X0922990Y0026384D01*
X0922703Y0026345D01*
X0922415Y0026313D01*
X0922126Y0026288D01*
X0921837Y0026270D01*
X0921547Y0026260D01*
X0921257Y0026256D01*
X0920967Y0026260D01*
X0920677Y0026270D01*
X0920388Y0026288D01*
X0920099Y0026313D01*
X0919811Y0026345D01*
X0919524Y0026384D01*
X0919238Y0026430D01*
X0918953Y0026483D01*
X0918669Y0026543D01*
X0918387Y0026610D01*
X0918107Y0026684D01*
X0917828Y0026765D01*
X0917552Y0026852D01*
X0917278Y0026946D01*
X0917006Y0027047D01*
X0916737Y0027155D01*
X0916471Y0027269D01*
X0916207Y0027390D01*
X0915947Y0027517D01*
X0915689Y0027651D01*
X0915435Y0027790D01*
X0915185Y0027936D01*
X0914938Y0028088D01*
X0914695Y0028247D01*
X0914456Y0028411D01*
X0914221Y0028580D01*
X0913990Y0028756D01*
X0913764Y0028937D01*
X0913542Y0029124D01*
X0913325Y0029316D01*
X0913113Y0029513D01*
X0912905Y0029715D01*
X0912703Y0029923D01*
X0912506Y0030135D01*
X0912314Y0030352D01*
X0912127Y0030574D01*
X0911946Y0030800D01*
X0911770Y0031031D01*
X0911601Y0031266D01*
X0911437Y0031505D01*
X0911278Y0031748D01*
X0911126Y0031995D01*
X0910980Y0032245D01*
X0910841Y0032499D01*
X0910707Y0032757D01*
X0910580Y0033017D01*
X0910459Y0033281D01*
X0910345Y0033547D01*
X0910237Y0033816D01*
X0910136Y0034088D01*
X0910042Y0034362D01*
X0909955Y0034638D01*
X0909874Y0034917D01*
X0909800Y0035197D01*
X0909733Y0035479D01*
X0909673Y0035763D01*
X0909620Y0036048D01*
X0909574Y0036334D01*
X0909535Y0036621D01*
X0909503Y0036909D01*
X0909478Y0037198D01*
X0909460Y0037487D01*
X0909450Y0037777D01*
X0909446Y0038067D01*
X0914958Y0038067D02*
X0914960Y0038225D01*
X0914966Y0038383D01*
X0914976Y0038541D01*
X0914990Y0038699D01*
X0915008Y0038856D01*
X0915029Y0039013D01*
X0915055Y0039169D01*
X0915085Y0039325D01*
X0915118Y0039480D01*
X0915156Y0039633D01*
X0915197Y0039786D01*
X0915242Y0039938D01*
X0915291Y0040089D01*
X0915344Y0040238D01*
X0915400Y0040386D01*
X0915460Y0040532D01*
X0915524Y0040677D01*
X0915592Y0040820D01*
X0915663Y0040962D01*
X0915737Y0041102D01*
X0915815Y0041239D01*
X0915897Y0041375D01*
X0915981Y0041509D01*
X0916070Y0041640D01*
X0916161Y0041769D01*
X0916256Y0041896D01*
X0916353Y0042021D01*
X0916454Y0042143D01*
X0916558Y0042262D01*
X0916665Y0042379D01*
X0916775Y0042493D01*
X0916888Y0042604D01*
X0917003Y0042713D01*
X0917121Y0042818D01*
X0917242Y0042920D01*
X0917365Y0043020D01*
X0917491Y0043116D01*
X0917619Y0043209D01*
X0917749Y0043299D01*
X0917882Y0043385D01*
X0918017Y0043469D01*
X0918153Y0043548D01*
X0918292Y0043625D01*
X0918433Y0043697D01*
X0918575Y0043767D01*
X0918719Y0043832D01*
X0918865Y0043894D01*
X0919012Y0043952D01*
X0919161Y0044007D01*
X0919311Y0044058D01*
X0919462Y0044105D01*
X0919614Y0044148D01*
X0919767Y0044187D01*
X0919922Y0044223D01*
X0920077Y0044254D01*
X0920233Y0044282D01*
X0920389Y0044306D01*
X0920546Y0044326D01*
X0920704Y0044342D01*
X0920861Y0044354D01*
X0921020Y0044362D01*
X0921178Y0044366D01*
X0921336Y0044366D01*
X0921494Y0044362D01*
X0921653Y0044354D01*
X0921810Y0044342D01*
X0921968Y0044326D01*
X0922125Y0044306D01*
X0922281Y0044282D01*
X0922437Y0044254D01*
X0922592Y0044223D01*
X0922747Y0044187D01*
X0922900Y0044148D01*
X0923052Y0044105D01*
X0923203Y0044058D01*
X0923353Y0044007D01*
X0923502Y0043952D01*
X0923649Y0043894D01*
X0923795Y0043832D01*
X0923939Y0043767D01*
X0924081Y0043697D01*
X0924222Y0043625D01*
X0924361Y0043548D01*
X0924497Y0043469D01*
X0924632Y0043385D01*
X0924765Y0043299D01*
X0924895Y0043209D01*
X0925023Y0043116D01*
X0925149Y0043020D01*
X0925272Y0042920D01*
X0925393Y0042818D01*
X0925511Y0042713D01*
X0925626Y0042604D01*
X0925739Y0042493D01*
X0925849Y0042379D01*
X0925956Y0042262D01*
X0926060Y0042143D01*
X0926161Y0042021D01*
X0926258Y0041896D01*
X0926353Y0041769D01*
X0926444Y0041640D01*
X0926533Y0041509D01*
X0926617Y0041375D01*
X0926699Y0041239D01*
X0926777Y0041102D01*
X0926851Y0040962D01*
X0926922Y0040820D01*
X0926990Y0040677D01*
X0927054Y0040532D01*
X0927114Y0040386D01*
X0927170Y0040238D01*
X0927223Y0040089D01*
X0927272Y0039938D01*
X0927317Y0039786D01*
X0927358Y0039633D01*
X0927396Y0039480D01*
X0927429Y0039325D01*
X0927459Y0039169D01*
X0927485Y0039013D01*
X0927506Y0038856D01*
X0927524Y0038699D01*
X0927538Y0038541D01*
X0927548Y0038383D01*
X0927554Y0038225D01*
X0927556Y0038067D01*
X0927554Y0037909D01*
X0927548Y0037751D01*
X0927538Y0037593D01*
X0927524Y0037435D01*
X0927506Y0037278D01*
X0927485Y0037121D01*
X0927459Y0036965D01*
X0927429Y0036809D01*
X0927396Y0036654D01*
X0927358Y0036501D01*
X0927317Y0036348D01*
X0927272Y0036196D01*
X0927223Y0036045D01*
X0927170Y0035896D01*
X0927114Y0035748D01*
X0927054Y0035602D01*
X0926990Y0035457D01*
X0926922Y0035314D01*
X0926851Y0035172D01*
X0926777Y0035032D01*
X0926699Y0034895D01*
X0926617Y0034759D01*
X0926533Y0034625D01*
X0926444Y0034494D01*
X0926353Y0034365D01*
X0926258Y0034238D01*
X0926161Y0034113D01*
X0926060Y0033991D01*
X0925956Y0033872D01*
X0925849Y0033755D01*
X0925739Y0033641D01*
X0925626Y0033530D01*
X0925511Y0033421D01*
X0925393Y0033316D01*
X0925272Y0033214D01*
X0925149Y0033114D01*
X0925023Y0033018D01*
X0924895Y0032925D01*
X0924765Y0032835D01*
X0924632Y0032749D01*
X0924497Y0032665D01*
X0924361Y0032586D01*
X0924222Y0032509D01*
X0924081Y0032437D01*
X0923939Y0032367D01*
X0923795Y0032302D01*
X0923649Y0032240D01*
X0923502Y0032182D01*
X0923353Y0032127D01*
X0923203Y0032076D01*
X0923052Y0032029D01*
X0922900Y0031986D01*
X0922747Y0031947D01*
X0922592Y0031911D01*
X0922437Y0031880D01*
X0922281Y0031852D01*
X0922125Y0031828D01*
X0921968Y0031808D01*
X0921810Y0031792D01*
X0921653Y0031780D01*
X0921494Y0031772D01*
X0921336Y0031768D01*
X0921178Y0031768D01*
X0921020Y0031772D01*
X0920861Y0031780D01*
X0920704Y0031792D01*
X0920546Y0031808D01*
X0920389Y0031828D01*
X0920233Y0031852D01*
X0920077Y0031880D01*
X0919922Y0031911D01*
X0919767Y0031947D01*
X0919614Y0031986D01*
X0919462Y0032029D01*
X0919311Y0032076D01*
X0919161Y0032127D01*
X0919012Y0032182D01*
X0918865Y0032240D01*
X0918719Y0032302D01*
X0918575Y0032367D01*
X0918433Y0032437D01*
X0918292Y0032509D01*
X0918153Y0032586D01*
X0918017Y0032665D01*
X0917882Y0032749D01*
X0917749Y0032835D01*
X0917619Y0032925D01*
X0917491Y0033018D01*
X0917365Y0033114D01*
X0917242Y0033214D01*
X0917121Y0033316D01*
X0917003Y0033421D01*
X0916888Y0033530D01*
X0916775Y0033641D01*
X0916665Y0033755D01*
X0916558Y0033872D01*
X0916454Y0033991D01*
X0916353Y0034113D01*
X0916256Y0034238D01*
X0916161Y0034365D01*
X0916070Y0034494D01*
X0915981Y0034625D01*
X0915897Y0034759D01*
X0915815Y0034895D01*
X0915737Y0035032D01*
X0915663Y0035172D01*
X0915592Y0035314D01*
X0915524Y0035457D01*
X0915460Y0035602D01*
X0915400Y0035748D01*
X0915344Y0035896D01*
X0915291Y0036045D01*
X0915242Y0036196D01*
X0915197Y0036348D01*
X0915156Y0036501D01*
X0915118Y0036654D01*
X0915085Y0036809D01*
X0915055Y0036965D01*
X0915029Y0037121D01*
X0915008Y0037278D01*
X0914990Y0037435D01*
X0914976Y0037593D01*
X0914966Y0037751D01*
X0914960Y0037909D01*
X0914958Y0038067D01*
D11*
X0921257Y0038067D03*
X0098422Y0038067D03*
X0098422Y0860902D03*
X0076768Y0951453D03*
X0921257Y0860902D03*
D12*
X0921257Y0860902D03*
X0509839Y0528224D03*
X0509839Y0366807D03*
X0098422Y0038067D03*
X0921257Y0038067D03*
X0098422Y0860902D03*
D13*
X0003934Y0908146D02*
X0003934Y0014445D01*
X0019682Y-0001303D01*
X0988186Y-0001303D01*
X1003934Y0014445D01*
X1003934Y0908146D01*
X0988186Y0923894D01*
X0137792Y0923894D01*
X0133855Y0927831D01*
X0133855Y0976650D01*
X0129918Y0980587D01*
X0023619Y0980587D01*
X0019682Y0976650D01*
X0019682Y0923894D01*
X0003934Y0908146D01*
M02*
